<mxfile host="app.diagrams.net" modified="2023-04-16T02:49:17.594Z" agent="Mozilla/5.0 (Windows NT 10.0; Win64; x64) AppleWebKit/537.36 (KHTML, like Gecko) Chrome/112.0.0.0 Safari/537.36" etag="HyGNEct23wn50f4Wrb9H" version="21.1.2" type="github">
  <diagram name="第 1 页" id="3xY0vTypvG22NnYNbgBx">
    <mxGraphModel dx="1562" dy="829" grid="1" gridSize="10" guides="1" tooltips="1" connect="1" arrows="1" fold="1" page="1" pageScale="1" pageWidth="827" pageHeight="1169" math="0" shadow="0">
      <root>
        <mxCell id="0" />
        <mxCell id="1" parent="0" />
        <mxCell id="S3IF-YHT1b58QMX8-Q93-1" value="&lt;font style=&quot;font-size: 40px;&quot;&gt;&amp;nbsp;1 3 4 5 6 7&amp;nbsp;&amp;nbsp;&lt;/font&gt;" style="text;html=1;strokeColor=none;fillColor=none;align=center;verticalAlign=middle;whiteSpace=wrap;rounded=0;" vertex="1" parent="1">
          <mxGeometry x="170" y="90" width="380" height="30" as="geometry" />
        </mxCell>
        <mxCell id="S3IF-YHT1b58QMX8-Q93-2" value="&lt;font style=&quot;font-size: 25px;&quot;&gt;12&lt;/font&gt;" style="text;html=1;strokeColor=none;fillColor=none;align=center;verticalAlign=middle;whiteSpace=wrap;rounded=0;" vertex="1" parent="1">
          <mxGeometry x="570" y="90" width="60" height="30" as="geometry" />
        </mxCell>
        <mxCell id="S3IF-YHT1b58QMX8-Q93-5" value="求出所有子集" style="rounded=1;whiteSpace=wrap;html=1;" vertex="1" parent="1">
          <mxGeometry x="350" y="360" width="120" height="60" as="geometry" />
        </mxCell>
        <mxCell id="S3IF-YHT1b58QMX8-Q93-6" value="然后每个子集求和" style="rounded=1;whiteSpace=wrap;html=1;" vertex="1" parent="1">
          <mxGeometry x="350" y="450" width="120" height="60" as="geometry" />
        </mxCell>
        <mxCell id="S3IF-YHT1b58QMX8-Q93-7" value="判断是否== 12" style="rounded=1;whiteSpace=wrap;html=1;" vertex="1" parent="1">
          <mxGeometry x="350" y="555" width="120" height="60" as="geometry" />
        </mxCell>
        <mxCell id="S3IF-YHT1b58QMX8-Q93-8" value="计算个数并返回" style="rounded=0;whiteSpace=wrap;html=1;" vertex="1" parent="1">
          <mxGeometry x="350" y="660" width="120" height="60" as="geometry" />
        </mxCell>
        <mxCell id="S3IF-YHT1b58QMX8-Q93-9" value="&lt;font style=&quot;font-size: 20px;&quot;&gt;数字可以使用n次，这样就不好搞了呀&lt;/font&gt;" style="text;html=1;strokeColor=none;fillColor=none;align=center;verticalAlign=middle;whiteSpace=wrap;rounded=0;" vertex="1" parent="1">
          <mxGeometry x="110" y="230" width="260" height="30" as="geometry" />
        </mxCell>
        <mxCell id="S3IF-YHT1b58QMX8-Q93-10" value="" style="shape=image;verticalLabelPosition=bottom;labelBackgroundColor=default;verticalAlign=top;aspect=fixed;imageAspect=0;image=data:image/png,iVBORw0KGgoAAAANSUhEUgAABDoAAAInCAYAAAB5tTnGAAAgAElEQVR4nOzdd3hUZeL28e9k0kgIJYSa0EGKoUhoQpDeEaSotFURRHFdFBWlqazs4q5id/0hoqggPUgEQgKRjvQQuvQUeggEUiczc877B6vv7tolcCbJ/bkuLg2ZzNzAlHPu8xSbaZomIiIiIiIiIiJFgJfVAURERERERERECoqKDhEREREREREpMlR0iIiIiIiIiEiRoaJDRERERERERIoMFR0iIiIiIiIiUmSo6BARERERERGRIkNFh4iIiIiIiIgUGSo6RERERERERKTIUNEhIiIiIiIiIkWGig4RERERERERKTJUdIiIiIiIiIhIkaGiQ0RERERERESKDBUdIiIiIiIiIlJkqOgQERERERERkSJDRYeIiIiIiIiIFBkqOkRERERERESkyFDRISIiIiIiIiJFhooOERERERERESkyVHSIiIiIiIiISJGhokNEREREREREigwVHSIiIiIiIiJSZKjoEBEREREREZEiQ0WHiIiIiIiIiBQZKjpEREREREREpMhQ0SEiIiIiIiIiRYaKDhEREREREREpMlR0iIiIiIiIiEiRoaJDRERERERERIoMFR0iIiIiIiIiUmSo6BARERERERGRIsPb6gAiIiIiUjAME65mG1zNNsnMNcnNh3y3iWGAzQY+dvD3tRHkZ6NMoI3gQC98dDQoIiJFjD7aRERERAoxw4S06wYnL7lJTjM4e9Xg0nWDjByTrDyTPCe4DRMvG/h62wj0s1EmwEZIkBdVynpRPcSLWhVu/L+P3Wb1H0dEROSm2UzTNK0OISIiIiK/j2HAmasGu065OHTGRfJlg4vXDJzu334fXjYoF+RFtXI26lW207K2D7Ur2PHVpTARESnEVHSIiIiIFDIZOSYbjjjZesxJUppBZp7JzR7RBfjaqFLWi+a1vOneyIfKZbywaYCHiIgUQio6RERERAoJ04STl9zM2+rg0Bl3gRQc/yvA10b1EC8G3+1Hi1re2LV0vYiIFDIqOkREREQKie3HnXwY7+ByloHbuHWPY7NBoJ+NQS19GdzaTyM7RESkUFHRISIiIlIIrE7M5701eRi3+citeyMfnu5RQiM7RESk0NBSUyIiIiIezOmCVfvymbXu9pccAGsPOjGAMZ39CfTT0A4REfF86uZFREREPJTTbbL+iJMvtzhu6VSVX2KYsPk7F/O/dZDt0EBgERHxfCo6RERERDyQYcL+FDeLtju4nmdtwZDnNPnmkJNvDjnJd6nsEBERz6aiQ0RERMQDnbtqEJ2Qz/kMi4Zy/I+MbJO4/fkcPusu8J1eRERECpKKDhEREREPk+c02fidk8Nn3JZNWflfJpB82WDdISfpWR4SSkRE5Ceo6BARERHxMCcuGuw44SLT4ikr/8vphoQkF/tT3BjqOkRExEOp6BARERHxIDn5JnuTXJxOc1sd5SelZ5nsPu0iLVNNh4iIeCYVHSIiIiIe5NxVg30pLvJdVif5aYYJickuktNVdIiIiGdS0SEiIiLiIQwTUtMNjp33zNEc37uSbXL0nFvbzYqIiEdS0SEiIiLiITJzTb4758bhoaM5vmeacOiMi4xsFR0iIuJ5vK0OICIiIiI3XM81OXHx5kdz+NghJOjH17MME9KzDFwFMGDk5CWDa7kmoTd/VyIiIgVKRYeIiIiIh8jKM0m9cvNrX1QrZ2fqwBLY/v213ctGSX+4lmsyaVEOKQWwvsb1XJML1wzuqGzHW2OERUTEg6joEBEREfEAhgkZOQbXc25+OsjF6wYfr3P88HWlMja6hvuQkm4U6LoaZ68YOF0m3r62X7+xiIjIbaKiQ0RERMQDuNwml7NMCqKGyMoz2XTUCYAN6NDABy8vG3tOu8jMK7iiIz3TwKXNV0RExMNooKGIiIiIB3AbNxYjLWgl/W3Ur2InN9/k5CWjQLetzcwzcavoEBERD6OiQ0RERMQDmEC+q+CLjqrlvKhXxc6hs24uXivYVsLhurEDi4iIiCdR0SEiIiLiMQp2rQsfO9SuYKdsgI3vzrm5fgtGjIiIiHgaFR0iIiIiHsDLBv4+BXuf5Up60aiqnbNXDZLS3BgF3HOU8L2RW0RExJOo6BARERHxAHabjdIlCrY1qFTGRnhVO8fOuzlTANvW/q8gfxteOpoUEREPo48mEREREQ/gbYeQIK8Cm7wS4GejUVVvcvLhuwtunO4CuuP/UKGUFz72gr9fERGRm6GiQ0RERMQD2GxQKsBGcMmCOTwr4QOVSntxIMXFiQsF33J42SA02Asfu+auiIiIZ/G2OoCIiIiI3FDS30aNEC/Ss25+mkl6lskbq3ILINVPCw60UaGUF3ZdNhMREQ+jjyYRERERD1G6hI26lQtu+sqtVLeyvcDXFBERESkIKjpEREREPISvl4tSxjlcmcmYxi1YVKOA2L3gzlA7pQNUdIiIiOfR1BURERERi7ndbhITE1m/fj3rN+/kEo0pHzECb78gq6P9pCplvahbyY6/r4oOERHxPCo6RERERCySm5vLpk2bWLlyJYmJiRiGQZs2bWhZJ5K9mX7keuCgDkfmBapWyqdyUG1sOpQUEREPpE8nERERkdvs8uXLxMbGsnTpUg4fPkxoaCiDBg2iffv2hIWFkeEqTe4GJ3uTXVZH/S+maXD11GYWrPiE7EPteOyxUdSuXRsvL82GFhERz2EzTdO0OoSIiIhIUWeaJikpKSxatIioqCjOnj1Lq1atGDFiBBEREZQpU4YSJUoA4DZg5d58FmxzcDXbcw7VfO1wd9gV7KlRfDn3c1wuFyNHjuSJJ54gMDDQ6ngiIiKAig4RERGRW8owDI4fP86HH35IVFQUbrebvn37MmbMGOrVq4efn99PjojIzDN5f00eW446cd/8brMF4s4wO3/p6k/VYJPU1FTeffddPv/8cypWrMi0adMYOHCgRneIiIjlVHSIiIiIFDCXy4XD4SAhIYEPPviANWvWUL58eYYOHcpDDz1EzZo1sdl+fSHPkxfdvL06jxOX3Fh9xFaxtBeP3uNHh4Y+//X7+/fv55VXXuGbb76hZcuWTJkyhVatWv1sgSMiInKrqegQERERKQCGYZCdnU1aWhobNmxg/vz5HD58mLp16zJ8+HDuu+8+ypcv/7vvd9txF7PW53HuqnXDOkoH2BjQ3I8HWvvi9TP9TGxsLDNmzOD06dN06tSJRx99lIYNGxIUFKTCQ0REbisVHSIiIiI3weVykZaWxokTJ1i/fj1xcXHk5OQQHh7O/fffT7du3fD397+px4g/mM/crflcyLj9ZUepEjZ6N/VhaFs/fO2/PAolMzOTRYsWsWDBAq5fv06PHj3o06cPDRs2pGTJkr9pFIuIiMjNUtEhIiIi8gc4nU5OnjxJYmIiGzduZN++fZQsWZLWrVvTs2dPWrRogbd3wWxwZ5qw8bt8Fu/I59Ql4zZMYzExXPlUCvanV1NfBrbwxdf7t5UUhmGQkpLC0qVLWb16NW63m549e9KlSxcaN26Mj4/Pr9+JiIjITVDRISIiIvI75ObmsnfvXrZt28a3337LhQsXqFWrFpGRkbRv357atWvfspP5vUkuohPySUhy4XDekocAID/rIuf3LuGZkf14rF9D7D83X+UXOJ1ODh48yMqVK4mPj8fPz4+ePXvSrVs3GjRooOksIiJyy6joEBEREfkN0tLS2Lp1K+vXr2f37t14e3tz991307ZtW+666y6qVKlyy0/eTRPOXDFYdyiP1d+eIjUtl8DydbHZCu5xgwNtNKmQzuIZf6LhHdWZNWsWAQEBf/j+cnJy2Lt3L3FxccTExFC+fHl69+5Nnz59qFGjRoHlFhER+Z6KDhEREZGf8f00jNjYWOLj4zlx4gTVq1enZ8+eNGvWjDp16hAcHHxbM5nAsZOpTJw6g4v5IYTd/QQZDr+bvt+SfjaaVrfTrr4P4aFebF63kifHPMGzzz7L+PHjb/r+r127xv79+1mxYgVr1qyhWrVqDBw4kN69exMSEnLT9y8iIvI9FR0iIiIi/8PlcnHs2DEWLFhAfHw8WVlZtGrViv79+9OwYUOqVKmCn9/Nlwt/NNvKlSv529/+xugnn6F15wfYk2Sy7biT1CsGxu84srPZoFxJGy1re9O6tje1KtgpG+iFtx0cDgf/+Mc/mDlzJnPnzqVLly4Fkv/KlSscOHCAefPmsXnzZu68804ee+wx2rdvT4kSJQrkMUREpHhT0SEiIiLyH7Zt28ZHH33EN998Q1BQEP3792fgwIHUqlWLoKAg7Ha7pfnOnTvHU089RUBAAO+99x5lygbjcJrkOuFsupsDZ1wcPW9w5opB2nUTh+v/H+p5e92YmhIa7EWdinburGqnTgVvAvzA38eG/X9mwGRmZtKvXz9ycnKIiooiNDS0QP4MhmGQkZHBzp07ef/999m/fz+dO3fmhRdeoH79+lq/Q0REboqKDhERESn28vPzWbFiBW+99Ra7du2iVq1ajB07lkGDBhESEoLNZvOIrVHdbjfLly9n0qRJvP766/Tr1++/vm9yYx0PzBv/b5gm+S5wusDuBX4+/LCwqM3271+/8phJSUm0b9+eHj168OGHHxZo0WOaJtnZ2SxfvpzXXnuNM2fO8MQTTzBlyhSCgoIK7HFERKR4UdEhIiIixY5hGDgcDi5evMjXX3/NJ598QmpqKs2aNePJJ5+kT58++Pr6Wh3zR9LT0+nXrx+1atVi9uzZtyWjYRgsWLCAl19+mUmTJvHII4/cklEtly9f5qOPPmLmzJkAvPjiiwwZMoRSpUppS1oREfldVHSIiIhIseFyuUhPT+f48eOsXLmS2NhYHA4H7du356GHHuLuu+/2iJEbP2fmzJnMmDGDTz/9lHvuuee2PW5GRgZTpkxh//79zJgxgxYtWtyyv6dTp07x5ptvEhcXR5UqVXj88cfp0KED5cuX98jySUREPI+KDhERESny8vLyOH36NAcPHmTVqlXs37+fsmXL0qFDBwYMGEC9evXw9va2OuYvOn/+PB07dqRLly689957t3UdC9M0OXz4MOPGjaNq1ar89a9/JSws7JY+5rZt25g1axaJiYnUrVuXBx54gLvvvptKlSpZvk6KiIh4NhUdIiIiUmSlp6dz+PBhdu3axTfffENaWhr16tWjQ4cOdO7cmWrVqhWKhS8Nw2Dy5MksXryYFStW0LBhw9ueIT8/n5UrV/Lmm28ycOBARo0aRalSpW7pY2ZlZREfH09UVBTHjx+nSZMm9O7dm7Zt2xIcHOzRo29ERMQ6KjpERESkSDEMgzNnzrBjxw62bt3Knj178PHxoVWrVrRr146WLVsSEhJidczfZe/evfTq1YunnnqKyZMnW5YjPT2dDz74gPXr1zNhwgQ6d+58y9fPME2TCxcuEB8fz6pVq0hNTaV58+b06tWLDh06WLbNr4iIeC4VHSIiIlIkOJ1Ojh8/ztq1a9myZQtnzpyhRo0a3HPPPTRv3pzw8HBKlChhdczfLT8/n8cff5yEhATi4uKoVKmSpXmOHj3KK6+8gmEYTJ8+nTp16tyWx3W73SQlJbFx40aWL1/OhQsXaNu2LYMGDaJ169aaziIiIj9Q0SEiIiKFmtvtZseOHSxfvpxt27bhdDpp3bo1HTt2JDw8nGrVqhXqXTtiY2MZPXo0r732GsOGDbM6Dm63m3Xr1jF16lQ6derE+PHjb/kUlv+Un5/PyZMn2bx5M1988QV5eXl069aN4cOH06BBA01nERERFR0iIiJSOOXm5hIXF8e8efM4ePAgZcqU4b777qNLly7UqFGDMmXKePwCo78mMzOTESNGkJWVxaJFiyhdurTVkYAbi7v+3//9H7Nnz+af//wnvXr1uu1rneTl5ZGSksKqVauYO3cuPj4+PPDAAwwdOpTKlSvf1iwiIuJZVHSIiIhIoZKWlkZUVBSffvopJ06coEmTJowaNYrOnTtTunRp/P39i8xV/S+//JKXX36ZDz/8kK5du3rUwqnXr1/n8ccf59ChQ6xZs8ayKTV5eXkkJycze/ZslixZQuXKlXn66ae59957CQwMtCSTiIhYS0WHiIiIeDzTNElKSmLOnDl89tlnpKWl0bdvX5577jlatGhRZIqN/5SWlsbIkSMpVaoU7777LuXKlbM60o+cPn2aHj160KhRI5YuXWppFsMw2L9/P9OmTSM2NpbIyEimT5/OXXfd5VEFkYiI3Hp61xcRERGP5HK5uHLlCtu2bePxxx+nY8eOLFy4kPvvv5+9e/cyf/58WrZsWSRLDrfbzbJly0hKSmLkyJGULVvW6kg/qWbNmkyfPp21a9fy4Ycf4na7Lcvi5eVF06ZNWbhwIYsWLcLhcNCjRw9Gjx7NsWPHyMnJQdf3RESKB43oEBEREY+SmZnJxYsXSUhIYMGCBezfv59q1arRt29fBgwYQLVq1YpkufGfjh07xosvvkhYWBhTpkyhYsWKVkf6WaZp8uyzz7Jo0SKWLFlCmzZtPOLfJzMzkwULFjB79mwuX77M0KFDefDBB6lRowZBQUFWxxMRkVtIRYeIiIhYzu12c/nyZU6cOMHmzZuJi4sjPT2d8PBw+vbtS5cuXQgJCbE65m2Rl5fHxx9/zMKFC3n11Vfp1KmTRxQHv+TatWs88MADOJ1OPv30U2rUqGF1pB+cP3+eOXPmEBMTg2ma3HfffXTv3p06deoQEBBgdTwREbkFVHSIiIiIZZxOJ8nJySQkJLB582b27t1LQEAAzZo1o1u3brRp0wZ/f3+rY95W+/fvZ/LkyTRs2JDx48cXmoJn586dPPHEE3Tq1IkpU6ZQpkwZqyP9wDRNDh06xOLFi9m0aRMBAQH06tWLzp07U6dOnUK9/bCIiPyYferUqVOtDiEiIiLFS35+PgkJCSxdupTPP/+c+Ph4/Pz86N27NyNHjmTw4MHUrl270G8P+3tlZmaydOlSDh48yGOPPUaDBg08fjTH9ypWrIi3tzcLFy4kODiY8PBwj1kE1GazUaFCBVq3bk39+vW5du0asbGxbN++naysLCpVqkRQUFCh+bsWEZFfphEdIiIictvk5OSwadMm4uLiSExMxO1207JlSyIjI2natClhYWHFrtz4nmma7N+/n3HjxtG2bVteeOGFQreWxOXLl/nb3/5GYmIi06dPp02bNlZH+klXrlxh9+7drFy5km3btlGtWjX69+9P//79tSWtiEgRUDyPJEREROS2unjxIrGxsXz99dccOXKE0NBQ+vXrR5s2bahVqxbBwcEec/XfKllZWURHR+N2u+nXr1+hKzkAgoODefjhhzl58iRz5swhLCyMatWqWR3rR4KDg+natSuNGzcmMTGRBQsWMG3aNJYvX86IESPo2rUrvr6+VscUEZE/SCM6RERE5JYwDINTp06xZMkSVqxYwfnz52nZsiXDhw+nUaNGlC9fXlfP/+37NSSGDx/OwIEDefHFFwvtiXZ+fj7R0dH84x//4OGHH2bUqFEevejn9wvhJiYm8s4773D06FHuuece/vznPxMREVHsCzgRkcJIRYeIiIgUKJfLxeHDh5k5cyYxMTHYbDb69OnDo48+Su3atQkMDMRut1sd06Pk5+czfvx4duzYwYIFC6hZs6bVkW7K9evXeeutt/j666956623aN++vcevf+F2u7l27Rpr1qxhxowZpKWl8eCDD/LnP/+Z6tWrWx1PRER+BxUdIiIictNM08QwDLZs2cJbb73FmjVrCA0N5dFHH+Whhx4iLCzM6oge7ciRI3Ts2JEJEybwzDPPWB2nQJw8eZLnnnsOu93OW2+9VajKgitXrjB79mzef/99/Pz8eO655xgyZAilS5f2+MJGRERUdIiIiMgfZBgGubm5XL16lbi4OD799FOOHTtG/fr1GTlyJH379iU4ONjqmB7P6XQyZMgQzpw5Q2xsrEdty3qzYmJimDhxIsOGDePPf/5zoZqqZJomx44d47333mPFihXUqFGD559/nrZt21KmTBmNShIR8WAqOkREROR3cblcXL58mVOnTrFmzRpiYmLIzs7mrrvuYtiwYXTu3LnQri9hhbVr1zJo0CBmzpzJkCFDrI5ToFwuF2+++Saffvop7733Ht26dSt0IyLcbjdbt25l5syZ7NixgyZNmjBmzBgaNWpEhQoVtIaHiIgHUtEhIiIiv4nD4SApKYn9+/ezbt069uzZQ8mSJYmMjKRv375EREQUupNYq129epV+/fpRokQJoqOj8ff3tzpSgUtLS2PcuHEkJyfz+eefU6tWLasj/SF5eXnExMQwb948jh07Rps2bRg0aBBNmzalfPnyeu6LiHgQFR0iIiLyi7Kzs9m3bx87d+5k8+bNnD9/npo1a9KuXTs6d+5MzZo18fbWjvV/xMcff8zkyZNZsmQJ7du3tzrOLZOQkMBjjz1GkyZNeOeddyhVqpTVkf6wjIwMli1bxqpVqzh37hxt2rShV69eNG/enNKlS1sdT0REUNEhIiIiP+PChQts376dTZs2sXv3bux2Oy1atCAyMpLmzZtTqVIlDdu/CUlJSQwePJjw8HA++uijIr/mw8KFC/nLX/7ClClT+Mtf/lKonzuGYZCcnMzq1atZs2YNV69epW3btvTt25e77roLPz8/qyOKiBRrKjpERETkB4Zh/LD2xsaNGzlx4gRhYWF069aNiIgI6tevX6QWy7SKYRi89tprzJs3jyVLlhAeHm51pFsuLy+PadOmsWDBAmbNmkWXLl2sjnTTHA4Hx48fJz4+nlWrVpGfn0+nTp0YNmwYderUsTqeiEixpaJDREREcDqdHDp0iKVLl7Jx40ays7Np0aIFffr0oX79+lSrVk1XqQvQ3r17GTNmDD179mTixInFZvHWtLQ0HnnkEfLz8/nkk0+oVq2a1ZEKRFZWFidPnmTVqlVERUXh6+vLoEGDGDFihHYeEhGxgIoOERGRYswwDDZu3Mhnn33G1q1bKVWqFPfeey99+vShZs2alC1btshPqbjdnE4nL730Ehs2bGDOnDnUr1+/WC1kmZiYyJAhQ+jevTv//Oc/i0yBZpomWVlZJCcnM2fOHBYuXEjVqlV56qmnGDhwICVKlLA6oohIsaGiQ0REpBjKy8vjq6++4oMPPuDQoUPUqVOH0aNH07t3b0JCQvD19S1WJ9+308aNG3n++ed56KGHGDVqVLE7AXY6nSxYsIC//vWvvPzyyzz88MNWRypQpmn+sEPR1KlTiYuLo0WLFkycOJF27dpp4V4Rkdug8K4CJSIiIr+ZaZq4XC7OnDnDm2++SaNGjXj00UcJCAhg/vz5bN++ndGjRxMaGoqfn59KjlskOzub6OhogoKC6Ny5c7ErOQB8fHzo1asX3bt3Z86cOSQkJFgdqUDZbDb8/f2pX78+8+bNIyoqCofDwaBBg3j88cc5dOgQLpfL6pgiIkWaRnSIiIgUYS6Xi2vXrnH8+HGWLl3KypUrcTqddOvWjVGjRhEREWF1xGLDMAzWrFnD1KlTGTFiBI888kiRmbbxRxw6dIg33niD1q1b8/DDDxfp0icjI4OoqChmzZpFRkYGQ4cOZciQIVSrVg1/f3+r44mIFDkqOkRERIqg3NxcUlNTOXDgAMuXLycxMZHg4GC6du3Kgw8+SK1atbT2xm2WnZ3N559/zr59+xg3bhz169e3OpLcZklJScydO5fo6GjsdjuPPPIInTt3pnr16sW69BIRKWgqOkRERIqQy5cvc+zYMXbt2kVcXBwXL17kjjvuoGvXrnTr1o3Q0FBNS7FIfn4+V65cwdfXlzJlyuDlpRnExZFhGOzbt48vv/ySdevWERwczNChQ4mMjKRWrVpaw0NEpACo6BARESnk3G43qamp7Nmzh61bt7Jz5068vLxo3bo1HTp0oHXr1triUsTDOJ1OtmzZwldffcX27dupVq0aAwYMoFu3boSEhFgdT0SkUFPRISIiUkjl5+dz9OhR1q9fz9atW0lNTaVatWpERkbSqlUrGjdurOHwUmS43W5M08RutxepUUlZWVls3LiR1atXc/HiRZ566inat2//qz93+fJlUlJSfrSwqbe3N40bN9bIEBEp1lR0iIiIFDJOp5Nvv/2WmJgYdu7cSX5+Pi1atOCee+6hcePG1KhRQyc5UmRcuXKF1atXs2nTJjIzM6latSrPPvssFStWtDpagTEMg0uXLnHq1CmqVKlCjRo1fvVnVq5cyfvvv8+1a9f+6/eDg4NZtmyZFjkVkWJNR0EiIiKFRHZ2NqtXr2bx4sUcOXKE4OBgevXqRfv27alVqxblypXTAqMeJj09nd27d5Oamordbqdx48Y0atQIX19fq6MVCtevX+ezzz7jiy++4I477iAsLIyUlBRyc3OtjlagvLy8qFSpEhUrVuS3XoOMiIjgpZdewul0AjcK0MGDB9O+fXs9v0Sk2FPRISIiYqH09HQ2btzIiRMnKF26NJGRkdx5553/dZuLFy+yZMkS5s6dS1JSEs2aNWPixIm0a9eO4OBgAgICitRQ/qJk1qxZfPDBB5QqVQq4cTI6ZswYRo8eTVBQkMXpPN+ZM2dYtGgR3bp1Y9y4cZQoUQKHw1Fk15yx2Wy/+bVcuXJlKleu/MPXa9euJScnh4cfflgL3YpIsaeiQ0RExCIXL17kwQcfZOfOnVSsWJHs7Gz8/PyYOnUqI0eO/OF2c+fO5V//+hft2rXjww8/5M4778THx0ejNwqBbt26MWDAAMLCwsjIyOCtt95i4cKFtGrVisjISKvjeTSXy8WRI0fIz8+nR48e5Obm4nA4CA0NxcfHx+p4Hmfu3LmEhITQq1cvq6OIiFhOda+IiIhFfH19GTx4MImJiZw6dYojR45Qp04dPvnkE86cOfPD7Xr06MG2bdv47LPPiIiIwN/fXyVHIREREUG9evUIDAykcuXKhIeH43Q6yczMtDqaR3C73Tidzp/9de7cOS5fvsX/lyMAACAASURBVMwrr7xC06ZNadiwIQMHDiQpKcnq6Lecw+EgKyvrJ385HI7/uu3p06fZsGEDI0aM0LQVERE0okNERMQyZcuW5Yknnvjh66CgIDp37kxUVBRpaWmEhYUBEB4eblVEKQBOp5Pjx4+TlJTE119/TfXq1alatarVsSyXnZ3N1q1b2bt3709+v0OHDly7do3Lly/TsWNHPvjgAw4cOMDUqVP58ssvee6554r0gpv/93//x8KFC8nLy/uv3/f29qZ///5MnjwZANM0Wbp0KQ6Hgz/96U9WRBUR8TgqOkRERDxEVlYWCQkJhIaGUq1aNavjyK9wOp0cOHDgR1fXAex2O82aNcPb25tLly4xaNAgcnJy8PX1Zdy4cdSsWdOCxJ4lLy+PgwcPEhcX95Pfr1evHqVLl6Zq1aoMHDiQJk2a0LBhQxYvXszOnTtxOp1FuuiIjIwkODj4R9vHenl5cccdd/zwdUZGBrGxsbRs2VLPKxGRf1PRISIicotcvHiRnTt34na7f/S9KlWq0LBhQ0qWLAlAfn4+Cxcu5ODBg0ydOpVy5crd7rjyO2VlZTFjxgwuXLjwo++VLFmSefPmUapUKcqVK8fMmTM5f/48UVFRLFu2jObNm9OiRQsLUnuOcuXKMW7cOJ5++umf/L5hGERHR+Pr64ufnx9w4yTf19eX7Ozs37w7SWHVvHlzmjdv/qu327RpE8nJyUydOlVT2kRE/k1Fh4iIyC2SmprKnDlzfvKKf5s2bQgLC6NkyZK4XC4WLlzI22+/zSOPPEL//v0tSCu/V2BgIE888cRPbnXq7e1NiRIlAPD39+eee+4BICAggAkTJnDkyBEiIiKK/e4YNpvtZ0/Ovby8qF27Nv7+/mzdupUGDRpw5swZTp8+TceOHbUgKTdGxaxdu5aSJUvStm3bYv98EhH5nooOERGRW6ROnTq88MILGIbxo++VK1eO4OBg3G43ixYt4m9/+xuDBw/mySef/OEEWTybr6/vDwXGzzl+/Dg1a9bE29sbp9NJRkYG+fn5OiH9DWw2GzVr1mTQoEEsX76cw4cPk5aWRunSpenfv78W3QSuXbtGUFAQf/rTnwgJCfnJ23w/okyjPUSkOLGZRX3cn4iIiIcyTZPFixfz97//nXvvvZdnn31WU1aKmMGDB1OiRAmqVq1KdnY2mzZtolSpUrz++utERERYHc/jmaZJWloaO3fuJCUlBT8/P8LDw2nSpEmRXp/jt8rNzeX8+fMEBQVRrly5nyzQ1q9fz6lTp+jZsyeVK1fGZrNZkFRE5PZS0SEiIlJADMPgwoULBAQEUKZMmV+9fXJyMiNGjGDr1q20atXqh5KjSpUqPPbYYzRt2vRWR5ZbbPbs2WzZsuWH7WTr1atH3759adq0qU7UfwfDMHA6nXh5eeHt7a2T9d9h+fLl/POf/6RkyZKMGDGCAQMG6LknIkWeig4REZGb5HQ6SUxMZPbs2aSkpDBp0iTatWv3qz938eJFvvjiC86dO/dfw8rLly/PfffdR7169W5lbLkN8vLyyMnJweVyYbPZ8Pf3JyAgQNMI5LbJyclh7969/Otf/2Lz5s2Eh4czZcoU2rZta3U0EZFbRkWHiIjIH2SaJmvXruXdd99lw4YNVK9enTFjxjBkyJCfnS//vz//U+t3wI2FGHXVWkQKgmmauFwu1q1bx5QpU9i3bx+DBg3i1VdfpU6dOlbHExEpcCo6REREfiPTNHE4HFy7do3o6GhmzpzJqVOnaNSoEWPGjKFPnz6UKlXK6pgiRd73h68qA38/l8vF3Llzee2118jJyWHEiBGMHDmSKlWqaIFXESkyVHSIiIj8iu93yzh9+jQrVqwgOjqanJwcWrVqxYgRI+jQoQPe3trITOR2uXTpEqdPn6ZmzZpUqFDB6jiFUnp6Oh9++CGLFi0iMDCQhx56iJ49exIaGoqfn5/V8UREboqKDhERkZ+Rl5dHamoqBw4cIC4ujl27dhEYGEiHDh0YNGgQTZo0sTqiWMzhcJCcnIyPjw/VqlXT2hu3SUJCAsOHD6dt27a89dZbBAUFWR2pUHK73Rw+fJg5c+awYcMGKleuzIMPPkhkZCTVq1fX81lECi371KlTp1odQkRExJNkZWWxZ88eVq5cyezZs4mNjaVEiRIMHDiQ8ePH069fPypXrmx1TLGYaZocPXqUV199FYfDwV133aUTw9ukcuXKBAUF8d5771GhQgWaNGnyk1uryi/z8vKiYsWKtGvXjoYNG3L27FmWL1/Ovn37MAyDsmXLajqeiBRKGtEhIiLyb+fOnWPnzp18++237Ny5E4DmzZsTGRlJ69atqVixotYEkB/k5OTw5ptvEhsby7vvvkvz5s2tjlSs5OfnM3HiRGJiYpg5cybt27e3OlKhd+XKFTZv3szXX39NQkICTZs2pXfv3nTo0OE3LbAsIuIpVHSIiEix5na7OXHiBOvWrWPz5s0cP36cKlWq0KlTJ1q0aMGdd95J6dKlrY4pHmjfvn2MGDGCAQMG8MILL2ghRwucO3eO0aNHY7fbeeedd6hZs6bVkYqEc+fOsWXLFqKjozl06BAtW7ZkwIABtGvXjsDAQKvjiYj8KhUdIiJSLDkcDvbv3090dDRbt24lOzubiIgIunXrRsOGDalZs6ZOXOVnmabJU089xZ49e5g/fz61atWyOlKxZJomW7ZsYezYsfTq1YtJkybpRLyAmKZJcnIy27ZtY/HixaSkpNC2bVuGDx/OXXfdhY+Pj9URRUR+looOEREpVpxOJ9988w0LFy5k165dBAUF0bt3b7p06UKtWrUICQnROgvyq/bs2UO/fv2YMGECTz75pNaHsFBeXh6ff/45H3zwAZMmTWLw4MGaYlaAnE4nKSkpbNiwgblz53L16lX69OnDY489RvXq1fV3LSIeSUWHiIgUC9nZ2SxZsoTZs2dz4sQJ6taty8MPP0yXLl2oUKEC/v7+OlmV38Q0Tbp37861a9eIj4/Xjh8e4Ny5c0ybNo0TJ07wz3/+k2bNmlkdqchxOBycPXuWJUuW8Nlnn2Gz2RgzZgyjRo2iRIkSVscTEfkvKjpERKRIO3v2LF988QX/+te/OHfuHD169ODZZ5+lQ4cO2O12XY2U323lypX07duXr776in79+lkdR/5t165dPP3007Rs2ZKXXnqJcuXKWR2pSDJNk9OnT/P666/z5ZdfEhYWxowZM+jdu7fV0UREfqCiQ0REihSXy0V2djbfffcdX375JStWrMDlctGvXz+efPJJGjZsaHVEKcSys7Pp3LkzgYGBxMfHqyjzIC6Xi/nz5/P666/z/PPPM2TIEPz8/KyOVaTt2rWLqVOnsm3bNu6++25efPFFmjVrRkBAgEbIiYilVHSIiEiRkJOTw4ULF0hMTGTJkiXs3buXkJAQ+vTpw5AhQ6hataoOvOWmGIbBrFmzePXVV4mOjqZFixZWR5L/kZ6ezvTp09m1axf/+Mc/aNWqldbcucUMw2DFihW8//77pKam0qVLF4YNG0bDhg0pVaqU3ndFxBIqOkREpNAyTZP09HROnjzJjh07iImJ4fz589SvX59evXrRvXt3KlWqZHVMKSKSkpIYMmQITZo0YebMmVbHkZ+xf/9+JkyYQOXKlfnrX/9KWFiY1ZGKhYyMDBYtWsTSpUvJzMykW7du9OrVi/DwcAIDAzX6SURuKxUdIiJS6LhcLlJTU9m3bx+bN29m27Zt2O12WrZsSdeuXbn77rspXbq01TGlCHE6nbzxxhssXryYzz//nCZNmlgdSX6GaZp89dVXvPrqqwwfPpyxY8dqq+jbxDAMTp8+zbJly4iLi8MwDLp3706XLl1o0qQJ3t7eVkcUkWJCRYeIiBQaeXl5HD16lC1btrBlyxaSk5MJCwujTZs2REZG0rhxY53QyC2RkJDA2LFj6dq1K+PHjycgIMDqSPILcnNzefPNN1m4cCFvv/02Xbt2tTpSsZKfn8+BAweIiYkhPj4ef39/unfvTq9evahfv77V8USkGFDRISIiHi83N5dt27axdu1adu/ejcPh4K677iIyMpJmzZpRs2ZNzQOXWyYnJ4fp06ezZcsW3n33XRo3bqxh+IXAuXPnGDt2LOfPn2fhwoVUrVrV6kjFTlZWFvv27SMuLo5Vq1ZRoUIF+vTpQ79+/TSlSERuKRUdIiLisa5fv05MTAxff/01R48epWzZsnTt2pW2bdtyxx13UK5cOS00KLfcxo0bmTx5MgMHDmT06NEEBgZaHUl+o8TERO6//37atm3LRx99pF1YLJKRkcGhQ4dYtmwZa9asoUaNGgwePJjevXtTpkwZq+OJSBGkokNERDxOSkoKUVFRLFmyhDNnzhAREcH9999Pq1atqFChAiVLltQVdbktMjIymD59OgcPHuS1117TaI5CxjAMli1bxmOPPca0adN46qmnrI5UrKWnp3Pw4EHmzJnD1q1badKkCWPGjCEyMlIllIgUKBUdIiLiEQzD4PDhw8yZM4fo6GiysrK49957efzxx6lbty4BAQH4+PhYHVOKmfj4eCZNmsQjjzzCqFGjtAZMIeR0OpkwYQLLly9n/vz5tGrVyupIxZphGFy7do1t27bxzjvvcPDgQXr16sX48eOpW7eupiGKSIFQ0SEiIpYxTROn08mePXt4++23iY2NpWzZsjz00EOMGTOGypUr6+q5WCYtLY3p06dz8uRJXn/9dS2iWIhlZ2fTqVMnypQpw4IFCwgODrY6knBjDY8lS5bwj3/8g0uXLjF27FheeOEFAgIC9N4vIjdFlamIiNxWpmmSm5vLxYsXWbRoEffeey/9+vXj7NmzvPHGG+zevZtp06ZRpUoVHeiKZQzDIDExkQ0bNtC7d2/q1atndSS5CQEBAbzzzjskJyfz1ltvkZeXZ3UkAUqWLMmIESPYuHEjY8eO/WHr5o8//pi0tDScTqfVEUWkkNKIDhERuS3cbjdXrlwhNTWVuLg4li1bxvXr12nSpAlDhw6lU6dOlCpVyuqYIgBcvHiRKVOmcPXqVWbMmEGNGjWsjiQ3KScnh48//pi5c+cyYcIE+vXrp+lwHubIkSO8++67rF+/ntDQUB577DHatWtHxYoV9W8lIr+Lig4REbmlHA4HqampHDp0iPj4eLZt20aJEiVo2bIl/fv3p1WrVjqAFY/idrtZvXo1kyZNYvz48fzpT3+yOpIUkNTUVF5++WXS09OZNm2aFpf1UBs3bmTOnDkcOHCAevXqMXDgQFq3bk2lSpW005aI/CYqOkRE5JbIycnh4MGD7Ny5ky1btpCSkkJYWBiRkZF07dqVBg0aWB1R5Celp6czatQo/Pz8eP/99ylfvrzVkaSAGIbBtm3beOWVV2jSpAnjx4+nUqVKVseSn5CZmcmaNWtYvnw5J0+epHHjxvTq1YvIyEjKli2rgkpEfpGKDhERKVDXrl1jy5YtbN68mYSEBJxOJ02bNqVt27a0bt2aKlWqaFV98Wjz58/nlVde4e2336ZPnz5Wx5EClpOTw4IFC/j0008ZNWoUDz74IAEBAVbHkp9gGAbnz59n3bp1rFq1itTUVCIiIujTpw8dO3bUaEAR+VkqOkREpEAkJycTHx/PN998w7Fjx6hUqRIdO3akVatWNGjQgODgYF2BE4+XkZFBt27duPPOO/nggw8IDAy0OpLcAhcvXuS1115j//79vPbaa7Ro0UIFrAdzuVwkJSWxadMmli1bxqVLl2jTpg1Dhw6lRYsW+mwRkR9R0SEiIn+Y2+3m8OHDfPXVV6xfv55Lly4RERFBv379uPPOO6latapOFKVQmTFjBm+++SYrV64kIiLC6jhyi5imyaFDh3j++ecpV64c7777LiEhIVbHkl/hcDhISkpiw4YNfPrpp7hcLnr06MEjjzxC3bp1rY4nIh5ERYeIiPxuDoeD3bt388UXX7Bp0yZ8fX3p2bMnAwYMoHr16pQrVw5vb2+rY4r8LqmpqbRq1YrBgwfz+uuv6zlcxLndblauXMnkyZMZMWIETz/9tP7NC4nc3FzOnz9PVFQUc+bMITAwkGHDhjF06FAqVKhgdTwR8QAqOkRE5DdzOp3ExMQwc+ZMdu7cSY0aNXjkkUfo27cvFStWxM/PT0OIpdB65plnmDdvHocOHaJixYpWx5HbwOVyMXXqVObMmUN0dDTNmze3OpL8Dg6Hg5SUFP71r3+xePFiatasyfPPP0+PHj0oUaKE1fFExEIqOkRE5GeZpolhGGRmZjJ//nzef/99UlJSiIiI4Omnn6ZHjx6amiJFQmJiIj179mT8+PE8++yzVseR2yg7O5t7772X8+fPs2vXLkqWLGl1JPmd3G43CQkJ/P3vf2fdunV07NiRV155hUaNGmnBUpFiSkWHiIj8iMvlIjMzk9OnTxMVFcXixYvJzc2lU6dOjBw5ksjISOx2u9UxRQqEw+Hg8ccfZ9++fWzdulU7cBRDBw8epHv37vTu3Zv33nsPf39/qyPJH5CXl0dMTAzvvvsux48fp3///owdO5bQ0FAVWCLFjIoOERH5wffzng8cOMCKFSvYsWMHgYGBdO3alWHDhlG/fn2rI4oUuJiYGJ5//nkmTpzI8OHDNf2qmPrss8944YUXeOONNxg2bJjW6yjErly5woIFC5g3bx7p6ekMGzaMAQMGUKNGDYKCgqyOJyK3gYoOERHh2rVrfPfdd+zevZv4+HjOnDlD9erV6dKlC7179yY0NFRbL0qRdPnyZZ555hmuX7/OJ598Qvny5a2OJBZxu9385S9/YcuWLXz00UfcfffdVkeSm5SSksLnn3/OmjVrME2T/v3707VrV+rWras1PESKOBUdIiLFlGmanD17loSEBL799lt27NiBYRg0a9aMDh060KZNG0JCQnR1W4oswzBYuHAhb7/9NhMnTuTee+/VfP5iLjU1ldGjRxMUFMQbb7xB9erVrY4kN8k0Tfbt28fSpUt/mJrWo0cPunXrRq1atfSaFymiVHSIiBQzTqeT48ePs2nTJrZs2cKxY8eoUqUK99xzD61bt6ZRo0Ya2ivFQlJSEhMnTiQgIIBp06ZRpUoVqyOJxdxuN/Hx8bz00kv06dOHcePG6f2wiMjJyWHXrl2sWrWK7du3ExISQs+ePenTpw+VKlVSqS9SxKjoEBEpJnJzc0lMTCQmJoZt27aRlZVFs2bN6NSpE+Hh4dSuXVtXtqTYcLlcfPHFF8yePZsJEybQq1cvrckgAGRlZTFr1iwWLFjAhAkT6N+/v6buFRGmaXLlyhUSEhL4+uuv2b59O1WrVuX+++/nvvvu03QWkSJERYeISBGXm5tLfHw8UVFRJCYmEhQURPfu3Wnfvj1169alQoUKOoiXYsE0Tc6fP4+Pjw/p6elMmjSJsLAwJk+eTMWKFa2OJx7CNE1SUlL4+9//zrlz5/jb3/5G06ZNrY4lBcgwDNLS0khMTOSLL75g586dNG7cmMcff5zOnTtrVzGRIkBFh4hIEXX9+nUWLVrEvHnzSE5Opm7dugwZMoR77rmHihUrEhgYqIJDihWn08nMmTNZvHgxYWFhJCUl8dJLL9GjRw+9FuS/uN1utm7dyssvv0zLli154YUXCAkJsTqWFDC3282VK1fYvXs3b7zxBidOnKBLly6MHTtW5ZZIIadPdRGRIiY5OZmpU6cSHh7OM888Q/ny5fnkk09Yvnw5Dz30EHXq1CEoKEgndlLsuN1uDh8+zLfffsvSpUtxOp14e3tjGIbV0cTD2O122rRpw9ChQ1mxYgXffPMNDoeDqKgodI2w6LDb7ZQvX57u3bsTHR3N9OnT2blzJ/feey9Tpkzh7NmzVkcUkT9IIzpERAo5wzBwOBwcOHCA2bNnEx0djWmaDBkyhKeffppatWpZHVHEI+Tk5DBgwADi4uIAsNlshIaGMnPmTHr27KnyT34kIyODiRMnsn37dkqWLMmuXbs4cOAAdevWtTqa3CJpaWnMnDmTWbNmUbp0aZ599ln69etH2bJl9R4hUojo1SoiUkjl5uaSkpJCdHQ0w4cP58EHH2T//v08//zz7Nu3j3feeUclh8h/MAyDpKQk4MaV3Jo1a/LSSy/RoUMHncDIj5imibe3N+Hh4Vy+fJktW7bgcDhYvXq11dHkFipfvjyTJ09m9erVREZGMm3aNAYPHkxMTAyXLl3SCDCRQkIjOkSkyHK6weE0yXeB2zAxARtg9wJfbxv+Pja8C9l6Y6Zpkp6eTmpqKlu2bOHrr7/m7NmzNGzYkPvuu48ePXpoHrkUaW4DHK4br2uX28T491GM3cuGjx38fMDXbuOndoq8cuUKVatWxel00qhRI55//nkGDBiAn5/f7f1DSKHgdruJjY1l0qRJHDhw4IcpK927dyc2NvZXf940bzxXHU5w/sdz1csGPnYbfj7g5/3Tz1XxDE6nk02bNjF79mz27NlDs2bNGDlyJI0aNaJixYqesSWt243pyMPMz8d0OsE0ABs2ux18fLD5+WPz9UVPNCluVHSISJFyNdsg7bpJepbB5SyTy5km13MMcvPBbd4oOUr4QOlAL8oH2QgJ8iI40EaFUl4ElbDh5aHHAU6nkzNnznDo0CE2bNjA5s2b8fb2pnnz5vTu3Zu7776boKAgq2OKFDgTyMs3uXTdID3LJD3TJC3T4Gq2SbbDxOm+UWD6+UCpEjaCS954bf/nf33+XWgePHiQiIgIIiMjefbZZ+nRo4d2V5CfZZomJ06c4LPPPiMqKoqTJ0/icrkoVaoUycnJlClT5kc/k+e88blzOdPgyr8/j65km2TlmThdgA187VDS30ZwSRvlS934DAoJuvF89fX20A+hYi4rK4tVq1axaNEijh8/Trt27bjvvvu46667KF++/O0NY5qYOTm40y5hpF/GnZ6G+9IljIyrmNlZ4HSClxc2Pz9spUrjVS4Ee0h57MHl8CpfAXtIedD7nhQDKjpEpNBzuSE53c2x8wbHL7g4nWZw9orB9TyTX3qH87LdODEKC/aiVgUv6layU6+yndBgO94eMoo9JyeHo0ePsmPHDjZv3szJkycJCwujdevWdOzYkcaNG+Pj42N1TJFb4nKmwXfn3Ry/YHDyopuUdDfpWSYu9y//XAlfqFTaixrl7dStdOO1fUclO/Fxq/jss88YN24cbdq08YyrseLxMjMzWbNmDV988QVr164lNzeX2NhYunfvDtwYuZGRY3DiosGxC25OXHCTfNngwjUD96/McvCxQ8XSXtQI8aJORTt1K9upU9FOmQA9Nz1RWloa0dHRrF69mnPnztG2bVt69+5NREQEpUqVurUPbhi40y/j/O4wruNHcZ48jjslCffldHC7fvFHbSUCsFeugnfNWnjXuQOfO+rjU6cuthIBtzaziIVUdIhIoWUYcDrNzY6TLvanuDl+wU2W44+9pdmAMoE2alew06S6nbZ3+BBa1rq2Iysri+3bt7NhwwZ2795Nbm4ujRs3pm3btrRs2VJrb0iRlpFjsuOEkz1JLo6dN7h4zfhh2P/v5ecD1cvZaRBqp2TedzSt4Uvj8IYFG1iKPNM0OXz4MFFRUcyePZsHHniAGTNmkJVnsjfZxa5TLo6cdXM+w8D5K0Xcz/GxQ2hZLxqE2mlZ25vGVb0p6a/Cw9MYhsGpU6dYs2YNcXFxZGRkEBkZSf/+/WncuDG+vr4F/5jXr+H4djOOPbtwHT2CO+0SuP/oE80Xn1q18LmzMX6t2+DTIBybpu9JEaSiQ0QKpWs5JpuPOtn0nZPjFw1y/mDB8VNK+t8oPDrd6U3nhj743MahxFevXiUmJobY2FiOHTtG2bJl6dChA23atKFBgwaUK1dOiyZKkeU2IDHZxZoDTg6muricVXCva7sXhJYxaV3Xjx5N/h979x0eVZk9cPx7507LpBfSQwkBEnpXEBFFFBEVZFVAERZRRFBW1BWlKqBYFpWigCLYVneVn4qKooIKCEoHqYYO6SSkJ9Pu/f0RYUVREGYyk+R8nsdnNxlz74m5d+a95z3vec0+TWSKmqu4uJh169ax/ocfGXLv43y2zc22oy5yizRcHupRaVSrKpLaN1Tp09ZMgyjVb5dV1mV2u52ff/6Zr7/+mk8//RSn00mvXr0YMmQIDRs29MxJdB375o1ULP8Y5949aPkn+NNS1b/CZMJYvyGWS7oS0Ks3akKiZ44rhJ+QRIcQokbRgeP5Gks32vlhv4uicv2CZ3rPJTJIoVOykTsus1AvxLsPRQcPHmTp0qUsW7aM7Oxs2rZtS79+/ejYsSPx8fEEBQVJmb2o1UordVbscPDlTifH8z330PhbAWaFtHgDN3cy06GRSR4gxV+m6zrvrjrG2qMRHC/QsP/5qoELZjVBgyiVgV3MXJoi16q/Ki0t5eDBg3z88ccsXboUq9XK4MGDGTZs2EUtZ9Eryin78AMqv16BO/N4VRmrpykKii0QU4tWBP7tNsyt2oBq9Px5hPABSXQIIWoMXYf9OW5e/aaSPZluHF4aXP6a2QgtElVG9LCSEuPZ5l1ut5vt27ezZMkSvvzySyoqKrj++uu58847ady4MaGhoV4pgRXC3+SXaHyw0cFXPzkptf95bx1PUA1VSwRu6Wzmyhbm081KhTgXTYN31lWybIuTkoqq3by8Sfmll9TASy3c3Ek+D/yVruuUlZVx+PBhFixYwH/+8x+Sk5MZN24c/fr1O/1ZnpOTQ2BgIEFBQX96PHdBPqVvLMK+9lv0khLv/wJGI8b4BAKHjsBy6WUo0vtL1AKS6BBC1Ag6cDjXzdOfVHA0X/P6g9CvGRRIjVO592orzeIu/onIbrezfv16Zs+ezTfffEO9evUYOnQow4cPJyoqCqPRKNUbos7IL9X49zo7X2x3eq2K42wUIDxQ4c7LLVzdUpId4tzcGixYVcFnW6v3WoWq5Nxtl1q483IL8ungv3Rdx+VysX//zjZN0QAAIABJREFUfsaPH8/KlSu5/PLLmThxIs2bN+eRRx4hKSmJf/zjH4SGhp71GO4TeZS+9gqVa74Dp6P6glcUDMEhBI99GEuXbihGqewQNZskOoQQNUJ2ocbED8o5ll/No8tfadvAyN1XWmgcrf7hdvS6ruN2u1EU5fS2lbqu43Q6KSsrY/ny5SxcuJDt27fTvHlz7r77bvr160d4eHg1/iZC+Ieicp3//GDn/zY5qjV5+WsRgQojr7JyWTOTJDvEH3K64c21lXy82YHd6ZsYjCrc0dXCLZda/GZnMPHHXC4XX331FTNmzODAgQMkJCSQkZFBQUEBc+fOZciQIVit1jN+xp2fT9lbr1Px5efg8s2FpgQGETrhCSwdOvGHgx0hagBJdAgh/F5huc6TH5az6/gFdhj3EIMCV6QZufNyK3Fhht/Nqum6Tm5uLt9++y3169enU6dOFBUVkZWVxccff8z7779PcXExHTt2ZOjQofTo0YPAwECf/C5C+FqlU+fTrQ4Wf2ev9tnx30oINzC2t5VWSUbpgyB+x+mGz7c5eGedncJy3w6bQwIU7r7SwlXNzRglMVcjFBQUsHDhQl588UVycnIACA0NZcmSJdxwww3/mxQpLaHsww8of/9d9MoKX4aMITKSsOnPY2qc4tM4hLgYUpMkhPBrFU6dN9fYfZ7kANB0WJfuIiHCSf8O5jO2/dN1nczMTObPn8+CBQsYPHgw2dnZrFy5ktWrVxMQEEDPnj255ZZb6NSp0+mBjRB11Y5jbt5b7/B5kgMg46TGe+vtRIcYiAuTqXLxP5oOO466+Gybw+dJDoCSCp2lGxzEhRlomWiUCfcaICgoiISEhDN2TCsqKmLMmDGEhYXRvXt3FLcL+8YfqVi+zOdJDgAtP5/iF58lfMoMDFH1fB2OEBdEnTp16lRfByGEEGejA6v3unh3vR23HzwMQdUa7ZwinQZRKrFhBgxKVZIjIyOD2bNnM2/ePE6ePMnPP//M5s2bMZvN9O/fn/HjxzNo0CASExNle1hR5+WX6rz0RSVZhX5yYwNZhTpWM7SWqg7xK9lFGu9vcLDzuNtny6t+q9SuU+mE1ASVQItcrP6uvLyc3bt3U1hYSGxsLGFhYdhsNkpLS1m7di3t2rYlXtcpfXsx7sOHfB3uaVr+CUDH3LodikzOiBpIKjqEEH4r66TGx5sd1bK7yl+RU6SxYoeDJrEqkUEKmZmZzJw5k8WLF1NeXg5AYWEhAwcO5J///Cf169eX5IYQv9CBjzbZSc/2fZXWby3f5uSSFBPN42VQL8Dh0tlwwMWOoy6/SbYDuNyw45iLH/er9G4tS1j8XXBwMLfddhu9evUiLy+PvLw8Tpw4cfp/j6Sn0+Ln3Th37/R1qL9TueprzB0vrerXIUQNI4kOIYRf0nVYtdtZ7TusnK8th93sOOaiYUAmUyZP4v3336eysvKMf6ewsBBVVSXJIcSvHM5z88UOH3VzPIfiCp331tuZ0j8AVco66ryMkxo/7nf5xZKV3zpZVpWEaZ2kUj9KMh3+zmq1Eh8fT3x8/Bnf13Wdkt07qZgxBdz+l/zViouoWL4Mc1oLFJvN1+EI8ZdIokMI4ZcyT2psPuSi0ul/A0yoaqS4YruDa+MzSEtL48knn8RqtRIQEIDVasVqtRIdHU1YWJivQxXCr3y+3UFJhX/e1wBbD7vYk+GmZZIMkeoypxv2ZrrZk+V/D59QNRmwJ9PN7kw3CREqquTTayQFMGz4AU7k+TqUs3O7cf28F8fO7Vg6d/F1NEL8JfIpLoTwS1uPuMgq9M9qjlN2Zbi5uW1zRo9uebpyQ1XV0/9fkS5xQpwhr1hjwwE3fnxb43DBip+ckuio406WaWw74qbc7r9Xa0mlzq7jbjo01KgXIpmOmki3V1Lx9Re+DuNPaScLsK//HkvHS0AqVEUNIlerEMLvVDp1dmW4KfLDcuFfc7hga4aFkJAQAgMDCQgIwGw2o6qqJDmEOIsth1wU+XE1xymbDrn8/v1HeFdeic5Px/ysQdRv6DrsyXCTXeRHDUTEX+LYvAnNX6s5fqE7HLgOHcR1/JivQxHiL5FEhxDC7xwr0Mgu1NA88JyhAAblzH88mYP4fr9/D4SF8Cdbj7hxeGE52ql721MqHFVbioq6yemCI3lu8kv9P9l1/KRGVqHuV81SxfmrXPsdHi1dNZsxREZ6dqADaPl5uA787NFjCuFtUpcphPA7GQUaBR4YYNosCkMus3BTBzMuTT89lli2xcGib+0XfXyAnEKd7EKN2DDJGwvxZ0oqdY4WaLg8+EBmUODmTiZG9Ahg+zEXj75b7pHjutw6ezLdXJ5q8sjxRM1S4dQ9tiuQUYUmsSr9OpjpnKyyep+LN9fYPZZE0fWqBr9ldiMhAVJJWKPoOo6tmzxyKMVkJvCukdiu6ws6uLIyKHtjEfYN60G7+DddragQ15EjVRecVKyKGkISHUIIv5NbrHmkvF2h6vP4cJ6b73/+X+f8w3mebS63N8stiQ4hzuF4vkaFw7Mz5I2iDfTvaPH4bLZbg0N5bhnT11F2l86xAs9cVI3qGZjS34bDpePWFY9WHp1yvECj3KFLoqOGceflohXke+RY1mv7YLuhH5WrvsKZvg9b/1uw/W0g7pwsXIcOXvTx9cpK3Lk56JWVKAEBHohYCO+TRIcQwq+4NCgs0z2620p+qc62oy6OF2iUVeoenVEGOHpCaoaFOJe8Eg2Hy3P3dbBVYVAXCwdyNBrHeOywAGg6FJTqVDh1bGZ5eKxrnC481veitFLn060ODuS4uaaVdyqE8ko07P65Y7P4E+5jRzxzIEXB2q07emkpJa/MQY2OQe99A2pCIsamqR5JdADopSVoRYWokugQNYRMQQoh/EqlQ6fMoXt0yWr9SAP9OpgZ2MXC1a1MhAd69sElr0QSHUKcS2G5jtNDxVSqAXqkGUmKMPDuD3aPJy+hKukqDUnrJpfbc3/7rEKdt7+3cyRf+99uQx7OnRVV6Djccq3WNG4PNSFVLFbU2DicB/aD24X1mt6o9aJRjEbUqHoeOQeAXlGOXlbqseMJ4W2S6BBC+BWHS8fhoR6Aml41K3cg102FA5LrGbjrCit/62z2aPlwaaUMMIU4lwqH5xompsSoXNXCxNqfnez3UC+F33JreHypjagZHG7PfQ5Vh0qHR9owiGqml3omaaAEB4FBRTtZgKlNeyyXXkblt1+jlRSjWAM8tv5OdzjQHQ6PHEuI6iCJDiGEX9F00D00YLO7dNb97GLRt3ZeX13Jq99UcijPTZ+2ZiKDPJfpcMlMmhDn5IldlKBqycrVLUw4XLB2nwtd/2U3JTy784oOspNFHVQT/+6a5tmNO0T10N0eStL+8rc3REQQOPhOnLt3Yv9+NXj6mtB1yaiJGkV6dAgh/IpqUDB4KAWraVWNTU8pLNPZcdRF6/pG4sIM5JV4ZpBhMsoafiHORTUoHqnYjw5RSI42EBdm4J6rrDjdEGZTsJpU7rvaytKNDrIKL34wrgBGmQ6qc2ri311VpWluTaQYPfMYppWWgKZhTm2OVlREyaxnUIKCUMxm9Ipyz2XBDAY8NkATohrI1SqE8CtmI1i8mIKNCTWgAMUeXG4SYpURphDnYjNX9da4WKWVOmv3ufhur4vDeRoZBRoud9Wyt5xizaN9QGwWubfrIpNRwWqqOX/7AA/dW6J6KcEhnjmQ3Y4rKwPFFkjZ//0Xd3YmanwCKAraiROeOQegmM0oVqvHjieEt0lFhxDCrwSYFWwWBUW5+EmIpnEq17Q0kV+qkVOk0SxOpWsTE+k5VTuweEq9UBlhCnEuYTYFk3rxx8kr0Vm+3YHyqynsy5oZyS3SWLbZidNDS8lMalXMou4xqhAWCNmFF38sixG6NjWRXM9AQrgBpxv6tjWz46ibXRkuj/QCCbMZMKtyrdY0ar1ozxxI16lc/Q3m1u2wdOiEAgRcfxPurEyc+3Z75hyAYrOhBAZ57HhCeJskOoQQfsWgQHigAZtZocx+cQ8smgZJkQb6tjOfLuvdftTF859V4PJg/8KGUZLoEOJcYkINWEwKF7twXNPB7uKM4+g6OFxVfXk8waBAvWDll3hFXWNWITZUJbvw4rMQFpNC33YmWib+b8jdJFYlJtTJoTy3R7ZcrheiYPHOzrXCi9QGDT12rMovPsOY1BBb/79huaQrrmNHKPvvO7iOHPbYOQzBIRjCwj12PCG8TRIdQgi/ExuqEGa7+ETH/hw3E94vJ8ymYDMrFJZplNg927TNoECzOA9MUwtRyyWEGwj00lKQofM9u+WhqkLjGLmv6yqLSaFhlMK2Ixd/rOIKnYfeKb/4A/2JpAiDLLOqgdTwCNTYONzZWRd/MF2ndOFcyt58DSUwCK3wJHiq2SlV1RyG2DgUs9ljxxTC22QaUgjhdxIjDR7bFcXlhhMlOkfzNYorPd+ZvkGUgahgeSsV4lxsFoVG0QaPLF/xNpNBoXmCzAXVVVaTQpNYY43oe2E2QsMoFZtZEh01kbnjJR49nl5ZiZZ/wqNJDgBDWDimBo08ekwhvK0GvIULIeqa+DADCREGjDXggeiypvIwJMT5at/AiKUG7FIUFqjQPKEGvAEJrzCpVcseY2pA/6WkSJW4cEONSMqI37Ne3sP/dzJRFNR60RgbN/F1JEL8JX5+Zwkh6iKzUaFlotHvGwHazApdm8rCaCHOV+v6RiKD/fu+BriksZEg2U2pTosKVmid5N/JLkWBtHiV2BqQkBFnZ2reEmNSfV+H8acUixVjSjPUmFhfhyLEXyLvjEIIv9SmgUpihAGDHz9rtG+okhgub6NCnK/wQIVuzYz48W1NgBmuaSUJzLou1GagdX0joQH+e7VGBim0SFQJ9fNJAfHHFLOZgGv7+DqMP2UIj8DStZv/V54I8RtyxQoh/FJUsIEuKSa/bbAWaIFrW5sw1YAyfCH8ybUtzUR4qAePN1zezETDev49ky+8z2iA1DiVln5a1aEo0DxBpXm86tcTAuIcFAVLl24e3YHFo0wmTK3bYmqa6utIhPjLJNEhhPBLCtAjzUSjeobTW8P6k8uammgaZ5QBphB/UXSogVs6W3wdxllFBCrcdqlZ7msBVG2JfGmKiXp+2HA6OsTApSlG6oX4X2zirzHUi8HW56aq7Z78jCE0DNsN/VEs/vmeLcSfkXdHIYTfCgtUGNTFgsXP+n0mRRjo1cpEiB+XNAvhrxQFrm1jok19/xrUKwrc1sVMfLh/xSV8x6hC52Qj7RuqGP1oxGw2QrsGKp0bm6QJaS2gmExYLumCxcM7sHiC7cb+mBqn+DoMIS6IvD0KIfxam/oqkSeWcvLQOl+HAoDVBDe0N9EsVsqFhbhQNrPCPVdZ/aq3QLemRnqkSTWHOFNooML1bc0kR/tHAkwBGkQa6N/RTLA0zK0dFAU1No6Am25GjYnzdTSnmdq0xdb/Vr+sNBHifEiiQwjhl3Rdp7i4mNH33cu/Z43CWrbL5w0MVQV6tTRxRaoZi8nX0QhRszWspzLyKgtmP6jYalTPwO2XWf1+pydR/RSgWbxK/45movxgx6DwIIU7LrNKH5naxmDA3LodtgG3otgCfR0NakwsYROnyZIVUaNJokMI4XccDgc7duzg9ttv58svv2T+/Pl8smAcLRJVn5XpmtSqvhz9OloIC/T9YFeIms5ogEtTTAzuasFm9s09ZVCqlqLd1cNK/UgZEok/dmVzE/06mH1ahRQSoHB7VwuXNvGD7KDwOMVsxtrzGgJu7I8S6KNkh6JgiI0j9PEnMISG+SYGITxEnTp16lRfByGEEKcUFxfzxRdfMHXqVOx2O7Nnz+aGG27AajbQItHIsXw3BaU6bq164tE1N2aDm0tSLNzezUKDKJlFE8JTzEaFpEgVg6JzLF/D7qye8+qaG3dlMYlhbob1CKFjshGjKglM8ccUBdLiVTQdjpzQqKyma/WUyCCFQV3M3NDe4pcNuoVnKBYLpobJ6A4H7oxj6A5H9Z1cVTE2aEjwfWMxt2wt28mKGk8SHUIIv6BpGhkZGbzxxhu89tprNGnShKeeeor27dtjMBhQgGCrQtNYI8WVOvmlOnaXt6PSKTm+hdCKbYwd0IyUOKu3TyhEnWM1KTSop+Kyl7Br504cmgnVbPPuSe1FlPz8EWmBP9OvRyrBgQHePZ+oFRRFoXmiEZtFIadIo6hC9/o5DQokR6vcfpmZPm0lyVEXKAEBmFKagmJAy8lCLyvz/jmtVswtWxM09G7MbdqjGKVqSNR8kugQQvic2+1m165dzJkzh5UrV3L99dfz4IMPkpKSgvKrUZ2iQIhNoUmMismoUFimU2rX0b001mwQaaC+83u2LP8XzZsk0qxZMwwywyGExxl0Jz9v+Yo1H88lJqkZBCZ4rWor1KbQJVmnnmMrP676gIjwMFJSUjCZTN45oahVFAWaxqrEhxuocOgUlOk43d45V3CAwiXJJgZfZuaSFJMkOeoQxWrF1CwVQ1g4emkJ7rw8vDLYURQMkVFYr7iSwNtux5zWQpIcotaQRIcQwqc0TeOrr77iX//6F0ePHmXkyJHcfvvtxMTEnPXfV4Agq0JytEpCuAGDolBQpuPwYBlxRJBC92Ym+ney0PvSRPb/vI8vv/yStLQ0EhMTPXciIQS6rrNjxw7mzH6BRkmx/H3wTSTEhFNUrlPswRlzowptGqjc1N7MjZ2Cad88ifT0dFatWkXjxo1JTEyURKY4b3FhBprGqQQHKJQ7oLhCR/PQ5Wo2QrM4lT5tqvqCJEfLLl91kWI0YkpujLFhMoagYLTiIvTiIs8d32LF3LY9thtvxtb7eoxJ9WW5iqhVJNEhhPAZh8PBggULeOmllwgPD2f8+PFcffXVBAcHn/NnzUaFhAiVlBiVRtEqZqNCwUUsZ1EUiA4x0K2ZkX4dzPRqZSIlRiUo0EZSUhLff/89e/bsoXXr1oSHh1/YSYQQv5OVlcW8efPIzc1l7NixdOvcgqbxRlJiVKKCFMrs+kUtEQgwQ9v6Kjd1MHNdGzMdGpkIsiqEhIRQv3591q1bx4YNG+jYsSMRERFnVJEJ8UcUparionF01edQvRADdldVwuNCq5HMRkiNV7mujZm+bc10bmwkLNAglRx1maKgRkZhSk3D2KgxamQkenkZWknxBVd4KGYL5vadqhIc1/XF3LYDhvMYdwlR0yi67q2ibyGE+GO5ublMmzaNZcuWMWjQIO6++24aNWp0QTOqbg0KSjVyinR2Zbj46Zib/TluTpb97+1N11w4K4ow2cJRlKpzGBQID1RoEqvSur56uhw53GY4Y1LD4XCwfPlynnnmGfr27cvo0aMJC5Nu5EJcrPLycv7973+zcOFC7rvvPgYOHIjV+r9eOKWVOlmFGofy3Ow46mZvppvsIu13SwUqi7OwBNZDUatKrgMtCg2iDLRIUGmVZCQhwkBMqILpNw1HXS4Xa9asYdKkSbRq1Yqnn35a7m3xl+lAuV0nr1jjcJ7GjuMu9hx3cyRfOyPp4baXoqNjtPzvodKkQoMoA80TjLRKUmkQpVIvWMFmkeyG+A1dRystwZ2Vievgfhw7tuPcuwt3dha4/nyWRwkMwtiwEaaWrTG3bosan4BaLwbFbK6m4IWofpLoEEJUu+3bt/PYY4+xc+dOZs6cSZ8+fTz2cFHp1Cm3Q5lDJ79EI/OkRn6pzg/fr+KTt2cxevIi4uNiiAo2EB+uEBVsIMCsYDODxaj84cxZaWkpCxYs4M0332TixIn069dP1vQLcRE0TWPjxo3ce++99OzZk0mTJhEaGnrWf9fprnqQrHDoFJbrZBZq5BVXNYO0u3QmDuvMwHsm0fv6fsSFKcSEGgiyVD0sBpiUP63Gdjgc/Pe//2X69OncddddPPTQQ7KERVwwlxsqHDrlDp2ySp3jJzVyijUys0/y2X/nY1AN9B04mrjIIGJCDcSHqwRZ+eVzSPHZFuqiJtHRnU708nL0inLcJwvRMo/jzs2pWt7idIBiwGCzYQiPQI2LR42ORQkKwmCzodhsoMiFJmo/6TYjhKg2uq7z6aefMmHCBIxGIx999BGtW7fG6MHGV1aTgtUEESgkhhtolQSaDsbjJXxanM5tnQ0kJFowKFUVHedbEhwUFMSQIUNIT0/nX//6FykpKbRr185jcQtR1xQVFTF58mSio6N54IEH/jDJAVWz3qE2hVCbQkwoNIlV0fWqmXRdh8eKD9M8PJcb2ptP39vny2w2c9ttt5Gens5zzz1H69atufbaay/+FxR1klGtWtISHKBAKDSsV7UlbXY27Pk8F6PRyK2dDESEWzAY/tq1KkQVBcVkRgk1Q2gYakwcNG2GrmucfmMEUJSqpXgGg/TeEHWSXPVCCK/TdZ3S0lLmzJnDmDFjSE1NZdmyZbRv396jSY7fUhRQDVUPSaqh6muTUTnj678iOjqa0aNHExgYyPPPP09WVpZ3AheiltM0jVmzZnHgwAHGjx9P/fr1z/tnT93XRrXq3jYbIcBqxV5ZjvECHxxNJhMTJ07kiiuuYPDgwezbt++vH0SIszD8cq0aVU4n4Uy/+lqIi6YooKooRlNVAsT8yz8mExiNkuQQdZZc+UIIr3K73Rw6dIgnn3ySOXPmMGzYMObNm1djdy9p1aoVY8aMYevWrbzxxhuUl5f7OiQhahRN01ixYgWvvPIK9957L1deeeVFHzMwMJCKioqLOobJZOKVV16hcePGDBkyhGPHjl10XEIIIYTwDUl0CCG8xuFw8OOPPzJx4kRWrlzJ+PHjefjhh6lXr56vQ7soN954I8OGDWPBggWsWLECaXUkxPnbs2cPo0aN4tprr2XMmDEeOabNZrvoRAdAVFQUixcvpry8nMcee4zc3FwPRCeEEEKI6iaJDiGEV5SVlfHhhx/y2GOPUVRUxIwZM7jzzjvPa+tYf6eqKvfeey/XXHMNjz32GJs3b/Z1SELUCFlZWUycOJHIyEhmzJhxxg4rF8Nms3msuqpFixbMmDGDHTt2MG/ePAoLCz1yXCGEEEJUH0l0CCE87vjx47z00ktMmzaNli1b8tRTT9G7d+9atUtJSEgIjz76KImJiTz66KMcPHjQ1yEJ4dfKyspYsGABu3fv5plnnqFhw4YeO3ZAQIBHKjpO6d27N8OHD+fTTz9l6dKlHj22EEIIIbxPEh1CCI/auHEjEydO5I033uCuu+5i0qRJtGnTxtdheUVycjLTp08nIyODZ599lpMnT/o6JCH8kqZpLFu2jP/+97+MGjWKq666yqPH99TSlVMsFgu33347PXv2ZPHixXzzzTe43W6PHV8IIYQQ3iWJDiGERzgcDpYuXcqjjz7KkSNHmDVrFiNHjiQ2NtbXoXnVJZdcwrRp0/jqq6949dVXcTqdvg5JCL+zadMmFi5cSI8ePbj99tsxeHgXAE8nOqCqX8eIESNITk7m5ZdfZtu2bR49vhBCCCG8RxIdQoiLVlhYyLx585g6dSrJycm88MILXHfdddhsNl+H5nWKotC3b1/uuece3njjDZYtW+brkITwK5mZmbz22muYTCbuvvtuIiMjPX4OT/boOEVRFJKTkxk5ciRut5tXXnmFI0eOePQcQgghhPAOSXQIIS7K0aNHmTJlCvPmzWPgwIFMnTqVNm3aeHzG1p8FBAQwZMgQOnfuzLx589iyZYuvQxLCL1RWVvL+++/zww8/MHLkSFq2bOmV9wZvVHQAGI1GOnfuzPDhw9m6dSvvvPMORUVFHj+PEEIIITyr7jyJCCE8Std1du3axahRo/j888+ZMmUKDz74IImJiSiK4uvwql1cXBz/+Mc/qKysZN68eeTk5Pg6JCF8Std11qxZw+uvv84tt9xCr169vNaQ2FuJDgCTyUS/fv247bbbePXVV1m5ciUul8sr5xJCCCGEZ0iiQwjxlzkcDlatWsXAgQMpLCxk4cKF3HHHHXViqcofURSFli1b8s9//pN169bx1ltvebyUXoiaQtd19u/fz/z582natCmDBw8mJCTEa+fzZqIDqpIdo0ePplevXvzzn/9k586dXjuXEEIIIS6eJDqEEH9JQUEBS5YsYcSIEbRq1YpFixbRo0ePOlnF8VuqqtKzZ0+GDRvGu+++y4oVK6Q5qaiTioqKePfddzly5AgjRoygcePGXj1fQEAAlZWVaJrmtXMEBgYyefJkmjRpwqhRo8jKyvLauYQQQghxcSTRIYQ4L5qmsW/fPqZMmcLMmTMZNGgQc+bMITU11deh+ZXg4GAGDhxI27ZtefXVV9m+fbtsSynqFJfLxddff81//vMfhgwZ4vGtZM8mMDAQt9uNw+Hw6nkSExOZPn06FRUVjB07lry8PK+eTwghhBAXRhIdQohzqqioYNWqVfzjH//ghx9+YNKkSUydOtUruyfUBg0aNODuu+/GbrezcOFCsrOzfR2SENVm165dzJo1i27dunH77bd7rS/Hr9lsNnRdp7Ky0uvn6tChA0888QTff/89L774IsXFxV4/pxBCCCH+Gkl0CCH+VF5eHm+//TYTJ04kNDSUWbNm8fe//x2z2ezr0Pxa586dGTVqFD/++COLFy/Gbrf7OiQhvK6goICnnnoKs9nM/fffT1RUVLWc12azoWlatSQ6AG688UYmTJjAv//9b95++225v4UQQgg/Y/R1AEII/3SqmeDixYv5+uuvueqqqxgxYgQpKSm+Dq1GMBgM9OnThyNHjrBw4UJSUlIYOHCgr8MSwmvcbjcvvPACP/zwAy+//DItW7astnMHBgZWW0UHVDUfHj58OFlZWcyfP5/Y2Fj69etXp7bVFkIIIfyZJDqEEL/jcrnYvHkzL774IsePH2f48OEMGDCg2mZnawubzcbQoUMpLi5mx44d3HDDDQQGBvo6LCG8YunSpSxYsIDHH3+cXr16Veu5T1V0eHPnld+yWq3ce++9ZGdnM3uX7alLAAAgAElEQVT2bGJiYrjsssuq7fxCCCGE+GMy9SCEOIPdbufzzz9n3LhxFBUV8fjjjzNkyBDq1asnO6tcgKioKMaOHcuoUaOwWCy+DkcIr9ixYwdPP/00vXv3Zvjw4dW+tK26KzpOiYuLY8yYMQQFBTF37lzS09Or9fxCCCGEODtJdAghTnM6nSxcuJCxY8fSqFEjnn/+ea6++mqpQrhIERERJCUlYTRKEZ2ofQoLC5k+fTqKovDMM88QEhJS7TFUd4+OUwwGAy1atOCBBx4gPT2d1157jYKCgmqNQQghhBC/J4kOIQQAlZWVjBw5ksmTJ3PbbbfxyiuvkJaWVi07JlSH1NRURo4cSVBQkK9DEaLW0DSNOXPmsH79el544QViY2N9EsepXVeqc+nKKUajkR49ejBlyhQKCgr46aefZEtpIYQQwscUXdd1XwchhPCtAwcOcMcdd3DkyBGefvpp7rzzTlmm4iO6ruNwOHC5XBgMBsxmM6qq+josIc5K13XcbjeKovj0Os3JyWHSpEncd999tG3b1mdxCPFH3G43RUVFKIpCaGioNK4VQggvk0SHEIKRI0fy008/8dJLL9GpUydfh1NnuVwu9uzZw2effcbhw4cJCwujT58+dO/e3dehCSGEEEIIUWNIOlkIQffu3fnggw8kyeFjGzdu5NZbb+XDDz+kuLiY9PR0Nm7c6OuwhBBCCCGEqFGkokOIOsLlcqGq6lmXpGiaVmfKaPPy8sjNzaWsrAybzUZ8fDwRERG+DguHw8HgwYM5ePAg77zzDmlpaVRUVFBeXk5kZKSvwxPiNE3T0HVdllR5wKllP3Xl/VcIIYSoLrIFgBC1mMPhYNWqVezevZuioiJCQkJo27Ytl1566Rk7qdSVQbbb7ea5555j7969px/UWrZsycCBA2nZsqVPY8vJyWHDhg3ce++9ZGRksHPnTurXr0/r1q19GpcQp+zatYt169aRnZ2Noig0adKEyy+/nPj4eF+H9jtut/v0Pe6P/Yays7NZt24d+/btw+l00qBBA4YOHerrsEQ10HWd3Nxcjhw5QklJCaGhobRq1Uq2HxdCCA+TRIcQtVh+fj7Tpk0jKCiIqKgoTpw4wYcffsgDDzzAzTffXOe2O9V1HYvFwrXXXktoaCjHjh3jgw8+wOl0MnHiRIKDg30WW0ZGBna7nQ0bNrBx40Z0XaesrIyBAwdyxx13yCBY+Nxbb73F6tWrSUxMxOFwsGzZMtLT07nnnnuIjo72dXgAHD9+nLfeeouMjAzcbjdxcXH07duX1q1b+837XXZ2Nq+++ipffPEF0dHRWK1WNm7cKImOOmLr1q28/vrr7Nq1C4PBgKZpdOzYkccee8wvqguFEKK28I9PfSGEVwQGBjJ27FiaNWtGaGgoBw4cYObMmXz++ed0797dZ1tB+oqqqowdO5aIiAgMBgPZ2dkcPHiQ3bt3c+LECa8mOrZs2cKCBQvO+tpll11GYGAgmqZx6NAhXnrpJQwGA//+9795++23adeuHe3bt/dabEKcj6uuuoq+ffsSFxeH3W5n/vz5LFu2jJ49e/pFokPXdXJycli9ejVJSUkYjUY+//xz1q5dy4IFC2jUqJGvQwRgw4YNfPbZZ9x0003069cPq9VKfn6+r8MS1aSwsJCIiAiGDx9OdHQ0W7ZsYcaMGSQmJjJ27FhfhyeEELWGJDqEqMWCg4PPqNwwm83Ur1+foqIi7Ha7j6OrfoqiEBUVBVT1LDlw4AB79uyhUaNGhIaGev3cf7RESFEUgoODMRgMXH/99VxxxRXouk5RURHff/89hw4dkkSH8Lkrr7wSk8kEVCUVmjVrxqpVqygvL/dxZFUURSE1NZU5c+YQHByMoiisWLGCJ554gk2bNtGgQQOfL9MrKytj27ZtREdHc80112AymQgODqZhw4Y+jUtUn86dO9OmTRtCQkIwmUx07dqVV155hW+//VYSHUII4UGS6BCiFlMU5Yxy7fz8fHbu3Em3bt38YgbWV1588UWef/55XC4XzZs3Z+zYsYSHh3v1nC1btuSZZ54562smk4nMzEyMRiOhoaEoioKiKAQEBKDrOi6Xy6uxCXE+TiU5oOq9ZN++fSQkJBATE+PDqM4UGBhISkrK6a/DwsJO30P+0Hu9rKyM3NxccnNzuf/++zl06BAGg4Fhw4Yxffp0v+wnIjwrKCiIoKCg018bDAYKCgqIi4vzYVRCCFH7SKJDiBrs8OHDrF69+qyvpaam0qZNm9O9HU6ePMnLL7+MqqoMHjyYgICA6gy1Wixfvpz777//rK/ddtttjBs3jqioKK688koCAwP58ccfWb58OZ988gmtW7fGbDZ7LTaTyXTGg+JvNW7cmLS0NJYuXcq4ceOw2+1s3rwZi8XiVw+SonYqLy9nxYoVlJSU/O41s9nM3/72t9NJU6fTyfLly/niiy8YP348aWlp1R3un8rNzeXLL79k/fr1rFixgoSEBLp3714tu8QUFhayYcMGsrOzf/dacHAwsbGxFBUVsW3bNu6//37mz5/PO++8w/PPP88ll1zCjTfe6PUYhX+ZNm0abrebe+65x9ehCCFErSKJDiFqsM2bNzN+/PizvjZs2DCaNm2KxWKhrKyMefPmsWrVKqZNm0aHDh2qOdLqkZyc/IeDxTZt2pxO7rRp04Y2bdpw22230bBhQ5YvX851113HpZdeWp3h/s5jjz3GnXfeSdeuXalXrx47d+7kjjvu8HlcovYrLCzkqaeeIiMj43evBQcHc8MNN2A0GnE6nXz11Vf861//4pZbbmHAgAHVts1saWkpP/zwA7t37/7da6qq0rNnT1JTUyktLWXDhg2sXLmSsrIyunTpUm3NfLOysliwYAHr16//3Wv169fn/vvvJyAggEsuuYSBAwfSunVrmjRpwuuvv84XX3whiY5a4Mknn+Sjjz763fJQk8nEkCFDeOihh4CqXdHee+89XnvtNWbOnEnbtm19Ea4QQtRakugQoga7+eab6dev31lfO9UToqysjIULF7J48WIeffRRbrnllmqOsvqkpqaSmpr6h687nU4qKyuxWq1A1cAzLCyMiooKysrKqivMP9SzZ08+/fRTVq5cSVFRESNHjqRXr16n4xXCW+Lj4/nhhx/+8HVVVXG73axdu5YnnniCbt268cADD3i9t82vlZWVsXbtWj755JPfvWYymWjYsCGpqakkJycze/ZsHA4H//nPf5gwYQIpKSkMHz7c60mZtLQ03n///T9cJlNcXMyOHTsICQk5nXg1m80EBQVRWFjo1dhE9ejRowexsbG/W3Koqurp7cIrKyv55JNPmDlzJnfffTcPPPCAL0IVQohaTRIdQtRgiqL86cC9srKS119/nalTpzJixAh69erFsWPHsFgshIeHe3Wphj86cOAAa9asISUlBavVyvHjx/noo49o2LAhSUlJvg4PgHbt2tGuXTtfhyHqoHMlATZv3sw///lPQkNDGTRoEHa7nWPHjhEZGYnNZvN6fDExMUyePJlJkyad9fXfNho1m81cc801zJ07ly1btjB06NBqqT75s4anISEhNG7cmDVr1rB3717i4uLYv38/+fn5tGzZ0uuxCe/r3r073bt3/8PXKyoq+OKLL5g1axa9e/dmwoQJ0ptFCCG8QBIdQtRiR48e5cknn8TpdJKZmcmUKVOAqlnHQYMG1blO/xUVFSxbtozS0lKsVivl5eVEREQwbNgwkpOTfR2eEH5t1qxZ/PTTT3Ts2JGFCxcCVZUU9913X7Uth/uzJILL5SI9PZ3CwkISEhIAWLt2LSdOnCAhIcHnO65AVTKpS5cufPPNN7z++uts2LCBjRs3kpqaSv/+/X0dnqgG27ZtY9asWeTn55OQkMBHH30EQEREBH369PFxdEIIUXtIokOIWiwoKIhx48bhcDjO+H58fHy1rVn3J2lpacyYMYOjR49SXl5OcHAwjRs3JiUlxS8egoTwZ7179/5d41GTyURgYKCPIjqTw+Fg9erVvPfee6d3sNi7dy8pKSn07du32nqJnEvz5s0ZN24cq1atIjMzk65du3LVVVf5XVNX4R0nT54kJiaGwMBAvvvuu9PVHI0aNZJEhxBCeJCi+8N+a0IIIYQQF+FURce6devIyclB0zSio6Pp2LEjrVq1+tNdj3zB5XJRXl5OQECA38UmvCc/P5/MzEycTucZ3w8ICJBklxBCeJAkOoSoYZxOJ0ajUdb01hHFxcXs3LkTi8VCWlpatfRCEKImc7vd2O12dF3HYrGc3hZXCCGEEHWH1GoLUYMcOHCAN954g7y8PF+HIqqJ2Wxm+/btjBs3jrVr1+J2u30dkhB+TVVVbDYbgYGBkuQQQggh6ihJdAhRQ6xfv56RI0fy5Zdf/m7bOlF7Wa1WbrjhBhISEpgxYwaHDh3ydUhCCCGEEEL4NUl0COHnHA4HH3zwAcOGDcPlcvH444+fbrQnzl96ejqLFy+mtLTU16H8ZYmJiYwbN47y8nKeeeYZiouLfR2SqGU0TUPTNGr6ataaHP+pZqrbt29H0zRfhyO8QNf1Gn2NCiFETSKJDiH8lK7r5ObmMnfuXB599FG6d+/O66+/Ttu2baU/xwXYunUrTzzxBEVFRb4O5YJ07NiRsWPH8tVXX/H222/LEhbhMWVlZdx777307t2bn3/+2dfhXBBd1zl+/DirVq2ipKTE1+FcEIPBwE8//cQtt9zCkiVLftesUtRsJ06cYNq0aTz11FOSrBZCiGogiQ4h/JCu6+zdu5cnn3yShQsXctdddzFz5kySk5N9HZrwoUGDBjFkyBBmzJjBt99+KzOD4qK5XC6WLFnCihUruOuuu2jWrJmvQ7oguq6zYcMGxo0bx5EjR3wdzgUxGo0MHjyYPn36sGjRIr799ltZpliLuFwusrOzycnJkUS1EEJUA0l0COFn7HY733zzDQ8++CBbt25l0qRJjBs3jsjISF+HJnxMVVUeeughunfvzujRo/npp598HZKo4b799luefPJJhgwZwoABA3wdzkUJCAg4veNKTRUeHs6YMWOIj4/n5ZdfZufOnbKMRQghhLgAkugQwo/k5eWxZMkSxowZQ2hoKDNnzmTw4MFYrVZfhyb8RFhYGE888QShoaFMnjyZY8eO+TokUUPt3buXCRMm0KVLFx588MEavUOJoii1ItEB0KhRI8aOHUtZWRnz58+Xe1wIIYS4AJLoEMJP7Nmzh2eeeYbZs2fTv39/Zs6cyeWXXy79OMTvNG3alGeeeYaff/6Z2bNn19i+I8J38vPzee6553A6nUyfPr1WVIwFBASgaVqNT3SoqkrHjh0ZMWIEO3fu5M0336SgoMDXYQkhhBA1Ss2dvhGilnC5XKxZs4Z58+aRmZnJI488ws0330xISIivQxN+7IorruChhx7iueeeIzk5mbvvvrtGz8iL6uN0OlmyZAlr167l6aefpmXLlr4O6aIpioLNZqsVFR1Qta30tddey7Fjx/jvf/9LgwYNuPXWW6W6TwghhDhPMioWwofKysr46KOPmDt3LvHx8UyfPp3LLrsMi8Xi69CEn1MUhQEDBnDo0CEWLVpEo0aN6N27t6/DEjXAl19+yVtvvcWQIUO49tprfR2Ox1itVnRdrxWJDoDQ0FCGDBnC4cOHmTNnDo0bN6Zr165S5SeEEEKcB1m6IoSP5OfnM2fOHKZNm0anTp2YPn063bt3lySHOG+hoaEMGzaMlJQUXnnlFXbv3u3rkISf27t3LwsWLCAtLY077rgDm83m65A8RlVVjEZjrUl0AERHR/PII48QHR3Nww8/TE5Ojq9DEkIIIWoESXQI4QNZWVk88sgjzJ8/n7///e9MnTqV1NRUWXog/hJFUUhOTmb06NFkZWWxaNEi8vPzfR2W8FPFxcUsXryYjIwMxowZQ/369WtVdYCiKJjN5lqV6ABISkriueeeo7CwkOHDh8uWs0IIIcR5kESHENVI0zT27t1Lv379WLt2Lc8++yyPPPIIERERteqBQ1Qfg8FAly5dGD16NJ988gkffvhhrXvQExfP7XbzySef8PHHH3PffffRqVMnDIbaNQQwGAyYTKZad/0rikLz5s2ZM2cOq1evZvz48bjdbl+HJYQQQvi12jXKEcKPlZaW8umnn3Lddddhs9l4++23ufXWW2vdw4aofkajkZtuuom//e1vzJ8/n7Vr18qDkDhN0zQ2bdrEokWLuOaaa+jbty9ms9nXYXmcoii1MtFxytVXX83MmTNZsmQJS5Yswel0+jokIYQQwm9JnbwQXqbrOsePH2fJkiUsWLCAXr16MWPGDOLj430dmqhFwsLC+Pvf/056ejpz584lISGBZs2aSaVQHafrOpmZmSxZsgSTycTQoUOJiYnxdVheYTAYauXSlV8bPXo0P//8M88//zyJiYn07NlTljwKIYQQZyFTyUJ4kcPhYNOmTTz++OP83//9Hw888AAvv/yyJDmEVzRp0oT77ruP7OxsFixYwMmTJ30dkvCxyspKPvjgA3744Qfuuusu2rVr5+uQvKa29uj4NUVRmDx5Mm3atOHpp59m69at6Lru67CEEEIIvyOJDiG8pKioiE8++YQJEyZQUFDAlClTePjhhwkICPB1aKIW6969O6NGjWL58uW8+eabaJrm65CED3333XcsWbKE/v37c/3119fqpXK1tUfHb0VGRvL4449js9l44YUX2L9/v69DEkIIIfxO7R3xCOFDWVlZvPbaa8yaNYuGDRvyxBNP0Ldv31r9kOGvnE4npaWlVFZWomkapaWllJaW1tqdC1RVZcCAAQwePJjZs2fz2Wef+Tok4SNHjhxh5syZpKamMnz4cAIDA30dktcZjUaKi4vJz8+ntLS0Vib6FEUhNTWV0aNHk5mZyaJFi8jOzvZ1WOIP6LpORUUFZWVlOJ3OMz6TpBpHCCG8R506depUXwchRG2haRrp6ek8++yzrFq1iuuuu44xY8aQmpqKqqq+Dq9O2rRpE7NmzeLjjz/m8OHD7Nu3j08//ZQePXoQHBzs6/C8wmw2k5aWxq5du3j33Xfp1q1bre3LIM6uoqKCBx98kMOHD/Pcc8/RrFkzX4fkVRMnTuTNN99k8+bNHDp0iA0bNhAYGEizZs1qZYJZVVXi4+PRdZ2PPvro9D1fG5vM1nSVlZW88847vPjii2zcuJGDBw+yceNGDAYDKSkpmEwmX4cohBC1Uu379BfCRzRNY+PGjTzwwAPs2LGDMWPGMHr0aBo0aFArB9o1hc1mY+/evfz444+Ul5ezfPly9u3bR1hYmK9D86qYmBimTZuGqqpMmDCBvLw8X4ckqtHcuXP55JNPeOKJJ2jbtq2vw/E6TdP4v//7PzIyMkhPT2fTpk24XK5a/d4bFBTEgAEDuPrqq1myZAmrV6+utZVqNZnRaCQgIIDPP/+cgwcPcuDAAb766iuMRqMkOYQQwotq7whAiGq2dOlShg4diq7rPP/88wwYMICIiAjZ9cLHmjVrRps2bbBYLKe/N3To0DrRKyU5OZmFCxeyfft2nn76admOso5YuXIls2fP5v7776dPnz61+mH/lBEjRpyxNCc1NZXmzZvX+vffyMhI7rnnHlJTU3n66afZt2+fLIfwMyaTibZt29K8efPT32vXrh1paWmS6BBCCC+q/aMfIbzM6XQyYcIEhg8fTufOnXnrrbfo3LkzVqvV16EJqpZxdOvWjaSkJACsVivDhg3zcVTVQ1EUOnTowPTp0/nggw9YsmSJr0MSXpaRkcHkyZNp1qwZEydOPCPBV5slJiZy0003AVUz6C1atKBp06Y+jsr7FEUhKSmJhx9+GIBJkyZRWFjo46jEb8XGxnLNNdec/vrKK6+kfv36PoxICCFqP0l0CHGBNE3j+PHj3HrrrcyePZvJkyezZMkSoqOj68QMak1y2WWXkZycjKIo9O3bl6ioKF+HVG1UVaVfv37cfPPNLFy4kDVr1uB2uykrK5My91ri8OHD/PTTT5SUlDBt2jRyc3N5+eWX60ySA6pmzYcPH46qqiQkJNC+ffs6069CURRat27N+PHj2bFjB88999zp6i23210rG7LWNBEREaf7QsXGxtK5c+dav3xSCCF8TZqRCnEBysvLWbt2Lffffz+ZmZm89tpr3HnnnbW+TLqmCgwM5NChQ+zYsYOJEyeSlpbm65CqlcViISUlhe+++46tW7fidrt59tlnSUxMJCkpSa7bGsxut/Pmm2/yyCOPsGbNGjZu3MiUKVPo1q1bnWqArCgKNpuNTZs2ERoayt133029evV8HVa1OlXBMnv2bOLi4oiKiuLzzz/HZDLVqeSuP1IUBbfbze7du2nYsCGDBg2Sv4kQQniZ0dcBCFGT6LrOiRMn+Oijj3jttdeIi4tj7ty5tGrVytehiXO49tpr2bp1K126dPF1KD7RsGFDRowYwYMPPsinn36K3W6na9eutG/fvk70K6mtcnNz2bFjB/v372f//v106NCB+vXr18nkVVhYGHfccQfbtm0jJSXF1+H4xKhRozhw4AD/+Mc/uPrqq/nuu++YOHEiqampvg6tzqtfvz5XX301uq7TsGFDX4cjhBC1niQ6RI2i61Bm1ymz61Q6weXW0QFFAbOqYDVDkEUhwOz5Qb7b7ebAgQMsWbKEVatW0b17d8aMGVNnHyr8naZDheN/10pwfGt633IfeZWB2E9oBJgh8Jdrpbb/+XRdJy8vj82bN2O326msrATgu+++Y+DAgeeV6HBqLsoc5VQ6K3G4Xbh1NwqgKipm1YTVZCXQbMNoqDtVBBfqt9em06WjAQYFTKpCgOn8r82cnBy2b99++ustW7awaNEiWrRoQWRkpHd/ET/hdENppU653Uxap94oIY05UmBANbixGBVsFoUgi4KxDlyabrebrl278vLLL/P+++9jMplYt24dd911Fzab7Zw/r+kalS475c4K7C4HLrcLDR0FBZNqxGK0EGgKwGq0yOfeeXD98r5Z4bTjcDtpfXk7HA4nuRX5mB3yvimEEN4kiQ7h95xunaxCneMFbnIKdXJLNArLdErtOnanjqaDalCwmiDYqhAeqBAdYiAuzEBihIF6IQbUi2yZ4XQ6+fHHH3n11Vc5dOgQQ4cO5ZZbbpHSUz+j6ZB5UuN4gUZ2oUZeicbJMp2SyqprxaVdyoF1ChZTJSFWhfCgqmslNtRAUqSBqGADplo63iwpKeHQoUM4HI7T31u/fj0nTpwgOjr6dw8tOjql9jKySnLJKckjr7yAgvJCSuylVLjsuLSq/h4mg4kAk4VgSzARtjDq2cKJCa5HQkgsNpNUipyiaZBZ+Mu1WaSRV3zmtanpVYkOi0k567VZL9jwuwd1t9vN0aNHSU9PB6oa7V5yySV07doVo7F2f7wXletknHSTeVInp1jjRIlGcblOmSMUh7M9u1ZWYlarkhyhNoWo4Kr/nvHhBpIiDARZa+dD+rFjx5g3bx5utxuo+uxKT09nz549dOjQ4aw/49Y08spOkFmcS27ZCfLLT1JYWUyZoxyHy4lbd1clNI1mgsw2wqwhRNrCiQ6KIj4kmkhbhDyo/0qJvZSsklyyS/M4UVrAycoiiitLqXBV4nRX9U75adt+AkxWgi1BRASEERUYQWxQPeJCYggynzshJYQQ4txq90hI1GillTp7Mt38dMzFwVyNjJNVDwdO97l/1mpSiAlVSIwwkBKj0qa+kcYxBqym8xvc5ufnk5GRcXo7uPfff5/FixdjsVh49NFHueKKKwgKCrqYX094UIWj6lrZftTFoVyNjIKqJIf9rL02/3cBKYDFBNEhBhJ+uVZaJ6k0i1exGGvPg5CiKCQnJzNlyhTatGnDe++9x65du8jJyWHLli2kpqae7ueg6Rp5ZQXsytlHev5hMoqyyCk9QYmj7JzbViqKQqglmOigKBJDY2kS2Yjm0U2oFxSJQu357/lX2J06uzLc7Djq5mCe+5drsyq5cS7Ws1ybqfFGzL98cpeWlrJt2zbKyspISkpiwIABDBo0iLZt29bKRpxuDXKKNLYfcbE3y83/s3ff4XGVV+LHv7dMk0a99+Iid2xjG1MNGDA1hACBZDek94SETcIvbRPSd7PJBpaQwi4pJCTZsISSQAIJJbhgXLFxlS1ZktX7aDR97r2/PwY7FOMiz2juSOfzPDwPaPC9x6N37rz33Pc9p33QpGfUxBdMrOx73f/9mv9SFcjLUqjIV6krVplbqbGoVqc8T51SK7pycnJ4//vfT3Z2Nk8//TSxWIzOzk42btz4hkRH1Iixf6CFvf0HaB/tosffz3BolEg8+iZH/we37qIoq4CKnFLqCqqZVzqL2cUN6Or0nFaalkn/+BB7+ps5ONRGp6+XvsAgY2H/Cf+sgkKu20uZt+TodXNu6SxKs4tk1YwQQpwGxZKG68JmIjGLlzsN/r43xv5ugx6fSXSCzSEUwONSqMxXWVijsXqeg8Yy7YQrPH70ox/x6KOP8vWvf53HH3+cRx55hHPOOYePfvSjzJ8/f8o/Lc0UMQN2dcZ5bk+M/T0GncMnlwh7Mx6nQkW+wrwqjUsXOJlTOfWeUo6NjbFt2zYeeOABHnroIa644gruu+8+3G43vrCfDe1b2N69m86xHnxhP6Y1sY4NiqJQ4M6jNr+SJZULWF59BgWevCT/bewr/srYfHZPjH09Bt0jE7+OwZGxmbhBv3SBg7lVGocPH+bjH/84fr+fD37wg6xevfqYq3MynQWMBEye3xvnxZY4bYMGo4HEKpiJUBUo8Co0lmicNUPnnNkOirxT5z0zDIN9+/bx1FNPcd9997F//35uueUW/vM//5O8vDwMy2Rv/wHWt22hZbidvvEBoq+sNJgIt+6izFvMjKI6Lqg/i9nFjVNuDB7PSMjHxo5tvNSzm8O+07tuqopKvjuXmvxKllYuYEX1YvI9uUmOWAghpvD4VbAAACAASURBVAdJdAjbsIDBMZNHt0VZ3xxnwG8SS2L3S7cjcRN76QInVy1x4nYc+//bsWMHH//4x3nxxReZNWsWfr+fz3zmM9x0002Ul5dPqwmcnfWPmTzxUoz1zTF6Rk8vwfF6Th3K8lQumKNzw3IXWa6p9Ts3DIP+/n6effZZfvWrX/Gb3/yGrmg/j+55io7RLvyRAMd6Rj4RqqKS48pmdnEja2atoqlkxpRf5p4Ym1E2NMfpTtHYPL9JZ1lZH396+Hdcc801NDY24na7k3cim7CAHe1xfv9ihIN9JmMhi2TNWlQFcj2JxOZ1y5zMq9KnVB2PQCDArl27eOCBB2hra+NLX/oSMxfO5m8H17G5cwd944NHt6Alg67qlHmLOatmMWtmX0iua2qvejRfSRj9cd/THBruOKlVbyfryHVzZlE9V81ZzeyiBrQpft0UQohkk0SHsAXLgoN9Bj95OszBPpPwSSzrnqgsl8KiGo1PX+6mIPu1SztCoRBf+tKX+OlPf0owGATgsssu4+GHHz6pQm4i9UwLmnsNfr0uwsuHDSKxZN2Sv5HHoTC3SuMjq13UFU+9SWY0GqW7p5vne7ewoWcr/khgwk8iT0RTNYo8+Vwz9xLOq1+BW3el5DzpZFmwryfOb9ZH2ZnqselUaCq3eOcKk0WNeVMyAWua8OCmCA9vjuILW5ipGZroKhTmqNy00sllCxw4p9C2NdM08fl8HDhwgJ7wAPusDvYOHCQajyYtmfl6bt3N3NKZ3LjwKhoKalJyjnSzLIvH9z/D4/ueZiwyntLrZr47l2vnXsbFM86RZIcQQpwC7Y477rgj3UEIsaMjztcfDnF42CSexKefxxIzoGvEZF1zjKV1OvmvSnY88cQT/PjHP6a3t/fozzo7O6msrGTZsmWpDUyckGnCzsNx7vxzmH09RsrHStyEXp/Jzg6DmiKV8vzTrGprM1Ezxu/3P87zHS8SioVTduMDiRuDQCzEy737AItZxY1TatJumrC9Pc4PnwqzdzLGpgF9Y9AyqFFZoFExxcZmJGbxg7+EeXRrlGCUpK3iOBbzlW5eWw/FiZmwuE6fMnU7FEXB5XYxoI7yeMdzHBhuS+oqjmOJm3H6xgdoGWqj1FtEmbckpeebbHHD4N7Nv+aJ/c8Siqf+uhmKhdnZu5dgPMSi8rlTMqkphBCpIIkOkVamCS+2xPnaw0ECkck993gYNh0yaKpUKfKqdHYe5q677mLt2rW43W68Xi8rVqzgE5/4BFdeeSUFBQWTG6B4jSNJju/+KUSvb3IXovmCFs09BmV5iW4+6hSYZ/rCfn629X/Z1LmDuJniu/JXMS2LfQMtROIR5pXOmhLJDsOEl9rj3PmXEN2jkzs2RwIWLf0GpTlTZ2yOhSzu/EuItfvjGClaxXEslgW7Ow1Gxk2W1utoU+DNNEyDHb17uX/b/9Hj75/Uc4+Gx2gf6Up0aMkpRp0CN+iBaIifbPoVL7RvS2mC4/UsLA4OtTEQGGFhedO0LfoqhBCnQq6UIm0ME7YcivEfj4dOq0jf6ej3mfzwyQgfW22w64UXaGlp4corr+TSSy/liiuuoLGxEVWdWk9KM5EF7O8x+I/HQwyNp2e3XceQyQPrIzg1WFSrn3bL4nQaDY/x4MuPs61rV8qf7r6ZPzc/h646eNuCyzN6G4tlwd7uOHc/FaJ/LD1js23A5IENEZz6FBibQYuf/z3MiwcnN8nxak/siOFyKNxyvossZ+benJuWyf7BFh7Y/jB944NpieGwr5uHdj+BU3cyt3QmmpK5g9MfCfCbHY+wrfvlSU1yvNr69k24HU5uWnSNtO8WQogTkBUdIi0sC/b2GNzzVJghf3rLxIyFLNr7AswsVfjAu2/iIx/5CGeffTaFhYWyRNQmOodNvvunyX9a/nrD4xZjYYv6EpX8rMxsSxmIBvnrgbX8/dBGQvFwWmM5ONRGrstLfUENWoYmFLtHTO78S5j2wTTdlb9iaNxiLGTSUKqRl6ljM2Lx2NYof9sdI3jiDqcpdajfIMulMKNMQ8/QlR3d/j7u3/p/tI12pjWOkZCPsYif+vxqcl3ejPxeDcXC/Ln5WZ4/9CLh+CQvP30VC4sefz9O1UF9Qc2UL+wshBCnIzNnliLj9flMfr8xQs+omabnIv9gmNA26qFHW0h5bRMOx5u0YxFpMRZKPOFtS/ONJCRWlmxri/PkzhijwXSP3FMXN+Ps7N3LuvbNjEcD6Q4H0zL5476/satvf7pDmZDxsMUvng9zoHfytv4cz9Y2g7/sjDIWysCxacDm1jjP7InZIv5IHB7dGmXboXhK64OkSjge4dE9T9E8dCjdoQCws3cvT7esJxgLpTuUU2aYBtu7d7OubTOBaDDd4RCMhXimdT07e/diZuLgFEKISSKJDjHpIjGLv+2OsbvTIJ7+e1cAQlGLFw7E2XoonvIiguLkWRb8dVeUTS1p2tt0DHED/r43xktt8aS2DZ0Mvf4Bnj+0id5J3qt/PL6wnz/vf5b+NC2tPx1P746xrtk+Y9Mw4dk9cba3xW1zbT1Zh4cN/rYrRveofQIfGrf403Z7xXSy1rdt4YWOrekO4yjLsljXtokdvXuT1oJ1snSN9fF824sMBIbTHcpRg4Fhnm19wVbXciGEsBtJdIhJt7/HYOOBOP6wvSY7/WMma/fH6MnASe1U1Tpg8OTOmO2ST6NBiz/viDI8njljJRQL81LPbvYOHEx3KK9hWiatIx2s79iCkaIWjanQMWjy2LYopr0uY4yFLB7dGsWXQSuOglGLzS1xdncatlo9YZiwv9dg7f4YMcNGgZ1A3/ggj+19alKLDJ+MYCzEn/b+zRaryU5WOB5hW/fLHBg8lLIWshNhWCYHBg+xpWsnUSOW7nCEEMKWJNEhJlUgYvFiS5yOIXtNwCCxeuDlwwa7OuMZNamdqkwL/vpyjF5f+rc3HcveboMtrekrmHiqhoIjrG/fSiSN+8vfTDAWYkfPHjp93ekO5aT9eWeUPp89f/nNvQYvNGfOzU/3iMm65jjBqP0+6ePhRNvZdNdgORVPH1xvq9UHr9Y+2sm69s3pDuOkdfl62d6925ZbbsajAXb07KXL15PuUIQQwpYk0SEmVduAycuHDSL2We39GuNhi82tcQbTXCBVQNuAwa7DcaI2vV+LGfDnnTEicfuPlZgRY0//AQ7bNJFgWRadvl529uxLWzeDU9ExZLLNxtvcDBMe3RYlbrflJscQiVns6TRo7bfnm2lZ0NJnsqPDyIik5sD4EJs6X7Lt58i0LP68/zki8TRXmz0JUSNG89AhDo0cTncob6p1pJ3mwUO2W70jhBB2IIkOMWniZuJJ46EBe38h72g36B01bbWEejra1hanb8yu0/WE1n6Dfd32Hs8AoXiETYe3Y9h4MhyMhjg4dIihwEi6QzmhTS0xhsbtPTY7hxPJGLvzhSw2tdq73k0wYrGvO07/mP0zHVu6duILj6U7jOMaDAyzrXtXusM4oZHQKLt79xOz8daQcCzCvsEWhoL2v24KIcRkk0SHmDRDfpPmHoOozefe4xGLXZ0GoZidb2OmtmDUYl+3YYvuC8djmPDcHvtOgo8YCY6yb6Al3WEcl4VF51gvHaNd6Q7luGJxi50dBuMRe49N04K/7bL32LSA4XGTnR32/lKwSKzq6By2d6LDtEy2d+8mYth7tYSFxYZ2+xRKfTPDQR/7Bu193QRoGWpjIDCU7jCEEMJ29HQHIKaPoXErKas5VAVyPAoF2Qpel4I/bDE0bhGMWEkrDLi7M84VZzjIcirJOaA4Je0DJv1jp//LVBVwORTysxQKvQrhqMXguMV42EraMvTNrXFMK3EuO7Isi5f79qes0KeqqDg1B07NgWlZBGLBCXdVGAgM0+3vZ4lloSj2fEMPDZoMjp/+ii9VAbdDIT9bocirEAj/Y2wm6zq2uTVONA5Om37Txw3Y220mbSvjkffUqSe2loWiyXsve30m3SMmhgmaTR8Rdfl6GQ6NpqSrSZbDg9eVTYEnl0g8xlBwhGAsNOFVYgcGWwhGQ2Q5PUmONDmiRpT20c6UtZNVFRWX7sSh6piWyfhpnGcwMEKvf4A5JTPQVZt+2IUQIg3kiigmhWUlntwlo01fSa7K7Ve7qcjXMEwLpw7NPSY/+3uYtsHkbDlp7TcJRoCc0z+WOHVdoybDgdP/RRbnqNx4lpNzZiUudQ5NYSRo8t/PRNiSpGX9wwGLw0MmdcX2vPsxsdifoqeSLt1JY0Et5zecxZlVCxkOjvKdv9/DWNg/oePFjBj944OMRwPkuLxJjjY5OgZNxpJQl7A8X+XmlS7ObNCwAKemMBww+cnfwrzUkZx9HKEYtPQZzK3SknK8ZIsZFvu7k/M5dGqwqE5nzSIHy+p1thyK8z/PhulLQsIUEqu3OodN/CGL/Gx7JuHaR7tSVjTzU+e+j/r8GuJmHFVVGRgf4uE9f+Hl3n0Tqg8RNeO0DLezsHxOCqI9feF4NGW1OTwON03FjVzYeDaLyufSOdbDV/76/Qkfz8LisK+bYDRErlsmLUIIcYQ9Z+ZiyonGLfrHLCJJWEkdiVlsaonz38+GufMvYf64LUpjqcrq+Q7cjuRMQH0hi6EkPLUVp84CBsYSNxSnS1PBFzR5YkeUu58K84vnw3gcCreuceNM4r1fc499CwxYlkX7SGq2g1TnVvCWuZdSm1eJaZmoisLpfgKHgiOMRcaTEl8q9PpMAkloja2pMBxItKj9ryfD3L8uTEGWykcuceNI1ti0oMWmRT4BDAPaktTNpCRX4bbL3VTlqwQiFqoKpz0YX6fXZ9p6y1Kvv59wiroqmabJn5uf4b6t/8uje57C43BzYeM5FGcXTuh4hmnYtjgyJAqR9oz1peTYc0pmcO3cy8h352FhoSZhKt7nHyBkw45aQgiRTrKiQ0yKSBwG/cmZ0I4GLf534z/2IPf5VJbWOyjLU5O6pLhn1GRhLej2fHg3ZcUNC1/QIpyEGin9Yya/fzFK3ODoEvYzG3TOa3KQ7VaIJmHVCMBhG+/dj8ajDIdGU3Jsf2SctW2b6Brr423zL6fMW3zaxxyLjNuylSMkxtBIIDljs2fE5DcbIsQMjiZUz53lYE6lRrZLYTSYnLHZZeOxGTOhL0kFPgMReGhzlEP9BmsWOZOXLHqVkXHTli1wjxgKjRJNUeHMH77wCwKvfC7z3DlU5pTRUFhDtjNrQsczLZP+cfvWlYgbMQZTVOBzKDjCXw+upXXkMLee/Z6kdMgZDo0StXltFiGEmGyS6BCTImZYSS0s6dCgulClpkhldrlGfrbCxhYjqZX7RwKWrOhIg3CUpN1MGCavqcXhdSVqdQwn+YYlWUm8VPBF/CnrttIfGKL/lSJ4cTNOMh6hB2Mh27aejMaSVwsobgKvGjY57lfGZsAilKSxaZGojWRXoaiV2CKYBKNBiz9sjlKcoySu2ylIUPsjFlGbtpM2LJNANJiyz3rgVcnHLIeHAk8eY2E/oVh4QsczLYtRG3eHiZsG/hStLOsY7aZjNLGaxbRMkjFY/ZEAccPeRX2FEGKySaJDTArTJClPQY9wORQW1+lctjCxkmMkYLGn0yCWxEloMCqJjnSIGRaxFMzXdBUuW+SgpkjlN+ujSdlGdUTAxsvZJ7o6QlNUqvIqKMoqeMM03LBMBgJDdKdgaXfMiE1oz/9kiBqJ8ZlsDg2uXuKgIl/l3mfDSSvOCclLGqaCnWM7lmiMpBUxTra4EX8l2Xjqsp1ZzC5uPObtdiAa5OBQ29Fixh6Hm8WV8ynPKeHplvWn0dbUIjzBJMlkiE7wOqSrGvUFNeS4vG94P2NmnF7/QEo6pESMaMoKTgshRKaSRIeYFNYr/yRLOGaxuTXO4SGTuVUa5zXpnD1Tp6XfTN7T0Myag08ZlpX8915V4KJ5Dq5e4mTd/jhPvZzc5d1mslo7pIBpTmzy69KdnFN7Jsurz3jDhD1ixFjfvjkliQ4rFQMgSSwrGYvMX0tVYM0iJ1ctcfLkyzGe2Z3cLJ9p0/cSINPuy0z7Dk1Ma+I1pcq8xfzz4uuOmehoH+3iJ5sewIhHcKg6iyvmc2HD2ewfaGFz544Jr76ysO/YTMxXJhabW3dz6czzmVVU/4bXxqNB/npwbUoSHanotCOEEJlOEh1iUigK6Ensvxk3EhXwO4dN9nYb1JeoLJ/h4P82RwkladW7bs9GBVOeqipJrbWiKHDObJ3rVzg52Gvwu43RpBcUdNq4kItDc0zoz4XjUZ5pWc/mzh1veM3EYixFy841VUNV7FknW1MVtCRexxQFLprv4G3LnOxoj/PbDZGkr3JwavYdm3b+3ByLrtq3jbSu6qgTbMncPdbHjzbef8zXIkaEmBFDURTmls7i+gVX0Onr5U/7nmY4OPHaPwoKumbPKahC4v1UUE454RGKh3l071N4dPcbXjMsg5GQL0lRvpauarZtyS2EEOliz28ZMeXoqkKWKznHUpVXnri8Mv8wLdAUcOnJ3Zad61FsO6mdylw6uCZ2b35MS+s13nG2i/4xi1+tj9DnS/5j5Lws+w6UXNfE2g2alvmaGhyTxaW7JpycSTW3g6R26zlnls5NZzk5NGDwy7XRpLRUfr1cj33HpteloCj2XSXxeh6XgsOmiSOHpuPUnSiKcspP98PxCC3D7cf9fxoKa/jA8nfQNz7A73Y8St/44GkV0VQUhZwJFjKdDA5Vx607T7mTiWEaKVnpdiIehxtNkaczQgjxapLoEJPCqUNB1uk/pVUVWNag8+4LXGxojjEatFhSp7G4Tmft/lhS97YX56jIA5LJ53EqeN3JuQGqK1a5bpmLqkKVjqE4q+f94wb6iR0x+pPU8aE8z54rEABy3V5cujMlBT5dmpP5ZbOZUVRHTX4VuW4vb5l7Kb6wn8f2/nVCx8x2ZuF2JCkrmmS6ppDjUXBonHbh41nlGtctc1KSq7Kvx+DKMxJjM27AX16OJaXArQKU5Np3bDp0KMxWklIwVVPhkgUOGko0GktVNFXh+uUuXmqP81K7kZSVMnkeJalJ2GTLd+XgUPWkd15xaDpfWPVxnJqT5sEWLmg4C0jU79jStZO+8cFTPqaKQmFWflLjTCZd1cj35BHy9yf92B6HmzMrF1KRW0pBVgGKAjcuvIqRkI+/HVw3oWPmuXNx2jRBLIQQ6SKJDjEpXA6FsrzTv3m1gLFQouvB1UtcKArETYt1+2P8el0kaUUhNRUqC1RU+94jTFmKAoVeFa9bwX+anXp0FWJxi0DYYlGNBjX/eOK1vjlGf5J2XzSU2vdJmgJU51ac8IntROiazsyielY1rATAMAxW1iwFmHCio9Cdi9fGT3pLchSynAq+JIzNcAyCEYsz6//xVRyOwYYDMQb9pxspoEB9iX0vYpqa6J41NH76xWcVBc6s15lf/Y/P4rmzdRwaNPcmp8tSSY5Ctsu+2e9SbzEu3Zn0RIeqaMSMODEjztySWcwtmQXAQHCYg8PtE0t0qCoVOWVJjTOZHJqDMm8JPSlIdDg1BwvKmlhYPgesRNHzCxvOZjA4POFER0l2ES7dmeRIhRAis0miQ0wKXU2skCjIUk5rebZlwb4eg0//KkCOW8HtUBiPWAQiye2QUlWgkuNWUtGhUJyE8jyV/KzTT3S09Jt87eGJdR05WQ4NZpfb92ZSURRmFNWlJNERiAb5/ct/4vcv/ykpx1MVhWJvEbkub1KOlwrVhRpez+knOvZ2G3z5wWCSojo2TYVZZfZNwukazCjT2NFx+omOuAHffix1n3VFgcoCjRy3fb8VqnLLcetu/JFAUo8biUf4+GNfTuoxdVWnobA2qcdMJpfupCa/kpd6dif92L6wn59s+nVSj1mZW4bH8ca6IEIIMZ3Zd3YuppxCr0JtcXIm3YYJo0GLXp/JeDj5bWCbKjSynPad0E51NUUqxTmZcXmaVaaRl4RtWamiKArzSmdnRKE6r9NLubcUl27PrSuQ2A5VkJUZSdCaQpUyG2+rcmgKcyu1pBYfThWvS6G6SMFj4xUdtflV5Lq8ZMLoLMrKpzKnNN1hvCmX5qShoAaHav/ngW7dRXVuBe5jFEAVQojpLAOmF2KqKM5RmVWm2r7Ap67BwhqdLBtPaKe6slyV2iIVp/3nmJw/x977ohUUGgprKMoqSHcoJ1SRU0p1XkW6wziuklyV+hIVRwaMzVVzHbauM6SpUF+sUZ5v/6lIXbFKVYFm6xRCvieXhsIadNW+q3iOWFq5CM3GcWqqRkVOCRW59k3GHFGbX0mpt2jCXXeEEGKqsv/sQkwZXpfCrHKNQq+9v4xrClUaS1Uc9p2DTXm6BmfUahRk2/sSlZelsGKG/e94vc4sllTMT3cYx6WrOnUFVVTZ/MZCVWB5g27rLQwA2a5EosPu8rMVljXY+zOkq4nisVUF9r4eASyvPsPWK6IgsVri7Nql6Q7jhAo9+YnVcOkO5DhURWVWcSOl2UXpDkUIIWzH/t/aYspQFJhdoTGnwr4ZBFWB5Y26rZd7TxcLanTqilVbL2s/Z6ZOqY27Whzh1l0srVyA15Wd7lDeVFFWPvNKZ+FxeNIdygktqNGpL9FsvTpt5UwHFRmwUiLbpbCkXqcg275vZmmeyoJqjWybJ7cAZhc30lBYne4wjuuMinlU55WnO4wT8rqymVsykwIbd4cpyS6kqbiRbBsXcBZCiHSx/yxITCmluSpL6nXbruqoLlRZXKfjzYAJ7VSX51FYNcdh2y4H+VkKlyxwZsTKH1VRqc2vYrFNV3VoqkZjYR3zS2enO5ST4nUrrFnowOWw59j0uhSuWeq09ZPoIzQVZpaqnGnTVR2aCnMrNRbU6Bnxfrp1F2tmXWjbbQwu3ck1cy9FVew//VQVlRlFieuSHd9NVVGZUzKTWcUNGVGDSQghJpv9v2nElKKpsHKmzpxK+z0N1bXEU9AmG8Y2XZ07255jBeCS+Q7qS1Rb10B4tXxPLmfXLKHYhrU6Cj15XFC/wtYrTl5v5Uw90bLYhi5ZqFNfnDlf70VelXNm6bZcgVKep3LBHAd5ngz5oAOLyuewtHJBusM4pgsazqK+oCrdYZy0Ak8eZ1YtpMxbku5Q3qA8p4Rl1YvIc+WkOxQhhLAl+80qxJRX5FVZs9BpuwJ08yo1Lpij47XpCoLpyONUeM/5Ljw264Azu1zjwnmOjFjKfoSqqDSVzOCcumVoNnqa6tAcLKtaxMLyOekO5ZS4HAofvMiN22ZlMBpKVK5Y5MRts8/M8agqLK7TOXe2jm6j3JHLobC8UWdZg54xCU1IfKZuWXIDXpttZ6jIKeWqpovRM6CTyRGqonJG+VwWV87HodknbpfuZHHFfM4onyerOYQQ4k3YZ7Yrpg1FgbNm6Kyao9vmBrYkR+HShQ5mldtoli0AmFGm8d4LXLa50chxK7x1mZPGUnt3YDiWbGcW59UtZ0H5HNvEXptXyfULrrR1B4Y3U1Ok8vFL3bZZcZTtUnjH2S6qCzNwbLoULlvoZJFNtogoCswoVbn5HJetki8nq8RbxLuX3mibLSwu3clNC6+hOKsw3aGcMrfDzWWzLmBmUYMtWvcqikJjYS1XNl1sq+SLEELYjXbHHXfcke4gxPSjKNBUodE+ZNI9YmJa6YvF61a4fJGDa5c60exyxyJeY3a5xtC4SftgesdKlhPeeqaLSxc4cNu0PsOJ5LlzyHZ66PT1MBYZT2ssRVkF3HrO+yjJzrybnyMaSjX8IZPW/vSOTY8D3rbcxUXzHbZJIJ+q/CyFXI/CoQEDXyiNbyZQka9y2xVuqgszMMvxijJvCTEzzqGRTkzLTFscLs3JNXMv4Zy6ZbbvCPNmclzZ5LlzaRvtxB8JpC0OBajMLeeWJddTk1+ZtjiEECITSKJDpI1DU5hfrXFowKTPZ2KlYV6b5VS4aJ7OP53rztibg+lAUWBhjU7PqEWPz8JIw5w9y6mweoGDt57ptH3b2xMp8xbj1J10+/oIxIKk45ay1FvMh1f8E7OKG9Jw9uRRFGiq1BnwW/SMWsTTNDYvXejk2ikwNisLVdwOaB8wGY+kJ9lRlpdYqXNGbWY/LddVjZq8SsbCfvrGB4ibxqTH4HG4uaBhJWtmryLPnTvp50+m8pwSPLqLDl8XgWgwLTGUeYt5xxnXsqhiblrOL4QQmUQSHSKtspwKi2o0+sZM+sYm9wY226VwyQKdd53vIteT2TcH04FTV5hToeELWvSNWUTjk3fuHLfCxfN0bljhmhKthxVFoSavArfDRd/4AP7o5D2hVBWFuoIa/mnxWzmjYt6knTeVXA6FmWUaY2GLft8kj01PIgH3tuXOqTE2gYYSjSwXdI2Y+IKTl+xQFGgsVfngRS7Ommmz4isT5HG4qcmrJBALMRgYJmrEJu3cOa5szqtbwZVNF1GSXTRp502l2vwqsp1Z9Pj78U/iijgFqM2v5KaF17CiZvGknVcIITKZJDpE2mW7FOZXaUTj0DsSwu/3ozncKT1neb7KW5Y6uWmlJDkySZYrcUNpAQNjFoFJeOJbnKNw1WIn1y13UjoFbiSPONJyNt+dhy/sZzAwkvJzujQnC8qauH7BlSwon2Ob+gHJkO1WmFGqAQoDYxbBFI9NRYGSXJWrFjt5y1In5VNobCYSDhrFOQqjAYsBv5XyFX9OHZbUa9xynpszGx02qMSQPF5XFjV5FSiKwlBgmFAsktLzKYpCcXYhqxvP5bJZF1DqnRpJDkj83WrzqyjxFuELjzEcHMFK8Zo4h6azoLyJGxdexRKbdtMRQgg7kkSHsIUsl0JNfoRNzz3G7u0byKtaCEmuzG4ZMUZa1zGv2sG7LizmijNcGdWZQCSeamW7FBpLNQqyFfwhi9GglZLaCIoCi2o1bljh5LJFTvKzps6N5BGKolCVV05NXgWaqjEQGCJiRFNyruKsAs5vOIur5qxmRlGdrTq/JINCot5PldBZKwAAIABJREFUQ6lGoVdhLGwxGkjd2FxYo3HD8kS9mEzfrnIsigI1RRoNpRqaAv1jFuEULUYozVW5ZIGDG89y0VSh26a4bDJlO7Ooyask35PHeGQcX9ifkrodqqIyp3gGVzet5vz6FeR78pJ+jnRTFIWKnFJq8ytRFJWh0AjheGqSR0VZBVzQcBbXzLmUmUX10mFFCCFOgSQ6hC1YlkXz3pf52d1fZ/n8Ki6+6EJGggrBJN1zqQrUFMTpWv9f5IZe5kM3XYjH7UzOwcWkczsUaotUZpRpZLsUBsctgtHk3VFWF6pce6aTt57pZGmDA5c+tSeXBZ58ZhTWUp5TStyMMxL0YVjJ2c/vcbhZXDGPK+dczHn1Kyj1FqFOsSTHq7kdCjVFKjNKNbxuhYExk2AS74GqChJj89oznSyt1zO2KO7JKvSqzK7QqcxXiRswNG4mrQ5KlivRPva65U4umZ9YFTMVkxxHuHUX1bnl1BVU43VmMRQcJhgLJ+34pd5i1sxaxeWzV7GgvAm3IzMLj56sPE8ujYW1lHmLiZsGoyFf0uqgHL1uNl3MBfUrKPEWSZJDCCFOkWJZ6SgBKcRrhUIh3vve99LX18dPf3ovZdUzOTRosKklzobmOH2+iXU00DWoK1I5f46DxbUKz/zxfv7rB//BnXfeyRVXXJH8v4iYVBbgD1kcHjJ4sSXO2n1xukcndhekqVBbrHLebAdL63XqilWyXdNrYmmYBv2BIQ4OtfHi4e3sHThIMBqa0LHcuotF5XM5q2YxM4vqKczKR0/yKi27GwtZdA4bbDwYZ11znK7hiY1NVYG6YpXzmnTOrHdQV6ySNc3GZtyAvjGTvV1x1u2Ps/OwMeGta1kuOLNe59zZDuZUahTnqDgyt7nKhPgjAXr8/WzvfplNnTvoHuub0HEUFKrzKlhRs5jFFfOozC0jy+FJcrT2FjfjDAZGODDUyqbDO9jT3zzhBFKWw8OC8iaWV5/BrKIGiqbhdVMIIZJFEh3CFu69916+9a1vcdddd/GWt7wFVVUxLQhGLcaCFvt6DLYdirOny6B79PgdWlQV6otVFlbrLKnXaCzVyPUouB0Kfv8Yt9xyC729vfz973/H5ZraT5ymC+uVseIPWxzoNdhyKM6ezsRYib/ygM2MR4iM9eDOr0Z5ZeKoa4nVGwuqdJY2JMZKXpaCx6EwnR+exc0449Eg/eND7O0/wO6+ZlqG2wnGjp/0yHV5aSisZX7ZbBaWzaHAk0e2MwtdnWZ3ka9iAcGIxVjI4mBfYmzu7jToedXYtIwYoeF2soob4ZXVLg4tsXpjQY3O0nqNhhKN/GwZmzHDYjwMvT6THe1xdnQY7O+JEziyasayiIVGMONRXLnlR/9crkdhdrnK4jqdxXU6xTkqXrcy7RIcrxeKhRmL+Gkb6WRnz172D7bSNz5I3HzziroOTafcW0pTyQwWlc+hNr+SXFcOnhTX1rK7mBknEA0yGBhmd18zu/ubaRlqO2HSw+vMprGwloVlTcwrm01RVgHZTo8kOIQQ4jRJokOkXVtbGytWrODGG2/krrvuQtff+OVumEf+sRgPW3QOmwz4TcbDiZ87NMjxJNoCVheouJ0KmqqgqbxhKfLmzZu58sor+exnP8v/+3//b5L+lmKymFbi6e+RsdI1ajIwZvH0k3/kVz/6Gl//4WPU1VRQmqtRWaCQ7UqMFV1741iZ7iwsDNPEMI3EU8vgMH3jg/hCfiJG4s7SrbvJd+dSllNCoScPh6ajKRraNE5uvJlXj01/2KJn1GTAZ/Hcs0/x4+98ku/fv47qihJKcxUqCzSyXcjYfBOW9Y/vhLgJfT6TnhGTtq4BfvM/38My43zg09+kvNBDVYFK0SurNjRVQdOYUsVGk8G0Ep9zwzQZjwboGx9kKDjCeDSAYRroqobXlU1RViFl3hKynZ5XPufqlN6KNhGvvm4alsFgYJg+/yC+8BhhIwIouHUXee5cynNKKMrKR1M1dEVDVVUUGZ1CCJEUki4WaRWLxfjIRz5CXl4e3/zmN4+Z5IDEtgJNBVDwOBVKcic+sVq+fDnvfe97+eY3v8kNN9zAjBkzJnwsYT+qkuig8PqxMrInzu8MH5cv0qmqkvosJ0NBQVc1dFXDhZNsZxZ1+dXpDitjvX5slr4yNsdbYmjGOJcvVCkvnxptTVNNURIrsnRNwUWiS0tjqcbMfI31+WEMw2DNQo3sbHk/T4aqqKhaIhnkdrgozi5Md0gZ69XXTUi0pK3Nr0pzVEIIMf1IGl6kjWEY/PSnP2Xz5s3cfffdFBQUTNq5v/CFL1BWVsaXv/xlwuHkFWMTQgghhBBCCJFekugQabN9+3buuece3vWud3H55ZdP6rkLCgr4zne+w9q1a3nssceQHVxCCCGEEEIIMTVIokOkRV9fH3feeSfl5eVpq5Nx3XXXsWrVKn70ox/R3t6elhiEEEIIIYQQQiSXJDrEpItEIvz+979nz5493HbbbZSWlqYlDl3X+fSnP43f7+f++++XLSxCCCGEEEIIMQVIokNMuk2bNvHggw9yxRVXsGrVKjQtfd0Z5s+fz9vf/nYef/xxXnzxxbTFIYQQQgghhBAiOaTriphUXV1dPPDAAxQUFHDzzTeTm5ub1ng8Hg833XQTiqIQDicq9acz8SKEEEIIIYQQ4vRIokNMKq/Xy3ve8x5yc3OZOXMmipLefvGKolBTU8OHPvQhVFVFVWWR01RVVVXFmjVrcLvd6Q5FCCGEEEIIkUKS6BCTKjc3lxUrVqAoStqTHEdomkZ+fn66wxAptmzZMubOnSu/ayGEEEIIIaY4SXSISWWnBIeYXlwuFy6XK91hCCGEEEIIIVJMEh1CnIR4PE48HseyLDRNQ9d12eYihEgKVVXRdfk6Tha5NgshhBBCZlYipWKxGH6/n3g8jsPhIDs7G6fTme6wTkksFuP+++9n7969BAIBqqqquPjii1myZAkejyfd4YkJMk1TboiELVRVVXHddddJ/ZgkcLvdLFu2DMuyJHkkhBBCTGOKZVlWuoMQU1MoFOIPf/gDL7zwAn6/n+LiYs4//3wuuOACCgsL0x3eSfP7/Vx88cVUVFTg9XppbW3FMAy+9a1vsXr1aunSkkEMw6C1tZWenh7GxsbIzs6mqqqKuro62dYihBBCCCHEFCGJDpEyHR0dXHPNNcybN4+SkhIOHTpER0cHn/nMZ7j55pszZmWHYRgcPHiQmTNnoqoqa9eu5XOf+xxXX301n/rUp9LeIlecvMHBQT72sY/R2tqK0+kkFotRUVHBrbfeykUXXSRJKyGEEEIIIaYAWdcpUqagoIDvfve7nHvuuWRnZ7N9+3Y++9nPsmHDBtasWUNZWVm6QzwpmqbR1NQEQCQSIRgMoigKmqZJYdUMoygKCxYs4B3veAdVVVW0trZy55138utf/5rFixdTXFyc7hCFEEIIIYQQp0kSHSJlcnJyWLNmzdH/9nq95ObmoqpqxiUIgsEgjzzyCM8//zwHDx6kpKSEiy66iKysrHSHJk5BQUEBt99++9FaCA0NDTz33HMcPnwYn88niQ5hC9FoFIfDkXHXSTsyTfNojSh5P4UQQojpQxIdYlLEYjF27tzJ4cOHufLKKykoKEh3SEDihuKZZ57hj3/84zFfv/baa7nssssAsCyLaDSKz+cjFAoRi8Vk4pxhVFV9TcHH8fFxWltbqaqqoqioKI2RiekuFArx61//mhdeeIHR0VEKCgpYvXo1V111FXl5eekOL+N0dXXx8MMP8+KLLzI+Pk5eXh5r1qzh5ptvluu2EEIIMQ1IokNM2JNPPsm99957zNeuu+463v72t+N0OjFNk127dnHPPfewePFirrrqKhwOxyRH++Ysy8IwjDd9DcDj8fCWt7yF1atXs3fvXr773e/y8MMPM2fOHEpLSyczXHEcfX19bNu27Ziv1dTUMGvWrKNFR0OhEL/97W8ZHBzk1ltvlZtJkVYDAwN873vfY8mSJcyePZuWlha+9a1v4ff7ed/73mera2YmGBgY4ODBg+Tm5tLQ0MBLL73E5z//eVRV5aabbkp3eEIIIYRIMUl0iAnzer3U1tYe87WCgoKjT826u7u5/fbbycrK4nOf+xyVlZWTGeZxORwOLrroIs4+++xjvn6kfayiKOTk5JCTk0N2djZ1dXUcOHAAv98viQ4beeGFF/jABz5wzNfe9a538cUvfpGSkhIAHnroIe677z4+9rGPcemll8pTXpFWJSUlPPjgg1RXV+N0OmltbeUrX/kK69at4+qrr6aqqirdIWaUefPm8dWvfhVVVdF1nWAwyMqVK/ntb38riQ4hhBBiGpBEh5iwc845h5UrVx7ztSN1OILBIO973/vw+Xz8/Oc/p6mpyVY3lIqi4Ha7X7Od4fVaW1sxTZOZM2cCsGfPHnbv3s2sWbOOJkKEPVxzzTUcPnz4mK9pmnb0qfiTTz7JJz/5ST784Q/z6U9/WrqtiLTzeDwsWrTo6H8XFRVRWFhIMBh80xVn4s05nc43dPaKx+NIozkhhBBiepBEh5iwI51H3kwkEuHmm29m9+7d/OIXv6C8vJzh4WGcTidZWVkZc3O5ceNGPvGJT9DQ0EB2djbt7e1kZWXx+c9/PmM6x0wXmqYdN/lkmiZPP/00119/PTfeeCNf/vKXicViGIaBruuoqjqJ0YrpxDAMYrHYMV/TdR1d/8fXsWmaHDp0iO3bt/O2t72NioqKyQozY8TjcQzDOGbi4tVJzd/97nds3LiRZ599lkAgwBe+8IXJDlUIIYQQaSCJDpEyu3btYvPmzei6zmc/+9mjP1+1ahW33XYbDQ0NaYzu5K1Zs4Z77rmHffv2EQqFuOGGG1i9ejVz586VG+MM09nZyYc//GEMw6C8vJzvfe97AFRXV3P55ZdTXV2d5gjFVLVnzx4effTRY762YsUKVq1ahcvlwrIsWlpa+OEPf0hdXR033nij1Oc4hrVr17J582ai0ehrfq5pGosWLeKqq64CoKOjg507dxKJRJg3b95xV+8JIYQQYuqQRIdImbq6uqM3kq9WVVVFYWFhGiKamKKiIt7xjnekOwyRBNFolBUrVuDz+dixY8fRn/v9fs4777w0Riamut7eXtavX3/M14qLizn33HNxuVx0dXXxgx/8gK6uLr72ta8xZ86cSY40Mxw6dIgNGzYQiURe8/PXr+q6/fbbuf3229m/fz833HADt956K88995wkqYUQQogpTrFkw6oQQgiRUpZlHbc+hKqq9PX18e1vf5sNGzbwla98hauvvtpWNY3s5GTez9d73/vexyOPPEJPT8/R7ktCCCGEmJpkRYcQQgiRYoqiHDdpMTY2xne+8x3uv/9+PvnJT1JZWclLL71ETk4OVVVVUvj4dU70fjY3N9Pa2kpNTQ3Z2dm0tbWxZcsWGhsbM6Y+lBBCCCEmThIdQgghRJp1dHTws5/9jFgsxnPPPcfatWsBWLp0KR/96EePdn0SJ2ffvn3cfffdKIqCx+Ohq6sLTdP44he/+JrCr0IIIYSYmmTrihCnKBgMsmHDBuLxOOeeey45OTnpDkkIkeFGRkZYv379G1rJlpSUMH/+fPLy8tIUWWbq7e1l586ddHZ2EggEKCwsZObMmSxZsuQNbWeFEEIIMfVIokNM2D333MPevXv5whe+QFVVVbrDmTSGYfDLX/6SX/7yl3zjG9/gvPPOk8J2GaCnp4e9e/dyzjnnSOcFIaYBy7KOto92OByykkMIIYSYRuTuTEzIjh07+Pa3v01FRQVlZWXpDmdSaZrGZZddRl5eHj/5yU8YGhpKd0jiJLz44ot8+tOfZnh4ON2hCCEmgaIoOJ1OPB6PJDmEEEKIaUYSHeKUxWIxbrnlFmpqarjtttum5QSyurqaf/7nf+aFF15g7dq1mKaZ7pDECUSjUcbGxo7bqUEIIYQQQgiR+STRIU5JPB7n29/+Nq2trdx9991kZWWlO6S0eetb38qFF17IN77xDVnVIYSYMNM0icfj6Q5jyjAM4w21ToQQQggxvUiiQ5w0y7JYt24d//3f/83nP/95li9fnu6Q0srpdHLrrbcSDoe58847ZWIthJiQ7u5uHnvsMUKhULpDyXjhcJht27axdetWSR4JIYQQ05gkOsRJ6+rq4t/+7d9YtGgRt912W7rDsYUlS5bw7ne/m3vvvZetW7emOxwhRAbasmULH/nIR/D5fOkOJeP5fD5+/vOfc9999xGJRNIdjhBCCCHSRBId4qQEg0F+9rOf0dfXxxe/+MVpvWXl9T7wgQ8wd+5cvva1rzEyMpLucMTrtLW18Yc//IHnn3+e8fFxHnzwQe6//375XQkhhBBCCDFFSaJDnJBlWTz33HP88Y9/5J3vfCdnnnlmukOyleLiYv71X/+VLVu28Lvf/S7d4YjX6ezs5M477+S+++5jeHiYL33pS3z1q1+VZe1CCCGEEEJMUZLoECfU0tLC/fffz6xZs7jhhhtwu93pDsl2LrroIm666Sb+53/+h927d6c7HPEqc+fOpbGxkVgshmVZBINBLr74YkpKStIdmhBCCCGEECIFJNEhjikej2NZFoFAgIcffpiOjg7e9a53UV1djaIo6Q7PdnRd51Of+hSWZfHTn/6U/v5+NmzYQGtra7pDm/YKCwtZuXIlpaWlAKiqyoc//OE0RyUEjIyM0NzczOHDhzEMg/3797Nv3z7GxsbSHVrGsSyLtrY2mpubGRkZYXR0lH379tHV1UUsFkt3eEIIIYSYZHq6AxD2E41GeeSRR+js7KShoYGHHnqIa665hnPPPReHw5Hu8Gyrrq6OT37yk3z5y19mx44dhEIhvvjFL9LY2Jju0KY1RVE4//zzqa+vp6enhzPPPJPFixenOywh2LFjB//+7//Ojh078Pl8vPe97yUvL48//OEP5Obmpju8jGIYBg888MDRLWoAW7du5bbbbuPd7363fHcJIYQQ04ys6BBvEIvFeOKJJ/jKV77C+9//fiorK7n++utl4n0C8Xiczs5OhoeHWbduHTt27KC7uxvLstId2rQ3Z84cFi1ahNvt5p3vfKfc9AhbaGpqAqCnpwfDMDh06BBer5fa2to0R5Z5NE1j5cqVtLW14fP58Pl8+P1+ampqyM7OTnd4QgghhJhkkugQbxCNRtm8eTOBQICRkRG2bdvG+vXrCQQC6Q7N1u666y7uuOMOwuEwpmkSjUbp6upifHw83aFNe5qmsWbNGmbOnMm1114r26+ELVRUVHDWWWeRl5d39Gfvec970DQtjVFlJkVRmDt3LsuWLTv6s7POOovZs2fL510IIYSYhiTRMcVYgGFCNG4Rjv3jn2g88fOTMTQ0xP79+4HE5HFgYIA//elPdHR0pC7wKeBf/uVf+P73v09paSmqmvhoHT58+MRtTE0TKxbDikSwwuHEP5EIViwG5kn+0sSxWRYYBlY0yoVnn80Hb7mFwuxsrGgUDCPd0QnBJZdcQmVlJQB5eXnccMMNaY4oc+Xl5R1NZDocDs4++2zq6+vTHZYQQggh0kBqdEwB0TiMhUwCERgPmwz6LUYCJoEoxA0LTVXIdikUZiuU5Cpku1S8bgWvG1z6G590bdy4EcMw0DSNqqoq3vnOd/Kxj32MmpqaNPztMofD4eCjH/0otbW1fPOb32TPnj1HEx2vWYpumZjj41h+P2ZgHHNkBGNwAGvMhxWJgAKKy4WSl49WXIKaX4ianY2Sk4OalQ2q5CePx4pGscZ8mIHEe2wMDmKODOEIBLjZ60J98nGCXi9aYRFqSSlqthfV60XJyUFxutIdvphmli9fTlNTEwcOHODtb3/7a1Z3iFOTlZXFqlWrKCkpobi4mCVLlkiXMCGEEGKakkRHhrIsGAmYdI1YHBow2NsVp6XfpHfUJBJ/8z/n1KGyQGVGqcacSo3GEpWqQo28LAX1lZzH+vXrcblcLF++nA9+8IO87W1vw+v1Ts5fLMO5XC6uueYaSkpK+P73v/+aFR1WJILR00W88zDxvXuINe8j3nEIc3Q08Qs9FlVFzS9Ar2/E0TQXfXYTek0dWnkFitM5iX8zm7MsjOEhjK5O4odaiO3ZRbz1IEZvTyJ59CrBV/274nShVVWjz5iFY+489IYZ6NU1qLl5klASk8LlcnHllVeyceNGbrnllnSHk9EURaG2tpaLL74YVVVZuHBhukMSQgghRJoollRKzDhD4yZ7ugy2t8V5qd2ga2Ri2xt0NZH0OKNWZ3GdxsIanVyPwqpVFzBjxgw++MEPsnLlyqPbMMTJsyyLvXv38qtf/YorL72UsyrKiL38EtGtW4jt3YUVDk/ouGpuHo4583AsXYZz0RIcM2bCNN9/bgwOENuzi+i2LURf2obR3TmxA+k6elU1jsVn4lq8FMfCxahSgFdMgvb2dr761a/y4x//GI/Hk+5wMlo4HOaxxx5jeHiYD33oQ/L9JYQQQkxTkujIIOGYxZ4ug+f3xdh6KM6g38JMwm9PAcryFZbW6Zw9A178y31cd91bqa6uPv2DT3MdmzehbNtM1v49xPfvg1g0KcdV3G4cc+fjOvs83BdchFpYlJTjZhIrHCK6ayeR558jsnUT5uAgWEmoaaIoaBWVOJcuw71qNc5Fi6d9MkkkkWVhhUIYgwOYI8OY436scJhdO3cyf+FCtCwPijcXtaAQrbgYxZOV7ohtzbRMRsNjjARH8UcDhGIR+gf6CQQDNNY14HG4yXF5KfDkke/OlcKkQgghxDQhiY4MMRKweHp3lGf2xOgYNImloI6iqkBNocV5M+H6lblku2VCOFFWPEZs105Cjz9GdPtWTP/Ym29POQ1qTi7O5WeRdfVbcSxYlPTj25U5NETo6ScJP/NX4ofbIRZL/klUFUfjTFwXX0rWFVejZMv2LTFxVmCc6K6dxPbvw+g8jDk6nKjVEw5BNIZlmSiqCg4HiseD6s1BLShEr6lFb5qHo2kOqjdHkm5A3IzTPdbHgcFDtI12MRwcwR8JEIqHicZjGFbiC1JTNVyaA4/Dg9eVTbEnn7qCamYXN1KZW4aqyGoPIYQQYqqSREcG6PeZ/G5jlPXNMXxBi1T/wnI9CufM0nnnOS7K8mQieKqsSJjIhnUEHvwtRvuhRPeUVNJ1HLOayLruRtznXwhTuTWlZWH09hD4318T2bAWc9QHKf5EqPn5uM67kOyb/xmttCyl5xJTjzHQR/i5Z4hu3ogx0I85MoIVCp5c4lNVUTxZqAUFaBVVuJavxH3hxaj5BakP3IYi8SjNg61sPLydQ8OHGQklVnEY5sll/nVVI8flpdCTT0NBDStrlzK7uAGH5khx5EIIIYSYbJLosLmhcZMfPhVma5tBJDZ5vyqXA1Y06rz3AjdVhZLsOFlWNEL42acJ3H8fxtDg5LWHVVW0qmqyb3wnnkvWgD416wwb/b3477mL6LYtWJGJ1TmZCMXtxrnyXHLe8wG0StnSJU7MHPcT/utfCD31Z4y+HqxA4PRWdalqokNQWRlZV1+H+7IrUKbo5/z1TMvk8Gg3j+9/ht19zfijAWLG6SWQHZqDfHcO80ubWDN7FXX5VbKtRQghhJhCJNFhY5G4xdf/EGR7u4ExSffLr6ZrcO4snfdf6JaVHSfDNAlveB7/f34Xc9w/+edXFLTyCrzv+QDuVaunXNcQMxjE941/JfrSVjBSsHfrRBwO3BdchPe9H5KVHeK4Yvv2MH7/z4jt2pHo+pPMr1lFQXE40RcsJPfjt6HX1J74z2Qw0zJ5svnvPLrnKcajAYxk1OF5FU3VKPTk85a5l3Je/XLcurSYFkIIIaYC7Y477rgj3UGINzJN+P4TYTYciKeitMPJxWBB14hJ3ITZFRpuhzztOp5Y8z583/hXrMB42mKwxv0YnR1HW9BOmf38hoHvP/+N6Ia1Kal1clJMM1EPxLJwzG5CcbnTE4ewLSsaJfzc0/jv+QHx5n0QP06v79NhGJg93UQ2rkcrKUWvqYEpWG9iPBLg7hd+yV+anyNiREnFxk3LsgjGQrzUsxt/JMDM4npcurTuFkIIITKdJDpsyDDhkS0RHtqcnA4dp+NIsiPPo9BQoqJrU+TGOcmMoUFGv/IFzKHBdIeCOTqKNT6GPnM2am5e5ic7DIPAQ/9L6A+/T3ckryQ7OtAKi9HrGqbN1gFxYua4n/BfHmf85/cmOgBNAisQILb7ZRRdR69vQHFMjVoTpmXSOdbLXRvuY3df86Sd99BIB4dHu5lTMoMsp7T5FUIIITKZJDpsaHdnnB89HSGS4hqWJysah0G/SUOpRmmumvH3zclmhcP4f/JfxHZsS3coRxndXag5OThmNfH/27vTIDnu877jv+6enmt39r4XixuLxUGQAEECBHiKpEjxlChSohQdjiTLduI4TpxY5agkK3bFr1JxVaoUV+wcSqLDkkJKIEVKpCjxEA+QAIiDAAhgCYC4Ftj7nru782JJ2gwhAtjt2e4ZfD9VeIPFPP1ggNmd/s3///yNaHl/Opl/Y6+mvv3X8vLBB3+SpHxezuCA7OUrZDU1l3+QhDnzpqeVfepJTf2f/ylvcn63rXmZtIrHj0q2rcjCxWX/enc9V8dHTum/7/x7HRs5Oe/X758a1LGRE+puWqpUjJOWAAAoV5W31rXMjWc8/fjVvKay4RqdcnzQ1bMHZ059wfvlXn1ZuReeC7qN93NdZX7+uApvHZF83tM+n9zxMU3//XflptNBt/I+xWNvKfPrp4OZxYJwcRxln/+Vpr/3ncC2rbnDQ8pse1S53zwrL5MJpAc/ePJ0cqxPP3rjcR0fPaWgRogdHjqm/737EZ2bHAzk+gAAYO4IOkLmld6CDp8NZvjohbx0pKgj58LZW1Dc0RGlH3tUXiEkqw3+EXd4WJkntsnLha+3i5X9zfMzsw7m6/SaS5B74TkVe4+EsjfMn9zuXZr67ncCD72cc2eV3vao8geIvocWAAAgAElEQVT2ySvVbJASG5oe1VNHntPhwWMXfWRsqRzoP6zH3/ylJrLBzVwCAACzR9ARIiNTrl7uLWoyZKs53jWR8fSrAwVl5/GY27DLbX9JztvHgxuQeQG5V19R4Whv0G3Mijs8pNxLz8sNcLjrh3EnxpV5+kl5hZDsMcO8c86d1dT/+K9yh8LxyX/x+FFltj0qd3Ag6FYuWbaY06unXtfrZw8o5wQfzhZdR6+d3qsXT+wIPHQBAACXjqAjRPafdnRi0A31ioldx4s6OxbiBueROz2t3MsvyU1PB93Kb+Vl0sr+4omg25iV/L49ck6dCPWKidyO7XLO9QXdBgLgua6mf/R9Fd+av2GZF+R5yu/eqewLvw7PTJuLdGzkpF46sUsT2fBsB5supPXSiR16a+TtoFsBAACXiKAjJAqOdOC0o+Gp8N7USdJU1tOrb5Xnsmi/FXsPqXjmpOSE+9O+7EsvyCuzWRJesTATdIyOBt3Kh/KmppR9+TdBt4EAFPbuVu6lF4Ju4wO8fF6Zx38qZ6A/6FYu2nh2UrvOvKHT4+EKDT3P0+nxs9p+creyhVzQ7QAAgEtA0BES58ZcnRpxVQj3PbMk6eVelupLUv7gAblj4b4RlyRvalK53buCbuOSOH19ck6fkspgW0juN88H3QLmmee6Sv/sp3InxoNu5bycwQFlfvGzoNu4aH0T/dpxeq+KIdwikncKenOgV73Dx4NuBQAAXAKCjpDoG3U1OOHfag7bMnT1YksPbLS1uNnfI2GPDriX/ekrXiEv5+1j8qb92bZi1tQqftsdSv3BHyn54MMya2t9qfuu/M7XfK1Xas6pE3KG/Zt7EFnerarPflHVv/vPFN10nW91Jal4tLcsAi/4p3Bwv4q9h8O7msvzlHnysbI4gSVdyOjAwGENTY8E3cpvdXrinN4cfEsFl9WMAACUi0jQDWDGwISrkem5hweWKa3rsvRPtsa0st2SHTH0n57M6OSQK7+iCc+TDp4p6roVtk8Vy487MDBzc+vDEFKzrl7VX/qq4jfeIjedlllTq8TH7tHIv/5DeeNjPnQrFd484Eud+eL0n5M75s/fPXrNJqW+8gcym1qkYlFVD3xKk3/3X5R+9Ee+1JfnqXDooGKbt/pTD+Hmecq/+rJcn16bpeJNTSn77DNK3HVv0K18qInslPb0HZTn208o/zmuo6PDJ3R2YkAL6zqCbgcAAFwEVnSEgOtKo9OepnNzf6MXtYyZgMMytONYURMlWnlxfDDcs0RKzRkZkjvlz2kg9tp1stdeqfQjP9LIV7+ozM8fV6RrkRIfvcuX+tLM6RDl8OmuJMl15YwMy/NhyKtRnVJs4yYpYmv8339dI//y9+SOjarq81+SUV3tQ7MziseP+VYL4eZOTqpw+JC/ryfTnPnls8yzvwztiVDSzAyMwelhHR89FXQrF3RqvE/nJsvvNBsAAC5XBB0hkC14msp5vrwfzRU9/fpgQX/xk7Se2ldQOl+aN7nnxi/voMObnJSX9eFGxzAU6VooIxpV/o09MmpqFL1yg7xiUbFrNs29/rs8V87wkH/1SsjNZORNT/ly2orV0qLIosUq7N8rp/+sYtffKEWjMquqFF2zzoduZzj9Z32rhXArHj8qd3TYn2IRW1bXIsWu2aTY5q2KdPdIEf8WWhbfPCB3csK3en4ruEUdGTom1yvNz5OoZast1aye5mVa2rBQxhz2cI5lJnRualB5J/xzgwAAAFtXQiHvSLmCP4GE60kDEzO1lrf6UvK8LvsZHdmMVJj78Y1GNCqjqlru6Ijkukp+4iF5+ZzcgXOympolw/DnE1nPkxfiG573yefk5fw54cCIJ2VUpeQM7ZfV0an4Rz6qwuE3Fdu4SWZziy/XkCR3okyeW8xZ8fRJuZP+nGJk96xS1ef/qazGJsmTFIlo6m+/rdwrL/pS3ysUVDhyaGZVUwgV3aKOjZwsSe3aeEpXta/R5oUbtLJpqc5ODuhbv/prFWYZVHjydHZyQFO5aTUk63zuFgAA+I0VHSHguJ6cMlsgkS9e5kGH48jz4x8tYsuIRqViUdENGxVdt17Tj/xQztCgjERCfk6R9crgBBNp5rn1a8ijEYnIeGcFR/yOu+UODSrz1JOS58lIJn25hiQpP/fQC+XB7T83s+JojozqlOK33CarsUnpR36o6e//L1nNLar+4pdlVFX50OmM4rGjvtXym+O6OjNxriS1O2vadO2CK5UpZDSdT8swDM31u+nQ9IjShTLZAggAwGWOoCMETMPw9VSU+WBZZdawzwzDnNMy6Pc4RXmFgszWNsVvvUP5N/Yov2O7FI3Jy2X93V9vWf7VKiHDx3kFnlOUV8grunGTIgsXKfPk4/Lema3iy9ajd5XJc4u58RxH7tiYPB+CLautTZGuRSq8sVe57S/LqKqWYRiyOjoVWbzUh24leTPzecKq4BY1kinNEb39U4N64vCv9f0923RuckCeD99LJ3KTyhb9WW0GAABKi6AjBGxLikXKKzhIxcqrX9/FYpI991NnvHxe3vS0zLp6uZMTyv7yF1KhoEh7p5zhYR+DDsPXT4lLyrZl2FFfSnnZjLzpaVkdncrveFWFA/tktbVLktwh/46vNapTvtVCiGWzvgWQZqpGZqpGTt8ZWe2dSt7zceUP7pcMU1abXyd7eKE++jiTz8x6K8mFDKfHdHCgV0PpkXdmgMz9Z1Y6n1XB4YhZAADKATM6QiBuG0rG/K1paGbXgyHJNGZ+uT4uDmiuubwzMrO6WkYsPvdCriun77Tc4SEVeo/IGehXbNN1MmtqlN+9c+7132UYshoa/atXQkYiObOtxIf5JO7goIqnTyqybIUKh9+U57qKXX+j3GxWhYP+HblrNTf7Vgvh5RULUtGfG10jFpNiMXmuq+S998tNTyn9s5+qdtUamSn/gjNfVy75LFuc3cqYiBnRyqalaq5q+MDXiq6jU+N9OjF2Zq7tfUDBLZRscCoAAPAXQUcIRCypNmkqETWU8eGUlKuXWPrMdTEtaLBUkzD0pZvj+uyWmL77Yk5P7/fn07NFTZd50FHX4NsKifz+fcof2Kf4lutlr1gpq6lJzsA5ZZ/+uS/1Jcmsq5OZqvGtXikZkYjMunoZ8ficj/B0JyeUf32nolduUOr3/0huNqNIR6emf/Q9ueNjPnUsWQsX+1YL4eZXXuwVHckpKn7LbTJr6zTxn/+j3h3W5OV93B4R4nFKs939F4/EdNPSzdrQsfYDX0sXsnqq9/mSBB0AAKB8EHSERHPKUG3Sn6BjYMLTy0eKSiXeP9Cxz8cjYXvaL++ZBGZLq8yaWl9quUODmvpvf6PioYOKLFuh/GuvKP3ENrmDA77UlyS7u8fXwaalZr3z/DpzDDrkecq98qLciQnFNl8nM1Wj9A+/p+xzz/g6/8Re2eNbLYSYbcvw6fhXL5uRl83K7u5R+ic/VuHgAcWvv1HyXF9DOCOR8K2W32KR2W1Rm8pP629f+74s44OBuydPTolWXdimLfM81wQAAOFD0BESHfWmmlOGzvnw/vbUsKtTw6U7BaKlxlBnw+X9Zs+sqpK1oGtm1UE2O+d67tCQ0j99xIfOzs++6uqS1S4Fa0GXzIZGOf0+nMjguiq8sUeFN/bMvdZ5mM2tinQsKElthIsZT8xsWfNjW9XQkNzBQTlNTcq++LxULCq2eau8fF6Ft3p96tiQWVfvUy3/VdlJRcyIiu6lbwcqukV92KMMGbJMS6ZhyjBMmYahqGXLk2Y9FyRpx2VbvG0CAKAcXN53qyHSUW+qvc6UWQYful+7jDd6kmT3rJZZWxd0Gxdk2FHFrtkUdBuXJLJg4czQUJ9OXyml+HVby2q1DObANGe2VUXnPlTJ6T+r/P49kmEqef8nlfqDf6HohmuUfekFuX4EfJJkSFa7X4NN/WeZlpqqShPExO2Yrl98jT6/4QF11LSqMVmnz171cX1yzcdmXbM2UaN4xOeBWgAAoCTCfxdxmUhGDa1st1SXDPcNUzQibV0x99NGKkF01RqZrW2hv8m1r1j33kkj5cJIJmWvXuvb9qBSMeyoYjfeEnQbmEdmW5s/83k8T9lnnlL60R+/t0Is86unNPV3fzP32v9IZOkyX+v5yTJNddaU5nuTKUOpWJVaqhp1ZuKcjo+eUmOyXh01rbOu2ZRsUDIa3q1AAADgH/DRfIhcuTCiZw8WNJp2/Bwf4KvuNkvL2y7v+RzvMhubFL1yg4q9R+Rl0kG3c35WRIm77gu6i1mJrr9a2V89PTOvIKQvCLtnlewV3UG3gXkU6Voos6ZG7sjwnGu5ExNK/+h7yjz2qBSx5E1N+dDhPzDiCdnLw/v/M2JGtLRhoXad2ed77elCRo+/+Ywef/MZX+qZhqm2VLOqo2VyTDcAAJc5VnSESGe9qfWLI0pEw7lCIBqRbr/CDm1/QYjfdIvMlpbQruqwV65SdH15zed4V2TBQkXXb5QR9+EY3xIwolEl7rzHl20MKB+RhYtlNjb7+pr3shnfQw5JivSsCvX2uohpaXnjIkWt8K8SrEvUqD3VUha9AgAAgo5QMU3p5lW2uhqMUN43X9EV0ZULI7JZ0PGeSNdCxW+5XbLC96QY8YSS9z0gM1mmn0CapuK33yGrozOUQZJ95QbZV64P5b89SsesqVVk5apQn2byrsRtdwTdwocyDVOt1U1aVNcZdCsXtLC2U+2plqDbAAAAF4mgI2Q6603dfVVUsUi4buwaqgzdcYWtphT/Zd7HMJX82D2yu1cG3ckHxK6/UdGryvtGPNLZpeS9D/h2pKdfzMYmJe66V2ZDY9CtYL4ZhuKbt4R+fozZ1KLY5q1Bt3FBNbGU1nesDbqNDxW1olrWuEgt1U1BtwIAAC4Sd60hYxjSjT22blgZnhu7iCV9ZI2tqxaxmuN8zPoGVX/1n8tIJoNu5T2RpcuV+Ni9oT5a8qIYhuK33KrYDSEa+Bmxlbj9Y4pecVXoAhjMj8iyFbLXXCGF+KjRxEc/JjNVE3QbFxSPxNTTvFztqdkPCS21zppWrW5ezrYVAADKCEFHCCWihr5yc0xLmsORKmxcGtFHr7BVkwjXKpMwifasUer3/ygUWyzMujolP/GQ7J5VZXE864UYiaRSv/+HspaE4/SI2OYtit9+p8xUKuhWEBDDtpW8/5Oh3b5itrQqfufdQbdxUQzDUFddhzYuWCdDwX///P9FLVs9Lcu1vGlJ0K0AAIBLUP53QRWqrsrUXz6YUHPAW0V62i196tqoFjVZYbiHDy/TVPzWj6rqs18ItA0jkVDi4w8pftMtMuxooL34yayrV/2f/wdZTcHukbfXrFXVQ59RpGthKEItBMfuWa34rbcH3cZ5VT30GVmN5bPNojqa1IaOtVrS0BV0Kx/QWdOmGxdvYjUHAABlhqAjxJprTH3zgYQWNJgy5/meyjSk5a2WvnBDTGsWhHd5dpgYtq3kJz+t5Cc/LSM2zydxGIaM6pQS9z2g5H2fkBEP5yfNc2G1d6j2G3+hyIKu+V+pYpqyV65S9Re+LHvVmvm9NkKr+ou/K2tBiG7ODVOxzVsU23KDDLu8bsyXNy7W1kUbVR0NzxbAVKxaNyy+VovrFwTdCgAAuETWt771rW8F3QR+u/oqUyvbLJ0acTWe9uS4pb9mxJJWdVj60s0xrV9MyHEpjGhM9vIVkmnJOX1KXi47Dxc1ZDY1K3nP/ar+1GdlVlfolgrDkNXQqMjybjmnT8obH5ccp/SXtW1F165T9Ze+quiVG0p+PZQPIxpVZNkK5Xdsl5fJBNyMocjCxar+nd+VvXhp2a04Mg1TTVUNGstOqm/inBxvHn7YfQjbjOjarqv0wJqPKWKGYxspAAC4eAQdIWcYUmPKVHebpXReGp32lCuW7nq1SUObl9v6ys0xrWwn5JgNI55QZNkKmbU1coeH5U1Nlu6G3LJkr1ip5AOfUvK+B2QkwvNpaEmYpqzmFtkruuWmp+WOjMjL5Up3ubp6xbZer+ov/Z7s7p6SXQfly2pukVlVpcKRQ8GFHYYhq7VNVZ/5vGIbry271RzvSthxNSXrNTg9osHpEbkBhR2GYeiKtlX63PoHVBOrDqQHAAAwNwQdZcAw3lnZ0WEpFTeVzXuayEhFH98Dxu2ZVRx3XWXrs1tiaq5hV9NcGLGYIkuWK9K1UJ7nyR0fl5dJ+3oNq61d8S03qOozn1d8yw0yQnwChK8MQ2ZDo+zuHhmplLxMRt7EhOT4lwAa8biiq9cqcff9qnr4c7Kag50NghAzDEW6FkmmpeLJE/LS/r7OL+b6Vmubkg98SombPhKq059moy5RMxN2pEc0PD0iT968Xn8m5OjR59Y/oLbq5nm9NgAA8I/hed78vovAnBQcT0f7Xe04VtSeE0UdOecoP4f7u2TM0LIWU1ctimjTsoiWt1khnHtf3pzhIeV371R+52sq7NsrZ2hg9sVMU1Zbu+y16xTbuEmxazbLqKryr9ky4xUKKr51RLnXtiu/Z5eKRw7JKxRmXc+oqpa9bIXs9Vcrtuk62cu7fewWlcydnFT26SeV/tlP5Zw5PT8XNUxZnZ1KfvwhxW+5tSyOk71YR4aO6bE3n9GuM/vm7Zq2GdE1C67UJ9bcqQW17fN2XQAA4D+CjjKVLXg6MeTqaL+jN884OtLv6Myoq8L/F3q4Tl6mab9vv3Y0InXWm+put7Sy3dKKNkuLGk3FbCKOkvE8OQP9Kh7tVeHIIRUOHVTx+DG5Y6PShV6Cpimzrl6RZctl96yW3d0je0W3zPrGstuHXypeJqPiieMqHu1V/sB+Fd86rGLfGSmfv+BjjVhMVmfXzPPas1qRFd2KLFw8/wNlUfbcqUnlX31F6cceVeHIodLOkHlnQG7ywYcVu/oaGcnKCzxPj5/Vr46+pOeOvaJssXRb1CSpJp7STYs36dblW9XKSg4AAMoeQUeZc1xpZNrVyJSn4SlPZ0dd9U+4Gkt7Orz/dW3/5fd052f+rVrbWlWXNNVWa6i9zlRjtamGakN1SVMR5qzNK296Ss7QkNyRYTkD/XLOnpE7PCR3cnJm3oQxM9TUTNXIbGqW1dEhq6VNZkODrMammTkcBBzn5zhyRoZnns/hYRXPnpHbf07u2Ki8TFqe40hWRGYyKbO+XlZru6z2DpmNTTIbGmXW1cuIXCZbgFASXi6r4tG3lPnFE8r+5jl501O+X8OIRhW/8x4l7rhbkSVLK/r/7ERuUrv7DugXR57X26OnfK9vGqaWNSzSbcuv11Udq5WKVctgXSMAAGWPoKOCeJ6UK3rKF6WCIz2+7Sf6y2/9O/3g/z6uZcuWybYMRSNSLGJwnxwKnrxiUcrl5OXzMzfh7juDV0xThhWREbWlWLyib2RKxnVnntd8TioU5LnuzIvEMGSYpmTbMqIxGbGoZDCTBj5yXbnjY8rv36fMY48q/8bef3htz4VlKbrhGiUfeEj28m6ZtXVzr1kGCk5RZyf7tf3k63rh7dc0nB6dc01DUmOyQTcv3axru65SW3WzbKs8h7gCAIAP4u6pghiGFLcNxd95r5aKezLlqKHKUGM1N3LhY8iI2FLEllF5q86DZ5oy4nEZ8XjQneByY5oy6xsU33KDouuvVmH/G8r8/DHld742qxkyRlWVoldfq8Rd98pesVJmVbVkXj7f020roq66DrWlmrVl0Ua9dmqPXnx7h/qnB+Ve4mc1hgy1pZp105KZgKMxWS/birCKAwCACkPQAQBAKViWzOqUYpu3KLZ5i9yxUeW2v6zcrtdUePOg3OEhyT3PHA/TktXULHvNWkU3blJsw0aZDY3z33+IGDIUtaJaUNuuBbXtum/17Xpr+G3t7jugAwO9Ojl2RkX3nSFV3nsPkiTFrZi66jq0umWFNnSs1bLGxTJZ1ggAQEUj6AAAYB6YdfVK3Hm3EnfeLXme3KlJuSPDcqcmpUJRRiQiI5WS1dQso6o66HZDLWJG1NO8XD3NyyVJrudqOD2mieykck5ehqRYJKbaeEp18RpZJsOoAAC4nBB0AAAw3wxjZuBwBR0JGyTTMNVc1aDmqoagWwEAACFw+WzyBQAAAAAAFY+gAwAAAAAAVAyCDgAAAAAAUDEIOgAAAAAAQMUg6AAAAAAAABWDoAMAAAAAAFQMgg4AAAAAAFAxCDoAAAAAAEDFIOgAAAAAAAAVg6CjgtXW1qqnp0exWCzoVgAAAAAAmBeG53le0E2gNKanpzUyMqK2tjbZth10OwAAAAAAlBxBBwAAAAAAqBhsXQEAAAAAABWDoAMAAAAAAFSMSNANoPSGh4f18ssvq6+vTw0NDdq4caOWLFkSdFsAAAAAAPiOoKPC9ff36+GHH9bhw4dVX1+vTCaj9vZ2/dmf/ZnuueeeoNsDAAAAAMBXbF2pcKZp6pZbbtEzzzyj7du365FHHlE+n9d3vvMdDQwMBN0eAAAAAAC+IuiocM3NzfrmN7+p1atXK5VKaenSpbr11ls1PDxM0AEAAAAAqDgEHZeZiYkJHT58WG1tbWpvbw+6HQAAAAAAfMWMjjI3MjKiI0eOnPdrzc3N6urqUjQalSRls1k98cQT6u3t1de//nU1NjbOZ6sAAAAAAJQcQUeZO3DggP78z//8vF+744479OUvf1lNTU1yHEfbtm3Tt7/9bX3605/W/fffP8+dAgAAAABQeobneV7QTWD2+vv7tXv37vN+rbOzUytWrFA0GtVPfvITfeMb39C9996rP/3TP2U1BwAAAACgIhF0VDjP8/Too4/qm9/8pu6880597WtfU0tLS9BtAQAAAABQEgQdFe7EiRN6+OGHtWvXLt17773vhRyLFy/Wgw8+qGXLlgXcIQAAAAAA/mFGR4UzTVNbt27V6tWr3xtKKs2s9AAAAAAAoNKwoqPCOY6jqakpua77vt+3LEvJZFKRCFkXAAAAAKByEHQAAAAAAICKYQbdAAAAAAAAgF8IOgAAAAAAQMUg6Khgo6Oj2r9/v3K5XNCtAAAAAAAwLwg6KtiOHTv0J3/yJ+rv7w+6FQAAAAAA5gVBRwWbnJzUsWPHlM/ng24FAAAAAIB5QdABAAAAAAAqBkEHAAAAAACoGAQdAAAAAACgYhB0AAAAAACAikHQAQAAAAAAKgZBBwAAAAAAqBgEHQAAAAAAoGIQdAAAAAAAgIpB0AEAAAAAACoGQQcAAAAAAKgYBB0AAAAAAKBiEHQAAAAAAICKEQm6Afhv79692rZtm3bu3KmhoSH91V/9lerq6vTHf/zHWrhwYdDtAQAAAABQMobneV7QTcBfr7/+ur72ta/p+eefV7FYVDQaVWtrq3p7exWNRoNuDwAAAACAkmHrSgVatWqVVq1aJcdx5HmecrmcHnzwQUIOAAAAAEDFI+ioQIlEQps3b35vm4pt2/riF78YcFcAAAAAAJQeQUeF2rRpk7q7u2UYhrZu3aru7u6gWwIAAAAAoOQIOirUkiVLtGHDBqVSKT388MOybTvolgAAAAAAKDlOXalQpmnqtttu086dO3XTTTfJsqygWwIAAAAAoORY0VGBPHnKOwWtWrdan/vS51XTWKuCUwi6LQAAAAAASo7jZSuA67k6OzmgU+NnNTA1pJH0mNKFjApOQZPTU6pKJBWzY0rYcTUm69Va3aSu2g41VzfKNlnUAwAAAACoHNzllrHx7IT29B3Q3nOHNDA1pMn8lKbzGWWLOTmu84E/bxmm4nZcVdGkamLVak+1aG3rSq1rX6XaeEqGjAD+FgAAAAAA+IcVHWVoLDuhF9/eoVdO7tLQ9Kim89NyPPeS60TMiKqiCTVXNWrLwqt109LNStqJEnQMAAAAAMD8IOgoI0W3qN19B/TYm0/r5NhZFZyCPM39n8+QIduy1Z5q0efWf0JrW1f60C0AAAAAAPOPoKNMjGcn9eThX+vp3heULeZKeq27Vn5En77iHkUj0ZJeBwAAAAAAvxF0hJzneeqb7Ncj+5/U9pO7fVnBcSGmYWpdW4++sOFBtVY3yTQ4nAcAAAAAUB4IOkLu7bHT+sGen2rfuUPzel3LMNXTslyfvfLjWlS/QBZhBwAAAACgDHD3GmJ9E/363u6fzHvIIUmO5+rQ4FH9+I2f6cToabnkYQAAAACAMkDQEVIjmTH9YO827e8/HFgPjuvowECvfn74WfVPDQbWBwAAAAAAF4ugI4TyTkFPHPqVdp3ZF3QrKjgFvd63Xy+9vUOTuemg2wEAAAAA4EMRdITQztN79eLbO+Zh7OjFSRcyeuHt19Q7dEyO6wTdDgAAAAAAvxVBR8gMp0f1y7d+o8l8uFZPDE2P6Nnj2zWWnQy6FQAAAAAAfiuCjpB5+cQunRo/q7AdhuPJ076zB3WEVR0AAAAAgBAj6AiR4fSo9pw9oHQ+HXQr55V3Cnru2CvKFnNBtwIAAAAAwHkRdITIG/2HdW5qMDSzOc5nf/8hnZvkBBYAAAAAQDgRdIRE3imod/C4xjITQbfyoVzP0yundgXdBgAAAAAA50XQERLnJgfVPzUo13NLdo2knVBjsl5V0eSc6uzuO1jSPgEAAAAAmK1I0A1gRv/UoIYzYyWpXRVNalFdp1a3dKululH7+4/ohePbZ13v7GS/htNjaq5q8LFLAAAAAADmjqAjJIbTo5rIlmbbyvr2tbpv9e2SpOaqBk3n03rh+OzreZ6no8NvE3QAAAAAAEKHrSshUHQdjWcnlSnRaSaGIW0/+bp+uO9x346GPTXe50sdAAAAAAD8xIqOEMgX80oXMvK80py3srvvgPJOQZZp+naNoekRX+oAAAAAAOAnVnSEQMEtKF8slKz+VH5aeSfva83J3LSv9QAAAAAA8AMrOkLA9bxZn2LSmGzQ12/+w/N+7dzUoL6751H1TfTPpb3zKvq0BQYAAAAAAD8RdISAaRgyTWNWj80Ws9pxZo+kDz5+PDuhdD4zx+7OL2JaJakLAAAAAMBcEPXfVLQAAAT8SURBVHSEgG3ZilrRWT12Op/WD/Y+domPml2o8o9Vx6vmXAMAAAAAAL8RdIRAzIoqaSdkGEZJBpLaZkQt1U2K2zGZpqnqWFKdNW2azE1rIjc5q5rNyUafuwQAAAAAYO4IOkLAMi3VxWuUiMSVLvi/1aS5qlH/6vqvyDZtTeXS6m5cqn9zw+/pl2/9Rk8e/vWsai6q6/S5SwAAAAAA5o6gIyQak3WqjadKEnSMZsb1g73bZBrvP2Tn7OTArOpZpqWlDQv9aA0AAAAAAF8RdIREa6pFjcm6WYcPHyZTzGrXmTd8q9eealFjst63egAAAAAA+MW88B/BfGipalR7qrUsTjPZ0LFWhjH3gaYAAAAAAPiNoCMkYpGoVjQtUW28JuhWPlTUsnXNgiuDbgMAAAAAgPMi6AiRNS3daks1y/Dh+NdSWdu6Um2plqDbAAAAAADgvAg6QqQ+UasNHVeoKpoMupXzipgR3bJ0i5J2POhWAAAAAAA4L4KOEDEMQzct2RTaVR0bO9dpaePCD5zeAgAAAABAWHDHGjJV0aTuX3V76FZ1NCbr9JFlW1Qfrw26FQAAAAAAfiuCjhC6unOdti6+RlZITmBJRGK6bfkNWta4iNNWAAAAAAChRtARQoZh6KEr7ta6th6ZAQcLsUhU13at13ULNyhpJwLtBQAAAACACyHoCKkqO6Hf2fCQ1rauDCzsiFq21rau1EdX3KjW6uZAegAAAAAA4FIQdIRYS3WTPnPlx7W+Y+28b2OxLVtXtPXovlW3a0l917xeGwAAAACA2TI8z/OCbgK/neu5OjXep58ffk6vndqjTDFb8mvaVkRbFm7UHStu0uL6BczlAAAAAACUDYKOMuB6roamR/XSiR169tgrGpweLtm1UrEq3dtzmzYv3KDmqsaSXQcAAAAAgFIg6CgTnjxlCln1Dr2tX/a+oDf6Dyvv5H2rbxqmNnau0109H9Giug7FI3HfagMAAAAAMF8IOsqM67lK5zPa339YTx15XkeGj8v13FnXi5iWepqX686VN6u7camqo0m2qgAAAAAAyhZBR5k7OnJSzx97RTvO7NNYZvyiHmMYhhoSddrYuU43LLlWi+oWKDLPw04BAAAAACgFgo4K4biOzkyc07GRk+qb6NdwZlTT+bSKjiPLtFQVTaopWa+OmjYtbehSR00b4QYAAAAAoOIQdAAAAAAAgIphBt0AAAAAAACAXwg6AAAAAABAxSDoAAAAAAAAFYOgAwAAAAAAVAyCDgAAAAAAUDEIOgAAAAAAQMUg6AAAAAAAABWDoAMAAAAAAFQMgg4AAAAAAFAxCDoAAAAAAEDFIOgAAAAAAAAVg6ADAAAAAABUDIIOAAAAAABQMQg6AAAAAABAxSDoAAAAAAAAFYOgAwAAAAAAVAyCDgAAAAAAUDEIOgAAAAAAQMUg6AAAAAAAABWDoAMAAAAAAFQMgg4AAAAAAFAxCDoAAAAAAEDFIOgAAAAAAAAVg6ADAAAAAABUDIIOAAAAAABQMQg6AAAAAABAxSDoAAAAAAAAFYOgAwAAAAAAVAyCDgAAAAAAUDEIOgAAAAAAQMUg6AAAAAAAABWDoAMAAAAAAFQMgg4AAAAAAFAxCDoAAAAAAEDFIOgAAAAAAAAVg6ADAAAAAABUDIIOAAAAAABQMQg6AAAAAABAxSDoAAAAAAAAFYOgAwAAAAAAVIz/B/cvj8RTHj1hAAAAAElFTkSuQmCC;" vertex="1" parent="1">
          <mxGeometry x="590" y="190" width="531" height="270.41" as="geometry" />
        </mxCell>
        <mxCell id="S3IF-YHT1b58QMX8-Q93-11" value="&lt;font style=&quot;font-size: 30px;&quot;&gt;正确解法，有些类似于暴力破解，只是进行了剪枝操作&lt;/font&gt;" style="text;strokeColor=none;align=center;fillColor=none;html=1;verticalAlign=middle;whiteSpace=wrap;rounded=0;" vertex="1" parent="1">
          <mxGeometry x="760" y="510" width="220" height="30" as="geometry" />
        </mxCell>
        <mxCell id="S3IF-YHT1b58QMX8-Q93-12" value="" style="shape=image;verticalLabelPosition=bottom;labelBackgroundColor=default;verticalAlign=top;aspect=fixed;imageAspect=0;image=data:image/png,iVBORw0KGgoAAAANSUhEUgAAA4QAAAJgCAYAAADS7K0bAAAgAElEQVR4nOzdd3iV9f3/8ecZ2YSVMAIJeyQQRhgJIksiCIiIIKigLRWrbQVtRduvFvujl9Y6qrbOOqBVtKgFRUBAmQElBEwggKxIGJlAQgJZZ9737w9aWmu1kHVyktfjuvJPNPf9JueTcz6v+7MspmmaiIiIiIiIiN9yu91UVlYSGBiExWK57J+z1mFNIiIiIiIiUg8CAgIICgrC5XLi9Xq53HE/i0YIRUREREREGge3243TeTEUXg4FQhERERERkSZKU0ZFRERERESaKAVCERERERGRJkqBUEREREREpIlSIBQREREREWmiFAhFRERERESaKAVCERERERGRJkqBUEREREREpIlSIBQREREREWmiFAhFRERERESaKAVCERERERGRJkqBUEREREREpIlSIBQREREREWmiFAhFRERERESaKAVCERERERGRJkqBUEREREREpIlSIBQREREREWmiFAhFRERERESaKAVCERERERGRJkqBUEREREREpIlSIBQREREREWmiFAhFRERERESaKAVCERERERGRJkqBUEREREREpIlSIBQREREREWmiFAhFRERERESaKAVCERERERGRJkqBUEREREREpIlSIBQREREREWmiFAhFRERERESaKLuvCxAREZGGzTRNyh3gdJt4TQgKgNBAK4HqRYiI+D29lYuIiMg3eLwmJ4oMjhR4yT7t5fQFkyqXidcAE7BZIdBuoXWYhU4RVnpFWenZzk54iMXXpYuIyBWymKZp+roIERER8b2yKpPd2R62H3GTc86g3GFS6TJxeeA/ewsWwG6D4AALYUEW2jS3MLirjVGxAUS1tGFVNhQR8QsKhCIiIk2cy2PyZbaHVRluss94qXCaeIwru4bVAsGBFiKbWRgXH8D4/gG0DNVWBSIiDZ0CoYiISBN25oLBh7udbPrKQ7nDxKhhr8ACBNihd5SNe8YG072dRgtFRBoyBUIREZEmyASyz3hYstVJ+gnvt6aE1obwYAsPTgomsUeAQqGISAOlQCgiItLEGCZkFXp4dZOTQ3neOr1XgA1+MSGYa/oGKhSKiDRAmtwvIiLShBgmnDzrZfHWug+DAG4vPL/eQWqWG+MK1yWKiEjdUyAUERFpIkyguMzgg10uMk/VfRj8J7cXnl1XxZECT73dU0RELo8CoYiISBPh9phsO+xm60F3vd+7wgGvbXZwrlzDhCIiDYkCoYiISBNgAqeKDD780lXjnUSr69gZgzV7XXiVCUVEGgwFQhERkSbAa5is3uOiqMx3e8m5PbDloJuc4vqbrioiIt9PgVBERKQJyD9n8PlR367hM4GSctj0lbtOjrkQEZErp0AoIiLSBKQcdlPu8H0Kc3hMMk95tZZQRKSBUCAUERFp5AzDZNvh6o8O2q1gt33zy1rNHoRpwrlyg4P5mjYqItIQ2H1dgIiIiNStwvMGeSXVG5ELDoCfJgcTaP/XqfJOj0nGCU+1Q2aFE44UeBnZO6BaPy8iIrVHI4QiIiKNXNZpo9o7e3oMOFVscLLYy6lzXjyGSVJ3O8EBlv/9w9/B4TbJKTZ8ttupiIj8i0YIRUREGrlTxdVfr+fxwrpMNxYLBNph+tBASitN9p6s/hRUw4SyKpMLVQYtQ/VsWkTEl/QuLCIi0sgV13ADl0qXSYXTxOOFhM52vsr11vj4CpeXBrHJjYhIU6dAKCIi0shVOWsevCwW6Bdjo1UzCzuyPDWe7mkYJk53jcsSEZEaUiAUERFp5KzVX+53icUC18YHcPaCwb5TtXCeocWCpRbqEhGRmlEgFBERaeRCA2uevCLCLCR0tvP5UQ+eWjhC0GaBIO1kICLicwqEIiIijVy7FjX/uJ/QPxC3F7bX4DzDfxcUgDaUERFpAPROLCIi0sh1irDV+Bq9OlhJO+am8HzNhwdtVmgRYiE0qMaXEhGRGtJkDRERkUauV5SVABu4vdW/xqN/r6q1ekICLXRta8WiRYQiIj6nEUIREZFGrnUzK93bNZyP/LAgC3Ed9ExaRKQhaDifDiIiIlLrPB4Px48fJ7h4O84L+b4uB6sF2jW30Duq5tNYRUSk5vR4TkREpBGqqKjg6NGjZGZmsmvXLvIKzhLW+148dPBhVSaBFheDO4fSLFjTRUVEGgIFQhERkUbCNE2KiorIzMwkLS2NrKwsnE4ncXFx3DxjJicYzAe7TGp+TH31GF43RUfWcdSs4HDENfTq1QurVZOVRER8yWKapq8+F0RERKQWeL1eTp06RWpqKrt27eLs2bO0aNGChIQEhg0bRp8+fbDZbOSeM/jdx5Vkn6mFgwSrIcDiZqDtM45nrCEwMJBRo0aRnJxMTEyMNpgREfERBUIRERE/5XA4OHz4MJs3byYzMxOPx0OPHj0YPHgwCQkJdOjQAZvtX2v1PF7YesjFnzc5KXPU78e/BRgVF8Ddoy2cyDrA1q1bSU9Pp1mzZkyYMIExY8YQERFRrzWJiIgCoYiIiN8pLy8nNTWVzz77jKysLCIjI0lISGDQoEH07t2bli1bfudUzAtVJst3OVmx24WnBsdQXKluba383w0hdI60YZom5eXl7Nu3j5SUFNLT02nbti3Tpk1j+PDhhIWF1V9hIiJNnAKhiIiInzh37hxr165l3bp1FBUV0a9fP4YNG0Z8fDwxMTGXFaRMEwpKDT5Ic/LpPjdGPfQCOrS08MCkEOKj7fz7zFDDMCgpKSEzM5MNGzawZ88e4uLi+MEPfkB8fDwBAQF1X5yISBOnQCgiItLAnThxgvfff5+1a9cSFBTENddcw+jRo+nSpQuRkZEEBgZe0fUMA3JLvKzY5WLjATeeOlxS2CnCyr3jgunfyY71O5YJer1eioqK2Lt3LytXruSrr77immuuYe7cuURHR2vjGRGROqRAKCIi0gAZhsGuXbtYunQpGzduJC4ujqlTpzJq1CgiIiIIDw+vUVAyTDh93mDNHifrMt1UOGuxeKD8zBF6t7fy4G196d0hGNtllOp2uykpKSEtLY2//vWv5OTkMHv2bO68807Cw8Nrt0AREQEUCEVERBqUiooKNmzYwJtvvsmhQ4cYM2YMP/zhD4mPjycsLIygoKBau5dpQoXTZEeWm/c/P8/JIi/WgJAa7/gZGmghOG8FB1OW8Pe/LaZnjx5XdE23201ZWRlr167lhRdewDAMfvWrXzFt2rRvbJIjIiI1p0AoIiLSAJw+fZoVK1bwxhtvUF5ezowZM7jzzjuJiYkhMDCwTo9lcDhd/P7Jp/k0o5TWg+/BG9SuWtex22BQZzu3XhVE59Ye7pxzBxaLhbfeeovg4OArvp7X66WyspI33niDp556itjYWB5//HFGjhxZrfpEROTbFAhFRER8wDAMPB4PWVlZLF26lOXLl9OqVSvuvPNOZsyYQWRkZL3Vsn37dp5//nmmT5/ONZNu4fMjXjYfdJNfauLx/uMge5NLB9r/M5paLBe/WoVZGNrVzvh+gfRobyPgH4N4p06dYvz48dx7773MmzevRqG2tLSUxx9/nKVLlzJu3Dh+9atfERcXh81m0xmGIiI1oEAoIiJSj1wuF+fPn2f//v0sXbqU1NRUYmNjmTt3LmPGjKn3tXIXLlzg2WefpbCwkEceeYTOnTsDYJomeSUmh/M95BQbnLlgUOkCwzAJCbTQMsxCdCsbPdrb6NrGSkjgfw9lH3/8MT/72c9YtWoVgwcPrlGthmFw6NAhnn76adLS0rj55pu544476Ny5M0FBQQqGIiLVoEAoIiJSx0zTpKysjLNnz/LFF1+wcuVKsrOzGTFiBLfffjuDBw/2yRELhmGwadMmXn/9dWbMmMHMmTPr5D4PPvggKSkprFmzhnbtqjcd9d85HA4+//xzXn75Zc6ePcvMmTOZOHEi0dHRBAcHKxiKiFwBBUIREZE64vF4OHPmDLm5uWzcuJGUlBScTieTJk3ipptuoscVbrZS286cOcOf/vQnSktL+c1vflMrYe2/KSsrY8qUKfTt25cnn3ySZs2a1cp1S0tL+eSTT1i2bBl2u52pU6cyYsSIS8FQRET+NwVCERGRWlZRUUFOTg6HDh1i27Zt7N27lzZt2nDjjTcyYcIEIiIifF0iHo+Hzz77jCVLljBnzhwmT55cp/fbu3cvP/zhD1mwYAGzZs3CbrfX2rVzc3NZvnw5GzduJDIykokTJ5KYmEhMTEyt3kdEpDFSIBQREakFpmlSXFxMVlYW6enp7N27l4KCAuLi4pg4cSIjR4684gPk61JeXh7PP/88Ho+H3/72t7Ro0aJO72eaJosXL+Yvf/kLzz33HElJSbV6fcMwOHz4MMuXLyc9PZ2YmBiSk5NJSkoiKipK00hFRL6DAqGIiEgNeDwe8vLyyMzM5Msvv+TYsWNYrVYGDRpEcnIyffv2bXBn57lcLtauXctf/vIXHnjgAUaPHl0v9y0rK+PRRx+lsLCQZ555hpiYmFq/h9vtJiMjg5UrV3L06FE6depEcnIyI0aMoGXLlrV+PxERf6dAKCIiUg0Oh4OjR4+SlpZGZmYm586do127diQmJnL11VfTsWPHBhcE/+nUqVM8/vjjRERE8Jvf/IaQkJB6ua9pmhw+fJiFCxcyYMAAFixYQFhYWJ3cq7Kykh07drB27VpOnjxJ165dmTBhAsOHDyc0NLRO7iki4o8UCEVERK5AeXk5u3fv5vPPP+fo0aMEBATQo0cPkpKSGDBgABEREQ16eqLD4eDjjz/mL3/5C08++SQDBw6s1/u7XC7Wr1/PK6+8wl133cX06dPr9PdVUlLC559/zqeffkpBQQGxsbFcf/31DBkypEFN4RUR8RUFQhERkctQVFTEpk2bSElJobCwkOjoaBISEkhISKBHjx61tnNmXTt16hQLFiwgISGBX/7ylz7ZdKW0tJQ333yT1NRUfv3rXzNo0KA6v+fp06f54osv2LhxIwUFBSQkJDB16lTi4+OxWq11fn8RkYZKgVBEROQ7mKZJVlYWa9euZcuWLdhsNvr168ewYcOIjY2lY8eOfjXK5HQ6efvtt3n//fd544036Nq1q0/qME2TY8eO8dxzzxEQEMCvf/1r2rZtW+f3NQyDkydPkpaWxoYNGygqKmLMmDHcdNNNdOnSpc7vLyLSECkQioiI/Ae3282uXbv46KOP2LVrFzExMYwYMYLExEQ6depEZGRkg54W+l1yc3OZPXs2t912G3fffbdPR8bcbjfbt2/n5Zdf5tprr2Xu3Ln1Fq5dLhfHjx8nNTWVdevW4XQ6ufHGG5k8eTJt2rSplxpERBoKBUIREZF/OH/+PJs3b+b999/nxIkTJCQkMHnyZOLi4mjXrl2dbYBSH7xeL08//TSbN2/mgw8+oFWrVr4uiYqKCpYtW8aaNWuYP38+ycnJ9XZv0zSpqqri5MmTbN68mVWrVhEWFsadd97JNddc49evtYjIlVAgFBGRJi8vL4+VK1fywQcf4HK5GDduHFOmTKFLly60aNGCgIAAX5dYYzk5OYwdO5ZnnnmGqVOn+rqcSwoLC3n22WcpKSnh4Ycfpnv37vV6f9M0qays5Pjx43z00UesWrWK2NhY7r//fgYMGNAoXnsRke+jQCgiIk2S1+vl6NGj/PWvf2XNmjVERkYya9YsrrvuOtq1a0dQUFCj2mxk3rx5HD9+nJUrVzaokGOaJhkZGfz+978nKSmJn/70pz7ZoMc0TRwOB0eOHOG1115j48aNTJo0iYceeoiOHTv65RRhEZHLoUAoIiJNisvlYvfu3bz44ots3bqVQYMGce+99zJmzBhCQ0MbZcf/0KFDDB48mG3btjFkyBBfl/MtpmmybNkylixZwgMPPMDEiRN9+joYhsHOnTv57W9/y759+7j//vv5+c9/TnBwsM9qEhGpKwqEIiLSqJmmicfjobKykrVr17J48WIOHTrEDTfcwF133cWgQYMa1Ujgf/J6vcyYMYPw8HDeeustX5fznaqqqnj88cfJzs5m4cKF9OnTx+fh3DAMPv74Y377299SWVnJwoULmT59OsHBwdhsNp/WJiJSWxQIRUSkUfJ6vZSXl3PmzBk+/PDDS+sDZ82axW233dZkjhnYuHEjs2fPZufOnT47ZuJyZWdn89BDDzFgwAB+9rOfERkZ6euSgIvHdSxevJiXXnqJmJgY5s2bx4gRIwgPD/fJOY4iIrVJgVBERBqVqqoqiouLOXz4MGvXrmXz5s20b9+e2bNnM3XqVMLDw31dYr0pKytj+vTpJCUl8dhjj/m6nMuyfv16nnnmGX7yk59www03NKhpmmfPnuWVV15h9erV9O/fn1mzZjFgwABat26tEUMR8VsKhCIi4vcMw+DChQvk5uaSnp7O1q1bycrKol+/ftx8882MHj26yY3kmKbJ22+/zZ/+9CfWrFlDhw4dfF3SZfF6vTz33HOkpKSwaNEiEhISGlTY8nq9HD58mDfffJM9e/aQlJTEpEmT6Nu3L61bt27U049FpHFSIBQREb/ldrs5c+YMWVlZ7N69m927d+NwOEhKSmLKlCnExcU1uSD4T/n5+dx+++1Mnz6de+65x69+D8XFxSxYsICwsDAWLlxI+/btfb6e8D9VVVWRlpbGsmXLyMvLY9iwYVxzzTX07duXFi1aNLh6RUS+iwKhiIj4HYfDwfHjx9m3bx/p6elkZ2fTvHlzRowYwbXXXkvHjh0b1KhSffN6vTz//PNs2bKF119/nY4dO/q6pCu2Z88eHnzwQaZOncrdd99NUFCQr0v6r0pLS9myZQtr1qyhrKyMxMRERo0aRXx8PKGhob4uT0Tkf1IgFBERv1FeXs6+ffv48ssv2b9/PxUVFcTExDBq1CiSkpIazCYkvnbw4EHuu+8+fvSjH3HzzTc32DD1vyxbtowXX3yRxx57jOTkZF+X873y8/PZsGEDW7duxe12k5iYyNixY4mNjfWr0VkRaXoUCEVEpME7c+YMqamppKWlceLECUJCQujXrx/Dhw+nb9++hIWF+brEBsPlcvHYY49x6tQpfve73xEdHe3rkqrN4XDw+OOPk5aWxpIlS4iJifF1Sd/LMAyOHTvGpk2bSE1NxTAMrr76aiZOnEjnzp19XZ6IyH+lQCgiIg2SYRgcPXqUlJQUduzYgcvlIioqiqSkJBISEujWrZtGXv6LHTt28Pjjj/PjH/+YSZMm+e3o4D/l5+dzzz33EBMTw3PPPdegdh39Lh6Ph4MHD7JlyxbS0tKwWCyMGzeOG264gYiICF+XJyLyDQqEIiLSoDgcDtLT0/nss8/IzMykefPmxMfHM3ToUOLi4mjfvr2vS2ywysvLefTRRzEMg4ceesivRwf/3e7du5kzZw6/+MUvuOuuu3xdzmVzOBzs37+frVu3smPHDkJCQpg+fToTJkzQqLaINBgKhCIi0iCcO3eO7du388knn5Cbm0vnzp0ZMWIE8fHxdO/enWbNmvm6xAZv/fr1/PnPf+buu+9m3LhxBAQE+LqkWmEYBu+++y5/+MMfeOONN0hMTPR1SVekrKyMr776ig0bNrBjxw6ioqKYPXs2I0eOJDAw0NfliUgTp0AoIiI+Y5omOTk5fPLJJ6xfvx6Xy8WQIUMYPXo0PXv2JCoqSh3my1RcXMyjjz5Ky5Ytue+++xrdSGpFRQULFy4kKyuLv/71r365gVBJSQkHDx5k9erVpKWlER8fz5w5c0hISND5hSLiMwqEIiJS7zweD4cPH2bZsmVs3bqVVq1aMXHiRK6++mpiYmJo2bJlkz42ojpWrFjBe++9x913383YsWMb5e+vsLCQL7/8koSEBL88SgMujnYWFxdz4MABli1bxoEDB7j22muZM2cO3bp183V5ItIEKRCKiEi9cbvd7NixgyVLlrBr1y769+/PzJkzGTZsGK1atSI4OFgjJdXg8XjYv38/DoeD+Ph4wsPDfV1SnTBNE4/Hg9Vq9fvA6/F4KCkpIS0tjTfffJPTp09z++23M3PmTNq0aePr8kSkCVEgFBGROudyufj73//On//8Z44fP87UqVO544476NevH0FBQX7fuW8IDMMAUKD2M16vl9LSUtauXctLL71EYGAgCxYsYPz48TrYXkTqhQKhiIjUCdM0OXPmDIsXL+bll18G4N577+XOO+9sdOvbpGH5966NxWLxYSVX5uzZsyxevJhXX32VZ555hqlTp37vGlrTNPnPbpzFYvGrf7OI+J4CoYiI1BqPx4PD4eDAgQO8++67rFy5kq5du/KTn/yE6dOn+/2ZeA2JaZq43W68Xi8Wi4WAgIAmP9Lq9Xo5fvw427Zt4+TJk/Tq1YubbrrJ70bavv76awICAujQocN37hRbVlbG3/72N/74xz8CF0eIHQ4HM2fO5Oc//7nfrrEUkfqnE31FROR/cjqdVFVVYZomQUFB3+hgm6ZJVVUVRUVFpKWlsWLFCvbv309iYiJLly5lxIgROkC+DuTn5/Pxxx+Tn59PUFAQw4cPJykpqUkfz7Fnzx4WLVqEw+Ggd+/eHDlyxC+nXvbo0eN//j+hoaFMmTKFhIQEALKzs3n99deJiYkhIiKirksUkUZEn9AiIvK93G43H330EQcOHMDr9dK1a1cmTpxITEwMcHF94GeffcbixYs5f/48o0eP5tFHH6V3794KgnUoLy+PDRs20K1bN44cOcLq1at58MEHmT59epMcKfR4PKxevZrIyEjmz59P9+7dCQ0NbbTHlthsNqKiooiKisI0TY4fP05ERAT9+vUjODjY1+WJiB/RJ7WIiHyvkpISXnrpJZKSkggNDeWvf/0rGRkZ/OlPfyIoKOjS6OH111/P9ddfT8eOHbWxST0YOnQoK1aswGq1kp2dzSOPPMLXX3+N0+n0uxGx2lBaWkp2djahoaGkpqayefNm+vXrx+jRowkJCfF1edVWWVnJ+fPnv7UuMjg4mFatWgFw/vx5MjIyaN++Pb169fJVqSLipxQIRUTke7Vo0YL333+fjh07UlVVRYcOHfjLX/5CaWkp7dq1Izw8nFtuuUUhsJ5ZLBZKS0v56quvSE9Pp6qqik6dOn3nmrPGwDAMjh49SnZ29je+b7fbCQoKoqqqiszMTMLCwnA4HCxdupTXXnuNpKQkv22fBw8eZP369bjd7kvfs9lsxMbGMnPmTAAOHTrEsWPHmDRpElFRUb4qVUT8lAKhiIh8r6CgoEsbVHg8HnJzc2nXrt2lUSjtalh3srOz2bNnzzfCgNVqJSoqipEjR3LmzBlWrlzJtm3baNWqFZ07d27U03S9Xi+ZmZl88skn3/h+SEgIiYmJWK1WRo4cyYIFC2jVqhWTJk1i27ZtDB482G+njgYEBNCsWTM8Hs+l71mt1kvTQp1OJ3v37sVmszFgwAC/Db4i4juN91NDREQu2+nTp0lLS6OwsPAb3w8LC2PGjBkEBgbi9XrZunUrX3zxBffcc0+jPfy8ISkoKGD79u04HI5L37PZbMTHxzNy5Eiio6O56667GDlyJG+99RZffPEF/fv3p0WLFj6suu7Y7XbGjRvH0KFDv/F9i8WCzWYjLS2NVq1aERQURHBwMCEhIZc2Q/JXAwYMYMCAAd/53/Py8ti7dy/dunWjZ8+e9ViZiDQWCoQiIkJVVRU5OTnfmorXokULvF4vANu3b+fVV19l8uTJTJkyxRdlNjkDBgygU6dO3wo0ISEhmKZJWFgYsbGxdO7cmZSUFLKzszl//nyjDYQWi4XWrVvTunXrb/03wzCIj49n+/btrFu3joCAAHJycvjxj3/caDfZMU2TI0eOkJuby/jx42nevLmvSxIRP6RAKCIidOjQgVtuuQWXy/WN71utVoKCgkhLS+OJJ55g1KhRzJ07l7CwMB9V2rQ0a9bsvx4jUVVVRUpKCpmZmXTq1ImCggL27t3L2LFjm2wosFqtTJ48mcrKSnbt2oXL5WLGjBmMGDGi0QZCgO7du3PPPfd8a9QU4Pjx41RVVdG7d+9G/TsQkZrRwfQiIk2U1+ulsrISq9X6vQGvqKiIm266ifz8fH70ox8RGRlJ69atGTt2LJGRkfVYsfyTw+Hgiy++4MMPP8Tr9eL1euncuTPTpk0jNja2Sa8jO336NHl5eZimSefOnWndunWT/X3s3LmT559/nr59+3L77bfTrVs3X5ckIg2QAqGISBPjdrs5dOgQH3/8MRcuXOCHP/wh8fHx3/n/FxYW8tBDDxEaGnppKmL79u259dZb6dChQ32VLf/GNE3Ky8spLCykqqoKu91O27Ztm3T4kW8rLS1l06ZNrFy5kpMnTzJ16lRuv/122rZt6+vSRKQBUSAUEWki3G4327Zt4+9//zv79u2jV69eTJkyhWuvvfZ7pxm63e5vbTYTEBBA69at/XbnRpGmwuVykZuby44dO3jvvfeoqKhgzpw5TJ8+/b9ORxaRpkeBUESkkSsvL+ejjz7inXfeobCwkOTkZCZPnkxcXBytWrW6tH29iDReTqeT/Px81q1bx7Jly2jevDk/+9nPGDdunB7siDRxCoQiIo3UqVOneOedd1i6dCmBgYHMnj2b6dOn07ZtW0JDQ7XJhDR6Ho+H3/3ud9jtdn7961/7upwGweFwkJeXx9KlS/nwww/p168f999/P0OGDNF0Y5EmSoFQRKQRMQyDjIwMXn/9dT7++GPi4uK45557uPHGGwkMDGzUh5Y3VhcuXODee+9l3rx5JCUl+bocv3Pw4EHGjh3LK6+8wrRp03xdToNgmiZut5usrCyef/55tm7dyg033MC8efPo3r27r8sTkXqmQCgi4ue8Xi8VFRWkpKTw5z//mT179jB69Gjmz5/P0KFDCQgI8HWJUk2mafLYY4+xatUq0tLSNKpbTW+++Sb/93//x5dffkmXLl18XU6D4na7SU1N5cknn+TEiRPcddddzJo1i7Zt22rEUKSJUCAUEfFDhmFQVVVFYWEhGzZs4L333qO4uK+JCgAAACAASURBVJjrr7+eOXPm0LNnT4WHRiA7O5tx48bx4osvMmnSJF+X47dM02TWrFmUlJSwfPlybabyX1RUVLBmzRpeeuklbDYb99xzD2PHjiUiIkIzC0QaOQVCERE/4na7KSkpITs7m08++YTNmzcTFBTE9OnTufHGG+nYsSMWi8XXZUotcLvdPPjgg+Tn5/Puu+9q448aKioqYuLEidx444089NBDBAUF+bqkBuns2bP87W9/491336Vz587MnTuXhIQE2rRpoxFDkUZKgVBExA9UVFSQn5/PoUOHWLduHfv27aNLly7MmDGDMWPG0LJlS1+XKLVs586d/OQnP+GFF15gxIgR6ozXgs8++4wHH3yQp556iuuuu06/0++RnZ3NkiVL2LBhAwMHDmTWrFnExcXRpk0bPXQSaWQUCEVEGijTNDl79iwnTpxg9+7d7Nixg/z8fIYOHcrUqVMZMmSIRo0aqfLycu677z6aN2/OY489Rnh4uK9LahScTifPPvssKSkp/OlPfyI2NtbXJTVopmmyZ88elixZQmZmJldddRU33HADcXFxREZG+ro8EaklCoQiIg2M2+0mJyeHQ4cOkZqayqFDh/B4PCQnJ3PdddfRq1cvPaFv5FatWsVzzz3HU089xdChQzWSVYsKCgp4+OGHadasGYsWLVKwuQyGYbBlyxaWLVtGQUEBiYmJXHvttcTHx9OiRQtflyciNaRAKCLSQJSXl5OVlUVGRgZ79uyhoKCAqKgoRo0aRXJyMhEREb4uUerBmTNn+MUvfkFsbCzz58/XdOBa5vF4SEtL4/e//z2TJ0/mRz/6kdYTXqbKykrWrVvH2rVrKSsrY9CgQYwdO5b4+HhCQ0N9XZ6IVJO2jRIR8SHTNCkqKmLv3r3s3LmT7OxsvF4vsbGx3HzzzQwdOpSwsDBflyn1xDRN1q1bR3l5ORMnTqR58+a+LqnRsdvtDBw4kOnTp/PRRx/Rq1cvrrnmGo26X4bQ0FCmTZvGiBEj+PTTT9m2bRtfffUVCQkJjBs3jt69e2sau4gf0gihiIgPeL1ecnNz+fzzz9m1axdnz54lMjKSAQMGkJiYSM+ePQkODvZ1mVLPsrOz+fWvf01SUhI/+tGPNB2vDhUUFPDiiy9SWFjIww8/TM+ePX1dkl/xeDycPHmSTZs2sXPnTrxeL0lJSUyYMIHOnTvr2BsRP6JAKCJSjzweD1999RUbN24kIyMD0zTp3bs3gwcPpn///nTo0EFnfjVRXq+XV199lR07dvDQQw8xcOBAjVrVIcMw2LNnDy+88AI9e/Zk/vz5CuDV4HA4+Prrr9myZQtpaWnYbDbGjh3LpEmTiIyMVBsW8QMKhCIi9cDlcrFt2zbWrl3L4cOH6dChA4MHD2bQoEH06NGD1q1bq+PUxO3fv58nnniC0aNHc8cdd2iqcD1wOBysWbOGZcuWcdttt3HTTTdpZKuaysvLOXLkCFu2bGHHjh2Eh4dz0003MX78eK0vFGngFAhFROrQuXPnWLt2LR999BHFxcUMGjSI0aNHExcXR8eOHdXpF+DicQgvvPACBw8eZMGCBcTHx/u6pCbj3LlzvP766+zfv58HHniAwYMH+7okv1ZaWsrRo0dZv34927Zto1OnTsydO5fhw4froZdIA6V5SSIideDrr79mxYoVrF69mqCgIJKTkxk/fjzR0dFEREQQEBDg6xKlAdm7dy8ZGRmMGzdOa9nqWatWrZg+fTpff/01H3zwAR07dqR9+/a+LstvtWzZkqFDh9K9e3fGjx/PBx98wPz58xk+fDj333+/2rdIA6QRQhGRWuLxeNi9ezfvvPMOKSkp9OzZk2nTpjFy5EgiIiJo1qyZnpDLt5SXl/PHP/6R48eP8/DDD9OjRw9fl9TkeL1eNm3axIsvvsjNN9/MrbfeqqMoaoFhGJw/f56DBw/yyiuvkJaWxuzZs/nZz35Gu3btfF2eiPyDRghFRGqorKyMLVu28Oabb3Lo0CFGjBjBSy+9RP/+/QkPD9dooHyvjIwMMjMzmTJlCt26dfN1OU2SzWbjmmuu4dChQ3zwwQf07t2bYcOG+bosv2e1WmnVqhVXXXUV/fv3JzU1laeeeooPPviA++67jzvuuINmzZr5ukyRJs+/RwgNF0b5McyS3ZjOQjBcvq5IRJqYCxcukJGeQdbXWbRs0ZLExKF0jI7GZrPV42igDUtgBJaWA7C26Ac2beDgL0pKSnj++efJzc3liSee0FRFHzt//jwPPPAAdrudhQsXEhMT4+uSGhXTNKmqqmL58uU8/fTThIWF8cgjjzBp0iQ9OBPxIf8MhKaBUXEMb/YbmOf3YgntgiU0Bqx6MxGRumMYBk6nk8LCQnbsSMXhqKJLly4MHTrUtweIm15wnsEsOwrB7bF1uwdry0Fg1QHRDZlpmmzevJkXX3yR22+/nZtvvtnXJQmwb98+7r//fmbOnMkPfvADbfxUR86ePcvrr7/OO++8Q58+ffj5z3/O0KFDCQwMxGq1+ro8kSbF/wKhaWCUHcab9UcIbouty51YwzTFRkTqjtPppKysjP379/Puu++ybds2YmNjmTt3Ltdee22D6TCaziK8ue9jFn+Btcvd2CKv1oOyBuz06dM8//zzlJSU8NRTT9GyZUtflyT/8M477/Daa6/xu9/9jquvvlpHUdQRwzDIysri5ZdfZvv27ZeOXImNjSUkJETBUKSe+F0gNF3FeI+9BKaBrecCLAE+fCovIo2WYRhcuHCBoqIitm/fzurVqzly5Ahjx45l1qxZJCUlNcjOimm4MU6+hVG6B3uvB7CEdQO0kU1D4/F42LhxIy+99BLz5s1jwoQJvi5J/o3L5eLhhx/mxIkTPPPMM3Tt2lUbQtUht9tNWloar732GidPnmTChAlMnjyZ7t27Exoaqt+9SB3zr0BoGhjnM/EefRpb3G+whsf5uiIRaWRcLhdnz57l+PHjpKSksH37dpxOJxMnTmTGjBl07drV1yX+T6arBM+Bh7G2G48t6nqwarfEhiYvL4+nnnoKi8XCk08+SUhIiK9Lkv+Ql5fHj3/8Y4YMGcJDDz1EeHi4r0tq9CoqKtiwYQNvv/02LpeLSZMmMWrUKHr06EFwcLCvyxNptGyLFi1a5OsiLpvpwji7DdNViq3TbD0xEpFaU15ezrFjx9i2bRvLly9nxYoVVFVVMX36dBYuXMi1115Lq1atfF3mZbHYQjArT0JVPpaWCVhs6kg1JC6Xi+3bt7Nu3Truvfde7SzaQDVv3pwOHTrw6quv0r59e+Li4tTvqGOBgYHExsaSnJyMxWLhk08+ITU1FYfDQUhICK1atWqQMzNE/J1/HTthGuAuwRLcHotFbwgiUjOGYVBSUsLhw4cvbf1/7tw5evbsyUMPPcSwYcMazPrAK2UJbodRlXtxwxlpUE6fPs2KFSsYMmQIQ4cO9XU58j3GjBnD7Nmz+cMf/kBsbCzx8fG+LqlJiIyMvLRGe8WKFSxfvpwtW7Zw3XXXMWzYME3hFall/jVl1FuF9/jrmIYHe68Fvq5GRPyUx+MhPz+fjIwM0tPTyc7OJjAwkIEDBzJmzBh69+7t99OTjIJVeIu2Y+/9f1gCI3xdjvyDy+Vi+fLlLF68mBdeeIG+ffv6uiT5H8rKyrj//vspLS3l9ddfJzIy0tclNTkHDhzgo48+4ssvv6R9+/YkJydz9dVX07FjR1+XJtIo+NcIoYhIDXg8Hg4ePEhqaip79+7lwoULtGvXjhtuuIFhw4YRExOj3QSlTp05c4Z3332XiRMn0qdPH1+XI5chPDychx9+mNtvv53XXnuNX/3qV9jt6j7Vp/j4eOLi4ti1axfr16/n73//O9u3b2fcuHFcffXVRETooZdITegdTUQavaqqKnbu3ElKSgqHDh0iNDSU3r17k5iYSL9+/WjTpo2vS5QmwOv1smrVKqqqqrj11ls15c2P9OzZk0WLFvHII4/Qr18/pkyZ4uuSmhybzcZVV11F//79SU1NZcuWLbzzzjts3bqVyZMnk5iYSLNmzXxdpohfUiAUkUbr9OnTbNmyhY0bN3LmzBk6derE5MmT6d+/Pz169PDb9YHin/Ly8liyZAnz588nOjra1+XIFRo3bhz79+/nueeeo1evXsTGxvq6pCYpLCyMsWPHMnDgQNLS0khJSeHll1/ms88+Y/r06QwYMIDAwEBflyniV7SGUEQaFdM0OXLkCOvWrWPLli3Y7Xb69evHiBEj6NmzJ9HR0U1iupfWEDY8CxcuJD09nWXLlukQej9VWFjIr371K4KCgnj22Wd1FIWPeTweTp8+za5du9i4cSOnTp0iKSmJW265hW7dumkJgMhlUiAUkUbB6XSSnp7Ohx9+SHp6Oh06dGDMmDEMHjyYTp06NbmNIBQIG4aSkhKaN29OVlYW48aNY8mSJYwbN87XZUk1GYZBRkYGv/zlL5k6dSrz58/X1N8GwOVyUVBQQGpqKmvWrKGoqIjJkydzyy23EBkZqddI5H9o/I/JRaRRO3/+PFu3buW9997j+PHjDBw4kAULFtC3b1/atWtHSEiIOgPiM0uWLGH//v2cP3+e4cOHM2rUKF+XJDVgtVrp168fd999N6+++ir9+/dnzJgxvi6ryQsMDKRz5860a9eOq666is2bN/Pee++xatUq5s6dy9SpUwkKCvJ1mSINlgKhiPgd0zQ5c+YMK1as4P3336eiooKJEyfywAMP0L17d8LDwwkICPB1mSJkZmby0Ucf4XK5GDduHLm5uXTv3t3XZUkNBAUFkZyczP79+3nxxRdp2bIlpaWlREdH06NHD1+X16QFBwfTuXNnbrvtNpKTk1m+fDlPPPEEb731Fo888ggjRozwdYkiDZJOdxcRv2EYBtnZ2Tz88MOMHDmSt956i1tvvZUPP/yQhQsXMnjwYFq3bq0wKA3GyZMnqaysxOVysWnTJtatW+frkqQWREZGctttt+F0Opk0aRL3338/e/fu9XVZ8g/BwcF06tSJefPmsXr1auLj45k6dSqzZs3i6NGjvi5PpMFRIBRpgsx/fPkD0zQxDIOdO3cye/ZsEhISSE9P59lnn2Xbtm389Kc/pVOnTgQFBWG16i1N6sfl/A1VVVVRWFiIYRgEBgayePFi5s2bVx/lSR1zuVxkZWVx6NAhCgoKOHr0KFlZWVzJtgz+9D7srwIDA+nUqRNPP/00aWlpeL1ehgwZwi9/+UsKCwuv6PWqM6Z58UvEhzRlVKQRMwxwGyYeL1Q4TfJLDIouGFS5TUwshAVZiGhmoX1LK+HBFuw2CLBZsPp4yZ1pmrhcLsrKyvj0009ZvHgx+/fvZ9q0aWzevJlBgwZpXaDUC48BHq+Jx4DiMoOCUoPSShOn28RutRAeYqFdcyttmlsJCQS7zYLdChYL5OTk4PF46NChA2+//TbJycm+/udILXE4HBw/fpzKykpsNhsOh4Ovv/6awsJCoqKivvH/XmpDXiguN8gvMThfaeL0mNhtFsKDLbRvYSUy/NttSGpP9+7dWbZsGV988QWPPfYYY8eO5Z577uGWW24hIiKi7meWGF5MtwfT48YoK8NbkIdxtgjTUYVpAWtoGLbINtjaR2FpFo4lwI7FHgB60Cn1QIFQpBFyekzKHSbZp73sPOZhf46XU8XGdz6EDLRDx1ZWBnSyk9jNRuc2NpqHWAmwQ332STweD2VlZeTm5rJu3To+/PBDnE4nM2fO5J133qFDhw71WI00VYYJDrdJaaXJ/lMedmd7+CrXy7mK736KHxZkoXs7K4O62BncxUb7ljby8guJi4tj0aJFDB48uB7/BVLXWrRowfz58xk8eDC///3v2bFjB9nZ2Zw4cYKoqKiLbchlUlplsu/f2lDJ97ShZsEWure1MriLnUFd7LRraSUsyIJNeaDWWK1WRo4cycqVK1m5ciWvvfYaq1evZs6cOSQnJxMREVHrZxiaTgdmeTnur7Nwpn6O60Am3pxT3zkqaAkMxBbTmYABCQQnDcfeqTOW5s2xBOhsRak7OnZCpBFxeUyKykwyTnj4bL+bY6e9eIwru4bNCnEdbIyLD6B/JzttW1ix12GHxDRNHA4HZ8+e5eDBg2zYsIHU1FTatm3L9OnTmTJlCi1atKi7AhopHTtRPRVOk7xzBl9kudn8lZuzZeYVz+YKC7IwtJuNKMtREmPb0LtbFDb16hutnJwcFi9eTEpKCvPmzeO6628ir8Tk86MX21BxeTXaULCFpG42kvsG0qOdjRahFo0Y1rJ/bk72t7/9jVWrVtGhQwdmzJhBYmIibdq0qfGIoely4T17BufunTg+XYsn++srnxpqtRLQbwAh4ycR2H8gtsg2oLMVpQ4oEIo0AiZwvvLik+i1e118lefF5anZNa0WGNzVzuSEAPrF2AkLqt3eiGEYXLhwgZMnT7Jnzx62bdvGyZMniY2N5aabbmL48OGEhobW6j2bEgXCK+M14Mz5i0FwfaabvBIDo4afjs2CLIztE8C4fgF0a2vDrn5co1VVVcWGTZupMsIwIxPZcMAgv7R22lBy33+1IT1XqH2GYZCVlcU777xDWloasbGxTJo0iYSEBCIjI6txuL2JUVKCK3MPlas/xH3oIHhq+IFssRCYOIzQG28mMK4vlrCwml1P5D8oEIr4OcOEwlIvGw+42XDAzZkLtfsn3SLUwvShgST3DSAyvOa9Ea/XS2FhIYcPHyY9PZ2MjAycTidDhgzh+uuvp0+fPrU+ZacpUiC8fC6PSVahl9V7XKR97aXSVbt/Qz3bW5mZFERidzvBARrmaYxcHpOjBV4+TneyO9tDlbt2X+de7W3cMiyQod3sBKkN1QmXy0VGRgbvvfce2dnZxMfHk5ycTEJCAq1atcJisVBeXk5ISMh3h0TDwJOXS9WGdTg+W4dxrrhWa7S2aEnozFkEj0nG1qZtrV5bmjbbokWLFvm6iMtmejBL08E0sEYM93U1Ij5nmHCqyMuK3S4+2++hpLL2n+843ZCZ48XlNolubSM8pHqdEY/Hw5EjR9i8eTMffvghmzdv5vz584wdO5af/OQnTJ48maioqGo8jZX/xiw/gll5CmvkCCw2jbR+F6fbZF+Ol/dSnezKrvnI+n9zrtxkf46XsCAL0a2tBNrVoW9MHG6TzFMelqW6SD/hxeWt/de3uNxk3ykvzYItREdYCbCpDdU2m81GdHQ0I0eOpH379uzZs4eUlBRycnKwWq20bduWFStWUFxcTNeuXb+9sZlh4M4+RuXfl+HY+CnmhfO1XqPpdOA+sA/T7cLeIRpr8+a1fg9pmrSpjIifMk3IPXcxDG477MHhrrvBfsOAT/a6cXjgjquDaNfiv48Uer1eTNPEZrNd+rAsLy8nMzOTXbt2sX//fqqqqujcuTNz5swhMTGRyMjIOqtb5Pu4PCYHcr28v9PJgVxvne78Xlpp8tZ2J26vyfUDAzVS2Ei4PCb7czy8v/PiVP36akOTBgRqpLCOhIWFcd111zFkyBC2bNnC+vXreeGFFxg4cCBvv/02rVu3JiwsjKuuuupfP2SauE8cp3L5Mpw7Psd0VNVZfabLiWP9GnC7CLvldmzto/73D4n8DxohFPFTxeUGqzLcbD7ooaqWp7j9NyaQe87A7TWJjfr2tCWPx8P27ds5evQokZGRlJSUsGnTJpYuXcrGjRspLi4mISGBGTNmMGPGDPr06aM1gnVII4TfzzDh+FmDZalO9p2q2478P7k8cOKsQYtQC93a2rRJiJ8zTDh2+mIb2p9Tf23oZLFBy1ALXdWG6lRoaCh9+vRh0KBBBAYG8uSTT3LixAlOnz5Nfn4+/fr1o127dgB4TxdS+fFynNu2YlZV1n1xHg/egjwwDAJ69sISFFz395RGTSOEIn6oymWy82sPWw66qXTW3zJglwe2HvTQvoWLqYODLh2P5Ha72bJlC3/4wx9wu90kJSVRWFiI0+kkOjqaadOmkZCQQLdu3XR4vDQI58oNPtnrIvOUt8Ybf1yJkgqTj7900bGllX6d9BHsz4rKLrahfTn114ZMoLjMZFW6iw4trcTHqA3VtejoaPr374/L5QIuft5t3ryZZ555hkWLFtGlbRscX2zDuX0rZmVFvdVllpfj2LoJW/soQibegMWutiDVp9Yj4mcME3KKL3ZEvu9Mq7pS5jDZ9JWH2CgbfaLtuFwuNm7cyDPPPMPOnTuBi4vzp0yZQmJiIn379qVNmzY6SF4aDKfn4tEsnx/x4PbW770NE3LOGaza4/rHeZ/6u/BHDrdJ+nEPX2R58PigDZ0sNlizx0WnSLWh+tC6dWsWLVpEXl4ehYWFFBQUcOrUKT547z3mXJVEwIb1GCUl9V6XUVyEY8tG7N17Etgnvt7vL42HAqGIn6lwmqQccnGy6AoPGKwlFzu0Xj474Ca6pYdtWzfyxBNPkJ6efukJqt1uZ/LkyfTp00dBUBqcknKTNXvclDl8s8m22wtf5XrZcdTNhAHaUdcfFZUZrM10U+6jNuTywIFcLzuz3IzvrzZU12JiYrjzzjupqKi49FVZWYm9vAxr+i48J0/4pjDDwHMsC+f2rdi7dsMaouUBUj0KhCJ+xDTh9HmDzQc9eH2TB4GLO48ezPXwyecn2b9jB9HR0XTt2pWQkBBCQkKIioq6tE23SEPi8kD6cQ/HTtfzsM5/KK00+SLLQ1IPO63CNI3anzg9JhnHPWT7uA2dqzDZkeUhsUcALUP1XluXLBbLpc+3SxuhGQaufXs5n7EL01sH2xNfJrOqCteBfQQdOUzgwEE+q0P8mwKhiB9xeUx2Haub4yWu1OkLJqe90cyffx9gYrVav/EVHh7u6xJFvsXhNtl00IXHhw9UALzGxanf+055GR2nQOhPKp2w5ZC7QbShU8UG+3M8jOwd4NtimiCjohzX3gyMoiJfl4L35HFc+/cS2G8A6OgmqQYFQhE/4vTAF0fd9bKb3f/icENBWSBGcHM6tlKHVho+04SCEi+H833ck/+H4vJ/dOZj7Vg1mu4XTBPyS7wcKWgYbehsmcGBHC9X91Ibqm/G+fO4MnaD6fu2YDoceLKP4SnIxx4d4+tyxA+pFyfiJ0wudiCPnan+h4/NCsEB//oKqOGDxKIyw+fTpkQul2HCnpO1M93aZoVAO1hr0Ad3eSCvxODM+QbwhEcui8eAvadq3oYsgNVKjY+N+GcbOntBbahemSZGSTHurKM1uozFHoC1RctaOTbCm5+LNy+nxteRpkkjhCJ+wjThYA0OPrZb4TfTQhjaLeDSFumfH3HzzJqqak99Kq00yTnn+6ejIpfDMOFgXs3ba2S4hQcmBtO6mZVXNjjYl1P9hyIlFSa55wzat9TzWX/gNUwO5VX/9bbb4Jq4AKYNDSQsyMLirQ5SDtds/dm5CpO8EoN2LdSG6ovpdOLOPgbVXTtosxEY35/wn/8SW7v2ePJzqXj3LZwpm8Go3nuU98xpvKcLq1ePNHkKhCJ+wjThVFENRuMsF9ec7DjqZsVuF6YJFxwm3ho8WK50mhSXGRimqelK0uCZpsnJ4poFwkA7DO9pp1+MnbySmofLCicUlWl0x18YJpwqrv7r1aOtjbljgiko8RJSS5uDljtMtaF6ZrrdePNyq/3z1uYtCJk2E+/ZM5S/tZiQcRMIGTse7/FjeE4cr15NFRUYJecwPW4sdq0plSujx0kifsI04fSFmndAvebFzWnOVZicKzdrtB7RMC92aCudNS5LpM55DZOzNfgbsgAxra1c1z+gxqM6/1TlNjlfpVF2f+H1mhSVVf/1yi81eHR5BS985qi1teBVLpMLVQqE9crjxig6W+0ft4SGEtC1G660HZhlF7C1aYstKgpbdKcalWWUXcCsqKjRNaRpUiAU8RMmUOGo2QWqXCY92tl4ZEoo/++mEMb3sxMcULORPbfXxOlRZ0Qavio3NVr7FRpk4ebEQHKKTXYcdddKTR6vicOtvx9/UdM2dKHKJKuwdh8AuNWG6p9hYFRWM3hZLFhCQsFmB9MkaPgICLBjulxYQmt4jqDTiemunfcmaVoUCEX8SE22OTdM2PSVh+fXVfHShipOFBmM7RNIj3Y1exswzGoveRCpV54a7n+U1MNO/852thx0ExpowW61EBZkIbAGiy8Mk0treqXhq2kbqgum2pBv1ODsQUtgIJaAAALi+mJrF4Vj0wbM8jIsNTwywjQMfSBLtSgQiviRoBp2PNOPe9if42XPSS+bvnITFABta7gRgc16caMEkYYuyH5x2md1jYsPwO0xGdDJxvBedpqHWBjY2U6HGmwIY7NAgD6J/UZQQM3aUF2wWdWG6p3FguX/s3ffcVZUd+PHPzNz6+7dyna2sLCUpfdeREEFC2IL1thifNBEE/NEf8Roos/rURNjCcbkMZoYTazEgoqAiIBSRHqTtixsYRe291tnfn9sIGIL7N7dueX7fr18+fKud+Z7956dOd8533OO1d6x9xoGeksLSkwslr4D8Gz6DH9xEagahrszZUCgWCyyD6HoEFlURogwoQAJMR3vimgq9M3QqGrUUVXolaISCLQvDNMZdqvS6bJTIbqD3aLgtEGrt2Pv/+ygn5Q4BQVOnf/VieZvsyjE2OXvJ1x0tg0pCiTGKCS7VDQV4mMUEmMUmt1GhytApA2ZQNVQ4+M7/v62VgIVRzE8bvxFB7ANGd6eKNbUdCosxRmD4uj8FhYi+khCKESYUBTI6sQG8HYrXDfZRlWDgapCXorKF0cDFB3reHmJVYN4pySEIjyoqkJGosqhDu7l+fbm9ixAU2FULws9k1XW7vdxuKrjf0MxNoWkWBneCReaCukJKsUd/M4tKlw0wkbvNI14p8rU/lacVoWVe3wdXik0xtaeVIruo1gtaGkZHX6/3txE24plOM6ZSczFc1GTeuDbvRN/yeGOB2WxoMYnoDqcHT+GiFqSEAoRJhQF56TeeQAAIABJREFU+qR1vBTEH4AtxYGTo4z7d/nYWRqgqhMr5sU5FNLj1U5vrixEd1D/9TfU0YTwBN2A0lqdtzZ5qezkpvJxTkX2jwsjqgq90zqeEBq0rxbt9rXvKwtwvNHA14m5ifExSqdL/8UZstnR8np1+O1GWxvuj5ZhtDajJqegb9+Gd/sW9Pq6Dh9TjU9ATUmRklHRIZIQChEmVAV6p2m4HNDcgWkGXj+8tcmL/V/bE7l9dHrZ86RYhbwU6YiI8KCqMDRX48NdnVuFzzCgol6nor5ziaWiQA+XQs9OjPyL7qWpCkNyLHy0u2MLivgDsGxH8FaBVBRIkTbU7RSLBUvPbNTEpI4lcYaBXl1F2/uLUaxWDL8fAp1bsUhLz0DLyOrUMUT0kiuIEGEk3qkwuGfHn+PoBrR52//pbDKoKu2lU707MWopRHdSFCjM0khwhsaQdqxdoXeaSlyIxCP+My3E2pDLoZCfpuFyhEY8UUNRUJOSsRYO6txxdB3D4+l0MoiioOXkYsnp3D6GInpJQihEGHFYFaYMsIZEiWa8U6Gwp0Z8iHSMhPhPFCDZpTIqPzQeYqTGta9SqsqfUNhoH9VVGdErNNpQWpzKsFxN2pAJ1IREbKPHtpcemB1LUjLWfgNQExLNDkWEKfNbsRDitGkaDOyp0beTewcGQ0aiyoSC0EhOhThdDqvCjMG2Tm3hEgw2S/uqv/0yQyOxEKcvxq5w9iDz25DdCv0yVfplSBsyg2K3Y+0/EGu/AWaHgiW/D7ZhI0MiORXhSVqOEGFEAXrEKcwebjP1iXC8U2FCgaVTq54KYQZNbZ+LO7m/1dQ4UuNUZg6xYrfIE5Vwo6nQJ01lYj9zM8K0eJUZg63YpA2ZQ1Gw5OTgOOscFIt51xM1uQe20WOxZOeYFoMIf9KbEyLM2C3tZWbjC8zpjKgK9EpVOX+YFU2uICIMJcQozB5mJcVlTkfaaVOY2NfCoE7MBxbmSnapzBpqo4dJbSjG3t6GCrOkDZlJccZgGzEa2+gx5gSgqlgHFOKcPkNWFxWdIt05IcJQosNLAeup3PoKhtG5lQ7PVLJL4ftT7CTGyOVDhCdVgYIMje9NsHf7Qw1VgT7pKldN7P5zi+BRFeiXqXHFOFv3tyEV+mWofG+8tKFQYOmVj2PWRWiZPbv/3Ll5xFw2DzW5R7efW0QWuZQIEUYMw6C2tpY/PP00//vLOxma6SHB2X1/xi6HwjUTbQzOlqfSIrw5rAqT+lm4aET3jXQrQEaiwo/PdRBrlzK/cOe0KUzpb2V2N1ZLKApkJ6ncPkPaUMhQFOwjx+C85DKUhIRuO62akorzkiuwDRnWbecUkUt6dUKEiUAgQElJCY888ghbt27l0UcfYfqM2Szd4eO1DV4a3Uant5L4VoaBy6Fy+Rgbs4bZuugkQnSvHi6Vi0fZafHA6r0+vB3bWu60KAqkxiv87AIneSlS2hUpUuJULhltp9ULn+zr+jaUkaDyk1kOcqUNhRTFbsc5cxZGczNti/+J3tjY+b2dvvVk7VteOOdchnPWhV1zDhF1JCEUIgy43W62bNnCr371K1wuFy+88AIDBw4E4PxhNlQV3tns43ijTiDYFaRGgMbyHdxw5TDmTbChyLKiIoL0TFK5eqIdmwVW7/XT4gn+gxWrBjk9VH5yvlNWFY1A2ckqV0+0YbPAJ/u6rg3l9lD5ySwnfWVV0ZCkulzEzL0CxWKh7YN3CVQd7/z+gl+lKGgZmcRceiXOi+bK/VgEjfarX/3qV2YHcdoMP0b9ZjB01B4TzY5GiG5RVVXFO++8w4MPPsiYMWP47W9/S15e3smf2ywKvVM1erhU6lsNmtzBuwc5bQp5CS3sePFKpgxNY/DgwaiyrHVYMJr3YbSWoKZMRtFizA4npMU5FQoyNKwWhdpmgzavgR6EDr0CJMUqjMq38ONzHeSnSUc+UsU7VQrSNSxa17Sh0fkW7jxfRpdDnWKzYe3XHzU+Ab2uFqOpEfzBGTZWnDFYCvrhuvFWHOeciyL3YhFEMkIoRIjSdZ2DBw/y4osv8tFHH3HzzTdz8803Y7F8/c/WblU4q9BKdrLKh7u8bC8JUFGn4+ngfchhbd9ncHiuxkUj0xlju4dHHnmEvLw8pk6dKk8lRcTp4Wovie6dqvLRbh/7KgLUNBsdGnFXaN+aJTtZZcoAK+cOscp8ryiQEqdy5VgbfdJUPtrlY39lJ9tQTHsbmjbAyswhVmJs0obCgWJ34DxvNpZe+bQtex/fzu0EjpZj+HwdO57DiZaVhXX4KGIvuRwtIzPIEQsBimF02ayj4Au0ESh+FkP3Y+l3t9nRCNFlPB4PGzZs4C9/+QtNTU3ceeedTJs27bTe6/YZ7CoN8FmRj0PHdSrqdepa/vPTaosGiTEKGQkqfTM0xvaxMChbw25RCAQC3HfffWzcuJGnn36awsLCIHxK0ZX0isUEqj/B0v9eFJusQHcmapp0Nhf72XIkQElNgGMNBs3u/3yrdFjbE8usJJVB2RoT+1rITtZkJcgoVN2ks6nYz9bDAUprAhxrPP02lBKnkpXY3oYm9bPQM0mT/cbDlOF24922Bc/GdfiLDxGoOIpeXwf6f3hKYLGiJiWhZWZhLeiPfcJErEOGy6ig6DKSEAoRYmpqavjggw9YtGgR+fn5zJ8/n4KCgjMelfP6DQ5XBdhfqVNao1PdpNPkNmhq9VFeUoS7pZ4BQ8fjtLaXzKXEqeT2aE8Gc1PUr22YXVNTw1133YXVauV///d/ycjICObHFkEmCWHnNbQZHKwMcPBYgKN17Q9WWjwGbh8EdANVBZumEGNXSIxRSItXyE/V6JepkRavSiIoaGg1OHAsQNGX2lCzx8Djax85PNGGYu0KCTEK6Qn/akMZGqnShiKG4fXiO3QQ/769+MtK0GuqMZoa0dvaTpaUKlYrijMGJT4eLTUNLbcX1n79seT2QrGat/G9iA6SEAoRQoqKinj11VfZtGkT06ZN45prriElJaXTJZoBvf2JdUOrwbGaRv752kuUlxTxiwd/d7IzmxijYvuOInLDMNi+fTsLFixg8uTJ3HXXXcTEyNy0UCUJYXC1eQ1qmnQa3QZtXvDrBqqiYLdAnEMhyaUS51CkAy++VZvXoLpJp7Gt/aGCXzfQFAWbpf2hXHJsexuSQaDIZvh86DXV6A316C0t4G8vJVVsNpQYF2pSEmpikiSBolvJHEIhQoDf72fTpk289NJLNDY2cu2113LuuecSFxcXlONrKqQnqKQnQHqMytrYVtocbobnnf4lQFEUBg0axG233cbChQvJy8vjqquukkVmRFRw2hSye8iCHqLjnDaFHGlDUU+xWtEyMmUuoAgpkhAKYbKWlhY+/PBDXn31VdLT05k/fz4jRozA4XCYHdrXWK1Wpk+fzpEjR3jllVfIzc1lypQpZoclhBBCCCE6SBJCIUxUXV3Nq6++yvLly5k4cSJXXHEFeXl537iSaKhwuVxceumllJWV8eyzz5KVlUWfPn3MDksIIYQQQnSA1HoJYQLDMDh8+DAPP/wwS5cu5YorruCWW26hd+/eIZ0MQnvpaEZGBvPmzUNRFJ5//nnq6+vNDksIIYQQQnSAJIRCdLNAIMDWrVu5++67KS0t5ec//zmXXnppUBaP6S6apjF48GCuuuoqdu7cyRtvvIE/SJvvCiGEEEKI7hPaQxFCRBifz8fy5cv5n//5H0aOHMndd99Nbm5uyI8KfhOr1cq0adMoKSnh7bffplevXsycOdPssIQQQgghxBmQEUIhuonf72fhwoX86Ec/4vLLL+c3v/kN+fn5YZkMnhATE8Nll13G4MGD+dvf/sbevXvNDkkIIYQQQpwBSQiF6AYtLS1cf/31PPXUU/zf//0fd999N7GxsWFTIvpdUlJSuPHGG/F4PLz00kvU1taaHZIQQgghhDhNkhAK0YX8fj+7du3irLPOoqysjJUrV0ZkWeWAAQO4+eab+fzzz1m8eDFut9vskIQQQgghxGmQhFCILtLY2Mg///lP5s2bx9ixY/nggw8ienuGmTNncskll/Daa6+xdu1aWWRGCCGEECIMhO/kJSFClK7rHD16lL/85S8sXryYO+64gx/84AdommZ2aF1K0zSuvfZaioqKeOGFF8jIyKCwsBBVledOQgghhBChSnpqQgSR2+1m69at/PrXv2bDhg08+uij3HLLLRGfDJ4QHx/P/PnzcbvdvPzyy1RVVWEYhtlhCSGEEEKIbyEJoRBBUldXxwcffMCjjz6Kqqr85je/4ayzzgrrVUQ7ok+fPtxxxx189tlnvP322zKfUAghhBAihEVXT1WILmAYBmVlZbz55pusXr2akSNHcuONN5KVlRURq4h2xNSpU7nuuut46aWX6Nu3L2eddZaUjgohhBBChCBJCIXoBL/fz+7du3n55Zc5fPgwc+fO5cILLyQpKcns0EylKApXXnklPp8Pt9stZaNCCCGEECFKEkIhOqi1tZVPP/2UV199FU3T+OEPf8iECRNwOp1mhxYSnE4nt9xyi9lhCCGEEEKI7yAJoRAdUF9fzz//+U+WLFlCYWEh8+bNo7CwMCwWj7FarQwcOJDU1FSzQxFCiKjm9/sJBALY7XazQxFCRDFJCIU4QzU1NTz55JPs2LGDWbNmcdFFF9GzZ0+zwzptDoeDKVOmhNQ+gYZhYBiGzDMUQkSNlpYWdu7ciaZpjBkzxuxwhBBRTBJCIc5QbW0te/bs4b/+67+YOHEi8fHxZod0RlRVDZk5jvX19SxdupT33nuP1tZWZs+ezaWXXkpycrLZoQkhRJc6fvw4L774Inl5eZIQCiFMJQmhEGcoMzOTX//61/Tr1w+bzWZ2OGHL4/GwfPlynn/+eaZNm0ZWVhbp6emyAI0IeT6fj+rqajIzM80ORYQpXdcpKSnhrbfeYvLkyVRUVEh7ikK6rtPS0kIgECAxMdHscEQUk4RQiG8RCARQVfVrW0fExsYyaNCgsN9Soq6ujvXr11NSUkJsbCzjx4+noKCg2z5XZWUln3zyCaNHj+aOO+44OYdGkmwR6qqqqnjmmWf48Y9/TFpamtnhiDDU1NTEmjVrOHbsGHv37mXTpk1cdNFFZoclulldXR0ffvghiYmJnH/++WaHI6KYTNgR4is2btzINddcQ79+/ejbty933nknbW1tJ3+uKErYJ4MAO3bs4P777+ejjz7iT3/6EzfffDMrVqzotvM3NDRw7NgxiouLueqqq7jqqqtYuXJlSM1tFOKrdF2nqKiI1157jZUrV5odjghTtbW1vP/++xiGQVFREevWrZNrXxQqLy/n+eefZ/Xq1ei6bnY4IorJCKEQX1FeXs6oUaO49dZbaW5u5rbbbiM9PZ0FCxaYHVpQTZo0idWrV2OxWCgpKeH+++/n888/Z+LEicTGxgbtPG+99RZNTU2nvOZyudA0jV27dpGSksL8+fP5/PPPWbhwIYmJiUyaNClo5xcimNra2li8eDGlpaUsXbqUK6+8UhZDEmfE7/ezb98+Nm3aBLS3qe3bt7N3714GDx5scnSiu/h8Pvbv38+qVauwWq0cOHCA/v37mx2WiFKSEArxFXPnzj3lv6dOncqWLVtMiqbrWCwWNE3D7/fT0NBAc3MzDocDiyW4l4W3336bioqKU+YGZmRkMHXqVHJycpg5cybz5s2jb9++3H///Rw9ejSo5xcimFpaWnjzzTfxeDzs3r2bHTt2MHz4cLPDEmGkubmZt99+m0AgcPK1Xbt2sWnTJkkIo0hNTQ3Lli3D7/ezd+9eNm7cKAmhMI0khCIq6bqOx+P52usWiwWLxXKyJLS6uprt27dz0003dXeIQeF2u2lpafnaQi02m434+Hi2bdvGQw89xLp165gwYQIzZ84M+n5Yf/vb377x9b179/Lpp5+iqiq6rp/8nUvZjAhVuq6zdu1aDh06BEBJSQkfffQRw4YNi4gyctE96urqWLx48SmvlZWVsXnzZubMmRMyq0CLrmMYBpWVlSxbtgxov5Zs3LiRuXPn4nK5TI5ORCNJCEVUOnbsGIsWLTrlCS3AwIEDGT9+PPHx8TQ2NvLQQw+RmprKLbfcYlKknbNs2TKeeuopWltbT76maRqTJk3iN7/5Db169eKuu+5i7NixLFmyhPXr19OvX79u2SQ5LS2NwsJCPvvsM9avX8+6devQNI2srKwuP7cQHeHz+Xj55ZdP/nd1dTVr167lhhtuoEePHiZGJsKFz+dj5cqVVFRUnPK6YRhs2bKFXbt2MWXKFJOiE92lra2NdevWUVpaCrQvYrd9+3Z27NjBxIkTTY5ORCNJCEVUamtr48CBA1+bxJ+cnIzP56O+vp4//vGPbN++naeeeoq4uDiTIu2cyZMn06tXr6+NuiUkJGAYBklJSUydOpVx48ZRXV3Nli1bmDVrFjk5OV0eW1JSEnPmzOHIkSPcfffduFwurr32WoYNG9bl5xaiI44dO3byiT60jxgeOHCA9evXc+GFF5oYmQgXfr+fNWvWkJGRgcfjoa6u7mTFRk1NDYcPH2bSpEkyLzXC1dfX884775zy2p49e9iyZQtjx44N+tQNIf4TaXEiKvXu3Zvf//733/iz+vp6/vrXv7J8+XLuvfdeevfujcfjweFwdHOUndejR49vHLnw+XwcOXKE48ePk5CQQE1NDWVlZWRnZ3fbtg+KolBYWMjTTz9Nc3MzmqYRGxsrpXciZC1atOhrCyQdOXKEdevWdUm5tYg8FouFc845hwkTJrBnzx4WLlxIXl4e8+bNIzc3lwEDBuD3+2X7nQim6zrFxcWsXbv2lNdramrYvHkzR48eJTc316ToRLSShFCIr1izZg1/+tOfGDhwIDt37mTfvn1kZmZy5ZVXmh1a0Hi9Xj777DPeeust0tLSqK2tRdd1zj333G4vfdM0jYSEhG49pxBnyuPx8Morr3zt9aamJrZu3UpRUREDBw40ITIRTqxWK9dffz2BQIBly5axcOFCMjIyuOSSSxg5cqTZ4Ylu4Ha7effdd2lpafnazz7//HN2794tCaHodpIQCvEVTqeTOXPm0NTUdHLxiG9agCacOZ1OJk+ejMvloqamBofDwZAhQygoKJBSFSG+QV1dHQkJCUydOpXDhw9TWlpKSkoKQ4cOJSsri9raWrNDFGFGqiGik67rNDU1MX36dGpqatixYwdJSUkUFBSQmpqKz+cjEAigaZrZoYooIj0/Ib5i5syZzJw50+wwupSqqvTs2ZOePXuaHcrXeL1eoP1JunSYRKhwOBw8+uijuN1unnvuOV588UUGDRrEY489htVqJT093ewQRRj56rXtqytBi8jlcDi49dZb8fv9fPLJJ/zkJz+hT58+/PSnP2XAgAFyLRGmkIRQRI26ujoqKyspLCw0OxTxHQ4dOsSSJUuYPn06Q4YMkRFLERISExMZNWoULS0tZGRkAO2LM8kehEKIM2GxWBg2bBi6rlNeXg5AXFwc/fv3l+uJMI0sYyWiwt69e/nFL37B559/bnYo4j+Ij4/n0KFDPP3005SXl8uTcxFyTozuSNsUQnSGVMGIUCEJoYhohmGwZMkS7rjjDjwej+zvQ3tJ5tatW1mzZo3ZoXyjrKws5s+fT01NDX/+859pbm42OyQhvsYwDEkIRad8+cGCtCUhhJkkIRQRq62tjd///vc89NBDnH322dx3330UFBSYHZbpPB4P69at4/333zc7lG81YMAA7rzzTlauXMlbb71FIBAwOyQhTjqxR5x04oUQwSAPBYTZZHKOiEgVFRU8/PDDbN26lZ/+9KfMnDmTxMREs8MKCSdWOKuvrzc7lG+lqiqTJk3illtu4Xe/+x2DBg1i1KhRZoclBIqiSJmXCAppR0KIUCEjhCLibN68mR/+8IeUlJTw2GOPcfHFF0syGIZsNhvz5s1jxowZ3HHHHdTV1ZkdkhCAzCEUQgSHPBQQoUISQhExAoEAb775JvPnz6dXr1488cQTjBkzBrvdbnZoooNiYmJ44IEHcDgczJ8/H13XzQ5JCBRFkRIv0WmSDAghQoUkhCIitLS08OSTT3L//fdz1VVX8etf/5r8/PyTc31E+IqPj+fFF19k9erVPPHEE2aHI4SMEIqgkocLQgizyRxCEdZ0XaekpIQnn3ySDRs28OCDD3LhhRdis9nMDk0EUU5ODi+99BLXXnstw4cP5+yzz5an68I00vaEEEJEEhk+EWHL6/WyceNG7rnnHoqLi3nyySeZO3euJIMRavr06dx1113cc889HDhwwOxwRBST7QJEsEk7ik7ycEmECkkIRdgxDIOGhgYWL17MAw88QFpaGk888QTjx4+Xi2sEU1WV+fPnM3jwYB544AGOHz9udkhCCNFhcr8SXyYPBYSZJCEUYUXXdUpLS/nrX//KH//4R2bOnMmDDz5I7969zQ5NdAOXy8WCBQtoamriD3/4A42NjWaHJKLQlzvy0okTHSHJoBAilEhCKMJGIBBg27ZtPPnkkyxfvpzbbruNO++8k6SkJLNDE91EURTy8/P50Y9+xPr163nnnXfweDxmhyWijJSMCiGEiCSyqIwICx6PhxUrVvC3v/0Nu93OAw88wLhx48wOS5jAarUyYcIELrnkEhYtWkRubi5TpkyRFWVFt5ERQhEMMkoohAgVkhCKkFddXc3rr7/Om2++yYQJE7j11lvJyckxOyxhovj4eC655BJKSkp44YUXSE1NZeDAgWaHJaKAoijSkRdBJSPNQr5/YTZ5pC5C2p49e3j44Yd5++23ufrqq7nnnnskGeyEuro6Nm7cyJEjR6isrGTTpk1UVlaaHVaHZGRkcPXVV6OqKv/4xz+oqKgwOyQRJWSEUASDPFgQXybXEmEmSQhFSAoEAixfvpyHHnqIqqoq7r33Xr7//e/jcrnMDi2sNTQ08Mgjj7B06VI2btzI008/TXFxsdlhdYiqqgwYMIArrriCgwcPsnjxYpqbm80OS0QBmUMohAgGeSggQoWUjIqQ09TUxKuvvspbb73FqFGjuPrqqyksLDQ7rIgQFxeH3+/n8OHDKIrC8ePHycrKMjusDrPZbEyaNImSkhI+/PBD8vLymDFjBhaLXNpE15FOnAg2ebAQfeQ6IkKJ9JpESCktLeXZZ59l8+bNzJ07l4svvpi0tDSzw4oYsbGxXH755axZs4bExERGjx5Ndna22WF1SlxcHHPmzKGkpIRXXnmFzMxMhg0bZnZYIoJJyagQQohIIiWjImRs2bKFX/7yl+zfv5877riDq666irS0NHmKFkR2u51p06aRlZVFz549mT59OpqmmR1Wp6WlpXHdddednE9YXl5OdXU1brfb7NBEBJKSUREMcm8TQoQKSQiF6Xw+H++++y6/+MUviIuL495772XGjBm4XC65YQaZoihkZmYya9Ys+vbty9ixY80OKSgURaGgoIAbb7yRXbt28fjjj3PjjTeydOlSvF6v2eGJCCMjhCKYpA1FL+njiFAhJaPCVI2NjfzjH//g73//OxdeeCHXX389GRkZETFqFaoSEhK44YYb2LFjB7GxsWaHEzSapjFu3DiGDh3KSy+9RFVVFRkZGUyfPh2bzWZ2eCKCyAihCAZJBoQQoUISQnEKwzCoaTYoq9U53qjT4jYIGOCwQrJLpWeSSlaSilXr/I3s6NGjPPnkk6xevZof/ehHXHrppTidTrlJdgHDMKhs0Cmt1aluNGhShxPTfwBLd3jp4VLJSVZJiVOxhHke/sorr7Bo0SIqKiowDIMVK1bQ1tZGQkLCt77H4/dyvLmaiqbjNHia8Pq9aKpKjDWG1NgeZCdk4LLHoiDtUrSTa5QINnmwEN3k4ZIwmySEAn8Aio77Wb3Xz8aDPirqDfz6N/+/CuByKAzL1ZhWaGVkLwsux+l1jgKBAJqmYRgG+/bt495776W2tpYnnniCiRMnBu8DCQD8foMdpQE+/sLL54cC1LV89WZjA9rn2CkKpMYpjMq3ML3QyoAsDbs1/Dq9l112GfX19fzud7+jrKyMw4cPs3v3btLS0lDV9gp5A4NWbxtbju5iQ8kW9lcfotnb+q3HVFDomZDBqKwhTO41huyEzO76OCIEfXVjeunEiY74ajsSQggzSUIYpQwDWjwGu0r9vL3Fy67SAL7AabwPaHIbfLrfz9oDfjISFGYNszFtgJWUeBXLt8xK9fv93H777Vx00UU4nU7uu+8++vbty1NPPUVeXl5QP1s0C+jQ7DZYu9/H25u9lNbo6KfRXzUMON5o8MF2H0u3++iboXHxKCtj+1iJcyioYdJviYuL46677uKcc87hwQcfZMWKFXzwwQdMmTIFzaJR727io6JP+bhoHfXuxtM6poFBWUMFZQ0VvLd3BUMyBnB+/7MoTC3AqlqlUxeFJCEUwSbtKDrJ/UOECkkIo5DXb1B8PMCbm7ysO+DH6+/YcQwDKuoN/rraw+ovfFw6xsaYb0kgli1bxnPPPccbb7xBSkoKV199NXfffTdxcXGd/0ACA3B7DbaX+Fm00csXRwP4TyPB/7Zj7a8M8Nj7AYbn+bhmop1+mRqOMBoxHDJkCC+//DIvv/wyS5cupaGtiT01+3lj1xJqWus6fNyAobOtYg97q4oYmz2c2f2nkxWfgVWTS2k0+fIcQiGEECLcSS8myjS7DTYc9PHKOi9ldd9SF3qGDKDouM4zK9ycWxngghE2spI0tH+NFh47doy7774bXddpaGigoKCAm2++WZLBINENqGnSWb7Tx5LtXqqbgtdJ3XYkwIHKNq6dZOOcQTYSYsInKbRarVx3/XUMHDuYV3ctZl3p5qAd2+338MmRjRypL+PiwpkMzxxEjM0ZtOOL0CYjhCKYpA0JIcwmCWEUaWwz+HCnl3+s89LiCf4NqMUD72zxUddqcPlYO73TNAJ+L0888QT79u3DarWSkpKCw+Fg/fr15OTkBD2Zm0lLAAAgAElEQVSGaKMbcLRO5+1NXj7a7aPV2xXfq8GzKz1U1utcMc5Oanx47FajGzpFNUd4v3w1+2uKg358wzA4Ul/OqzsWU9/WyOT8scTbXUE/jwg9khAKIYSIJJIQRok2r8EH2738Y60HTwdLRE+HbsCqL/z4AnDNJDvHirbw0UcfMWnSJPLz85kwYQITJkxg4MCBXRdElDAMqKjT+efnHj7a5evS79UA3t3qw+uHaybbSY0L7aTQMAwOVh/m79vepKi2pEs77VUttSzZ/zE6BtPyxxNnj5ytPMR3k5UBRWfI/DEhRKiQhDAKBHRYscvLK+u8XZo0fNm6/X4cVujRcIwf/fjHjBwxgsLCQtlfMIjqWnSWbvfy8Z6uTQZP0A34aI+PGIfCVRPsxJ3m6rJmKG04ypu7P6C4rhTdCE5p9Hepaa3jo4Of4rLFMD53JA6LvcvPKcwjHXkRbPJgQQhhJkkIo8COEj//WOelzdd9NxwDWL3Xz/fGnce8CXZsFulABVOb1+CzIj8rdvto83bfeb1+WLHLR2aiyuxhtpPzRENJvbuR5Qc+YV/1Ifx6B1fW6YDK5ipWFq0jNbYHA1IL0NQQ/OWIoJCSUSFEsMm1RJhJeiwRrq7F4OV1nm/Yg67r+QPw/jYfe8q7r1MeDXQDSmt0lmzzUmvC99rUZrB0u5cDlaH3veqGzqayHWyr2I3b7+n28x+qPcLaI5uobavv9nOL7vPlVUalEyc6Q1EUaUNRTKoNRKiQhDDCrdztZW+FeR33+laD1zZ48QXkhhcsrR6DT/b5OHi860shv4luQFmtwYe7vLi7cdT5dJQ3VrKpfDt1bQ2mnD9g6Gw5upP91YfwBXymxCC6lmwoLrqCJIVCCDNJQhjBqpt0PtrtO60N57vSzlI/Ww930+TFCGcYUNmgs+oLH7o5+SAAbp/BrrIAe4+GziihbujsqPiC4tqybpk3+G0a3E18Xrb9tDe+F+FHSkZFMMiDBXGCXEeE2SQhjGCfFfmpbDAw+zrjC8DiLd040S2CeQMGmw75qWo0/+ZxrEFnY5Ef3fxQgPbVPvdXF9PkbTY7FHYd20dF03FTE1PRddQvzQ+VjpwQQohwJwlhhAroBhsO+EKmpG9HaYCKeukcd5bHB2v3+wiFb9Xtg0NVofO9Hqkvo6yxMiQ66C3eVvYeP0ibz212KKILyRxC0VkyShi9pPxchBJZZTRCVdTpVNQbBDrYVy/MUhmSYyHZpdDshk/2+jhS0/GOv8cH24/4yUy0dfgY0c4Aapp0DlV17HtQFBiaozEkRyPGplBS0z7C19GFaQwDqhsNio8H6Jlk7rMl3dApb6ikuqUmaMdMciYwOL0/noCXzWU7CRhnVh67t/oQ032TiLXFBC0mERqkZFQIIUQkkYQwQh08rtPi7XhHZfpAG71SVZraDMb1UZk11Mo9r7VSVtvxpHBnWYDzh3X47VHPMGDv0QD+Dk7bs6hw1/lOmj06dS0wsZ+VITkaf17lob6DSWF9q0FpJ9pEsDR5mqlqqcEbpIVcZvSZxLl9p9EjNomimiNsO7qHQODMfvGH60pp87UFJR4RWr68yqgQnXFilVFpS0LagDCTJIQR6mi9jrcT67g8v8qNQXsSkhij8Pf5cYzO1zqVEB6uCp0FSMKRYcDh6o7/DgM6PLm0jS+OBrCoCtMKLVw80kZBusqmQx07bovHoLpRxzAMU0tfGt3NNLibgna8jPh0NpfvJC8pG5tmpSMfrc3npr6tkeyETFRFqvMjiYwQCiGEiCTSS4lQ1U16p7Z68Pjb9xG0WmBEngXDgKZOToeqbDAIhMoKJGHIMOBYQ8d/f7oB20sCeP3gD7SXE+sG+Dvx4EA3oNnT/o+ZWnxtNHtbg3a8v299k9d2vktNax10YsZmdWsdAV0ehEQaSQhFsEk7ik4yh1CEChkhjFBtXjq9LcF5Q61cNcFGUqzKgUo/aw90rhxP19u3K4i1ywWwIwzaR+Q6S1Egu4fKuUOsHDoe4MCxzjUUf8DA6zPAYd736gv4zmjfP03RiLPHYlFPvQT69QAtvtag7SHY5mtDl45exJGN6YUQQkQSSQgjVCBgdHolyi3Ffo416IzoZWHuaBsTCyys3NO5/QTN3hMx3Pk6meQrCmQmqlw+1kZAh8WbvZ1OMnUDOjEYHRS6YZzRFg8psUn8YMzVZMSlnvJ6RdNx3tj5Hvuri4MSl19GByOOrAwogkXakjhBHiwJs0lCGKFsFgW1E/cZTYXjjQbHGgNsLwkwrdDCqPzOJYSKAnZpcZ3S2d9fapzCZWOsZCWp/O0TT6dHB6G9rVi1Th+mUyyqiqaefhC1rfU8v+lV7Nqpq976dB81rfVBi6uj8w9FaJOSUSGEEJFEuucRyuVQ0FSFjsx/0lQYmqvh87fvNZfsUnDZlU5vhu6wgt0qveOOUoAEZ8d/f5oKl421Ma3Qyvtbfbi90CdNo6pJp7Gt49+t3aLgMPl7tWk27Jr9tP9/n+6noun4t/483u4iOSaJJGc8TquTPsl5HG+uobq19ozictljZUGZCCQJoRBCiEgiCWGESotXsWrQkUXvbRpMG2AlLV6hzdueEH5xNMDHX3RuXlVmkooqwyUdpiiQ1Yn9/lQFhuZYONZgkJeikZeiUduis2qPjx2lHStttGoQ7zQ/IXTZYomzxwbteDkJWUzqNZpEZwIAs/pPZ1PZDlYXbzjtY6iKSkpMkiSEEUi2nRDBIttOiBOkDQgzSUIYoXJ6qNgtHRsh9Pjhnc1eeiarxNoUWr0G+yoCHO/kCGFBusl1hWFOUdpH9DoqoMMLa05dDtTtg/K6jpeNuhwKaQmq6WWR8Q4XSc74k52rzqpsrmLdkc18Xrbj5GvHm6vP6BiJjnjiHXGSEEY46cQJIYQId5IQRqjeqSpxDqhuOvOUUDeguEqnuCq4G44Pz5WEsDNUBXqna7jsCs0dWAhGN+Czos4tCvRVSbEKeT3MT3hibE7SXanEWJ20BGH7iZrWun9tOdFxvZNzcVocnY5FhB4pGRXBIovKCCFCgfk9OdElklwqBekalhDJwZJiFQb1lOcPnZXgVBjYMzT+bFUF0hNU8tPMj0dBITshk3RXitmhnDQwrS8xNqfZYYguICWjItikLQkhzGR+T050CVWBSf0tOG2h8fRxUl8L8TGhEUs4s1sVpgywdmoF2WCJcyoUZmkkxoTGZSQvsSe5CVlntNpoV0mL7UHvHnlfW8VURAZV/Xebl468EEKIcBcaPTnRJYbkWOiTppqePDhtCheOlI5xMFg0GNjTQh+T52MqtO9nOK6PxfT5gyfE2V0UpvWlR0yi2aEwMmsw6a4UKQeLUFIyKoQIBtmLUoQKSQgjWKxdYc4oGzaLuRebmYOt5PYwf9QmEii07yV4/lCrqeXAcU6F8X0sZIfQ96ooCkMzCynokY/FxFHCzLh0RvQcTLzdZVoMout8uQMnq0OKzjjRlqQNCSHMJglhhBuZb2FyP/M6x1mJCpeMsqJJSwsam1VhRC8LY3ubMydTUyE/VWXmECuWEPteExxxTM4bQ7or1ZTzW1QLE/NG0TspV1YXjWAyQiiEECKSSI8lwtktCjdMdXRq/7qOnxtummYnIzF0RpEigQJkJKhcOMJKTxO+12SXwjWT7PRwhd7lQ0FhcHo/JuWNJs6EEbqRWYMZnzOCWFtMt59bdB8ZIRTBIgsUCZBriTBf6PXoRNClxKvce5GDOEf3lY4qClw90c6ofBkd7AqaCoOzLVwx1ka8s/u+V6dN4dqJdgZnh87cwa+yalbO6zuNEZmDsGnWbjtvnx69mNl3Clnx6TInRAghhBBhQ7rqUUAB+mVaWDDHgbMb1nZRFLhsjI1Zw23E2KVj3FXsVoVpA61cOd5GTDesJqupcM1EG+cNtYV8kh9jc3L9yMsYnN6/W1YdzY7PYE7hTAal9ZNS0SggJaMimGR0SAhhNum5RAkFGJ5n5YG5MaS4FBR0CPINSAHsVpg33saV4+wkdOPIVbSKsSlcONzGdZPtJMcqXTJqpwA2C9w+w84V4+whOzL4VbG2GO6YcANjew7D2kUjhaqikJ+Uw1XDLmFM9jAZGYwSkhAKIYSIJJIQRhFVgWG5Fn5+foC45k1464sJRvfV0P0ouoeMBINbz2pPGhJkz8Fu47QpXDTSxg/PcdA3XcNmISjfK7Qngtk9VH51qZMLRtiDdNTu47Q6mD/heuYOPI84e2zQRu8URcFpdTA8cxA3j57HyJ6Dg3JcER5k3pcQIljkeiJCgTnLFArTBAI+Kg9+RunKR5g492c0JhZQ3WTg9hkdGjC0auBrKMLWtIsrJ0/g3OH9sZi98WEUsmpwVqGVvB4q72zxsvVIgNpmHa+/Y8ezWyA+pn1riSvG2UlLCN9nRxbVwtxB51OYVsCbu5ZS0lBOs7eVgB7o0PGcVgepsclMyB3N2X0myvYSUUhGCEWwSFWBECIUSEIYRQzDoKSkhGeffZYZ0ydx34/Po6xWYeUeH7vK/NQ0GzS1GXgD311NqqntexwmxijkpaikGRY+XrSa/ZsbmDYyB0tsbPd9KHGK/DSN22c42FEaYOUeH0XHAtS1GDR7DPxfzX8Mgy/Xf1o1cDnav9cBWRpnD7RS2NOCNUIWiR2QWsBPp9zKxtKtfFa6lYqm4zR5mmnzuQkY+ne+126x4bLFkuiIZ1B6Pyb1GkNuQlY3RS5CjSSEQgghIokkhFGktbWVl19+mba2Nm677TYcNgsFGe1JRGWDzq4yP/uOBjjWoNPsAY/PIPCvqYaqCjaLgtMGSTEKfdI1Bmdr9EnXsChDUGsms3LlSsaOHcuECRPkqaeJrBaFUfkWhudpHK7S2VHq52ClTnWzTqsX2tw+jleW4W5tone/IdgsCjE2SI1X6ZuhMSRHIztZi5hE8MscFhtT88cxLmc4RbUl7K06SFlDBfVtjbj9Hny6H93QUVDQVA27ZiPG6iA9LpWC5F4UpvclJSbJ7I8hTPTVjemF6ChpS0KIUCEJYRT55JNPePfdd3nwwQfJzs4++bqmQs8klZ5JNs4dAk1tOrXNBvWtBh4f6AZYLe2jRz1iFZJdCtopZaEWzjnnHDZs2MCqVavo378/PXr06P4PKE6hqe2Je590DcNo/z5rmg0qqry88fKHHC0v4oe3PUmcUyHFpRDnVEN+9dBgsVvsDEzry8C0vvh0Pw1tjdS3NdLia8Wv+1EVFbtmJ97hokdMEk6rw+yQRQiREUIhRLAoiiLXEWE6SQijRHl5Ob/97W+ZPXs2M2bM+Nb/TwHinSrxzjM7fq9evTj33HN5/fXX2bZtG2eddRaaFoFDTGFKURSSYhWSYiHVobI23oMnxseIXnIJsKoWUmKTSYlNNjsUESYkIRTBJG1ICGG2KBkPiG4+n4/HH38cm83GbbfdhsUS/CRAURTOPvtsMjIyWLFiBcePHw/6OYQQIpRIR14Ei7QlIYSZJCGMAu+99x7vvfceCxYsICMjo8vOk5KSwty5c9m5cyebNm3C6/V22bmEEMIsqvrvW6d05EVnyHx7IUQokIQwwh06dIhHHnmEH/zgB0ycOLHLzzd+/HgGDRrE4sWLZZRQCBGRpGRUCBEMci0RoUISwgjm9Xp57LHH6NmzJzfddFO3zOmLjY3l2muv5fDhw6xZswaPx9Pl5xRCiO705ZUhpRMnOkNGCIUQoUASwgj2xhtvsHHjRhYsWEBycvctmFFYWMi5557Lyy+/TFVVVbedVwghuoM81RdCCBFJJCGMUAcOHOCZZ57h5ptvZsiQId16bovFwnXXXUdbWxtvvvmmzCUUQkQUSQhFMMhIswAZJRahQdacj0A+n48XX3yRESNGMHfuXOx2e7fHkJ6ezuOPP059ff0pCzAIIUQ4k83EhRBCRBpJCCOQ1WplwYIFADgc5myorSgKQ4YMwTAM2Y8wxMTExDBnzhxaWlrMDkWIsCQjhCLYpB0JIcwkCWGEcjrPcGf5LiAjg6HJarVSWFhodhhCRATpyIvOkHJBIUQokIRQdLtAIIDf78cwDFRVxWq1yk1RCBE2pGRUCBEsiqLIPFJhOkkIw5xhGLS2tlJXV4fH48FisZCUlITL5QrJETqfz8eWLVtYtWoVDQ0NZGdnM336dPr27YvFIs2xOwUCAdxuNz6fD1VVcTgc2Gw2s8MSIuRJyagIlhPJgBBCmEl64GHO5/Px/vvv88wzz1BTU4PFYuGCCy5g/vz5ZGVlmR3e17jdbj799FP27dtHfHw8r7zyCh9//DEPPviglDF2s/LychYtWkRVVRVWq5WxY8cyefJkEhMTzQ5NiJAmCaEQQohIIglhmDMMg7S0NG6//XaGDx/Op59+yuOPP86ECRNIS0sLuVG3uLg4fvKTn6CqKoZhsGTJEv74xz+yf/9+SQi7WVVVFdu2bSMvL48jR47w4Ycfcuedd3LFFVfIQkBCfAcpcRfBIuXHQohQEFrZgjhjdruds8466+R/u91uEhMTaW5uRtd1EyP7doZhUFpays6dO/n0009JSEgIydHMSDdy5EheeOEFVFXl4MGDLFiwgOLiYjweDzExMWaHJ0TIkv3jhBBCRBJJCMNEXV0dVVVVp7ymqiqJiYmkpKQA7cng6tWriY+Pp2/fvlitVjNCBWDNmjVUVlae8pqmaYwdO5a0tDT27t3Lc889R1FREVOnTiU7O9ukSKOXoijU1NSwefNmNm/ejMfjoXfv3qa2GyFCnaIoWK1WVFVFVdWQq8IQ4UNGmoUQoULuZGFi27ZtvP/++6e8ZrPZmDhxIhdeeCFer5eVK1eyatUq5syZQ0FBgak3m23btvHFF1+c8vTcarXSq1cvevbsyYgRI/h//+//sXr1atauXcuWLVu44IILTIs3Uu3du5cNGzbg8/lOvqaqKrm5ucycOZPa2lpWr17NmjVriImJIT09XcpFhfgOiqLQs2dPrrzySvLy8sjMzDQ7JBEBZKRZCGEmSQjDRGpqKsOGDTvlNU3TyMzMxO/38+mnn/LKK68wevRoLr74YuLj402KtN28efNwu92n3OQURSElJeXkv0+MbK5fv57i4mKzQo1o9fX17Nu3D4/Hc/I1TdNOPizIzs7mpptuYtq0aTz//POsXbuW4cOHy8IyQnyLEwnhww8/jKZpJ69jQnSErDIa3RRFkXmkIiRIQhgmBg8ezODBg7/2uq7rrF+/nj//+c+kp6dz3nnnYbFYaGtrw+FwmDZKmJaW9o2vNzU18cwzz5CQkEBsbCwbNmygqamJnJycbo4wOgwdOpS8vLxT5pMqioLdbscwDGJiYigoKCArK4ulS5dSUlJCU1OTJIRCfIcT1Q5CCBEMkgwKs0lCGOZaWlpYtWoVy5cvJz8/n+LiYhRF4YYbbuC8887D6XSaHeLXtLa2smvXLnRdx2KxcPXVVzNx4kSzw4pIMTEx37hATGtrK8uXL2fLli306tWL8vJyNm3axOzZs0lISDAhUiGEEEIIYQZJCMOcw+Hg0ksv/Vo56cCBA0NycZDY2Fiuu+46ampq8Pv9xMbGkp6eTlxcnNmhRRVN07Db7VRWVnL48GEA5s6dy8UXX4zL5TI5OiGEiA6ysIwQIhRIQhjmrFYrhYWFYbOHn6qqZGRkkJGRYXYoUc1mszFmzBh69+6Nx+NB0zSSk5OJj49HVVWzwxNCiKgiJYPRSx4KiFAgCaEQUUhRFGJjY4mNjTU7FCGEEEIIYSIZChBCCCGEEEKIKCUjhGFC13XKyspITk6OqDletbW1vP7666iqyjXXXCMjVkIIIaLCiS0HDMOQklEhhKlkhDAMGIbBvffey6WXXhpx87uSk5NJS0tjyZIlfPLJJ2aHExVaWlp4/fXX+f3vf292KEIIIYRA5pEKc0VWdhGBDMNgzZo1PPvss/zhD3/4xi0Ewt2UKVPIy8tj+fLlHDt2zOxwIp7f7+fQoUPs3r3b7FCEECKqyYIiQohQIAlhiDt+/Dg/+9nPuOuuuxg3bpzZ4XSJ1NRUZs+ezZEjR1i7di1+v9/skIQQQgghhIgKkhCGsLa2Nh599FESExO55557zA6nS02aNIn+/fuzYsUKSkpKzA5HCCGEEEKIqCAJYYgyDIPly5fz8ccf8+CDD+J0Os0OqUu5XC4uvvhiKisrWbduHW632+yQhBBCiC51omRU5o9FrxMLCwlhJkkIQ9SBAwd45plnuPrqqxk1apTZ4XSLUaNGMXbsWJYvX86hQ4fkAimEECLiyb1OCGE2SQhDUGNjI3/6059ITU3lmmuuwWazmR1St7BarcydO5fm5mZWr15NS0uL2SEJIYQQQggR0SQhDDG6rvP++++ze/dubrrpJtLS0swOqVv169ePWbNmsXTpUg4ePIiu62aHFFHq6+vZtm0bZWVlVFVVsWPHDqqqqswOSwghhIg6X15lVkaKhZkkIQwxu3bt4o033mD27NmMHj0ai8VidkjdSlEULrroIhwOB++99x7Nzc1mhxQxDMOgvr6ehx9+mGXLlrFx40YWLlxIUVGR2aEJIUTUObExPUgyEM1k6xERCiQhDCF1dXW89NJLpKamcuGFFxIXF2d2SKbIyMjg2muvZdmyZezZswdd12lrazM7rLCnKAoul4umpiYOHjzI0aNHKSkpibpRaCGEEEII8W+SEJrM5/PR1tZGIBBgyZIlHDx4kLlz55KTkxPVT42mT5/OgAEDeP7553nqqad46qmnzA4pIrhcLi6//HIAEhISGD16NLm5uSZHJYQQQgghzBJd9Ygh6PDhw7z55pu0tLSwc+dOpkyZwvjx46NmIZlvY7FYyMnJ4dlnn+W9994jOzube++91+ywwp7dbmf69Omkp6fTo0cPzjrrrKgrSxZCiFAhWw4IIUKB9ARNVlpayqJFizh48CD9+/dn6NChxMfHmx2W6T7++GPeeustKisrCQQCtLS0EAgE0DTN7NDCmqIoZGVlcd5551FfX8+4cePMDkkIIaKeJIXRzTAMaQPCVFIyaiLDMKioqGDfvn3U19ezfft2/vznP3PgwAGzQzPd5MmTue2220hKSgKgubmZ8vJyk6OKDImJidxwww2cc8458vBBCCGEECLKyQhhJxkGNLl1yut0qhoNmt0GugF2KyTHqmQmqWTEK6jq1+cDNjU1UVxcfHIlzXHjxnHbbbeRn5/f3R8j5MTFxXHDDTeQm5vLLbfcwtGjR9m/f//X5rsZfj96TTX+8jL0uhqMtjYUVUWJiUVNTcOSnYManwBRPB/zhLrWBiqajlPbVkdbmk7mhHzWHtlEsjOBDFcqCc54VEWeEQkhRHeRVUaFEKFAEsIOCOhQXhdgzV4/G4t8lNToeP3tPztxSVe+9O+EGIVhuRpTC62Myrdg09p/Wl1dzf79+4mJieH73/8+//3f/01eXl5ULybzZXa7nfPPP58PP/yQOXPmsG/fPmbMmIHh9eLdtQPPqo/w7thK4PhxMP61X+FXvwBVxZKbh230eBzTZ2Lt3duMj2IKXdfZX13M+tLN7Kj8gqqWWjDA4Esdj0OgoKCpKqmxPRiaUciE3JH0SsrBqsnlQYQ+r9eL3+8nJibG7FBOi8/nIxAI4HA4zA5FCBECpM8nQoH0+M6A12+wvyLAoo1ePj/kx3+ae6bXNBus3OPn4y/8pMWpzBll5ZzBVqpratF1nccff5zrrrsOp9PZtR8gDCmKwsCBA9mwfh0ff7CU1vffofXtRQSOHD69AwQC+IsO4i86SOsbL2MdPIzYK+ZhGzEaxWqNuJFDwzBw+91sLt/Jkn0fU1JfTsD4zw01EAhQ3lhJeWMlSw+sol+PfGb1m86QzAE4rQ4UIuv3JMLLsWPHqKqqYuDAgajqv0exa2pqeOqppzh48CCPPfYYWVlZXRaDrussWLCA8ePHc8kll6DrOtu3b2f58uVceeWVp1XZEQgEWLhwIR988AEffvhhl8UqwsOX9yEUQggzSUJ4GgI6HG/QeWW9hxW7fQROMxH8KsOAY406z63ysGKXj2n56fz4p/cyesQgVLkpfCvD3Yar5AjT16+i6eD+jh9I1/Ht2ErDvj3Yxk4g9nvXYOnVGyVCVnT1BLzsrzrEu1+sYG/VQXy6v0PHMQyDfdWH2F9dzLCsgVw2aBZ5iT2xatYgRyzE6fnrX//K008/zXPPPcfZZ5+N2+0GwGq1MnLkSFavXs17773HvHnzTr7HZrNht9uD1uHetGkTCxcuZPLkyQAnE9PVq1ej6zo/+9nPsFr//Tfi9XrxeDzo+r9vGIFAALfbjd/vp6Gh4WvncDgc2O32oMQrwoeUiwohzCYJ4X/g9hlsO+Lnjys8VDZ0MBP8Ct2AQ1U6VU2JnDMohewGg/R4BU2mb53KMAjU1dL27tu0vPZ38HcswfnaYT0ePJ+uxl9cRMyV1+CYPBXVFReUY5vBMAwa3E18cngjyw+sobq1NjjHxWDb0d0crD7M94ZexITckcTawqMsT0SWn//859TV1XH77bfz/PPPs2TJkpOd6Pr6epqbm3n99dfZuXMn0F5uPnnyZGbMmIHL5er0+ZuamrjvvvsYP348559//snX+/bty+zZs1m8eDFjx45l2rRpJ7dx2bRpEx988MEpiZ9hGGzbto3i4mJ++ctfnnIOVVW54IILmDFjhowaCSGE6FaSEH6HZrfByj1e/rLaQ5s3+Mdvchss2e6jtsXge+Pt9ErVsEhS2M4w8JeX0fLiX3B/uipoyeCXjx8oK6Xl/7N35/FRlWf/xz/nzJaZSSYr2cMSQgh7WGRREKQo4looFZW6W7WvStWqbdWfrT5Wxbo8iksXLWr1oShgwRZURDYtIJDIDmHPQkLIvsw+c87vj5iRGBQICRPJ9X69/MNZzrlnkgzzPdd9X/dbr6NVHMN6+VUY4uLgBzY1UtN1KpxVfLJ3DWsObcDld7f7ORp9TuZufo8KZyWXZl9ErEzs/KsAACAASURBVDW63c8hxPdRVZU//vGPmEwmPB5PqNIWExNDUlISU6ZMwel0smrVKhwOByNHjsRoNLZLsHK5XLz++uvs2LGDxYsXt9i3MzIyksmTJ5OXl8fcuXNJTk6mX79+qKqK2WwmMjKyRfVH0zQiIiIwmUwn7PB7fIVRdC1SJeyajp82LL8DIpwkEH4Hp0fno60+5q3zdUgYbOYLwLp9ATQNrh1jITPRIJVCIFBSTOPcv+LbuL79w+BxtOoq3P/+F2hBrFdOxRAX32Hnam+6rlPprOajglWsPrQBb8DbcedC5z97VuIJ+Jja/1JirLJdhTh7gsEgiqLw+OOPo2kaMTExrF27lquuuoqsrCyMRiNffvklhYWFXHXVVfzsZz9rEdzaqrGxkSVLlvDqq69yzz33cN5557X60paZmckNN9zA7Nmz+ctf/sKsWbPo3bs3I0aMYMSIEa1ex0svvcRHH33EH//4xzMen/jhk2qwEKIzkEB4Ar6Azpo9PhZt8uHydfwVm0AQvjwQwGZRuHa0hdQ49QdWp2pfwYpjON+fhy9vE7rf3+Hn02prcH+yDCXKgfWSKT+Y6aP13kZWH1zP54c3dmgYbKbpGqsPrsdmsnJlv0nYTNIESZwd8+fPx+PxYDAYGD9+PI2NjWzatImdO3dy3XXXMXDgQFavXo3dbic3NzcUBoPBIPv27cPnO72rena7ndTUVJYuXcoLL7yA0WgkJiaGd95554SP93q99O3bl3Xr1pGamsodd9xBfHw8GzZsoLi4OLSOUNM0tmzZwtGjR3nvvfeApgs7cXFxDBkyhKSkpDN4l4QQQoi2kUD4LTqwrSjI4jw/ta6zV773B+G/ewMkR6tcMdRMtK1rRkLd7cK9/CN8G/6L7mn/6Y/fRauswPPJUgxJyVhGjmnqQNqJeQM+tpTt7LBpot/FF/Sz8sA6Eu0JjM8cJfsWirNi3bp11NfXs2zZMv7xj39w6aWXkpaWxptvvslf/vIXUlJSOHLkCJdeeinZ2dmh53m9Xv72t79RXl5+WufLycnhxhtvpKqqiquvvprS0lJWrFhBMBhk1apV9OjRgz59+gBNoXP//v307t2bmTNnkpqaGqr6bN68mX//+9+sW7eOUaNGERcXRzAYJCsri0WLFuFyudi1axdZWVnMnj1bAqEQXZRMFxXhJoHwW47VaSzb6qO0RuNs/306vTordvrpnWRgRC8jRsPZPX9n4Nu2Be+alWj1rTvwdbTA4UN4PluOMaMHxu49zvr5T5Wu65Q1HOOz/f+l2l171s/f6HPy2YEv6BmbTq+4jLN+ftH1PPHEE+i6zn//+18ADAYDOTk53H333TzzzDPMnTuXfv36kZ6e3qJLp9FoJDc3l9ra0/s7SU1NJTIykptvvhlFUWhoaMDj8eB2u7nkkku45ZZbmDp1KgBut5u///3vVFVVce2115KUlITB0PThfc0115Cbm8uvfvUrunfvzm9/+9vQfYFAgI0bN/Lyyy8zdOhQMrvQHqniG4qioOu6BAIhRFhJIDyOpsO6fX52HwniD4ZnDKU1Gqt3+8lMVEl0dK3qS7CyEs/aVQRLSzjraRxA1/F9lYdvyDAM3bqhWDtnR013wMPGki0crC4My/k1XeNI/VHWHtpAWnQyZtmOQnSwuLg4gBZ7EDY2NrJx40bKysqYNGkSJpOJ999/n8jISM4//3wiIiIwm83ceOONZ3z+5j1i8/Ly8Hq9jB8/nu7duwNQV1dHREQEERERREZGhgIfQGJiIomJidx///38/ve/Z9KkScyYMQOAvXv3snbtWtLT07nuuuuIiYlpdd6SkhJqa2vp27evNJwRQgjRYSQQHqe0JkjeoeBZnSp6IpsPBrgwx0ScXe1SVUL/9i34d+1AP831Pu1Jdzbi/WI15tyhGHucfKPps03/uqvofw9vOqUN5zuKJ+BlV8V+DlQdpl9in7CNQ3Q9brebZcuW8dFHH1FQUMDQoUO59tprQ5W65557jttvv53Jkydjt9vb9dxvvvkm/fv3bzEt1ePx0NDQgNVqJSIi4oTP+/GPf0xRURHPP/88paWlDBkyhLfeegtN0/j1r3/NoEGDWj2nrq6OZ555ht27d/PYY49x/vnntwjE4odPGsoIIToLCYTH2V4U5HBFEC3MMzcaPDobD/jpn2YgpousJdTq6/Ht2EbwNNf6dAR/wW78+/djSEnrdJvW+7UA28r2UOFsn70Gz0SFs4qvSnfSt1sWqnyxER3M5/Ph9/spKSlh1apVxMfHc+eddzJ69GjS0tIIBoPExsbyyiuvsGnTJkaOHNmugXDVqlX861//4plnnsFm+2b2gMvlwul0kpqa+p1VPLvdzi9+8Qtqamp47rnnSEtLIzIykj/96U+MGDGiRVWxmcFgoLi4mLVr17J582bGjBnTbq9FdB4SCoVsOyE6A7nc+LVGr07B0SDVzs7xB7n5YIA6V/gqQGdboLiQwKEDEOj4rqIno3s8+Lbmozc2hHsorfiCPjaVbEEn/L+nHr+XwtoSKp1V4R6KOMft2LGDG2+8kdraWv7+978THx/PjBkzuPzyy0lLSwO+WVf4m9/8hmuuuQZVVQm0w5Y1wWCQxYsXc8899zBp0iSuvPLKFvfX1NRQW1tLfHz8Cb/c19XVsWLFCv7whz+wbNkykpKSSEpKorCwkDlz5jB//nwKCwtbjdVms/HYY4+RnZ1Nt27dzvh1iM5NwoAQIpykQvi1shqN0hqN4BlmMFVp6lR6pp/tVY06hys00mINXWLaaLC4kOCRkjM7iMGAYrOB14fuO7NtGPw7t6E1NqJ2on0JdaDGVcfhmjN8n75FAfi6scHpjUenylVLUW0piZEJ7TomIZo1NDRw1113oSgKS5cuZfv27SxatIhf//rX2O127HY7FouFYDCI1+vF7Xbj8/mYMmUK99133xl17vzyyy/561//yueff86UKVP43e9+R3R0NOXl5Tz77LOoqsrhw4cpLy8nKysr9DyPx8O8efNYvnw5e/fuDXUWffDBBzn//PMxmUzs2rWLxYsX8/zzz/PUU0+RkpLChAkTuP7668nMzMTn87F27VpiYmIYPXq0TBc9h0kYFEKEmwTCr5XWalQ2tP1DOSVG5UcDTIzOMrKjOMCCjT6qGtt+PE2HgrIg5/U2YjSc21NKdJ+PYFkZWl3bO2YaM3tjm34d5oGD0dxunPPebtq6wtu2YBgsPUKwugpjegZ0ki9iuq5xoLoQv3bmVQ8Ai9HCgMQ+XJQ5hkiLnf/s+Yy8I9tP6xh1ngaO1B9lBIPbZUxCfJvdbuf2229n3Lhx9OrVi+HDh3PllVdSVFTE/v37aWxsxOfzoaoqRqMRs9mM1Wqlf//+J2zUcjpUVcXhcPDyyy8zatQoYmNjATCZTCQnJ3PkyBF69OjBNddcw7hx40LPs1gsaJpGr169mDp1KsOHD8fhcBAdHR3qgpqens7o0aOpqanhwIEDbNq0ifT0dBwOBwBvv/0269at4w9/+APdu3eXqYXnKPm5CiE6AwmEX6tu1Klzty3AOawKU0eYOS/TgN2i4LAp7ZIhiquDBMLU7fRs0hvq0WqqQGtbeVaJsGK5cCKGjO44F8zDPGIU9utuIHBwP8HiorYNKhhEKz2C3n8Aitly8sefBbquU1JX1m7Hy4zL4ObhP0VBwe33EGE8/dfp8rupctWi67p8sREdQlVVZs6cidFoRFEUrFYr6enppKamct5557WqriiKgqIoqKp6xlW1YcOGMXDgQMxmc4t1frGxscyaNSu04bzJZMJo/OafU0VRuPHGG9E0DaPR2OK+Zkajkbi4OOLi4ujZsyfjx49HUZTQOsTrrruO66+/HpvNdsI1huLcIlXCrktpwwwdIdqbBEKapuLVuTWc3rb9QXr9Oh9t9bHgS52bxllQ2+l78bF6/YynsP4QaI0NZ7TvoCE1DVNWH3x5G/Ft24rlggsx9eqNsXsvgmWl0MZ1RIGK8qbndpZACJQ3Vrbb8Urrj/Hy+reItkRySZ/xbTqGpmu4/C5cfjd2c+fcpkP88J2oWUt7BL6TMRgMoS0njqcoSov9Dk/EfBoNqQwGQ6vQ11wpFEIIITqaBEIgEAR/oO3r/rwBOFTR/snN5dXRdJ2vV3mds3SfH93b9q0mFKsVTCb0+noiJvwINToG3eNGjYtDMRjQ29pYwulE17RO9O7ruHzu03qGUTWgKGqL16DTFOTqPPXUeeoZmjrgjEblDwbwBf20b4N/IYQQQghxNkggBDStc1bi/F1guigAWhCCbX+xitGEohowDcpFsVjwrPiEiB9dghJhBaXtFQQ9EKATNPNs4XTXD47uPoyeMRmox70PAS3A3sqDbD6yrV3GpOkawTZO9xVCiK6qeXqzEEKEW+folhFmBlXB2AnfCbPxXK8Nfs1ghBOssTlVus8LuoY5dyiBg/vxHzoAOk3bRpxBUFHMZuhk/1ibjae3L6JJNWE2mDAbj/vPYMKott+aJIOqtuvxhBCiK9F1XdaQdVHHXxCQ3wERTlIhBAwqRJjAqEKgjfnBZACLScFkVFAVnUiLQp1Rx3cGDSGjIpQuseG3YrGgWCPa/HytoR6tvh6tuhr/rh0Y4uJRLBaCFeXowbb/AJSoKBRDZ7pSoBBlPr2JmasOrmPVd9ynKgpmgxmryYrJYMRiNGM1ReAN+ND0U/9DMKlmLKcZVIUQQkiXUSFE5yCBkKYikMOmYrcobe402qubSm4PIz3iVVDg0iFmVu3ys+9osM3TUZOjVTpVHukgalQUqqPt7eG1Y+X4dm7HkJSMefh5GNK7EygpbuowegZTUQ1JKWdUuWxviqKQ1I77/dnNNgYn92NE+hC62eLJTRlAUNPYenQXte76UzqGUTUQabG1qUOpEEIIIYQIvy4QN05NQqRCtL3tV+qsZoX4SJW9RzX2lmlYTQpWk3JGUz57JKhdYlN6xR6JGp+AcoJOgqdC9/nwrf8Cz5qVqPZIgqUluBbNJ1hd1fYxRURgSE5B6UyBEIUesWntdjyDYsBhicLj97C9fA9On4soix2jeuqv2W620c0eJ1e5O4mamhqKi4txu0/efEjXdaqqqjhw4ADBE1w42bdvH9XV1ac8jcnpdLJ//36qq6tP6fGNjY3s3r0bl8vV4rZ9+/ZRW9v2PUnhm/fB52vdrMrlclFcXBzaMuJsKSkpoaio5TY4dXV17N+/H7/ff1bG4PV6+eqrr074vpyKI0eOcPjw4XYelRBdm/z7KTqDzvNtN8xSY1W6RakUVbbtS8LWoiBbi9qvC4xBhT4pBszGc/+DQjGZMKSkosbGETxW3qZjBI+W4frgfZSICPD70c/wC5YhoztqTOwZNaVpb6qi0CMmHaspArffc8bHq/XU89He75pQemqiI6JIcySf8VhE+1i9ejV79+7lmmuuocdJZmEHg0Hy8vJYv349v/71r4mKiqKhoYFdu3ZRUVHB4sWLmTFjBgMGDMBgMKCqKt26dUPXdbxeb6tQceDAARYuXMgFF1zA2LFjW50vKioq9MUnGAyybds23nvvPR588EFstqYtS3bt2sWSJUuYNm0aw4cPb3UMt9tNff031WtVVYmMjGy1NcTmzZvZvn07119/PcnJ3/x+aprGunXr+OKLL/h//+//4XQ62bZtGyUlJS2er2ka48ePJzU1FWgKQlVVVae1xictLY24uDhUVcXv9/PCCy+QlZXFxRdfjN1uJyUlhd27d7NkyRLuu+8+EhMTcbvdaJqG1WpFVdVQiDydwJiZmUlaWtoJt+Soqanh8ccf5+9//zvx8fHA1/ublpRQXl5Onz59iI6O/s5jL126lOLiYm677bYWt9tsNuLi4k6432Izj8fznXsyClk/JoQIL/lk/lpStEp6nMr2Ys5o3V97SYtVSY/tGlNGAYzde2BIy2hzIARA09CPqzacCfPAXNSoqHY5VnuKjoiiT3wvth3dHe6hoCgKCbY4use0X9VSnDpd1wkGg6Evkg0NDaxcuRKfz4emafj9QbSA1rSnjtIUKBRFwWAwoCgKmqZRVlbG9u3bCQQCFBYWsmTJErZv30737t3ZsGEDffr0YfXq1TQ0NGA2m3nuuefweDx88MEHbNy4scV4jh07xubNm8nPz+eTTz5pNd7Zs2eHgpvL5WLDhg2UlZURddzfWV5eHnv37iUQCLQIQc2b0q9du5ZFixZhNpvRdR2Hw8GUKVO48MILW5yrsLCQLVu2cPXVV7e4PRAI8O6772IymVBVFa/Xy4EDB9i27ZuOu1VVVezatYv09PRQIFy+fDlr1qxpVVUMBAI4nU6MRiN2e8v1vTfeeCPjxo3DYrGwatUqFi5cyCuvvMLy5cspLS3l4YcfpqKigs2bN1NcXMzu3btZv349DoeDq6++mrS0NPbu3cuyZctaVFE1TePYsWN4PB569uzZ6n2eNm0aKSkpqKpKbW0tX375Zej5x44dY+XKlSxevJi4uDgsFgs2m43Vq1cDcNddd31vICwoKGDp0qUtxgMwcOBApk6dSkxM66n/e/bs4dNPP6W4uBiTycSgQYO44ooriIyM/M7zdCVSHRJCdAYSCL9mNSv0SzWw6aBKaU34W+iP7G0kxtZF0iBgSMvA2LsP/l3b0b3esI5FiYzCNDgXxd75vrCYjWZGZeSy/ege9DDviRFptpEV35OYCNlAOxxKSkqYO3cu5eVNF1GcTifr1q0jJiaGp556CnOgDN1ThhpTA4amcqHZbObOO++kZ8+eFBQUcOTIEerq6ti3bx/FxcVs2rSJ4cOHc+WVV7J69Wrsdjupqans3r2bt956i+eeey5UKezdu3eL8ZjNZvbs2UNSUlKr+6Bp8/VgMMjatWuZN29eaOrio48+yqBBg5gwYQI7duxg27ZtvPTSSy3CxSOPPEJaWhpbtmwhLy+PO+64g8rKStatW0dCQgIJCQkEjttvtKSkhJqaGgoKCjAajWRkZIQqbuvWrWPOnDkEAgGio6O55JJLGDNmTOi569evp7y8vMVG8Tk5OZi+NaU9EAiQn5/P2rVrueSSS7joootafLnPyMjAYDCwa9cuZs+ezfnnn0/37t05cOAA77//PkOHDsVisVBQUMBzzz1HREQEMTEx9OjRI7TpfVZWFldeeWWLcOz1elmwYAF1dXVMmzatxZgURaFPnz6h6qDb7earr74KTeOtra0Njdtut9PQ0MC+fftwOBzcfvvtxMbGho7lcrlwu90tKlcejwe73d4qiMbExJywipmXl8fzzz+Px+Ohd+/eFBUVsXTpUo4dO8avfvWrVo/vqqQ6KIQINwmExxmUYaBXN5XyOi2s+xLGRyqM6GXEZuk6Vw5Vmw3z4Fx8eRsJHDoQ1rGYB+di7NmrU60fbGZUDeR06033mFQKa4+EdSyJ9gSGpQ6UK9xhYjabSUlJwWw209DQwObNm4mLi2PixIk4HA58NV6qSo/RLTUFo7np4obJZMJqtVJaWsoTTzxBYWEhR48e5dVXXyU1NRW3283evXs5dOhQaEpoeXk5VVXfrMfVdR1N00LTPJtFRERgMBhCVadvq66uJiEhgR07drB582ZmzpwJwPbt21mxYgWqqnLkyBHGjx9PdnY20LTG7tVXX+Xuu+8mLS0NRVHo3bs3d955JwcPHqSkpISCggK2bdvWYt1hYWEhFRUVPP/880yaNIl77rkHm83G+++/j91uJykpiQceeIAxY8awY8eOFuPcv38/RUVFvPHGG5SXlzN58mTGjBnTIjQCFBUVsWrVKgYOHMj999/PgAEDTvhz+vDDD8nPz2f48OG88sorKIpCdHQ0b775Jtdccw0REREMHjyYkSNH0rt371AQDQaDdO/eHUVReO2113A6nUBTEN29eze1tbV8+OGHofPEx8dz5ZVX0r1799BtcXFxTJs2LfSzLCkpYcGCBUybNg2n08mf//xngsEgt956KxdddFEoiAIsWbKEjz76CJfLFfob37JlC16vl7Vr17b6fSgpKeGmm27C4fjmApHRaCQnJ4dJkyaRnZ1NbW0tjz/+OG+99RY/+9nPiIuLO+F71pXI56cA2XpEhF/n+8YbRvGRKmOyjOwv1yivC18iHNvXRM9uhi4zXbSZaeAgTIOGECw7gu458zVybaFGx2AZOx5Dt8SwnP9kFBTibbFMyBzDu199QPA0todoT3azjdyUAaRFy/rBcElISGDmzJkEg0FWrlzJpk2buPLKK7n++usxm83s/2oxjz2xhbsfnUlySjrQ9OXTZrPhdDr5+c9/zsqVK9mwYQMzZsygsrKSAwcOYLVasVgsoeml0dHRLb7ku1wu3nvvPRobG8nMzASaKk+bN2/G5XLh9XrZt29fi7F+8MEHDBw4kISEBFRVJSsri1/84hdAU/CYN28ey5cvJyYmhl/+8pdkZWUBTaHr7bffbrVG8Hg9e/bkggsuwHvczIKPPvqIbdu2ceONNzJkyBDMZjPFxcX87W9/IycnB7/fz2effcb48eNpbGxk69at5OTkkJWVRW5uLgMHDsRsNhMZGXnCL+zV1dW89tprLFu2jAkTJuByuSgqKmoRxppNmjSJQYMGYbFYsFgsmEwmXC4XO3bswGQykZ6ezrRp0+jbty8ACxcupKysjJ/85CekpqZSWVnJP/7xD375y19iNpvx+XyhRjTN5yspKeHLL7+kf//+DBs2DICVK1eyatWqUJAEqK+vx+v1Mm/ePMrLy8nPzycjI4Nly5axcuVKhg8fzpQpU4iLi2PPnj34/X5+8pOfhH7+f/3rX9E0jZtvvhlN03C73Rw6dIiPP/6YioqKFoESmiqrx6+ljI+P50c/+hGrV6+mrKysywdC2YNOgFwUEJ2DBMLjKAqMzjKypTBAjVMLy1rC3okqY7ONRFu73geEGhlFxMSL8RfsJlAQhjVyioLl/LGYBw9p2pS+kzIbzQxO7sfg5H58VbbzrJ9fVVQyolMZnznqtDqSivZlMBiw2+0UFRXx6aefkp6ezuWXX05CQtPWJKrBwp6DtZjM1haBDsDhcDBx4kTKy8s5ePAgY8aMIT8/H4vFQnJyMm63G7fbTXl5OUOHDqWuri703GAwiNPpZNSoUUyfPp2CggJef/11bDYbs2bNYtiwYXz66afU1tYybdo04uLieP3111sEtuPX3EVERFBRUYHBYGDIkCFYrVaMRiMWiyW03rE5EGqaxp49e3jmmWeoqqpi//79DBw4kIaGBsrLy5k+fTrR0dEUFRVRVVXF2LFj6d27N8FgkEcffZSioiIGDhwINDVCGT16NDU1NeTl5ZGbm8ugQYNajLFPnz5ERLTszuN0OnnllVeYP38+3bp1o6qqitdff53q6mp++ctfMnbs2BbTS9PT05kzZw4NDQ2h2ywWCxMnTiQ2NpYjR44wd+5c0tPTCQaDLF++vEW1sbmJz80334zNZsPtdoe6sd5+++0A5Ofn8/bbb7foFutwOMjIyMBz3MW1+vp6YmNjWbp0KZdddhn33nsvFosl1OilW7duLcbevXt3bDYb9fX1VFVVUVVVRU1NDW+//TbV1dUYDAb69+/P9OnTGTx4cKtA2ByCj9f8vK4eBoUQojORb3PfEmVVmTbSQmGlxv5jGmfzol1UhMJluWayUwycoEFcl2DK7ot18mU4qyrRKivO7rn7DSRi4iUYEjpndbCZQtN+hBf3GceR+qMcc7Z9e422iImI4sf9LyHBJl/owq2uro5FixaxYcMGZs2aRY8ePUKNTzRNR6dpOt/xzVC+3X2yeXpkMBjEZDLx2Wef8cUXX1BYWMjSpUvJy8vD7/fTv39/AKxWKxdffDEJCQm8+eabLFu2DKPRyKhRoygtLWXZsmVUVlZyww03kJWVRWRkJDfddBMpKSlAU6DctWsXzz77LAA7duwgJSWFBx98kO3bt/OHP/yBWbNmMWbMGNxuNyaTqUVnSp/PR3V1NXV1dfj9foxGI5qmsXjxYmJiYpg6dWqr96myspIVK1Ywbdq0UEA6vunK/v37efXVV9F1HavVitlsxmKx8Nprr7UILg0NDTz00EOsXr2aWbNmsXfvXvx+P3fccQevv/46v/vd77j11lu59tprQ81ZXC4Xn376KS+88AIWiwW32838+fOprKxk4sSJTJ06ldra2lAlLycnhx//+Md069atxWuYOXNmaB3m4cOHcbvdTJ8+HWgKeoFAgClTpoQeP2jQIPr27Rua0rl06VLmzp2Lpmn86le/Yvz48aGgbTAYiI2NpVu3bq0C3KZNm/D5fDgcDlRVJTU1lVtvvZXY2FgcDgdWq5U1a9awYcMGRo4c2er5xwsEAvzrX/8iJyeHxMTO/TkrhBBdiQTCE+jVzcANYy28vNxDRcPZSYQmI1w6xMQF2UYiTF2vOthMMZqI+NFkAiUleD7+d7t1DT0ZQ0oq1iuuxtR/ID+ENG5QDfRL7MPlOT/i/e3/wek7O+9ThNHCVf0uYUBSX5nmEmb19fX83//9H3/6059ISEggLi6OOXPm8Je//AW3243P66K6po6xY8eGAtW0adN46aWXqK+vZ9myZfzf//0fBQUFfP7559x9993ceeedoeYg1157LTNnzuTSSy8NdeUEsNvtzJw5k4MHD7JgwQIyMjKorKxk3rx5REdHM336dO6//37eeOMNFEXhmmuu4X/+539aTPt0Op0cOnQIgKNHjxIVFRVqRrNx40bmzp1LamoqjY2NoS0YoCnE9evXj4cffpjDhw/zyiuvoKoq48aNY/369SxcuJCcnJxW71VCQgILFy5k9erVrFu3LjSGjz/+mEOHDvHOO+9QWVnJhx9+yPTp0zn//PNRFCW0NQM0bYlx7733sm/fPp599lnOO+88XnrpJdxuN0OHDg1t5zBnzhwOHTrEPffcQ0pKCrquEwgE2LlzJ2azGa/XS3V1NcFgkEOHDrFz506eeuop73P05AAAIABJREFUMjIyCAQCeDweYmNjWzWx+eUvf0lERARer5cPPviAI0eOcO+99wJNe0auWbOmxeObp/2uWLGC119/nc8//5z6+nqSk5P55z//yaJFi0KPjY6O5rbbbgut64Sm8GYwGLjtttuIjY3FYDBgNBp59tlnmTNnDiaTCUVR8Pl8lJWVMW3atFZj/rb33nuPnTt38o9//KNF0x4hU0aFEOElgfAEVAXO623i1vHw6qceGr0d+0FtUGHSABNXDTMTa+/8YaSjqVYrUTfdht5Qh3fNSvQ2bqJ8yueLi8c29RoiLrwI5SRfaDqTCKOFC3qMwOVzs2T3cjyBju3OqioqV+T8iEl9xmHoRPszdkWaprFx40ZeffVVxo8fj6qqKIrC9ddfz8SJEwkEAuzKX84jj7/Iq3/+a2j7hPj4eHRdZ+/evfz2t78lNjaWiy66iD//+c9s2bKFn//85xw7dgxoavZSVlbGm2++iaIojB07lqeffjq0DrFXr17MnDmTN954g5qaGu644w6mTp1KfHw8TqeTXr168fvf/56ysjLuu+8+jEZjKGQMGzaMF198EYDFixezdOlSAJKSkrjjjjt44IEHWL58OQkJCdjt9hYXH0wmE9HR0URFRYWCbmxsLFOnTuWxxx7jo48+arXXncFgYNSoUXzxxRctbk9MTOSKK66gX79+rF27NlRNbW7w4HQ6sdvtPPnkk7z44osMHz6cZcuWkZ2dTUVFRYvjJycn88ADD5CamsozzzyDrus88MADoccEg8HQf81f/v1+P16vF6PRyPbt2/nrX//KgQMHePLJJ5k4cWKLsU6ePBm73R5af6jrOpdddhnQVMU7vjmO1+tl/vz5vPzyyxw5coQZM2ZQXV1NUlISb731VqvfJ0VRWoU5t9uNw+EgOjo61PH13nvvxWazoaoqPXr0CD03ISGBnJycE+592Gz79u386le/4oorrmhRyWx+bzRNO2mgPBfJhTUhRGcggfA7qApMHGDCaobnlnZcKLSY4OIBJq6/wEJ8pHzJbqZYrTjueZB6swXvpx91TChUFNTEJOwzfob10ss7ZVfRk7GbbUzOHo+iKvxn92c0+pwnf1IbqIrKzNwfc1nfiSd/sOhwqqoycuRIFi1axNGjR3nzzTcBSE5ODm3EbvQcwGoxM2jQIHr16tXi+UOHDmXLli18+OGH/Pvf/yYiIoKcnBwcDgeHDx9m5syZPPjgg0DTlM4nn3yShx9+GGgKo1u2bGHGjBkcOnQIVVUxm8387//+L08//TTx8fGkpqYSGxvL8OHDeeGFFzCZTNx///2h8xsMBsxfr9M9PrwpisLo0aOZMWMGiqJw9OjR0FTFZs0Vt0Ag0KKqMmLECO677z6sVmuLfQWPP/bxGhoaWLVqFe+++y6/+c1v0DSNYDDIokWLQue7/fbbeeKJJ9B1nccff5xZs2Z9b+ixWCzcfPPNpKenk5KSQkxMDPX19QDMmDEDu91OY2NjqDoKsHnzZi677DICgQCTJ0/mxRdfZNiwYVRUVHDXXXeRn59PbW0tI0aMwGAwoGka1dXVeL3e0HpIt9tNTU0NH3/8MQsXLuR3v/sdhw4d4oorruC2227D7/czdOhQcnJyuPPOO1uNe+LEidx8880tbqusrCQ9PR1d18nLy6NPnz4UFBRw7Ngx5s+fz3PPPcfEiRPJz88nGAx+5/6Fuq5z5MgRfvKTn9CzZ09ee+21UHXQ7XazePFinnjiCWpra5kxYwYPPPAAaWlda29TqQ4KIcLth/cN+Cwb08fE7GsVXvjIQ0l1+zWaMahN20tMGWLiqmEWIiPkKuG3KWYzjlm/xt2jB43vvo3ubITjmiac0bFNZoyZvbHPvAnzyDEoP4Bpot/FaopgSvZFxEQ4WLpnJWUN5QS09nmfjKqBGGs0Nw+bzvC0we1yTNE+HA4HDocjtA/h6WhuSHO8Xr168cgjj/Dwww+za9cuLrnkEmpqavjXv/7FrbfeyqWXXgo0hdHevXvz9NNPYzAYqK6uJjs7m6ysrNCegtOmTWPLli0MGjSILVu28Nlnn7X40uv3+0NNVr691x3ArFmzAHjhhRdCHSqBUNOVwYMHEwgEsNvtoe0gVFXl4osvBpo2Q/8+RqOR7Oxs5syZwxtvvEFDQwPPPvssL774Ivfffz+zZs0iLi4ORVFQFIXHH3/8lN9bRVFC4zjeNddcg6qqoe6czWEuNTWVhx56iMsuu4zY2Fhqamqor6/HarVyzz33sHHjRv7nf/6HJ5988jvX5+3bt4+PP/6Y3NxcrrjiCjIzM3nsscdC9+/evZvZs2e3WEsKTaFv1apVHDhwoEVgrq6upqysjMmTJ/Pxxx/z6quv8vTTT3P11VdTUVHBgAEDePHFF4mPj+fzzz9n3bp1PP7445x33nktjhMMBikoKOCGG27AaDSyYMGCUKdUVVXZu3cvy5cv54UXXmDAgAH86U9/4pNPPuGWW27pMpWzrvI6hRCdmwTCU9An2cifrrPz3gYvq3f7qXfreFvvwXtKVBUcEQpZSSpTR1gY1tOAqso/CN9FUVVsP/4ppoFDaHzrdQIFe9CcjRBoWzJXzGbUuHjMI0djmzYDY+q5cSXabDAxvtdoMqJT+WjvKnYd20e9p5GA1rb3yWQwYjfZGJzSj6n9LyUpKqGdRyzaWzAYxOVyhTpNulweNF3D6XS26HDZ3MXz281mNE0jNTWVe++9l0ceeYSf/vSnlJSUcO211/LQQw8RCAQwmUzouo7JZKJv37689dZbfPXVV9xzzz2hih80rQtsriLddtttPPLII6EvvsFgkPz8fO677z4ASktLSUpKClWNPB5PqPq3a9cuUlNTQ/fZbDYmTJjAQw89BDTtxdhcTQoGg6HN6X0+H7qun/DLtqqqDBo0iPfeew+r1UpVVRWLFy/myy+/5PLLL2f9+vWkpqZy1VVXkZCQ0G7TGPPz84mMjKS+vr5FtTQ5OZmRI0ficDhCW4isWbOGO++8kwsvvJDIyEhmz57NlClTWoX4Zps2bWLnzp0MGzaMCy+8sNX9/fr1o1+/fkBTGG8Oulu3bmXPnj2tKshbtmwhGAwSExPDyy+/zA033IDZbA5VZ6+66irGjRtHRUUFmqbRo0cP3nrrLXr06EFSUlLoOLt27eLWW29l27ZtPPTQQ3z66adA088gMzMTh8OBwWAgJyeHhIQEkpKS8Hg8+P3+Fr9PXYFUCbum5r9F2YdQhJsEwlMUFaFw6/gIxueY+GS7j+1FQercOk6Pju8kxRhFAZtZwWFVSIlVuKififP7mKQqeBpMWdnE/OEpvF+sxb3qU4JFh9Hq69HdrpNXDY1GVHskakwMxux+WC+ZgmnQkB90VfC7ZMZ15+fnXc/2o3v44vBGiupKqfc04vK70U6yZ6FRNWA1RRBpttM7rjtje46kf2IfTIaut67nh6i0tJTFixdz9OhRAMoON20i/t5784mNbeqUaTQaufrqq0lKSmL79u3s3r0bk8lEXV0du3fvpqCggPz8fAKBAN27dycyMpLi4mJef/11Bg4cyNixY4mJiWHVqlW8/PLLxMTE8Oijj5KamsqXX35JZWUlJpOJ3Nxc3njjDebPn8+rr75KXl4es2fPxmQyYTabSUlJYfjw4QAMHz6cnj17EhcXh6ZprF27lj179uD1esnLy+OBBx4IhbJx48bRt29fRo8e3er1FxcXs2XLFhobG9m4cSMGg+E7G5eYTCZsNhsbN25k4cKFbNu2jenTp/OTn/yE999/n3fffZevvvqKG2+8kREjRrRbOCkrK2PPnj1UVVWRnZ2N2WzG6XSycuVKDh8+jK7roeYw37f3IjQFiOrq6lBjGqfTedLwqmkaq1evxu/3YzKZ2Lx5M3V1dQwZMqTFY9asWUPPnj3Zt28fqampTJ8+nYqKCqxWKwsXLsRiseD3+8nPz8fj8XDdddexbNkyCgsLWwTC/Px8oqOjGTZsGJ988knodpPJxMSJE7nlllvo1q0b8+bNo0ePHpSUlJCbm9tlwmBzGBBCiHCTQHgaVAX6JBvITLRSVqux5XCAPWVBjtZpuHw6Pj+UlxXj9/vplpyGzWohwtQUBDMTVYZ0N9I/zdClu4ieCcVkIuKiH2E5fyz+vXvwbckncHA/WnUVuseD7vc1hUNFAdWAYrGgWK0YuiVi7Nsfy9DhGHr2Ouf/ATYbTAxPG8SQlP4criliR/leDlYXUeepxxPw4Q/6Q+FQVVTMBhMRRgux1hgy4zIYkJRNenQqZgmCPwjR0dFkZ2djtVopKiri4MGDAOiuci4Zk055aRHl5U2NYpoDSENDA0uWLGHbtm1cddVVHDhwgL/97W8Eg0EGDx7MU089xbBhw2hsbGT58uV88cUXrFy5ErPZzKRJk0JVohkzZuDxeJg7dy6fffYZcXFxDBgwAJPJhMlk4pZbbmHYsGEsXboUr9eLxWJh0KBB3H777dxyyy0nfD11dXVs3boVj8fDtGnTQl1OgdCm6ydy9OhR/vOf/3D48GHsdjvTp09vtdddSkpKaNP7yspKPvjgA1wuF48++ihjxozBZDJxxx13kJ2dzYIFC9i8eXNok/pvM5lM9OjRA99J1jdbLBaGDx+OwWDg888/5+WXXyYhIYHhw4eTkZHB0KFDWbBgQag6EBERwc033xxaC2q32xk6dGirtYuBQIDNmzfz5JNPAtC/f38yMzO/dyy6rrN06VK2b9+OrutERkYydepUBg/+Zjq43+8nISGB0aNHM27cOPx+f6iJz1133cUXX3wRGmt8fDxTp05l5MiRjBw5stWejTfddBM33XTTd45H0zSuu+463nnnHQoLC5k8eTLjx4//3tdwLpLKkBAi3BT9h/RJFHQTPPQ3dC2AMfv+kz/+LNA0aPBoHKvXqXPpvDP3NY4dO8q1N9xBZs904qNUEqMUjIZzO4SEi+73oVVXE6ysQG+ob2o+oygolgjUmBgM3RJRY2KbQmIXpus6Ve4aalx1NHid+DU/6Dpmo4Uos404WyzREVEYVGkF/0Pj9/vxeDyhvfOaaWUfEqz8HGPf36GY41s8p3kdm67r2O12PB4PHo8Hu93+ndWZ2traVg1eoOl3y+124/V6sdls37sPXUfSNA2/34+u65jN5hM2f6mtraWhoYGMjAyCwWBon8MTjTkQCKAoyndWGYPBIHV1dei63mJ7im/z+/2UlpaSkZGB3++nurqaqKgoIiMjW4y7efqu0WhsUenz+XwcPnyYrKysVq/J5XJRVlaGyWQiLi4udMzvEwwG8fl8oX0nT/Tag8FgqHOt6Dj5+fmhtaVPPPEEM2bMCPeQxFm2du1arr76ajIzM5k9e/YJ1x8LcTZIhfAMqSpE21SibU3/vybWj+p0M7SHSvcMeXs7mmIyY0hKxpCUHO6hdGqKopBgi5PN5M9BzdW406Gqaov1aFar9aRTFJu3Hvi25m0obDbbaY2hvamqetIwGhMTE3odBoPhewPUt7eu+DaDwdCqAnkizZVEaKoWpqSknNa4zWYz2dnZJ7zPZrPRu3fvk47heAaD4aQ/a9kjUIizp/nCyw+pPiPOPefeIiohhBBCiB8ACQNCiM5AAqEQQgghhBBCdFESCIUQQgghhBCii5JAKIQQQggRBrIHnRCiM5BAKIQQQgghhBBdlARCIYQQQgghhOiiJBAKIYQQQpxlx+/zKFNGuy7Z71N0BhIIhRBCCCHCQMJA1yY/f9FZSCAUQgghhBAiTKSxkAg3CYRCCCGEEGEgFSIhRGcggbCdWSwWrFYrqipvrRBCCCG+n1SHuja5KCA6A2O4B3CumTRpEi6Xi7i4uHAPRQghhBBCCCG+lwTCdpaTkxPuIQghhBBCCCHEKZF5jUIIIYQQYSDTBYUQnYFUCDtAMBikvLyc6upqVFUlPT0dh8MR7mEJIYQQopOQMCiE6CwkEHaALVu2sGTJEmpqaggEAqSkpHDHHXeQnJwc7qEJIYQQopORpjJCiHCSKaMdoLKyEofDwahRoxg2bBhvv/02ixYtCvewhBBCCNGJKIoiYVAAclFAhJdUCDvAmDFjmDBhAhaLBYD33nuP/Pz8MI9KCCGEEEJ0JjJ1WHQGUiHsAA6HIxQGDx48SGFhIRdccEGYRyWEEEKIzkiqQ0KIcJIKYRsVFBTw0ksvEQwGW9w+btw4Lr/8cmJjY6mpqeGPf/wjgwcP5qqrrgrTSIUQQgghRGclFwREuEkgbKPIyEhyc3NbBcKMjAxMJhMNDQ088cQTVFZW8tRTT5GQkBCmkQohhBCiM1JVFV3XJRB0UaqqYjKZCAaDBAKBcA9HdGESCNsoOTmZ66+/vtXtzX/YTz75JAUFBTz++OP0798/DCMUQgghhBCdlaIooTWEclFAhJMEwjYyGAxERkae8L65c+cyb948+vbtyzvvvMM///lPevXqxd13332WRymEEEKIzkiaiQiQ3wPROUgg7ACZmZnccsst+Hw+VLWpb09ERESYRyWEEEKIzkSqQ0KIzkACYQeYMGECEyZMaPEBL1eAhBBCCCHEt8k6UhFuEgg7kIRAIYQQQnwfCQJCiHCTfQiFEEIIIcJALhwLIToDCYTtrKGhgdra2lbbUQghhBBCnIhUCYUQ4SSBsJ2tXLmSRYsWUV1dHe6hCCGEEEIIIcT3kkDYzvbv38+OHTtwu93hHooQQgghOjGZMirkd0B0BhIIhRBCCCHOMgkCQn4HRGchgVAIIYQQIkxkywEhRLhJIBRCCCGECAOpEAmQiwIi/CQQCiGEEEIIIUQXJYFQCCGEECKMpDrUdUmVWHQGEgiFEEIIIYQQoouSQCiEEEIIEQaKokh1UAgRdhIIhRBCCCGEEKKLkkAohBBCCBFGUiUUQoSTBEIhhBBCiLNMURRpKCJC5KKACCcJhO0kEAjgcrnw+Xz4fD6cTic+n0/+wIUQQgghhBCdlgTCdpKXl8eUKVN4+OGHee211xg4cCALFizA7/eHe2hCCCGE6ISkQijkd0B0BhII28mgQYMYPHgwJpMJgMzMTEaOHInZbA7zyIQQQgjRWem6LrOJhBBhJYGwndhsNkaPHk337t0BuPLKK4mPjw/zqIQQQgghRGcmFwREuEkgbEejR48mOzsbh8PBpEmTcDgc4R6SEEIIIYQQQnwnY7gHcC7p1asXQ4cOxWq10qdPH4xGeXuFEEIIcWKyfqxrk06zorOQxNKOVFVlwkUTGD1mNImJieEejhBCCCF+AGTKoJDfARFOEgjbSEfH5fNQ4aykylVLvacBl99Nhb0Gg0NlVckGbMesRJptxFqj6WaPJ94WK1eChBBCCCHfB4QQnYYEwtMU1DXKGyooqDxAYc0RyhqOUeWq+ToQegjqwdBjI4yWrwNhDN0i48mITiErrge943tiNUWE8VUIIYQQItwURZHKkBAi7CQQnoZKZzXri/LZdWwvRXWl1Lrr0XTtOx/vCXjxBLxUumrYV3UIi9FMmiOZrPieDE8dRE5iFmaD6Sy+AiGEEEJ0NhIKhRDhJIHwFOi6zqaSraw6uJ6D1YXUexvbdBxvwMfB6iKK68rYW3mIYakDubDXSJIiu7XziIUQQgghhBDi5CQQnoQ34OPD3Z+wrjCf8sZKdM78Kp4/6KewpoRKZzWl9eVMzh5P34RMWU8ghBBCdBEmkwmHw0FNTQ12uz3cwxFhJBViEW4SCL+H0+fin1uXsKH4K5w+V7seW0en0eckv3Q79d4Grup3MYOSc1AV2RpSCCGEONdlZGTw+9//nqNHjzJhwoRwD0eEiRQDRGcggfA7eANe5m1dwvqiPNx+T4edxxf0U1B5kMW7PsFkMNIvsQ8K8uEghBBCnMtsNhvnn38+wWAQi8US7uEIIbowKUedgK7r/GvnJ3xZ/FWHhsFmQS3I3spDLN2zkuLa0g4/nxBCCCHCz2QyERERIVUiIdNGRVhJIDyBDcVfsa5oc7tPE/0+mq7xVdlOPj+8kTpPw1k7rxBCCCGEEKLrkkD4LZXOalbsW0uls/qsn1vXdVYeWEdBxQGCWvDkTxBCCCGEED9YUh0WnYEEwuNousaaQ19SVFfWDr1E28bld7Pm0AYqwhBIhRBCCCGEEF2LBMLjHKk/yq5je2n0OcM6ju1H91BYW0JAC4R1HEIIIYQQouPJGkIRThIIv6brOjvL91JaXx7uoeDXAnxZvIUGb3iDqRBCCCGE6BgyXVR0FhIIv+b0uzhUU0ydt30burR1C4ndx/ZR52lAD9vkVSGEEEIIIcS5TgLh18rqj3GssbJdSvaKohBviyU3pT8X9DyPWGv0aR+j1lNPUe0RAtJcRgghhBDinCXTRUW4SSD82jFnFTXuunY5VqI9gSnZE5gx+EruGjmTjOjUNh3nUE0RgaCsIxRCCCGEEEJ0DAmEX6t111PfTmv2HBY7fi3A1rLd+IL+Nh+ntP6YNJYRQgghhDhHyTpC0RkYwz2AzkDTdZx+F96At12Od6S+nKONFSTY47io95g2H6faXUtQ19plTEIIIYQQQgjxbRIIgaAexBf0o51i+DIoKomRCXSPSWt1X0ldGUcbKwj6g8TZYs5oXC6fW+aVCyGEEEIIITqMBEKaFvOeTvAyqAbSHMmc3314q/vWFeVR6awmyJk3g9GR6qAQQgghxLlOCgAinCQQ0lTxMyinvpwyoAXZV3WISld1q/tq3fX422ndn0k1tXHTCiGEEEII0dnJGkLRGUggpKniZzVFYFKNpxTmNF2jztNAnefEexYqKKRHp5AV1xOjaiQjOgVPwMO+qsOndQXIYYlCPY2gKoQQQgghhBCnQwLh1yItdmxm63eGvNNhUo1cN/gqshMysRojmDrgUnxBH/ctfeK0Gtck2GNRVcMZj0cIIYQQQgghTkQC4dfibbFERzjaJRD6ND+vrH8bVW1Z3fOdZhfTHjHpmFT5EQkhhBBCnKtk/aAIN0kbX0uK7EacNYai2iPtcjx3wHPGx+gd3wOTQX5EQgghhBDnGlk/KDoLWaD2tZSobqQ5kjB2kopcz9h0EiMTZA2hEEIIIYQQosNI2viaqqhkJ2SSFJkQ7qGgKArDUgcRabaFeyhCCCGEEKKDybRREU4SCI/TL7EPPWPTMYS5kUu8NYbclP7YTNawjkMIIYQQQnQcmTYqOgMJhMeJstgZkTaYRHt82MZgVI2c32MESVHd5ENCCCGEEEII0aEkEH5LbuoABqf0I8IYcdbPraCQGdedURm5RFnsZ/38QgghhGgSDAZ/UNP4NE1D07RwD0MI8QMkgfBbIowWftR7LH0TemE8y1NHE+xxTOo9ljRHCgpSHRRCCCE6ktfrpbGxsdXtgUCAZcuWkZeXh9/v79AxNDQ0sHv3bsrKykK3FRcXs3fvXrzeU9uuyuv1sn79ejZv3tzh4xVCnHskEJ5ARnQKl2ZfREZ02lnr8hljdXBR5hgGp/TDYjSflXMKIYQQXZXL5WLNmjW8++67LcIYNFUHP/74Y55//nmqq6s7bAy6rrNjxw5ee+01tm7dGro9Ly+POXPmUFRUdEpVSpfLxYIFC/jwww9POUQKIUSzzrHHQic0OCUHb9DH4p0fU1h3pEOnjcRYoxnfaxTjeo4kOiKqw84jhBBCiG/U19ezdOlSampqmDx5Mk6nE5/PB0BiYiL//ve/WbJkCZmZmSiKgqIopKWl0bdv33Y5f3V1NZ9++imFhYUkJSWFbu/duzdz5sxh8eLF/OIXvyAyMhJoCpClpaXs2LGjxXEaGxspLCwkIiKCFStWYLW2bEo3bNgwunXr1i5jFu1L+kWIzkAC4XdQFZURaYMwG4x8uHsFeyr2t/s5FCDBHs9FmWMY13MkCfa4dj+HEEIIIVqz2Wxccskl1NXVkZeXx2effcaRI0dwOp0AeDweUlNTWbFiBceOHcNut5ORkcGFF17YLoHQ7/ezadMmPv/8cy677DL69esXuq9///789Kc/5R//+Ad9+/blsssuw2g0omkahw4dYv78+S2O5fP52Lt3L0ajkYULF2IymVrcn5iYKIGwE9N1/Qe1XlWceyQQfg+DaiA3ZQBRlkjWHNzA54c34g362uXYRtVIr7gMJvUey5CU/lIZFEIIIc4yh8PBj3/8Y0aMGEEwGGTr1q2YTCZSU1NR1aYlIw0NDdxyyy3cfffdTJw4kZSUlDM+r6ZpFBQU8MYbb5CcnMzUqVOJiPimmZ3BYOCnP/0p+fn5PP/882RkZDB06FBUVSUrK4ubbrqpxfEaGxvxer3YbDauu+66VhXCjIyMMx6zEOLcJYHwJBRFISu+J3HWGPp2683qg+vZU7GfoN62Tl6KohBnjeH8HiMYlZ5LenSKrBkUQgghzjJN0/D7/djtdvr164fb7WbVqlXk5+fzs5/9jAkTJmC1WlmwYAF2u50777yz3cLg/v37efrpp6mpqeHee+8lPT29VYfQuLg47r//fu6++24eeOABnn/+eXJzc0lOTiY5ObnFY2tqalixYgWRkZGMGzcuNMVUCCFOhQTCUxRni2F096H0isvgQFUhG4u3UFB5gEaf65SPkRGTyvDUQQxNHUByVCJRFrt0ExVCCCHC4P+zd9/RUZT938ff29J7AqSQ0AKhCITeUREVpEhTBG8FG3ZRUCR2saLorSKIUlRQEaUXKRaKEAm9GAiQTnpPNrvJ1nn+yMP83DtUQYPm+zqHc8jszFzXTCCZz1wtJSWFGTNmkJqaSsuWLbn//vsZNmwYFRUVvP322yQmJjJs2DBmz57N2LFjXUJYeXk5W7ZswWg0XlKZQUFBXH/99cybN4/4+Hj8/PyYOnUqbm5nfzGsKArR0dH8/vvvLFu2jNjYWCorK/n444/ZunWrup/NZiMlJQW9Xs/u3bvR6XQoikKrVq149dVXCQ6uu/WVhRBXPwmEl0Cv1RPhF0pD72CuaRRDaVUZaaVZpJVkkmssoLSqHLMg/gFnAAAgAElEQVStCkVRMOgM+Hv40sA7iKiACFqGNKORTwN83LzwMnjKIGIhhBCiDjVq1Ij777+f3bt3s2/fPoxGI3369GHy5Mm0atWKTz75hCVLlqDT6XjkkUdcfm+XlZWxbNkysrOzL6nMZs2aMXToUCZNmsSQIUOw2+0UFBRw4sQJtmzZQrdu3ejZs6e6/wcffECjRo148sknCQgIAMDNzY3u3buTlZXF2rVrGT58OB07dlTHoGk0GgoLC1m4cCGRkZHyvCGEuCAJhH+CQWcgyCuAQE9/ogIi6N2kKw6nA6fiRFGcKNT8QNZqtOg0WvRaPQad/m9bwkIIIYQQ5+fr60vfvn1xOp2cOnUK+P/DOoKCGDRoEFu2bGH58uU0bNiQoqIimjZtqh4bERHBvHnzcDgcl1SmTqdDr9cTExNDdHQ0UNOFdO3atRw/fpwhQ4YwcOBAdf9vvvkGf39/Wrdujbu7O1ATCPv160d4eDilpaUYjUaGDh1KYGAgULNkxuuvv467uzt33303/v7+l3WfhBD/fhIIL4NGo8GgM2DQGS68sxBCCCGuGhqNRg1of2xFS0lJ4aWXXuLgwYPMnz+fVatWMXToUObNm8eIESMA0Ov1hISEXFbZen3NI5jFYiE9PR2tVkuTJk1cuo9WVlbi6+uLVqt1qaPBYKBly5ZMmDCB5557jvnz5/PUU0/h4eHBkiVLWLduHZMnT6ZLly7odDqXsu12O7///js5OTnccMMNatAUf78zS5kIUdckEAohhBCiXlMUheTkZJ599lm+/vprmjZtyhdffEGXLl0YO3Ys06dPZ8yYMbz33ntMnjz5ipadlJTEb7/9RqdOnVyWs6iurqayspKAgICzhgadTsd1113HtGnTmDFjBunp6bi7u/PLL7/w9NNPM378eLy9vWsdV1RUxNChQ9FoNMyYMYN77rnnil6PEOKfRwKhEEIIIeodRVGwWq0UFxdTWFjIzp07sdlsvPzyy4wZM0btggnw7rvv0qBBA44cOYLNZqu1zt+fLb+goIDVq1dTUVHB9ddfr7YaAuTm5mKxWAgNDVWXwPgjp9OJw+GgZ8+eDBs2jI8//hibzcajjz7KwIED0Wq1OByOWi2EHh4e3HDDDWzdupWioqLLvg5x+WQdQlHXJBAKIYQQot4xGo0sW7aMOXPmYDKZCAwMpG/fvkRFRVFQUEBpaanaMud0OhkxYgQVFRUkJiYSGxv7p8tVFAWz2UxqaiqLFy9m69atPPLII/Ts2ROz2YzRaERRFOLj47Hb7URFRamBUFEUiouLMRqNZGdns337djZv3kxJSQljx44FYPPmzSQkJHDzzTfTr18/IiMj8fX1pWHDhkDN2otTpkzBZDLRsmXLy7yLQoh/AwmEQgghhKh3Tp8+zYYNGxgxYgT3338/Bw8eZOnSpcTFxWG323F3d0en0+FwOLBarVRXV2MwGBg0aNBlBUK73c6uXbt466230Gq1TJs2jZEjR6LT6UhISGDlypWUlZWRlpZGt27dCA4OVoOp1Wrlww8/ZOvWrVRUVNC4cWOGDBnC8OHDiYmJQaPRkJSUxMqVK9m2bRvLli3D09OTa6+9lnfeeQeNRkNqaioLFizA19eXa6+99krdTvEnaTQaaR0UdU4CoRBCCCHqnWbNmjFr1iyCg4MJDAykcePG3HLLLeTk5JCfn4/RaMRut6PVajEYDLi5ueHp6XnZi9PrdDqaN2/OuHHjuOmmm1xmL23VqhUDBw6koKCAG2+8kf79+xMUFORybJ8+fWjdujVdunShRYsWtbqvtmnThueff55p06aRmprKkSNHCA0NRaPR4HA4OHToEH5+fjz99NMu3WKFEPWXBEIhhBBC1DteXl7q0g9n6HQ6IiMjiYyM/MvK1Wq1REdH1yobapaziIiIOOexer2eQYMGXVQ5BoOBmJgYl4lq9Ho9I0aMYNSoUWcdlyiEqJ8kEAohhBBC1BN/nLhGCCEA5PWQEEIIIYQQQtRTEgiFEEIIIYSoQzKxjKhLEgiFEEIIIYQQop6SQCiEEEIIIUQdOLOkiBB1SQKhEEIIIYQQQtRTEgiFEEKIesJms7Fjxw6OHj16UftXV1fz5ZdfUlZWVuuz7OxsNmzYQGVl5UWdS1EUDh48yIoVKy56/++++47jx4/jdDoBcDgcHDhwgLVr117UOc7FbDazZ88ejh07Vuuzqqoq9u3bR2Fh4d86ruv06dPs2LGDvLw8dZvD4WDp0qXk5ub+LXWwWq1s3ryZo0ePYrfbL/n4zMxMtm7d6nIN4sJk/KCoazL3sBBCCFFPGI1GXnnlFW6//Xbat29/wf3NZjMzZ86kd+/eBAQE4HA4SEhIYPny5eTm5mK1WgkNDcXd3R2tVktYWBiBgYFUV1dTXl6Ow+FQz6UoCps3b+ann36iV69etcry8fHB19dX7UKXm5vL+++/z+uvv06rVq0AsFgsLFmyBLvdzvDhw2udo6qqitzcXMxms7rN39+fiIgIl3X3ysrKWLZsGdHR0bRt29blHAcOHOC9995j2rRphISE8MMPP/Ddd99hs9lc9mvZsiUvvfQSWq2WvLw8Dh06RGlp6QXv6RlBQUH06dMHHx8fbDYba9asIT4+nptvvpmmTZsSGxuLl5cXs2bNIjw8nLCwMJxOJ9nZ2QQFBeHt7U1RURG//PILaWlpF12uj48P9913Hx4eHrU+q66uZsWKFfTq1YtWrVqpS1TY7XZee+01brnlFnr06HHOcyclJfH111/Tt29fWrdu7fJZx44d8fPzO+ex1dXVOBwOPDw80Ol0F309l0pRFKqqqtBoNHh6ev5l5VwqCYWiLkkgFEIIIf6lbDabGsoURSEhIYGUlBQ6depEdXX1WY/R6XTo9Xo0Gg2KolBaWorD4cDpdPL222/zzTffMHz4cHr37s2SJUv4/PPP+eWXX3A4HLz88suMHz+e5cuXM3PmzFotRVVVVVitVjp27Fir3KlTpzJ16lQMBgMACQkJ6uLqZwKCxWLhp59+4uGHH3apv06nw2AwsG/fPl599VWSkpLQ6/VYrVZuueUWZs+e7fLw73A4MBqNVFVV1arH9u3b8fb2Jjg4GI1GQ/PmzbnhhhvU+2ixWNi+fTuJiYlqyExOTmb+/PmkpqbWOl9hYSFGo5FmzZq5jBdr06YN7dq1w8fHhwMHDrBlyxb69euHn58fr732GlOnTuXaa6+ltLQUk8nEpk2bWLJkCbt37+aZZ57hoYcewmKxkJWVxcmTJ13KzMnJ4dSpU8TGxuLv7+/yWWBgoPp3k8nE1q1b2bJlC1DTQrh9+3aSk5PZt28fOp2Oa665hsTERNatW8fdd99d6/r+yGazkZSUxIEDB2qV++mnn9KuXbtax2RkZDB37lxWrFiB0WgkJiaGuLg4BgwYgLu7+3nLu1R79+4lLi6Oo0eP4unpSf/+/Xnqqafo1KnTFS3nYmk0GhlDKK4KEgiFEEKIf6kHHniAFStWqK1bTqcTu91O//79z/kgOnnyZJ566inS0tLIyMhQA1BRURHl5eWMHDmSV155he3btxMSEsIzzzzDlClTePfdd7FYLACMGzeOMWPGuLR6KIrCxx9/zOrVq/n5559rlavX6zEYDOzatYspU6Zw8OBBHA4H0dHRaDQaNmzYgN1uJzExkcmTJzNlyhT12HvvvZeZM2dis9kIDQ3lhRdeoFevXrz77rukp6ezY8cOtW4ARUVFZGRk4HA4+OWXX4iJiSEiIoLc3Fz27t3Lddddh7+/Pw6Hg5iYGLWFEqC8vJyMjAxMJpO6rXfv3vTo0aNWK09hYSE333wzPXr04JtvvnG55xqNBr1eT0ZGBgsWLMBsNhMaGopGo8Fms/HRRx8RHR0NwKhRo4iMjGTMmDE899xzautbeHg4kydPrlXuDz/8wJw5c3j55Zdp06bNWe811ARpf39/QkNDgZrA7u7ujp+fH40aNQLg/fffp6ioiPXr19O8eXP1HFarlcLCQpf7mpeXR1hYGGPHjq0VsvR6PYqiuNyDtLQ0XnnlFZKSknj++ecJCgris88+49lnn2XBggV07969Vt3/rLKyMoYOHUrPnj2ZN28eZrOZ//73v8TFxfHxxx+r91qI+ugfGgilWV0IIc5Pfk4KeP3115k2bZraOjhlyhTmzJlDbGwsdrudoqIirFYrUVFR6jEhISEEBATw5JNPkpCQQEVFBW+//Tbdu3cnLCyMlStXkpWVRfv27amoqODzzz/n559/Jj8/X32A37x5M5s3b3bpuul0Ovn99985ffo0TzzxhEs9nU4nffv2ZeTIkSiKQnh4OC+88IIaZm688UZsNhvz5s1j3LhxvPrqq0BNgFmyZAlGo1FtRdRqtRgMBtzd3dVt7733HidOnFDLczgclJWVodPpSE5OZsqUKYSHh7N161ZKS0tp0aIFo0ePpk+fPuzevVsdQ6nX63E4HOTn56PT6cjOzuaxxx7juuuuc+mSCjWB6dVXXyU3N5dVq1ah1+vP2hUyIyNDvS///e9/CQkJISQkhISEBA4dOoTNZmPu3LlMnDgRrVZLdXU1e/bsoW3btvj7+1NaWsrs2bNZtGiRGvRMJhNGo5FBgwbh5uYG1HT7vPHGG1m0aBFQE9B1Oh3du3dXv28VFRWcOnWKvn37MmLECF5++WWsVisrVqwgNjYWq9WKwWBAq9WSnJzMxIkTSUxMVFt1rVYrNpuNn376SQ2AZ7ZbrVaOHDni0koYFhbGtGnT0Gg0atddX19fnn76aRITE+nQocNZu7b+GQEBAezcuZMWLVqg1Wqx2+0YDAZeffVVEhMTJRCKeu2fFwi1BrAb67oWQghxVVMcFtAYAOmOVJ81btwYgMrKSiZOnMjIkSMZP348Go2G0tJS1qxZQ1ZWFp999lmtY7/99luKi4u55ppr2LhxIy1btmTatGl069aNCRMmkJubi7u7O3379iUmJobvv/9ePfbAgQOcPHmSHj164O3tjclkYufOnaSkpDB69GiaNm2K2WzG3d0dDw8PduzYwa5du7j55psBMBgMREZGqg/p7u7ubN++nd9++41Vq1bRvHlztFotRqMRf39/qqur1VDicDiorKykrKyM6upqFEVh1apVmM1mAgMD0ev1nD59mtdee43WrVurLY2ZmZmsW7eO3NxcNVh16tSJG2+8kddff52GDRsyYcIEl3vk5+dXa6wc1Iy9fO+991i7di16vZ7ExER+/fVXRo0ahb+/v0srWc+ePVm/fj02m81l+6FDh2jbti0Gg4GAgACMxppnn6KiImbNmsWoUaO48847cTqdVFRUMGDAAO677z40Gg3x8fGsXLmSxx57jKZNmwKwYMEClzGOWVlZzJo1iyNHjqjbHA4HycnJxMfH88EHH1BRUUFgYCAvv/wyGo0GNzc33njjDbp27QrUjKN89tlnGTx4MA6Hg/Xr17Nx40buvPNOOnbsiNlsxmw2s2bNGjZs2FCry6iHh0etbQ0aNMDHx4fy8vI/NbHN+bRs2VL9u9VqxWQy4enped6xjULUB/+sQKjRgXsjlPKjKA4LGt2V7VsuhBD/CooTxXwajVsIGu0/68e8uPKqq6v58MMPyczMZNmyZbW6il7MZBbl5eXk5eVhMBiwWq2kpaVx/PhxCgoK1EBhs9nUFjAvLy969OjBnXfeic1mY/78+Rw/fpypU6cybtw4jh49ypYtWxg0aBBDhgzBy8uLkydPqq1sDoeD4uJi8vPz1a8LCgq4++67yc/P59ixY7Rr1w673a62Wp0JcQUFBXzyySesWrWK/fv3ExMTQ1lZGSNHjuTtt9/m+uuvr3V9drudtWvXEh8fj6+vr7o9LCyMpk2bcuLECWJiYtRuojqdDq1Wi6enJyEhIS73srS0lEWLFrFy5Urat2/PqVOnSE5O5pNPPmHLli08//zztGrVSh0fZ7FYmD9/Pp9//rk6vq+iooJOnTrx9ttvExkZyWeffcaOHTuAmomB8vPzawVRb29vtctpYGAgbm5uhISEqN1Bvb29qaioUPcPCgriP//5j9r6abFYyMnJYfXq1Rw5coRrr72Wm266CW9vb6Cm5dXDw4MWLVq4lJuens7ChQspLCzk8OHD/P777yQlJQE1oatZs2aMHTuWu+++G4fDccEJY9LS0qisrKRJkyZXrHXwj0wmE5mZmRw6dIjPP/+cbt26nXVMqxD1yT/rSUFrQOPXDnJWopTtRxPcE1k5QwghXClVp1GMx9FGjAHtlX+gEv8clZWVrFu3jpkzZzJy5EgiIyPZs2cPVqsVo9FIZmYmBQUF7Ny5E6gJDS1atMDPzw+j0aiOs1u4cCGenp706tWL0tJSEhISyM7Opry8nAMHDuDt7U2zZs3UFr3rrrsOu93OypUrWbZsGcXFxfTv35/09HSef/55srOz6dmzJx4eHphMJvr06UO7du3UMFZcXMyiRYto2LCh+vW4cePo1asXjz/+OBUVFcyePVvtwunu7q4GXXd3d1q1akWLFi3Urp1BQUH07duXuLi4sy57YbVaAejXr5/LMhpms5mPP/6Y0NBQ8vLymDZtmjrRik6no3fv3nTp0kU9x+nTp5k/fz4///wzDz30EHq9nlmzZvHAAw8wcOBA4uLiuP/++3nmmWe44YYbCAwMVFv4unbtyt13341Go2H9+vUUFxfjcDgYMmQIZrNZvTcajYYRI0bUGqO3ceNGTpw4gUajobCwkKysLF599VV8fHyAmolv/niMt7c3Xbt2pbq6mry8PHbv3s2yZcs4cOAAN910E3379kWn06mT9/j7+zNgwACXMhVFweFwoCgKkZGRWK1WKioquOmmm+jRowdBQUHodDqMRiPPPfcc48ePP29rXEVFBVu3biUgIIBmzZqpIf9KObP0yeOPP05OTg7R0dGMGzeu1gQ4QtQ3/6xAiAatZzjOoF44s1eCWzBa7+Y13UiFEKK+U5wo1Xk4Tn+LxqMR2oBY0LrVda1EHXE4HHz//ffMmTMHHx8ffHx8MJvNvP322xQXF2O328nOzsZqtfL8888DEB0dzRNPPEG7du1Yvnw5W7ZswWg0UlRUxB133EGbNm2IjIwEYP/+/RQXFzNmzBhCQkLw8vKiWbNmAHTu3BmomdUxNjaWvLw89u7dS8OGDdVQV15ezpw5c8jNzWXIkCEurTRubm5ERUWpXV7PBAMvLy+eeeYZJk+ezLx587jrrruw2+14eXmpxwYFBXHrrbfSp08fSkpKSElJAeCFF15g2LBhfPDBBzz44IMu98rLy4uJEyfSvHlzvv76a3V7Wloa27ZtY8aMGQwcOJAnnngCd3d33n33XaAmnJ0Zj7h7926+++47MjMzefTRRxk1ahQbN25UzxUbG8uXX37JG2+8wZtvvkl6ejoTJ05Uu7pmZGSwfft2NBoNp06dwsfHB0VRmDdvHp9++in9+/cnKyuL5ORkvL29a41ZHDRoEE888QQajYZt27bx9ddf8+yzz6oh/cMPP1RnfVUUBZPJxMmTJzl06BA7d+5k3759FBQU0K1bN7y8vNQWyTMiIyO58cYb1a/PTFDUvn17Bg8eDMCxY8coLi5WZ2E9830zGo307NnTpfX1f1ksFrZs2cLevXsZPXq0+m/pSmvevDlTpkzh1KlT/Prrr8yfP5+GDRuqLa5nWsz/7tk/ZdkJUZf+YYEQ0PuiCxuGI/1znBlfQEg/NF5NQOcNGmktFELURwo4qlGqc3EWx6NYi9FF/QeNe8iFDxX/Wg6Hg71793LXXXcRHx8P1EzY8cknn2Cz2SgvL2fhwoXk5+czc+ZMoCaI+fv7oygKmZmZNG3aFIPBwJtvvkmrVq2YMWMGy5cvp1GjRjRs2JCAgACWLl1KVlYWkZGRPPvsswQGBmK320lISHAJSy1btuTaa6+ladOmHDlyhNLSUqqrq5kzZw4mk4nbbruNoKAgoGYCkLFjxxIbGwvA7NmzAdRlIO677z4WL15Mjx49sNlsF7WeXFBQENOmTePTTz9Vu0n+kY+Pj0uwhJogEx4ezqlTp0hPT+fYsWPo9XoWLFgA1Czh0KtXLzIzM1m4cCF+fn68+uqr9OjR46xLJjRs2JDXXnuNTz/9lD179nDDDTeoM3cGBQXRqlUrNBoNWVlZLrN37t+/n9TUVI4cOUJmZiY33XQTvXr1Iisri19//ZXU1FQ8PDw4deoUGo2GnJwcTCYTGRkZatAoKSkhNzeXH374gaioKLRaLe+//z5lZWXExsbSs2dPEhMTufXWW2u1Pmo0Gnr27OmyzWazUV1djZeXF1VVVTgcDpo0acLIkSP5+eefad26NR07dsRisVBRUUG/fv3OGbLsdjv79u1j8eLFNG/enFtuueWsrXZOp5Pjx48THh7usnzGxdJoNISHh6svEn766SdeeOEF1q5dS0xMDBkZGRw9ehSTyUSLFi245ppr/vK1CmXZCXE1+OcFQjRoPCPRNb0XZ94POAu3gc4LtO4SCIUQ9ZOigGIFuwncQ9A1mYjWtzVo/oE/4sUV4+bmRlxcHGFhYRw4cACoGQd2ZjkBb29vAgICqKysVFvi/mj69OlUVFTwxRdfADUPrrfeeiuJiYmUlpYybtw4wsLCSEhIYNWqVbRr144mTZoANWH0p59+4uDBg1RVVdGjRw+aN29Oamoq8+bNY9KkSWi1Wrp27Yrdbmf37t3ExMRw3XXXXfC63N3dGThwIDqdDp1Oh8VicWl5KisrY+PGjSQnJ7N//351DBzUtKL5+flddBdBNzc3oqOjSU5OxmKxkJCQgIeHB02aNMHHx4fQ0FDat29P48aNue++++jQoYPagnoufn5+PPzww9xwww20adNGDX4mk4n8/Hy0Wi0VFRVqyyHAtm3baNSoEW3btuWOO+6gY8eOOBwO0tLSWLt2LSdPnsRgMLB8+XI0Gg0Wi4WIiAji4+PZs2cPAMePH6esrIxVq1YxYMAAdYxgbGwsoaGhLF68mJycHI4cOcKpU6fUsvPz8yktLWX9+vVqi5/T6cRoNGIymXBzc1PXobRYLJjNZrRaLb/++isdO3bEy8uLb7/9lpYtW561u6jNZuPgwYPMnTsXgAcffPCcM34ajUbefvtt2rdvz8SJE9UuxRfDZrNRUlKi/vvX6/WEhobi5+dHSUkJBQUFrFixgqSkJNzc3Pjxxx95/PHHad++/QXHPQrxT/fPfFrQaNF4RaFrMgHFnI5izkSxG0Fx1HXNhBCiDmjR6LzQeIaBdzQag8yYJ2pcKJycj7u7u0u3RI1GQ4cOHZg2bRoffvghGzduJDo6msOHD9O9e3duv/12tYXP3d2dcePG0aNHD1atWkXjxo2ZOnUqx48fZ8+ePTzxxBPs3buXhIQEtXXqjw/3lZWVbN++nczMTPXrPwoODmbMmDHs37+fyspKAgIC1M+qqqo4fvw4paWl+Pv706lTJ/WB3t3dneuvv57Tp0+f99oNBgNjxoxh6NChNGvWDLvdzldffcXGjRsJCwujf//+3HnnnS5jFy9l2QIfHx+1W+2ZQHhmPJ7T6azVfXDIkCGMHz+e4OBgqqqq1HF2HTt25LHHHmP+/Pl4e3vz2GOPnbPFafbs2Zw6dYqnnnqKoKAgQkND1YXmTSYTgwcPrtUKCLB48eJa98tisZCcnIybmxtlZWWsXLmSa665hiNHjtC/f3+mTJnCsmXLcDqdZGZmkpWVxRtvvMFHH33kEsatViv79u3jvffe4/Tp09xzzz34+/uTkpKCwWAgPDy8VktrVFQUX3zxBSaTiYcfflidNOdCfvvtN7777jvGjRtHTEwMVVVV7Nixg4qKClq0aMHJkycpLCxkwoQJxMbG8txzz5GYmEirVq1qtRxfadJdVNS1f2YgPEPnica3DRrf2ouuCiGEEOL/KIpCdnY2hYWFQM0EHrm5uRQXF3Po0CF1vwYNGtCoUSN1nNkfH1bLy8uxWq34+/uzbNkyvLy88PDw4KGHHlInIPHw8KCsrIxjx46xZs0aTCYTt9xyCwaDAZvNBvxf64xOp2P16tV07NiRtm3bqmWZzWYSEhJITU0FoEOHDmoXwaqqKk6cOIFer2fv3r2UlJQQHh4O1HTh7NevH3369FGXGPDy8lJb2/Lz83E4HOTl5WE0Gs8ZngwGA5MmTcLNzY3U1FRWrVrFihUrmDp1Kp6ennz55ZeUl5czePBgoqOjXVrz/qw+ffowffp0tFotc+fOZd++fUBNEG/QoAEeHh6YzWaKiopYvnw5sbGx9O7dm9atWxMSEoKPjw/t2rU75zUFBgbi5+enrvf3R97e3uryD5WVldjtdtzc3LBYLBQUFNCjRw+X85aXl7Nr1y4aNGjA/v378fHxoW/fvhw+fJjCwkJsNhtDhgzBZDLx/fffM3nyZJ544gk2btzIHXfcoZ4nLy+PL774gg0bNhAREcGGDRvYsmULUDPD6/Tp013WyPT392fKlCl4eXnx9ddfo9freeSRRwgODr7g/fXw8CAlJYUZM2YQERFBdXU1mZmZ9OnThwEDBlBUVISiKFRUVKhLluh0OunSKeqFf3YgFEIIIcRFURSFHTt2sGHDBqBm3NaZsWqzZs1S97vlllsYMmQIu3bt4rvvvkOr1eLv78/MmTM5fPgwWq0WX19fnn32WYKDgzlx4gQHDhwgISGBPn36cPvtt5OVlaWOVRs2bBhVVVU8+OCDFBcXqwvfd+/enWbNmvHjjz8SHx/PoUOHiIqKwsPDg+joaG6++WaXiUXOBDyj0cicOXMoLy/HbDbToUMHNeS0aNGC//znPzRs2FCdXfOPlixZQnx8PNXV1VRVVZ1z4hKNRoOnpyerV6/mu+++w+l08vjjjzN8+HDsdjsajYbNmzdz4sQJHnjgAXVdvst16tQpVq5cyfr162nbti1ubm60bt2aTz75RP2+nVke4kzr3vmUlZXx7rvvUlJSQnx8PCFwVlwAACAASURBVH369LngMT///DMbNmyguroam81GWloaU6ZMUVuLFUWhuLiYnJwc7r//fnx9ffH19SUmJobo6GgSEhJIT08HasK7oih07tyZF198sdb99vHx4dZbb6V79+616uHn53fWSWiCgoJ44IEH0Gg0pKamqjPEXkjXrl15/fXXOXz4sLrW5PDhw+natSvNmzcnKCiIli1bsmbNGtatW4e3tzcdO3Y861hQIf5tNIq0UwshhBD/alu3bkWr1RIeHq4+rJ9LkyZNaNq0KSdPnuTgwYP4+/szePBg1qxZQ1VVFeHh4YSFhanhrbCwkIyMDE6fPk2DBg3o3LkzFouFjIwMmjZtSnBwMGlpafz000+4ubnRvHlzlwlGqqqqyMzMxMPDg8aNG1NZWcnp06dp0qTJWQNBdXU1v/32G1VVVXh4eNC8eXOaNGlyUS058fHxpKam4ubmRoMGDWjfvr3LOoKZmZkcOHCAzp07ExUVxd69e0lLSyMmJoZ27dqpY+hMJhOJiYmUlZXRrl07IiIizlreiRMniI+PZ/z48ecMFmfGJmq1WqKjo9m5cyelpaXExsbSoUMHfv/9d1JTU9WupRqNhkaNGtGzZ0915thdu3ah1+u57rrrXO5DdXU1S5YsoaysDF9fX/r27cs111xz3nt04sQJEhMTqaysRKPREBoaSt++fdXJVRRFoaysjKNHj9K5c2c8PDxQFAWdTkdmZibp6elqS/CZ49u0aaO2Ol6JFjdFUdRJclq1aoWb28XPpuxwOKiqqlJD/x+7RRcUFHDy5EmqqqrU/weXcu5LtX//fiZMmEB1dTUzZsxg/Pjxf1lZQpyPBEIhhBDiX+7MA/qldG10OBw4HA4MBgMajUbtQneuczgcNeP4zzYBh6IoWCyW8x7/d3A6nTidTrRaba1lGwB1oXs3Nzf0ej12ux3grOvhKYqCoihoNJrzzp5ptVrx9PQ85z6KoqitXH/sVvvH8HSm3lATsv54jxVFUdcKPNuMmJWVlTidTtzc3C56ofczYxnPlHW2up+5dvHn/TEQvvrqq9x55511XSVRT0mXUSGEEOJf7s+EsDOzeJ5xoTBxvpkYNRrNRYeRv9K5guAZer3eJfydb2H08wXBc53vXOf5Y+vh2VoSz1fvMy1d53K2rrMX8r/f+3OVK4T4d5B1GoQQQgghhBCinpJAKIQQQgghhBD1lARCIYQQQggh6ohM5yHqmgRCIYQQQgghhKinJBAKIYQQQghRB2RyHnE1kEAohBBCCCGEEPWUBEIhhBBCCCHqkIwjFHVJAqEQQgghhBBC1FMSCIUQQgghhKgDMoZQXA0kEAohhBBCCCFEPSWBUAghhBBCCCHqKQmEQgghhBBCCFFPSSAUQgghhBDibybjB8XVQgKhEEIIIYQQdURRFFl2QtQpCYRCXEFlZWUYjUacTmddV0UIIYQQQogLkkAoxBWUkJDADz/8QGlpaV1XRQghhBBXOek2Kq4G+rqugBD/FoqisGPHDvbu3UubNm0IDg6u6yoJIYQQQghxXtJCKMQVcurUKQ4dOsS2bds4efIkNputrqskhBBCCCHEeUkgFOIKSUhI4Pjx49hsNjZt2kRRUVFdV0kIIYQQQojzkkAoxBVgMpnYu3cvmZmZAGzevJn8/HyZNUwIIYQQ5yRjCMXVQAKhEFfAkSNHOHz4MA6HA4CsrCzi4+Opqqqq45oJIYQQQghxbhIIhbhMdrudgwcPcuzYMZftq1evpqysrI5qJYQQQoh/AlmHUNQ1CYRCXKa8vDz2799fa8zgrl27SElJkTUJhRBCCCHEVUsCoRCX6dixY+zbt6/WdrPZzLp166iurq6DWgkhhBBCCHFhsg6hEJfB4XBgsViIiIjAw8OD5ORkSkpKaNu2LQ0bNsRoNKrjCoUQQgghhLjaSCAU4jJ17dqV119/nbS0NN577z1+++037rrrLgYMGICbmxseHh51XUUhhBBCCCHOSgKhEJdBp9MRFhZGWFgYHh4e+Pr6AtC0aVM6deqEwWCo4xoKIYQQ4mqk0Whk2QlxVZAxhEIIIYQQQghRT0kgFEIIIYQQog7JshOiLkkgFEIIIYQQQoh6SgKhEEIIIYQQdUDGEIqrgQRCIYQQQgghhKinJBAKIYQQQghRRxRFkTGEok5JIBRCCCGEEEKIekoCoRBCCCGEEELUUxIIhRBCCCGEEKKekkAohBBCCCGEEPWUBEIhhBBCCCHqgCw7Ia4GEgiFEEIIIYQQop6SQCiEEEIIIYQQ9ZQEQiGEEEIIIeqIrEMo6poEQiGEEEIIIf5mMn5QXC0kEAohhBBCCFEHJBSKq4EEQiGEEEIIIYSopyQQCnGF6PV6dDodAAaDQd76CSGEEOKc3NzcCAgIwMvLC19f37qujqjH9HVdASH+LSIiIhgxYgStW7emXbt2ajgUQgghhPhfTZo04aWXXqKkpITevXvXdXVEPaZRZFojIa6Y8vJybDYb/v7+GAyGuq6OEEIIIa5idrsdh8OBu7t7XVdF1GMSCIUQQgghhBCinpIxhEIIIYQQQghRT0kgFEIIIYQQQoh6SgKhEEIIIYQQQtRTEgiFEEIIIYQQop6SQCiEEEIIIYQQ9ZQEQiGEEEIIIYSopyQQCiGEEEIIIUQ9JYFQCCGEEEIIIeopCYRCCCGEEEIIUU9JIBRCCCGEEEKIekoCoRBCCCGEEELUUxIIhRBCCCGEEKKekkAohBBCCCHEX2z//v1s2rTpbymrrKwMq9Xqsi0/P/+SznHo0CF27tyJxWK5klUTVyEJhEIIIYQQQlwmRVHYtGkTS5cupbCwsNbnGRkZvPDCC6Snp/+l9SgoKGD69OksXboUk8kEwKlTp7j11ltJSkq66PNs3bqVlStXUlVV9VdVVVwlJBAKIYQQQghxmTQaDXq9ns8//5xPPvmEoqIi7Ha7+qdPnz44HA6WLVvmst3hcFzRemzevJn9+/fTuHFjPDw8AGjcuDEGg4G33noLRVFc9nc4HFRVVWEymVz+FBcXk5+fj9FodNluNpux2WxXtM6ibmmU//1XIa5aNpuNbdu2UVlZyciRI//y8vLy8ggJCUGv1wPgdDrJy8sjPDz8os+xZcsWLBYLw4YN+6uqSWlpKQkJCYSFhdGxY0eXzwoLC1m2bBmPPvooGo3mos63e/du8vPzufbaawkICLikuhw8eJD09HT69OlDw4YNL+nYfwJFUbBYLHh4eFBYWMiePXto1qwZbdu2vahj9+3bR3p6Orfddttl1SMvL49NmzYxdOhQQkJCLutcQgghxJVisVhYvnw5s2bNYuDAgfz4448UFxernxcUFODh4YGfn5+6bciQIbz++utX5PdZSkoKTz75JM2aNSMuLo6wsDD1s/j4eEaPHs0bb7zBvffeq27fsmULL7zwAjk5OS7nMhqN2O12/P390Wr/rw3Jw8ODUaNG8c4771x2fcXVQV/XFRCuFEVh7ty56HQ67rjjDpdAoigKaWlpzJ07lw4dOtCiRYu/rB5paWmMHj2aRx99lLvvvhuDwcDOnTu59957Wb16Nddcc81FnWfTpk0YjUaGDh160YHsUhUXF7Nu3Tq6du1Kx44dcTgc7N27l9mzZwOwc+dOhg0bRklJCVqtlpCQECIiIrBarZSUlNR6y7VlyxaOHj1KgwYNiIyMdPnMw8ODBg0aADVv1CwWCzqdDnd3dwD27NnD9u3badmypRoIKysrcTgc+Pv7AzXBPiUlhdzc3Iu6Pm9vb7p166beP5vNRlpaGjabjXbt2uF0OlEUBa1W63KPJ0yYQK9evZg4caL6hvB/KYpCVVUVDocDb29vlx/4/8vhcPDBBx+wefNmli5dSm5uLt9//z2DBg266EC4Z88etm3bpgbC33//ndmzZ5ORkeGy78SJExk2bBje3t5nPVd2djaffvopPXr0kEAohBDiquHu7s7YsWNp1aoVISEh3HHHHVitVpffz5WVlXz11VekpaXx5ptv0qBBA/UZ4XJUVlayYMECiouLmT59OqGhoS6f9+jRg0mTJvHaa6/Rtm1bevbsCUC3bt2YN29erTGHCxcuJCcnh8mTJ7sEWK1WS3Bw8GXXV1w9JBBeZTQaDc2aNeOpp54iKyuLZ555Rg0bAAMHDuTLL7/k+++/58knn1S363Q69Hr9FQldiqKwZMkS7HY7AwcOxGAwANClSxdatmzJzJkz+eKLL9DpdOoxVquV6upqnE6ny7nMZjMmk4ny8nKX7VqtFnd3d5dr+7OcTqfa5UJRFGbMmMGKFSsYMGAAvXv3ZufOnSxZsoSFCxdSXV3NXXfdxTvvvENCQgITJkwgMzOz1vUrisKqVatq1fmmm25i/fr1QE2YmTVrFtdff736ps3hcGC32126Y8TFxZGamsqGDRsAqKioYN68eSxatOi812W1WrFarXh5eXHo0CGio6PV4z/77DOKi4tZtGgRy5cvZ8WKFTzxxBP06dNHvYaUlBS6du16znt27NgxXnzxRTZv3ozdbqd79+7MmDGDa6+91uV7e4ZOp2PcuHEsW7aMl19+mfvvvx+bzVbre/6/ysvLuffee7FYLKSnp1NUVMSwYcNo3Lgxw4cPZ+jQoZSVlan7L1iwgPT0dOx2+znPqSgKhw8fZtSoUbVC4+23384999yjBnchhBDi73LmBW2XLl3QarV8+eWX7N69m48//pgWLVqg0WjIzMzk9OnTjB49Wv29fbmqq6tZsGABq1atYtq0aXTu3Fl9njlDo9EwZcoU9u/fz6OPPsoXX3xB+/btCQwMPGuPqE2bNmGz2ejcubNLAPyrXvCLuiOB8Cp0yy23YDabefHFF9FoNMyfP7/WDE+JiYm88sorAHh6ejJp0iSmT59OYGDgZZWtKAoJCQmsWrWKiRMnujxUe3p6EhcXxwMPPMBnn33GAw88oHYn/fbbb3njjTcoKChwOV9VVRWKorBx40aX7f7+/tx33328+OKLf7quFouFpKQktm7dSnJyMgAtW7akoKCAO+64g7vuuouCggK0Wi1TpkzhwQcfZNasWeoPx169enH48OFafennzp3LwYMHeeGFF2jSpInLZ+drQTuX//3BGRwczAcffMAHH3xw1v0dDge5ubk899xz7Nq1i48++ojmzZuf89ydOnVi7dq1LFmyhKioKCIjI6msrMRisRAcHHzWOqekpDB16lQ8PDxYsWIFVquVOXPm8NZbbxEQEEDnzp1rHWM0GvHw8OD5559n7dq1ZGVlUV1djc1mo6Kiotb+np6eGAwG3N3dGTlyJDabjZ9++onExERGjx6Nv78/7du3p3Hjxi7Hbdu27aLuc2hoKBMnTiQiIsJle0xMDD4+Phc8XgghhLiSSkpKWLNmDUePHsVut/PQQw/x8MMPk56ezoABA3jzzTe55ZZbWLNmDeXl5QwfPlw91uFwYDabL3lGT71ej1ar5auvvuKjjz4iODiYvXv3curUKex2OxqNxuUlr8PhICwsjLKyMqZMmcL8+fNp3Lgxu3fvZvv27TidTrRaLVqtlvj4eEpLS/nwww/x8vLC4XDg7u7OfffdR1BQ0BW7b6LuSSC8So0ZM4bWrVsTHh7OoEGDsFgshIaGqv+pc3JymDdvHj4+Pjz99NMEBQW5NOf/GYqikJmZyfvvv09UVBSjR4/Gy8tL/Vyr1dK5c2fuuusu5s+fT4sWLbj++usxGAzceuut9OnTp1arzhtvvEFlZSVvvfWWy3atVnvJ4/P+V1VVFb/99htfffUVWVlZZGVl4e/vT0lJCQcOHGDPnj2MGzcORVFYt24dS5cuJTU1lUGDBgFw7NgxPvroI5cflhaLhcOHD2OxWJg5c6ZLsLDZbLi7uzN37tzLqve5OJ1OjEYje/fu5b333sNkMrF48WJ69ux53oDUsmVLxo8fz7vvvsvmzZu5++67ycvLw2KxEB4eftbWvrCwMGbOnElYWBiNGjUCalpzZ82aRWZm5lkD4UMPPeQy09h7773HiRMnyMnJYc2aNS7XYTKZiIuLo1+/fjidTm666SY16JaWljJ48GA0Gg3u7u5UV1e7DKg/W8tgRUUFZrNZ/bq4uBhfX1969epFq1at1O0+Pj54e3vL20shhBB1QlEUzGYzGzZsYPDgwcTExLBo0SIWLFjAc889x9q1azl69CiPPvooTZs2VY/LyMjgzTffVHsTXawOHTrw8ssvExMTwyuvvEJhYSFHjx7FaDSyZcsWWrRoQXR0tPoskJSURElJCT/++COHDx8mKioKp9NJQUEBmzZt4vjx4zRt2pQmTZoQEBBAQEAAJ06cwOFwsHv3bpxOJ4MGDZJA+C8jgfAqY7fbKSkpwWq1EhAQgK+vL9u3b2fr1q3ExcXRtWtXvL29ycnJoby8nDvuuIM2bdpcdrkOh4PMzEzefvttjh49yksvvYRGoyE7O7vWvjfffDPx8fG89dZbuLm50bt3b/z8/NBoNLWmJnZzc8Pd3R1/f3/1IV2v1xMQEHDWoHIpAgICeOihh7jhhhuYNWsW3bp14/7772f69On4+flx44034unpiaIotGnThkmTJrF06VL1+NzcXA4ePMiIESMICQmhuLiYHTt2UFFRwbBhw4iKiiI/P1/tSpGYmMjq1atdAqHNZqOgoEBtoSwsLKSyspLTp0/j6ekJ4NId8nxycnL48ssvWb9+PV26dGHKlCk0a9bsosJN//79OXDgAKdPn6aoqIisrCw0Go3LS4Q/8vHxITY21mWbr68vWq32nDOH9evXT/1MURSOHTvG6dOn6dOnj0tLamlpKYsXL6a4uBhFUfj1119ZtWoVdrud5ORkkpOTef755/Hw8KB169aEhoaSm5ur1vPUqVO1xiQuWrSIbdu2qS89KioqsFgsfPjhh3h7e6MoChUVFYwePZoxY8a4vMgQQggh/g5BQUHce++9DB06lBMnTqjbtVotEydOxOFw8OSTT9K4cWNiYmIwm83q76vQ0FCeeOIJxo4de0ll+vn50apVq1o9xNLS0jh+/DhxcXEMHjwYg8GAoijMmzePhQsX0qRJE/V3t1arZdSoUXTp0oWXXnqJwMBApkyZQmRkJBqNRh2mMXToUO68807at29/mXdKXG0kEF5liouL+eabb0hJSaGkpIS33nqLSZMmUVJSQlxcHLfddhv9+vVj7dq1BAcHu/Q9NxqNnDhxgtLS0ksqMzg4mPDwcJYtW8aRI0do3LgxW7du5bfffqOsrAxPT091rN+ZSUjOhNUVK1bQtm1bAgMD+fnnn9m2bRs2mw1PT0/0ej1JSUnYbDbef/99oKaPe2BgII8++ugVnYVTURSKiopIT09X65iWlkZBQQGVlZX88ssv6lu7MxOseHp60qlTJwYPHozZbGbNmjUYjUbGjh3LkCFDyMjIYP/+/QwcOJAbbriB7du3s3//frVMNzc3DAYDP/30E0ePHgXg5MmTFBQUMGfOHLUFNDU19aJCe0JCAr/88gv33nsv48aNu6Rujz4+PkyaNAm9Xk9gYCDr1q0jNDRUDaUXYrfbycjIwNPT85xv/R566CH171VVVXzzzTckJydz5513EhUVRVBQEBqNhpSUFDZv3oyXlxdarZbGjRvToUMHNBoNkZGRJCUl0bt3bzw9PTGZTCxdupSysjJatmwJQGBgYK0gm5SURFVVFSNGjDhr3aqrq1mxYgWpqalXfPpuIYQQ4s+y2+1kZ2eze/duFixYwPDhw/H29mbGjBk89NBDDBo0iODgYLy8vOjQocMVK3f//v1otVpatGihzgUBNeP6zzWBTZMmTbjjjjv473//y7Jly/jPf/5DcHAwx48fZ/r06bRr1464uLhax9lsNrKysiguLqZp06Yy2ds/kATCq4ybmxuNGzemsrKS5cuXU1paSlRUFO+88w7ffvstn332GWvWrKGqqooXX3zRJVTl5eWxaNEiDh48eElldu/enQcffJBevXrRvXt30tPTycnJwWw2s3jxYoYNG6bOtmm1WklKSkJRFBYsWEBRURENGjTA4XCg1+spKChg+/btdOvWjTZt2nDdddep5VRWVrJixQqaNWvGfffdd9n3SlEUjEYjKSkpZGdnc/LkSRRFoXnz5vj4+GA0GikvL8fhcKhjCTt06ECPHj2Amq6W48aNIykpiYULF5Kfn09kZCTJycl89NFHmM1m2rdvT15eHhUVFbRq1Ypnn30WQJ3Epm/fvi6Tmri5uXHs2DH69u3rMkNpYWEhZWVlF+wm27BhQ9q2bfunxsCd+bdgt9s5fPgw0dHRF91SlpGRQXx8PM2bN3fpwnIupaWl7N+/n4iICE6fPs22bdsYPXo0UVFRahfQM4GwXbt2HDhwgAYNGtClSxcWL17MoEGD8PLy4sSJE+zbt4/Ro0czfvx4oOZeGQyGWnVv27YtEydOPGt9KioqOHbs2EVdqxBCCPF3KCsrY8OGDWzevJnff/+dQYMG8cwzz2C1Wvnwww+ZO3cuhYWF3H333Ve0C2ZFRQU//PADsbGxLuFMURSKi4vPO9/E9ddfT15eHosXL6ayspKYmBiWLFmCv78/b7755llnFy0qKmLevHmsW7eO6dOnM27cOJcQKq5+EgivMoGBgdx2223k5OTwzTffqNu1Wi033ngj+/btY8GCBbRs2RKz2ewSMiIiIpg8eTJGo/GSyvTz86Nx48a1uukdPnyYxYsX8/TTT6vr+1VWVvLhhx+yb98+mjZtqoYHvV7PsGHDiI2NJS4ujoCAAB555BGX7gZLly5l48aN3HPPPURFRV3ObQJqWqm2bdvGF198QVJSEu3ataNt27Z4eXmp4+JSUlJwd3ena9euaLVadDod7dq1A2rG0TVo0EBdJsLd3Z2CggIURaF79+7qUhlPP/002dnZ3HPPPeoAcLPZzG+//UZeXh4vvviiOsavoqICk8nE0KFD1S4ViqIwYMAAunbtSr9+/S77uv/XmbGHWq0WX19fMjIyOH78OHfeeedFBcvS0lJWr15NZmYmjz/++AW/Nw6Hg9TUVI4cOcKECRPw8fHh119/xW63c//992MymVAUBQ8PD/W+rF27lg4dOnDzzTdTVlbG3LlzCQgIOOuyEg0aNFBfOgQEBKhdZjMzM/n555/PWiez2czp06dlTIMQQog6ZbfbSU9Px2g0cvDgQZKSkggLCyMuLo6bb75ZDUpTp06lYcOGpKWlUVZWdsV+f5lMJtauXcvJkyeZOnVqrfCXlZWlPiOdjZubG9dffz3x8fF88skn2O12goODmTNnzjmfDzQaDX5+flRUVJCSkoLFYpFA+A8jgfAfwGKxcOjQIdavX8/evXt58sknsVgsfP755xQUFHDbbbcRHh6Ol5cXMTExV6zcn3/+mUaNGrmMDzszYYivr+9Zj4mMjGTixInMnDmT+fPnM2nSJEJCQli7di2zZ89m1KhRZ+0fbzKZ2LNnD/n5+fTv35/w8PAL1s/pdKLX62nevDlms5nhw4czfPhw5syZw/z58wkPDyciIoJrr72Wbdu2ceTIESorK5k/fz6RkZFUVVVx6NAhdu3aRW5uLomJifj6+qqLuP7yyy9AzdqDX375JcXFxTz99NM0bNgQm81GRkYGqamptWYpPZv4+HgKCwsvuN+lcDgcZGVlsXv3bo4dO0b//v3p27cv69evJzs7myZNmuDm5nbec5hMJjZt2sSGDRu47rrr6N+//wV/iJeXl7N27Vp8fX256aabaNCgAcnJyWzevJmuXbvidDpxd3ev1UXlj12ZnU4nTqfzrN07rVYr8+fPZ+TIkfTq1QudTkd0dDTZ2dl8//33Z63TmXNFRkbWGjN54sQJfv31V9q3b6+2DgshhBBXWlVVFdu3b+fbb7/F19eXY8eOYTAY6NmzJ8HBwRw9ehS9Xo+iKNjtdtq2bYufnx8FBQWEhIRc1uSAZ+aC2LRpEytXrqR///707t0bjUbD/2PvPcOjKtf+7XNaeu+kUVJIICGU0ELoJFRpIk1B0AcFQQFF3f51KyiwLQiCBZQuKJuu9CYgNSSQRkghhISEVFInM5lMfz/kmPUwJBS3brfPu+c8jnzIzCr3WmvWWvfVfld5eTlSqZSGhgYyMjKYOXOm2boNDQ2UlpZy9+5dcnNzSUlJoaysjKFDh2JjY0NxcTEbNmwgJSWF8PBwfH198fX1xcvLC6lUire3N4MHDyYhIQF3d/c/pKWYhT8Xi0H4F6e4uJj9+/eTlJSEg4MDc+fOZfTo0cjlcrZv387BgwdRKpW8+OKLj/T4/Cv7PXjwIKNGjTKrQ9Pr9dTV1T0y9bFv377U1dWxdu1aqqqq8PLy4siRI4wZM4ZZs2a1GLUqLS1l06ZNnD9/nhUrVjBmzJjHGib29vYMHTqUdu3asWrVKqDJSzVs2DCuX79OXl4eQ4cOJTIykrS0NE6fPs3gwYMFo1mv11NSUkJBQQEODg4MGDAAf39/Kioq2Lt3L8888wzW1tbEx8fj5+fHxo0buXr1KiNGjPhXTukfhsFgQC6Xk5qaypIlS6ioqCA4OBhHR0eSkpI4dOgQer2ePXv20KZNG4KCglpUKVUqlZw4cYKtW7cSEhLCtGnTmjWxfRCNRsOhQ4c4e/Ys8+bNIzAwEJFIxPDhw3FycsLd3Z3c3FxsbGyEliTQdH1LS0sZPHgwbm5u/P3vf8fW1pbr16+TlJQk1K6KRCIqKiq4cOECI0aMEKKD7dq1QyKR0LlzZ4qLi3F2dsbW1lZIBXZ3dycjIwMfH59mx3ro0CE+/vhj+vTpw08//fQHXAELFixYsGChOUqlkuPHjyMSiVi4cCHV1dVcuXKFkydPcvbsWQwGg+BENhqNgjOzrKyMtm3b/i6DMDU1lU2bNpGfn0///v157rnn8PLyora2lo8//piGhgZUKhU6nY7+/fsL6zU0NHDixAn27t2LVqtFJpPh6enJ5MmTiYmJwdnZThQUBQAAIABJREFUmdTUVC5cuEBycjIpKSlotVratWvHwoUL8fX1pbCwkOPHj+Pp6UmPHj0s0cH/g1gMwr8garWaxMREFAoFly9fJj8/n1GjRhEbG0vHjh2RSCTY2dnxwgsv4OXlRUNDw+9W7LwfUy64SqVi3LhxZje2VqulrKysmULl/UgkEqGO74cffsBoNOLr60t0dPRDC5mdnJyIiori/PnzVFVVodfrH/tAMbWLePDYg4ODWbhwIevWrWPnzp3cunWLCxcuMGTIEF577TWhNs3Ozo7+/fvj7OwsRLxmzpzJnTt3KC0tZdKkSWRlZXHw4EE8PDx44403HtoP8M9Cr9eTm5vLpUuXMBgMuLi4MGbMGKKioiguLmb16tW4u7szfvx49u/fzyeffMKSJUua9epTKpUcPnyYNWvWYGNjw4ABA1CpVKSnp+Ps7IyPj08zD5/BYODgwYOsW7eO+Ph4nnrqKcFg8/f3Z8KECYjFYs6fP4+dnZ2wvlwup6SkhMDAQL7++muzbXp6ehIREUFiYiLbt28Hmjys3bp1o23btojFYpRKJT/88APDhg2jR48efPzxx8TExBAdHc3evXuRy+WMHDmSgoICjhw5QmBgoJkCWocOHQgLCyMjI+MPvx4WLFiwYMGCCQcHB55++mnc3d0JCQlBLBYzePBgbt++TXV1NWq1Gq1WK8xfpFIpUqmUgICA391H2srKiqioKEaNGkWPHj2EWj8bGxs6depEXV0dAOPGjTN7R4rFYlxdXenWrZugPGpqOWGaXw0aNIiYmBhu375NSUkJxcXFGAwGIWBQXV2NTCbj2WefFUqMLPzfwmIQ/sWora1ly5YtHDx4kO7du5OQkIBSqSQqKor8/HzKysqQyWQYDAY0Gg0ikQi1Wk1ycjI9evT4Xb39NBoNqampbNu2jWvXrjFnzhzat2+PWq2mpKQEGxsb8vLyyMvLY9y4ccJ6RqOR2tpabt26RVZWFsnJydy4cQMbGxveeust7OzsOH/+PEuXLmXXrl107dqVkJAQQkJC8Pf3F7xRUVFRBAcH4+Pj89hURxM6nQ6FQiE8YI1GI9XV1VRVVaHT6YQ+O3fv3qVLly7I5XIUCgUODg4oFAouXLjAvn37hDo/Nzc3bt26JXjwOnXqRGVlJXv37sXT05PXXnvNbP8JCQnMmDFDMIxycnIoLy/n3XffNbsWLfXWg/9NnRSJRGg0mscqZIpEIlxdXRkxYgRxcXFERkYiFos5duwYO3fuxM7Ojjlz5tCzZ09CQ0N59913Wb58OStWrDCL9JqMx6SkJHx9fVm7dq1wDL169eKVV14xSxVubGxkw4YNbN26ldjYWGbPni28vHQ6naDmaupTdH99YHJyMlKplE8//ZTFixdTXV3NZ599RkhICLa2tri7uxMREYFOp8NoNCISifD29sZoNKLX69m+fTupqaksW7YMg8HA7du3kclkDBw4EKlUyvnz5xk8eDDdu3fn5MmT7N27F29vb0Fkp3///mzZsuUPjaBbsGDBggULD2JjY0OfPn3M2kUFBASYicz9uwgPDyc0NBSZTGaWKWNrayu0vADMsndMY46JiaFXr16PTPW0sbGhQ4cOdOjQQUh5NTnu27Vrx8yZM/H09Gy2fQv/N7Bctb8YjY2NQquDUaNGUV1dzblz50hLS+PSpUs0Njai0+kQiUSIxWJBKEUmk9GjR4/fte+DBw+yfv16HB0dWbRoEUOGDBHS8p5//nnEYjGNjY14enqaiaPU1NSwYcMGIZLWpk0bpkyZQmRkJCEhIchkMuLj40lPT+fKlStCfn1ERATvvfcefn5+JCYmsnXrVqKiooiKinpkI/b7SUpKYunSpdTU1DBkyBC+/PJLjhw5gkwmw9/fn88//5y2bduSmppKSkoKb775Jn5+fixbtgylUsn58+cJCgpizJgxlJaWsmjRItLT0/H09MTGxoagoCACAgLo0qULGzdu5PTp03Tp0gV7e3uGDRsm9F80ERERIRg1ps9N/7fEtWvXWL16NZWVlZSVlQmR1YchFosJDg4WitHv3bvHxo0b+fnnn+nduzdTp04lMjISGxsb+vfvz9tvv83bb79NamoqvXv3Frbj4+PDRx99hFqtbrYPT0/PZipiZWVl7NixgylTpjBp0iSziKNWq+XAgQN8//33gsDNokWLhG0cOHCAAQMGMGjQIFxdXTlz5gz5+fnk5OSg0+maGctGo5GcnBz69u3LlStX+Pbbb3nnnXcIDQ1FpVIJPSNNfQxPnz7NrVu3eOqpp4iLi+PEiRMUFRXh5eVFXV0dq1ev5vbt282ikxYsWLBgwcIfzZP0Dv53YIo2toRIJHqkofZbUzxFIpHZOs7Ozg/NALPwfwOR8UkUMSz8aWi1WvLz8/Hw8BAiMDU1NVRXVwvGoCmiZDIKJRIJ7u7ueHp6/q7U0dzcXIqLi/H19aV169aCp0ij0ZCUlIRarUYikeDj40NwcLCwL41GQ2ZmJtXV1fj4+AiN3G1sbMwejBqNhurqauRyOTU1NUgkEiIiIrCxseHixYvcvn2bmJgYWrdu/cQepvLycq5fv46DgwMhISHk5eVRW1uLp6cnbm5ueHl5YWNjQ319PeXl5VRXV6NUKomJicFgMFBeXo6joyNubm6Ul5eTlZWFRqPB399fUB41YUqRCAgIwGg0otFoWjSoHsRoNHL06FFiYmKaKXSVlpZy+fJl5HI5Tk5OhISEEBwc/MT9A9VqNTdu3KCyspJOnTo1+w00NjaSmJhIZGTk70pHUalU3Lx5s8UaB4PBwN27dykoKECv1+Pg4EBwcLCgEJqamopOpyM6OlpoFVJbW4tKpUKv15vVVJgQi8W0adMGtVrN1atX6d27N46Ojuj1egoKChCLxbRt2xalUklZWRnOzs54eHhQWVnJvXv38Pf3x9HRkfr6er7++mv69etHjx49LJ5LCxYsWLBgwYKFB7AYhBYETBNzsVjczMNlNBqFSXtL0Tu9Xi8YqE+CaXum5RsbG4V89N/iXTMVZZv2bYqePswwNqUhtmQYmLYFtHgOfg8mCeYHz4/BYBCMfFM9wW/dr16vx2g0PtTY0ev1f2iN6cMwXdP7o6Pwv2mx/6oxptPpzNZ9VMT1QUwCPE5OTk/827RgwYIFCxYsWPhvwmIQWrBgwYIFCxYsWLBgwcJ/KRaXuQULFixYsGDBggULFiz8l2IxCC1YsGDBggULFixYsGDhvxSLQWjBggULFixYsGBBQC6XU1tb+9hWSNBU111XV0dVVZVQhw9N9etarZaioiJUKtUT77uhoYHi4uInXsckGne/YnV9fT0lJSVoNJon3m9LKJVK6urqzI4Lmo5ZpVJRV1cn1M9rtVrUanWzvz+6MuvevXvI5XJhHKZx1tTUNBvn/eP9rX+PQqVSUVhY2Ewl3KQZ8ChMrcpMfREt/DWwSO5ZsGDBggULFixYAJom9StXrqSoqIgPPvigmTr2g6jVatauXUtxcTHLli3DxsaG2tpaMjMzaWxsZN68eXz99dd06NABaGqg7u3tjV6vRy6X09jYaLa9hIQE1qxZw6uvvmrWLsmEj4+PICym0WjYsWMHR48eZcWKFQQFBQFw8uRJ1q5dy+eff06nTp3M1jcajcjlcsGogqa2C87Ozs0Uvjdu3EhKSgqrVq0y6y2sVCrZvn07ycnJfPXVVygUClJSUigrKzPbT2NjI+PGjRPaMJWWlqJQKB55Ph+kVatW2NvbIxKJqK+vZ+rUqXTr1o25c+cilUrx9vZm27ZtXLx4kU8//RQPDw/kcjkikQhnZ2ckEgklJSWUlZU91li7n3bt2uHm5ib0eDYZfwaDgatXrzJnzhyOHz+Ol5cXIpEIg8FAXl4eRqORoKCgh/Y0bGxs5IMPPkChUPD3v//d7DtHR0dcXFxaFMIzicSZFO8dHBywsbH5DWfyyVGr1UJvZSsrKxwdHf9QcT6DwYBCoTA7liftv/3vwmIQ/oX5rWqK0LIC6L+ThylLPm6dP0rB81/dlsFg+I+oTv6Rx/64/UDzfkh/luKoaQx/1LH+meO2YMGChf8mVCoV1dXVwoS/vr6eS5cu0b59e2pqalqMFkmlUjw8PFqc9GdnZ7NhwwZSUlKIjo5GqVRy8+ZN/vnPf6JUKrGzs2PLli3U1tayZ88eUlJSzNYvKSnh1q1bbNmyhRMnTph9J5PJWLFiBTKZjPr6evLy8khLSxMMl+rqahwcHEhMTBRaD925c0dY39/fH61Wy86dO9m/fz/u7u6o1WocHR2ZNm0aAwcONNufWq1Gq9U2O8aamhpOnDhBjx49sLKyoq6ujqSkJNLT04VlSktLycnJITY2VjAIv/rqK3755Zdm21MoFFRVVeHi4tKsn9/y5cvp168fIpGInTt3cufOHd59910+++wzxGIxixcvFraRm5tLSkoKZ86coXXr1kyePBkPDw8OHTrE5s2bzSJ6Wq2W8vJyjEYjAQEBzca0dOlShgwZglQqpba2lvPnzwuq5jk5OdTX13PixAlcXFywtrZGq9Wyd+9evL29mT9/Pv7+/s22aUKj0fDrr79SW1tr9nl8fDyTJ09udg7UajVpaWkcOHCAiooKrK2t6dOnD3Fxcc36Jv8eDAYDFRUVnDt3jitXrtDQ0ICnpydDhgyhZ8+eDzVyfws6nY6UlBROnDhBcXExzs7O9O7dm379+pk5Hf5sLAbhfxBTz0GdTkd4eLjZ5Fmv13PhwgXCwsIE78vD0Ov1ZGRkoNVq6dChA3Z2dn/G8AGoqqoiPz8fPz8/fH19H7ms0WikoqKC/Px8unfvjkgkoqGhoVkvP5FIhKOj4yMbpWq1WgoKCpDL5URGRj6xZ8VgMFBWVsatW7fo1q0b9vb2T7SO6WFdWVmJp6cnbdq0eex6arWakpIS/Pz8sLKyIj8/n+LiYmJjY59orL+HgoICysrK6Ny5s+Dx1Ol0HD9+nOjoaLy9vR+5vskTV1ZWRqtWrYSHsylNpqKigvr6egICAlp8gDU0NJCcnEz79u3x8PB4IsOwsLAQtVpNQECAmddPrVZz+PBhhgwZ0qwHIjS9WEyevEchEolwcnL6j3vhLFiwYOGvREFBAbt27aKyshKAO3fukJWVhbW1Nd99912LzlM3NzemT5+Oi4sL6enp3Llzh3v37pGSksLNmzepqKjgrbfeYuDAgZw8eRJfX1+8vLxITU3l6NGjQFOksF27ds227+TkRF5eHu3btyc0NNTsO1NrpsbGRk6dOsWePXsoLS3F2dmZFStW0LVrV3r06MGNGzeorq5m+/btWFtbo9PpqKioYN26dVhbW3P37l0Ann76afLy8khISCAzMxM7OzszA7CgoICKigouX75Mu3btaN++PXq9nps3b3Lnzh0WLFhAQUEBLi4uzJw502ysJ0+eZPPmzcjlcurr63F0dGTq1KnEx8ebLdfQ0MDhw4c5c+YMU6ZMITY21uyd2aFDByQSCVeuXGHJkiXExcUhFovx8fHh+++/p2fPnhiNRrKzs/nyyy9pbGwkODiY8PBwYT743HPPMWLECMrLy4XtVldX88MPP6DT6Vi4cKHwuUwmw9XVFR8fH6HlU1VVFT/88IOQAltVVUVtbS27du0CmtJYGxoa6NWrF9OnTzczBu/evUt1dbXgWGhsbKS2thZ/f3+GDBlidi68vLyora3F3t7erN3UjRs3mD9/Pt7e3nTu3Jnc3Fw++OADSkpKmD9//h/mMNbr9Rw+fJgdO3bg4+ODn58fFy9eZO/evWzatImePXv+7n0kJycze/ZsnJyciIqKoqioiDt37uDt7f2HbP9fxWIQ/gcwGAyo1WpqamrYunUrdXV1LFu2zOzHr1QqmTNnDh9++CHx8fHIZLKHNivXarUcO3aMq1ev8s4779C1a9eH7luj0ZCWlkZNTc1jx+no6EjXrl0Fj0hxcbGZ9wsgIyOD48ePExMT0yy1o02bNoSEhAjHpdVq2bFjBxcuXGD79u00NjZy5swZUlJShGVMEcfnn3+etm3btjgug8FAbm4uy5Yto7GxkdWrVz/SE/XgutnZ2bz//vu89dZbjBo1qsWXndFoJD09nZKSEqqrqyksLKS0tJTq6mri4+MxGo1UV1ebrePs7Iyfn59wneRyOWvWrGHYsGHEx8dz8OBB9u3bx9mzZ59orCbu3r3bLKXG1tYWPz+/h66zb98+Ll68yJo1a4Rzc/fuXWbPns2OHTtaNAhramq4c+cOlZWVVFZWkpeXx82bN5k5cyZ+fn6UlpZSVVVFYWEhWVlZiEQiXnzxRaKjo5ttKz09nTfeeIOVK1fi7u7+WINQoVCwdetWdDodc+bMwcfHR/iuvr6eadOmcfny5WapPwC3b9/m8OHDNDQ0CL+jhoYGxGIx1tbWwr7lcjnTpk0T0pYsWLBgwQLY2dkRGBiIs7MzpaWl3Lp1iy5duhATE4ONjQ319fXcuHGDnj17Cs9TR0dHbG1tyc/PZ+3ateTk5KBSqdixYwdubm6oVCoSEhLw9vZGq9Wi1+spLy83S9M0pYw+6BTWaDQYDAahJu9+dDodNTU12NjYkJWVRXl5ORMnTgTg7NmzXLt2jXv37qHT6Rg4cKDgqK6srOTbb7/lq6++wtraGolEQlBQEOPGjePatWvcunWLjIwMrl69Sn19vbC/mzdvUlNTw7p16xg8eDDt27dHqVSye/duWrVqBcDq1avp3r07OTk56PV6ZDIZEomErKwsVCoVe/fuJS4ujkGDBtGxY0ez49FqtSQkJJCdnU337t2ZOXMmvr6+Lb4zf/rpJzw8PDAajXz//fdoNBp8fX05deoUHTp0wMHBgaFDhzJ48GACAgIEx3BAQAD29vaUlZWxbt06PD09gab3ZE5ODgaDgb179wrjcXJy4plnnhGcp3K5HHt7e1atWgU0zaOSk5N56623WLp0KZWVlWzatAmFQsH48eNxc3Ojrq4OR0dHxGIxu3btIikpCVdXV0QiETqdjhs3biCRSMjIyBCOT6VSUV5ezvjx45kyZYrZnLi+vp7hw4ezYMECnJycqKys5PXXX+fnn3/m+eef/8OihFKplI4dO/L3v/+drl274ujoyI0bNxg6dChHjhyhR48evyvzyWAw8Mknn+Dg4MDatWsJDw+ntraWkpKSFqO0fyYWg/A/QG1tLfv37+f27dtcvnwZlUrFF198YWaYaDQaqqqq+Omnn7hx4wZ+fn78z//8D42NjVy8eJGSkhKzbZaVlZGRkcGWLVvIyMgw+8EGBwcLxlpjYyO//PILmZmZjx1nYGAg4eHhZgbhg+kbxcXFFBcXk5KSYvYQBejfvz9t27YVburS0lL27NnDjBkzsLGxoaKigl9++YWMjAx69eoFND20T506Jaz7ICbP3HfffUdaWhoBAQGcOHGCMWPGPNEDQSqVEhERQZcuXdi2bRs9e/Zs0TgyGo2cO3eO9PR05HI5e/bs4fXXX2fy5MkEBATw448/kpqaipubGwB1dXUEBwczc+ZMoYbBzs4OKysrPvroI4KDg9HpdP/Sg2TdunUUFRUJEVORSER4eDivv/56s2Xv3r1LWVkZ58+fx8XFhZycHOrq6ujQoQMnTpxAo9GgVCq5fPkyADY2Nvj7++Pp6UlycjI//PCDYEw5ODjQsWNHnJycWLt2Lbm5uULkNjAwkKioKFq1akVDQwNXr14lKytLGMelS5eoqKjg9OnTZg/8+69DSEgI/fr1A+D69eukpKQwZMgQnJ2dSUpKIjc3F51Oh1wuR6fTceDAAVJTUxGJRAQEBDBgwAAA8vLyOHDgAEFBQcJv5sCBA7i6utKnTx8h2rhixQq6d+9uMQgtWLBg4T5at27NzJkzUavVfP/997Rp04a5c+cyePBgpFIpN27c4NSpU7z66qtmk3Roeoe88sor7Ny5k8rKSp599llycnK4fv06Go0GjUaD0WhEr9ej1+vNatjKyspYv349AEFBQeh0OrKzs8nIyCA8PBylUsnVq1cxGo1CDd3GjRvp2rUrYWFhyGQyOnXqxCuvvAI0TbZPnTpFTk4OvXv35tVXXxXe73l5eSxfvtwsK0ir1aJQKGhoaECv1xMVFUW7du0wGAw4OTkhEonYsWMHN2/e5OWXXyYoKAij0UhiYiKHDh1i6NChVFZWkpycTI8ePbh16xa5ubn06tULf39/oqKiiIqKAmh23qBpPpOVlcU333xDUlISgYGBXL16lTZt2hAWFtYsPXH8+PF4e3vj7OyMg4MDdnZ2gpiPSqWiTZs29O/fH19fX3Q6HTt37sTe3p4ZM2bg4uJCRUUFmzdv5tNPP0UkEqFQKLCzs8NgMAhGYm5uLunp6fTp04fw8HAALl++zJUrV4TIqdFopKysDLlczsqVKykuLqawsJBu3bpx5coVrly5QkxMDH379sXBwYG8vDxkMhkjRowQUn3v3LmDSCQiJCREyBS7d+8eCoUCiUTS7Nj79+8vpM1C0/yqc+fOZGZmUlNT84cZhCKRSJiPmnB2dkYsFrd4DX8rZWVlnD59ms8//1w4vy4uLv/RVFETFoPwP4DBYKChoYH6+noaGxvRaDTI5XIzg1Cn05kt19DQADR5STZt2kRxcbFgeJiWj4yMpKqqirNnzwo3TUpKCv369RMMQltbW8aMGUP//v0fO047Ozuz9NPw8HD69u1LQkKC8JlEIhFulPtTPMPCwujevbtZet727duxt7dn2LBhZGdnC7UEw4cP5+233wYgKyuLW7dutTgevV7P5cuX2bx5M2VlZbzzzjuUlZWxf/9+SktLmTBhAsHBwWapA7du3eLMmTNmKSB6vR6NRkN6ejpfffUVrVq1wmg04unpSZ8+ffDz80MsFhMfHy+8EPft28ezzz5L586dKSsrIz8/H2tra+Li4gA4ffo0+fn5QrF4fX09SqWSCRMmkJ2dTV5eHpWVlej1ekpLS5sdm7W19UPTZPfu3Uvr1q2FayYWix+annvixAnOnj3LvXv3kEqlbNmyBWdnZz777DN2796Np6cnBw4cAJq8cSKRiMmTJxMXF0dJSQl1dXWMGjWKnj174uPjg52dHdbW1rz66qtERETw2muv4evri4uLi/Abq62tpaCggKSkJADy8/NJS0uje/fuFBQUmNVvmLCyskImk9GvXz/q6uo4c+YMdnZ2dO/enfz8fK5cucKNGzfQaDQ0NDRgMBi4du0a+fn5SCQSOnfuLBiE0PRbDQ4OpnPnzgCcOXMGLy8vOnXqhKOjo3DeLFiwYMFCc4xGI2lpaRw+fJgePXrQrVs3s4yLtLS0FmsJ3dzc6NWrFwkJCULUrbCwECsrK5ydncnJyUGpVJKamkpISEizkhYvLy9Gjx5Nnz59OHfuHDKZjMjISMaMGYOjoyOnT5/G39+fiRMnYm1tzcaNG83W1+l0QhRRp9PR0NBA+/btcXNzIycnBwcHB+zt7WloaEAkEmFjY0NjYyNarZakpCQ++ugjysrKKCkpYdCgQdTX11NfX0/Pnj3x9PQkISEBuVxOTEwMLi4uVFVV8dlnn5nV4rm5uTFkyBDu3LlDfn4+rVq1onXr1sL3MpmMXr16NZvjZWZm8vXXX5OdnU1QUBAKhYKTJ09SU1PD2LFjiYuLMzMU/P39OXfuHMHBwcI2dDodw4YNQy6X89NPP/HFF1/g5uaG0WgUUlAfTKccNGiQUG95+/Zt9Ho9gwYNAprepffu3TNb3t7eHi8vL2EepdFoyMzMRKvVkpuby9ChQ/Hy8jJbxxQdNNGmTRvKy8uprKxEoVBQU1ODtbW1kEpqZWVFZGQkwcHBLaYRg7kmgkm91t7eHldX12bL/l40Gg1FRUUUFhZy6NAh3NzcGDx48O/WRbh+/TpqtZrg4GC2b99OTU0Nvr6+REdHm/1m/hNYDML/AO7u7syZM4fq6mrWrFlDZmYmQ4cONbtpGxsb+emnn5g+fTpDhw41S6k0GAz07NmTMWPGAAhRqpb44IMPzNINZTKZ4JX4rdjZ2eHl5WV289XW1mJlZYWDg4PZ556enoJXBSAxMZF9+/bx0UcfUVNTw9q1a+nfvz8Gg0GQhwaoqKhoUSa6vLycPXv2cOjQITw8PHjzzTfp168f1dXVuLm5cfDgQbKysoiLiyMuLg4fHx/EYjE1NTXcuHGjWdqJ0Wikd+/eVFZWkpmZSWpqKt27dyciIgI/Pz8aGxvR6/U0NjYKRl52djYGg4Ha2lqkUimRkZFMmDABaEqpuHjxorD9EydOcOLECRoaGlAoFGzZsoXMzEyhruJBOnXqxMSJE5s9EEwRslGjRjFv3rzHXqPbt28jFouZO3cuzs7OXLhwgcuXL3PhwgWuX7/Op59+KnjS8vPzOXXqFFVVVcL6lZWVnDx5Uijyd3V15c033wSaFMceTHeBpgf/6NGjGTx4MCqVilWrVmE0GnnrrbcICQlp8QEqEokEz+S1a9dISUkhPj5ecHiYrqNIJKKmpoaff/6ZmTNnEhYWhkgkwsHBwWx79fX1XL9+XYhSV1RUoFarSUhIECKEv0VdzYIFCxb+WzAajULmTWlpKbNnz6a8vJyUlBQMBgM3b95Ep9Nx8uRJJBIJEokEf39/wsLCAATHXVJSEp9//rngnFMoFNy+fRuNRkNJSQlSqRSJRML48eOBpnnCxIkT0Wg0LFmyhPPnz6NWq4mOjubgwYNUV1djZ2eHSCRCrVZjbW3N0qVLhdQ6tVrNhQsXhHdqeno6QUFBzJo1i5SUFL755hvmzZtHr169UCqV2NjYmM2zrK2thfTWyspKQU3TlGEyatSoFs+VVqs1c0gaDAbS0tKEtMjk5GROnTpFSEgILi4uWFlZERcXJ7yLdDodFy5cYN26dTQ0NDBnzhwuXbpEQEAAY8eOZceOHWzYsIHc3FymT5+On58fIpEIuVzOwYMH2b59O2KxmHv37nHkyBEKCgoICwvcX5XUAAAgAElEQVQjLCzMTA1z3LhxxMfHmxnhRqORTZs2CRoO169fx2AwsGnTJqCplv9BoZfY2FhiY2MxGAzcuHFDcMJLpVLCw8Px9/cX9mFra0t0dLSZzoJJYE6pVGIwGIR0Y7VajbOzM05OTjg6OuLm5kZiYiLFxcXo9fqHRuSMRiPFxcVcunSJPn36PHIO/K9SVVXF+vXrOXv2LLdv3+b5558XHM6/h+LiYnQ6HT/++CPQFKAwlXzNnTv3icuf/h1YDML/ACKRCKlUipWVFVKplLy8PPbv32/mEdFqtcjlcmE50w1ubW1NdHQ0rq6uZGZmCnVcD2K6Afv06SNsV61Wk52d/ZvH2759exQKBe+//z5ardYs2maqCbh7967ZgzYvL4+jR48ye/ZsXFxc+H//7/8JKlV37txBIpEQGBjIr7/+yokTJ8jJyQGaJva3b98WtlNdXc3evXuFZYqKioiLi+P06dOcOXMGaKo/q62tpbCwkMLCQk6dOsXzzz9PbGwsYWFhvPrqqw/tqVNXV8ePP/5IQUEBcXFxgrx2dXU1W7dupaSkhJqaGvR6Pdu2bROUzB6XOhAQEECPHj3MjNvk5GQiIiKIiYkxW/bSpUtcunSJoUOHNtuOQqFAq9Xi6elJcXExEokELy+vR0a7goKCiIuLw9PTE5VKxa+//sry5csZPHgwU6ZMEaKQaWlpJCcnm0VxbW1tadWqFb6+vmRnZ3P69Gnmzp0LNBn13333ndm+2rRpw8CBA4WUhxMnTgge1e+++66ZaI9IJKJ169a89957QJMBu337dtLT07GxsWHPnj14e3sTGBiIVCoVak9MtaUGgwGJRNJMGMbd3Z1BgwYJBdkZGRn4+vry9NNPC0I0pvoHCxYsWLDQhMFgIDMzky+//JIzZ87Qpk0bHBwcSE1N5eLFi4ISpVarZd++fYjFYiG7IzQ0VFAUPXXqFEajERcXF8FQNDmjt2/fTmRkJBEREYhEIiHDxd3dnZEjR5KZmUl6ejrdu3fn6tWrXL58mejoaEaMGEGPHj3Ytm0bX3zxBQsWLOD1119HLBZTV1eHWCzGyclJcKSaIpNeXl6MGDGChIQE1q9fT9u2bZHL5WaiZDKZjK5du/Lmm2+SnJzMhg0bkEqlDBw4kOTkZPbv399ieYGrqyuLFy/mzJkzFBYWAk2O8bNnz+Ls7MzChQtJSkriwoULDB8+nLCwMMRisaAtUFlZybZt2zh06BBeXl68+eabeHl5kZiYiJWVFd26dcPb25uff/6Z3bt3c+fOHRYtWiRkhBmNRo4dOyYYWPfu3RNEXlxdXXnllVdwd3cnJyeHqqoqvLy8zOZmIpGI4cOHIxaLhV6Aer2eESNGAE1ZZfdngUFTNtGVK1c4efIkaWlpZGVlodPphBTW+4VqHBwchOtvQqvVIpVKee6553BwcEAkEuHj48OuXbvIz883W66+vp5OnTo9co6jUqnYsGEDjY2NPPvss/8W5XZ7e3v69u2Lp6cnV65cIS0tjcuXLzN48ODfvW3T8Y8fPx5bW1uOHTvGzp076dy5M5MmTfoDRv+vYTEI/wKEhYXx7LPPNosQtiRNbG9vz+TJk6mqqmLLli3NbgSFQkFCQgJHjhwhPj6ep556Spg8V1ZWCqmZ0OSl0mg02NjYIBaLhcm3lZWVcDOKRCI2bNiAk5MT3bt3B5oeSKWlpfz000+UlpYyevRounTpQnZ2Nnq9ntDQUOHh5+LigtFoRCwWM2zYMM6cOYNGo+Hrr78W1DejoqIYN24c0FQDZ1L/Mu3/3Llz+Pv7M2XKFBISEpqJ6zg4ONCnTx8h5/706dNAU4qgo6OjkDL4IEqlUrjRn376aUaPHi1EnpydnRkzZgxKpZKVK1cCTZGw6dOnU19fz/Hjxx95TaOjo+nWrZvwv8Fg4LPPPmPkyJHMnDnTLDVULBZz+vTpFtUvTU1v16xZw8aNG4XI5KxZs4S0kQfRarWoVCpUKhVqtRqpVErv3r3p2LEjn3zyCYsWLcLGxkao6bg/Vz8gIIBJkyYRGRnJyZMnzUSESkpKSElJoba2luvXr9OjRw8MBoOQypqdnc2WLVvIysri2WefpVOnTma/T6PRSHJyMj///LNgEBoMBvz8/OjTpw/Z2dkoFArmzJmDRqNh6dKlQmNhsVjMp59+KtRNTJo0icmTJwvbLisrY9euXZw7dw5oUiS7c+eOEMEGnqjBsgULFiz8t1FWVoZYLGbkyJFCumBMTAwhISFCVOjMmTPMmDEDqVSKWCwW1M81Gg06nQ4/Pz+8vb2ZMWMGycnJfP/99zQ0NODq6oqjoyMXL14kLS2Nu3fvMmnSJKKiogRDJjs7m5KSEnJycrC3tyciIkIw4o4cOUJycjLXr1+npKSETz75REijfLCGUCQSCSUKrVq1Yvbs2SxYsIBDhw5ha2vbrJWBSCRCLBabvafc3d2ZPHkyH3zwAcnJyc0E3SQSCdHR0WbicKZ3lEQiIS0tjYyMDEpKSkhMTBRKRKKiooiOjubNN9/kxo0bTJgwgdGjRxMaGmrmBIem1NBp06bh6+vLypUruXjxouCsNhl0EomEe/fucfjwYaBprpCTk8Ovv/5KTk4OqamphIWFER4ejq2tLampqaSlpQFNcybTnM/KygqtVivMfUwptRkZGXh5eREQEMDy5ctJSkqibdu2PPPMM0I7imnTpjU7n87Ozs3EUerq6rC3txd67RmNRvr27cvJkyeF353pc0dHR4KDgx9pEG7atIlDhw6xcOHCFoXmAEFkTiaT/UsGo5OTEyNHjmTQoEGMGDGCV199lZUrVwqptXK5vNnv6Unw8fFBIpEwbtw4YewNDQ2cOHGC3NxcoEngLzU1lerqarp160ZAQMCf0nbLYhD+BSgqKuLMmTPNRGVaal4qlUqF9AETarWamzdvcu7cOc6ePUtJSQlBQUG4uroSEBAgRLPc3Nx45513gKaJ+OnTpzl27BizZs0iMDBQSLt85plnBHEOkUiEm5sbNjY2TJ06ldLSUrZt28bJkydRKBT07t0bd3d3MjIyyMrKon///jz11FNCIbdUKkWn0/HFF19w/fp1fvnlFxYvXkx0dDSlpaVYWVkREREhpJBkZWWxb98+4dicnJz429/+hru7Ox4eHs2ia/djetj06tULZ2fnR7atUCqVHDhwgPXr19OvXz9mzpwpFFVDk+EdExNDaWkpBQUFGI1Grl69ynPPPUdMTAynTp16+AWleb1aWloaFRUVdOrUiUWLFjFq1CiGDRsmNHsViUQtGoQODg6MGDGCjh070qFDBzIzM9m8eTNVVVWsXr26xbYZe/bs4fTp08hkMu7du4ejoyPz5s1DrVYLzXXnzZsn1B+YDEKj0UhlZSUXL16kuLiY1NRU4WWo1+sZMGAAM2fOJDU1ldTUVF544QXatWuHTCYjNzeX1atXU1RUhKurK35+foSHh5udB6PRSHl5uZnITEBAAC+//DInT54U0jIGDBiAwWDg5ZdfRqVSNTs+qVRq1ig5KiqKt956i/r6euG+uHXrFp6envTv3184RwMHDnykAq8FCxYs/LchFovp2rUrQUFBXLlyhWPHjgHQtm1bYR5gShPt2bNns/dqaGgo8+fPZ9u2bVRVVeHs7Ex0dDTnz5/n1KlTTJw4kddeew2RSMQ333zDrVu36NOnD4DQKmHt2rWCc7pVq1Z4enpy7tw5oqKi6NChA1OmTGHixIls3bqV9957j6+++krYv1QqFVIxH5z8R0VFsWDBAtq1a8f58+fx8PAQvtPr9dy5c4ejR4+Sm5trVjoRERHBBx98gKenJ0VFRY89hzKZjICAAFQqFYWFhdy8eZPMzEwCAwOFWsPWrVsjEokYOnQo06ZNo2vXro8UEnFycmL48OH4+/vj5eVllpVkKg2pqalBqVQKn1+7dg2xWEyHDh2YNm0aERERQpP6r7/+mtzcXIxGoyAqo9PpqKysxGg08sknnwBNgYOioiLkcjklJSW88sordO7cmYEDBxIaGkpBQQHV1dVcunSJgoICYd+mLJ4XXnjBLEJoavXl6elJeXk5GzduZNq0aezbt48xY8awbds2MjIyGD58OMePH8ff3/+RqZk//vgjK1euZOLEiWYZT/ejUqn45ptvKCkpYe7cubRr1+5fjiLa2toSHh5OZGQke/bswWg0kpCQwMcff8y8efOatRB5HO3bt0ckElFUVCQIDpmi7tCUnbZhwwbu3LmDvb09hw8f5u233yY0NPTf3sPaYhD+BTDJKz9YcPw4tFot58+fZ+LEiZSVlREYGEh0dDS9e/embdu2zR4itra2QjRHqVSSkZFBQECAUHOXnZ1NTU0N0dHRRERENNufyWBJTU3Fy8sLg8HApUuXSE9PJzY2lhkzZnDv3j2hn4ppeVPE0dQjqK6ujm+++YbWrVsLaYCmNFStVmuW3imRSIS6tdmzZ5s9tFvCVHP5qF5zCoWC7du3s2XLFoYOHcorr7zy0L5869evJyQkhJycHMaMGcP777/PkiVLHjmGlvj222+FuopLly7x6aef4u/vT2hoKCqVCisrqxbH7OLiwvLly3F0dMTBwYHevXtjNBrZunUraWlpLRrIvXv3ZtiwYTg7O3P27FkuXbok9AKcN28eq1atokuXLohEIrRarRBxNQneHD9+HBcXF1QqFaGhochkMlQqFYGBgYSEhFBVVYW1tTXt2rXD19eX27dvs2rVKgoLC5kxYwY//vgjBw8eJDExsVmE0FR3YMLKyori4mJ27dqFvb09YrGYL7/8kn79+gm9ix7EwcGBiIgIIY3l/PnzggiTCaVSiUQi4fbt22YR5e3bt9O+fXueeeaZ33wNLViwYOH/j7i5ueHm5kZqaupvXtfOzg4/Pz+z3rF+fn4sWLAAhULBnj17mD17NpcuXeLatWt88cUXwvxCLBbTqVMnVq1aRXp6OseOHSMuLk5Qj4yOjsbR0ZF9+/YxdepUVq5cKfRKhKZ3yv0aBHK53Gz+IJVKBWXLf/7zn0KbCPhfUZf169cLtWwmA83KyoquXbsiEokeGZkxpb8OHTqU0aNHo9frycvLIzU1Fb1ej4uLC1OnTsXT0xMHBwekUiljx44V2lI8DhsbG6Kjo5sZAqb/RSKR2XfdunXjrbfeIjQ0FBcXF7Kzs7l69SqRkZG89957XL16lcTERD7++OOHRuAuX77Mzz//zNixYxk0aBA+Pj6MHTtWaNXh5ubWokM8Ozubf/7zn82cuIWFhVRWVhIaGsq2bduE0p89e/Zw6tQpHBwchJIRsVjM9u3b8fDwYODAgWbbMRqNbNiwgcWLFzNhwgQWLVr0UIPaysqKwMBAduzYQVFREZ988glt27Z9IoOqqKiIgwcPEh4eTmxsLDKZjJqaGlJSUoTU5MDAQJRKJe+88w4qlUrQ83gSAgMD6dWrF5s3b2bgwIFYW1tTUFBASUkJY8eOJSMjg7q6OsaOHUt4eDiffPIJ6enptG7d2uwe+3dgMQj/AnTp0oXXXnvNbKLc0NDA/v37H7me0WjE1taWp556im7dutGqVSvs7e2xs7N77MOmrq6Omzdv4unp+Zvkek3pEkePHqWoqIjY2Fj69euHn58fWq2WCxcu8O233zJ79mxmzJiBk5MTxcXFjB07lry8PKqqqtDr9URHR+Pg4IBcLmfTpk1s2LABaIqMPqxH4i+//MLw4cPp0qVLs+9qa2vZt28feXl5jxQPqa2t5R//+AdHjhzh5ZdfZtq0aQ8N+ycmJrJz504+//xzjh49ytixYzEYDHz//fdm0cTHkZOTw65du1i5ciUuLi5MmTKF9PR0vvjiC5YtW0ZDQwM2NjYt3uwSicSs36Crqyv9+/fnm2++eajnsnXr1kLue01NDYmJiUCTF3PUqFGcO3eONWvWMGvWLNRqtVAMrlariYqKYvr06bRr107Yv6OjIyUlJQ81mr28vJg6dSrW1ta4u7uzd+9eZs+eTXx8vNnv0GAwcPDgQbZs2SJ8dvPmTVatWsWZM2dwc3NDr9fTvn17ZDKZkCJrUn2F/3VkxMbG4uvri1KpNJsgyOVyEhISyMvLQyQSUVhYyLBhwwSjUCwWC32wTCII6enpdOzYkd69ez+016cFCxYsWHhy/Pz8eOmll5g/fz4vv/wy9fX1fPTRRzz11FPNatrS09OFdhKDBg3C2tpaUN4eNGgQd+/e5Z133iEmJobFixcL66pUKnbv3i0YKAqFgqefftpsHLa2thgMBhITE82EYKysrOjXrx/Lli0DmozH+8tLnkSVWiwW06VLFzp06ICjoyO5ubls3boVOzs73n//fQ4ePMiuXbt4/fXXhfrF3zqpf9CIEYvFvPTSS0gkEoqKisxUy11cXGjbtq3wrjal2gYFBREaGkpVVRUikYgOHTo89PhKSkpwcXGhdevWZsIwJlxdXVtU9SwvL8fKyqqZKMqFCxdwdXWlsrKS7777jm3bttHY2Eh9fb1wfbt3786xY8fIz8/H39+f3bt307ZtW7P9//DDD3zwwQeUl5eTlZXFiy++KMyB4+PjzbQ0JBKJIAj04Ycf8vbbb/PVV189dA5zPwaDgdTUVNasWUO3bt2E+s7s7Gy2bt0qOAG+/PJL3njjDT788ENhDE+CTCbjvffe48UXX+SZZ56hXbt2XLp0iYiICOLj48nKykIikeDh4YGfnx9SqRSVSvWniOJZDMI/Ga1Wy6+//spbb72FXq+noqICvV5PQkKC2Y1vMBjIz89nwYIFvP/++4jFYvbt22eWKieTyejRowfTp09/aJ70hQsX6NatW7OJbnl5Obdu3WL8+PGPTK3cvHkz8fHx+Pn58eOPP/Laa68Jip2Ojo6kpqaSmJiIt7e3oKjVv39/1q1bR2VlpVAw/eKLL9K3b19CQkKElgOlpaXY29vz3HPPMWPGDKBJ+fIf//hHi2MxGAzExsYyduzYZt+VlpaSlJT0yDqxtLQ05s+fT21tLcuXLyc+Pr5Zr5v7z8/7779Pv379iIyMRCQS4ejoyOLFi4UHw5OgUqlYuHAhbdq0YcqUKYhEIgIDA3n77be5dOkSKpWKurq6Zi0+HobBYKCmpgYrK6uHGvImr6bp737c3Nz48MMPKS4upqamBrVaLdQOmB7QgYGBZp7UgoICFAoF7du3b3F/9vb29O7dG5FIJHhqDx8+TG5ubrMI4YOiRp6ensyaNYvZs2fTvn177O3thR5EarWaZ599lnHjxgnR0/z8fEaOHIler8fOzo64uDjhJV9ZWcmKFStwcXGhVatWdOzYkczMTBoaGliyZInwQjY9YPfu3cvmzZvp1asXv/76K7du3eKFF174Q3oNWbBgwcL/Vc6dO8dXX30lpAQqFAoUCgWxsbHCM93b25sPP/wQDw8Pdu/ezZEjR+jWrRtpaWn8+uuvXL58mfT0dNq2bcv8+fO5fv06S5cu5fvvv2fAgAGCqvayZcs4d+4cL7/8MrGxsZw6dYrMzExyc3OxsrLCxcWFV155hcGDB7NgwQKGDRsmlETY2toyadIkPvroI2Hstra2ODg4oNfr+dvf/kZycjINDQ1kZmby+eefA01Rzddffx2DwdBilOnYsWMcOnSIuro6rl27Rrdu3R4aXbK2tqayspI1a9awe/duwsLCeO+994iIiKBDhw4sXryY/fv38+qrrzJr1qw/5P1iZ2fHhQsXOH36NIWFhfTp0wdra2tSUlJ4//338fLyEtpODBgw4JEZU9CkWZGcnExSUhKZmZmUl5c/NqhQU1PDihUrUKvViMVirl27ho+Pj1l2mUqlYteuXcTGxqJUKpk9ezYxMTGkpKRQVFTE008/LbzrS0pKGDVqFIMGDSIvL6/Z/j08PJgxY4agPmqKBFtbW7fYhsvOzo5x48ahVqt57733OHbsGFOnTn3kfBeayliWLVvGyZMnOX/+PGVlZfTs2ZMvvviCqKgoISobFhbGihUrmDdvHuvXr6dnz55PXFMYGxvLzp072b17N+Xl5cycOZMJEybg7e2NVCrlyJEjLF68GHt7e8rKypgxY8af4qy2zHz+ZCQSCR06dODDDz8EmibJ6enplJSU0L17dzw8PLh9+zY5OTksXLhQULWE5u0l7lcrbQm9Xs/zzz/P8uXLzZSL6urqOHToEEql8rH9CL/99lscHBx45plnGDFiBF26dEGn07Fjxw5iYmJo3749a9asISwsjMjISC5cuEB8fDzTp0/HysoKa2trZDIZixYtQq1Wc/XqVc6fP09RURHdu3dHKpXi7e0tRP2sra1brIsz8bDjvV8I50GOHz/O119/LUQYd+zYgY+PzyPTB86cOYNOp+ONN94wa3Hg7OxM69ataWho4NixY0K0KS0trZlBp9Vqef3110lNTeXs2bOCZ1AqldK1a1e6dOlCQUEBNTU1+Pv7N7vhdTodCxYsYPDgwYwZM0aoGVi9ejXu7u5ERka2OHaT4qpSqaSiosLMsyQWi4VG9Dt37sTKygo3Nzc0Gg3l5eXIZLJmx3H48GHc3d0f2q6kpbQaU6H+w1JdTJh6+5jGnZ6ezpUrV4iKikKlUmFjYyPUhgJmYzPVXUqlUq5du8aSJUuorq5m+fLlbNiwgaCgIJYsWcK8efMYMGAA69atE9JQioqKyMjIYOHChYwaNYp9+/Zx48YNSkpKzJwuFixYsPDfQuvWrYmNjSU0NJRu3bpRV1f30GVNqaJ6vR4bGxv69evHmDFjkMvl1NfXM3z4cD799FNCQkKESXhVVRUnTpzg2rVreHl54enpyTvvvMOCBQsICgqisrKSS5cuIZfLefnll4mOjhYcm506deLYsWPcuHEDDw8PdDodkyZNQqlU4uPj0+IYJ0yYQEREBDqdjujoaOGdKRKJzBRHH8Tf35+AgABsbW2ZOXMm48ePN4seSiQSgoODhbmKTqfDxcWFJUuWEBcXJ3w+cuRIYmJi2Lt3L507d37oHMXBwYEuXbo8NvPIpClgqv8rKipiyJAhxMfHI5PJ0Ol0ZGVlCermY8aMYerUqcLc0c3Njf79+zd7D1tZWVFXV8fJkyextbVlwoQJLbaYuh+ZTEa7du24ceMGWq2WYcOGMWLECLP3p42NDS+99BJdunShVatWwpygc+fO/PLLLxQVFaHX6xGJRHh7e9OpUydcXFzo1atXszEOHTq0RSX2x43xueeeIzo6WtA7eBxisRhPT0+mTJnClClThM9bitSGh4ezb98+6uvrf5PAjEwmo3v37kRHRzfbvoeHB3//+99JSEigpqaG2NhY4dz9u7EYhH8yYrEYb29v+vfvT25uLlu2bOHw4cN06dKFzp0707lzZw4dOsTu3bs5fPgwo0eP5qWXXiI4ONgsmmV6SFZUVFBRUdGi9+Ds2bMolUqhwNcUXdq6dSs//vgjixYtIjQ0VFje1OtHoVCgVCpRqVSUl5fj7e0tKIUmJSWxZs0aOnXqRKdOnVAoFBgMBiHyVV1dzbRp0xgxYgTz588X2mrMmjWL9PR0rKys6N27N4MHDyYgIIC0tDQ0Go1QGK1SqYT+fxqNxizyqdPp+Omnn5opckGTMZGRkWGWTmo0Glm1ahVLly5l8uTJtG3blqqqKg4dOkTv3r1xcXHB2toanU5HY2MjSqWS2tpaPD09GTlyJIMHD8bNza1FcR+9Xi80ZIemF52NjY0w1nv37vHuu+9y9OhRvvvuO0JCQoR1DQaDINZSWFjIvXv3WvRAGgwG3NzcmDVrFqtXr6Z169YkJSWh0Wj4/PPPH5r+sGXLFtavXy9s7/5zotFo0Gq1VFZWkpaWhoeHB66uruTl5VFcXEzfvn3NPKa1tbVs3bqViRMnIpFInjht4bnnnmPs2LFmLU8MBgO7d+82EwQoKChg48aNHD9+nPz8fOEha5LYzs/PF343gFmarOnl991333H06FFiY2P57LPPCA8PZ/PmzQAEBwdz5swZli9fzpgxY+jbty9z584lKioKW1tbamtrUalUKBQK9Hr9n6LkZcGCBQt/Rbp27fovCW/Nnj3b7P+HSfP/f+3dX0hT/x/H8dfZlraMOVCpQWRRI/qHF6Ot3YQZ5Ayp6CLGLrKCLgLNwosiDERiBQUVhmB50R+wLrroDyyoK7sNwZCIZFQuZjSmhVosatv3QnZwP53fvr/f9/eFL+f5AG+OnJ2zc8bG6/P5nPe7urpakUhEkUjE3Db3kYiamhodP3685HHKysrM3zOHw2EWvSklEAiYrYj+ii1btixYR6GgvLy86D3U1tYu2Ce4UJTv2LFjix5v5cqVZnunxaxatUoPHz6UJIVCIYVCoaL/Hz16dNH9N2zYsGD1epvNpqamJjU1Nf3pORQsX758wZZncxmGsWAvR4fDIb/fL7/fX3K/39n2OwzD+K96b//O8Ww2W8kltP/LMVwu118uVvN3IBD+w7LZrIaHhxWNRjUyMqK6ujpdv35d9fX1Zqhrbm5WY2OjBgcHdePGDYVCIe3bt08XL140R6ncbrd8Pp86Ozvl9/vldDqLPlzZbFYzMzNmryBpdm14a2ur4vG4Ojo6dOTIkaJz83g8+vjxo06ePCmXy6WpqSmzBPTExITC4bDS6bTa29u1a9cuPXnyRK9fv9aHDx+0fft2rV27VpcvX9b+/fsVjUbV2tqq/v5+VVVVaffu3eru7pbP59PSpUs1NDSktrY2TU5Oymaz6fnz55Jmg8OnT5/U2dmpVCqlgwcPmtelvLxc79+/n1cGWppd8vD9+/ei2cN0Oq0HDx7o7Nmz6ujo0JcvX9Tb26u+vj51dXUpl8uZ/Rrn/p0+fVotLS3maJ1hGHI6nWa4sdvtqq2tVTAYNMtdP378WK9evZLT6VQmk9G5c+c0PDys27dva8eOHUX3JplMqr29XdlsVul0WhUVFQvO9pWVlam7u1t79uxRLBZTKpVSS0uL9u7dW/ILrqKiQuWeRSkAAAN2SURBVGfOnNGhQ4eKlpQ6HA5ls1n19/drYGBAuVxO2WxWJ06ckM1mUzwel81m07p164pC0c2bNzUzM6O2tjZzm91un/d5KyjM2s19jXw+rwsXLujbt296+/btvFHQqqoqRSIRs5hRZWWlDMNQT0+Penp6inof5nI5s/hMKpXS3bt3NTo6qkuXLqmxsdGcQSwsSzYMQ8uWLdP58+d14MABXb16Vbdu3VJfX5+2bdumK1eumBVzw+Fw0VJZAAAAKzDypTp24/+iUGkxFospEAho06ZNi85K5PN5vXjxQslkUuFweF4l0s+fP2tsbEw/fvwoqq5lGIbcbrc2btxoLlXMZDK6d++egsHgvMah0mwYGxkZUSKR0K9fv2S327V161azJ8zg4KA2b96s6upqTU5O6unTpxodHZXX69XOnTuLRvomJiaUTqdLTtOn02m9fPly0Wvl9Xq1Zs0ac819NBpVc3Pzgn1npqen9ezZM3k8Hvn9fnOfeDxe9BrS7CxZKpXS1NSUOStUWN7qdDrlcrmKgmUmk1FXV5dOnTplzsoVZkVLjfC8efNGlZWVWrFixbz7Oz09rVgspvHxcbOKmM/n+62H2P/M2NiYDMOQx+OZd93z+bySyaSGhoaUz+e1evVq1dXVyW63a3x8XIlEouiBdGm2omw6nVZDQ4NsNpvy+bwSiYQePXpkFg2a6+vXr7p//76CwWBRH8Le3l4lEgm53W41NDSUHBmc69q1awoEAuY5SrPPLdy5c0eHDx9WTU2N2TvzPx/UHxgYkNvtVn19/YJLeZcsWaKfP3/q3bt3isfjWr9+vbxe799yDwAAAP5NCIQAAAAAYFEMhwMAAACARREIAQAAAMCiCIQAAAAAYFEEQgAAAACwKAIhAAAAAFgUgRAAAAAALIpACAAAAAAWRSAEAAAAAIsiEAIAAACARREIAQAAAMCiCIQAAAAAYFEEQgAAAACwKAIhAAAAAFgUgRAAAAAALIpACAAAAAAWRSAEAAAAAIsiEAIAAACARREIAQAAAMCiCIQAAAAAYFEEQgAAAACwKAIhAAAAAFgUgRAAAAAALIpACAAAAAAWRSAEAAAAAIsiEAIAAACARREIAQAAAMCiCIQAAAAAYFEEQgAAAACwKAIhAAAAAFgUgRAAAAAALIpACAAAAAAWRSAEAAAAAIv6A7awVBqMyFx2AAAAAElFTkSuQmCC;" vertex="1" parent="1">
          <mxGeometry x="611" y="660" width="510" height="344.53" as="geometry" />
        </mxCell>
      </root>
    </mxGraphModel>
  </diagram>
</mxfile>
